<svg version="1.1" id="Layer_1" xmlns="http://www.w3.org/2000/svg" x="0" y="0" viewBox="0 0 100 70" xml:space="preserve"><style>.st3{display:inline;fill:#c3c7ca}.st4{fill:#c4c8cb}</style><path d="M13 73.5c-1.4 0-2.5-1.1-2.5-2.5V13c0-1.4 1.1-2.5 2.5-2.5h74c1.4 0 2.5 1.1 2.5 2.5v58c0 1.4-1.1 2.5-2.5 2.5H13z" fill="#fff"/><path d="M87 11c1.1 0 2 .9 2 2v58c0 1.1-.9 2-2 2H13c-1.1 0-2-.9-2-2V13c0-1.1.9-2 2-2h74m0-1H13c-1.7 0-3 1.3-3 3v58c0 1.7 1.3 3 3 3h74c1.6 0 3-1.3 3-3V13c0-1.7-1.4-3-3-3z" fill="#565d66"/><path class="st4" d="M44.3 43.3h-1.7v-7.1c0-.1-.1-.2-.2-.2H40c-.1 0-.1 0-.1.1l-4.2 7.3v1.8c0 .1.1.2.2.2h4.6v2.5c0 .1.1.2.2.2h1.9c.1 0 .2-.1.2-.2v-2.5h1.7c.1 0 .2-.1.2-.2v-1.7c-.3-.2-.4-.2-.4-.2zm-6.5 0l2.6-4.5v4.5h-2.6zM49.8 35.8c-3 0-4.1 3.3-4.1 6.2 0 2.9 1.1 6.2 4.1 6.2 3 0 4.1-3.3 4.1-6.2.1-2.9-1-6.2-4.1-6.2zm0 10.4c-1.2 0-1.8-1.4-1.8-4.2 0-2.8.6-4.2 1.8-4.2 1.2 0 1.8 1.4 1.8 4.2.1 2.8-.5 4.2-1.8 4.2zM64.2 43.3h-1.7v-7.1c0-.1-.1-.2-.2-.2h-2.5c-.1 0-.1 0-.1.1l-4.2 7.3v1.8c0 .1.1.2.2.2h4.6v2.5c0 .1.1.2.2.2h1.9c.1 0 .2-.1.2-.2v-2.5h1.7c.1 0 .2-.1.2-.2v-1.7c-.1-.2-.2-.2-.3-.2zm-6.4 0l2.6-4.5v4.5h-2.6z"/><path class="st4" d="M66.2 30.4H33.8c-2.1 0-3.8 1.7-3.8 3.8v15.6c0 2.1 1.7 3.8 3.8 3.8h32.5c2.1 0 3.8-1.7 3.8-3.8V34.2c-.1-2.1-1.8-3.8-3.9-3.8zM68 50.3c0 .7-.6 1.3-1.3 1.3H33.3c-.7 0-1.3-.6-1.3-1.3V33.7c0-.7.6-1.3 1.3-1.3h33.5c.7 0 1.3.6 1.3 1.3v16.6z"/></svg>