<svg id="Layer_1" xmlns="http://www.w3.org/2000/svg" viewBox="0 0 100 70"><style>.st2{fill:#e6e7e8}.st3{fill:#fff;stroke:#565d66;stroke-linecap:round;stroke-miterlimit:10}</style><path d="M13 73.4c-1.4 0-2.5-1.3-2.5-3V-.1c0-1.7 1.1-3 2.5-3h74c1.4 0 2.5 1.3 2.5 3v70.5c0 1.7-1.1 3-2.5 3H13z" fill="#fff"/><path d="M87-2.5c1.1 0 2 1.1 2 2.4v70.5c0 1.3-.9 2.4-2 2.4H13c-1.1 0-2-1.1-2-2.4V-.1c0-1.3.9-2.4 2-2.4h74m0-1.2H13c-1.7 0-3 1.6-3 3.6v70.5c0 2.1 1.3 3.6 3 3.6h74c1.6 0 3-1.6 3-3.6V-.1c0-2.1-1.4-3.6-3-3.6z" fill="#565d66"/><path class="st2" d="M58.8 28.5H41.2c-.5 0-.9-.5-.9-1s.4-1 .9-1h17.7c.5 0 .9.5.9 1s-.5 1-1 1zM67 31.5H33c-.3 0-.5-.2-.5-.5s.2-.5.5-.5h34c.3 0 .5.2.5.5s-.2.5-.5.5zM70.9 34.5H51.5c-.3 0-.5-.2-.5-.5s.2-.5.5-.5h19.4c.3 0 .5.2.5.5s-.2.5-.5.5zM48.5 34.5H29.1c-.3 0-.5-.2-.5-.5s.2-.5.5-.5h19.4c.3 0 .5.2.5.5s-.2.5-.5.5zM45.8 37.5h-14c-.3 0-.5-.2-.5-.5s.2-.5.5-.5h14c.3 0 .5.2.5.5s-.2.5-.5.5zM68.2 37.5H48.8c-.3 0-.5-.2-.5-.5s.2-.5.5-.5h19.4c.3 0 .5.2.5.5s-.2.5-.5.5zM62 40.5H38c-.3 0-.5-.2-.5-.5s.2-.5.5-.5h24c.3 0 .5.2.5.5s-.2.5-.5.5z"/><circle class="st2" cx="38" cy="45.5" r="2"/><circle class="st2" cx="46" cy="45.5" r="2"/><circle class="st2" cx="54" cy="45.5" r="2"/><circle class="st2" cx="62" cy="45.5" r="2"/><path class="st3" d="M18 52h64M18 18h22.8M59.2 18H82"/><g><circle class="st2" cx="50" cy="18" r="5"/></g></svg>