<svg id="Layer_1" xmlns="http://www.w3.org/2000/svg" viewBox="0 0 100 70"><style>.st2{fill:#e6e7e8}</style><path d="M87.5 52h-75c-1.1 0-2-.9-2-2V20c0-1.1.9-2 2-2h75c1.1 0 2 .9 2 2v30c0 1.1-.9 2-2 2z" fill="#fff" stroke="#565d66" stroke-miterlimit="10"/><path d="M51.7 25.5H34.1c-.5 0-.9-.5-.9-1s.4-1 .9-1h17.7c.5 0 .9.5.9 1s-.4 1-1 1z" fill="#e6e7e8"/><circle class="st2" cx="22.2" cy="28.5" r="5"/><path class="st2" d="M67.7 30.5h-34c-.3 0-.5-.2-.5-.5s.2-.5.5-.5h34c.3 0 .5.2.5.5s-.2.5-.5.5zM75.6 33.5H56.2c-.3 0-.5-.2-.5-.5s.2-.5.5-.5h19.4c.3 0 .5.2.5.5s-.2.5-.5.5zM53.2 33.5H33.7c-.3 0-.5-.2-.5-.5s.2-.5.5-.5h19.4c.3 0 .5.2.5.5.1.3-.1.5-.4.5zM47.7 36.5h-14c-.3 0-.5-.2-.5-.5s.2-.5.5-.5h14c.3 0 .5.2.5.5s-.2.5-.5.5zM70.2 36.5H50.7c-.3 0-.5-.2-.5-.5s.2-.5.5-.5h19.4c.3 0 .5.2.5.5.1.3-.1.5-.4.5zM57.7 39.5h-24c-.3 0-.5-.2-.5-.5s.2-.5.5-.5h24c.3 0 .5.2.5.5s-.2.5-.5.5z"/><circle class="st2" cx="35.2" cy="45.5" r="2"/><circle class="st2" cx="43.2" cy="45.5" r="2"/><circle class="st2" cx="51.2" cy="45.5" r="2"/><circle class="st2" cx="59.2" cy="45.5" r="2"/></svg>