<svg version="1.1" id="Layer_1" xmlns="http://www.w3.org/2000/svg" x="0" y="0" viewBox="0 0 100 70" xml:space="preserve"><style>.st0{fill:#fff}</style><path class="st0" d="M13 73.5c-1.4 0-2.5-1.1-2.5-2.5V13c0-1.4 1.1-2.5 2.5-2.5h74c1.4 0 2.5 1.1 2.5 2.5v58c0 1.4-1.1 2.5-2.5 2.5H13z"/><path d="M11 11h78v14H11V11z" fill="#edeff0"/><path d="M87 11c1.1 0 2 .9 2 2v58c0 1.1-.9 2-2 2H13c-1.1 0-2-.9-2-2V13c0-1.1.9-2 2-2h74m0-1H13c-1.7 0-3 1.3-3 3v58c0 1.7 1.3 3 3 3h74c1.6 0 3-1.3 3-3V13c0-1.7-1.4-3-3-3z" fill="#565d66"/><path d="M20.5 16.6c.5-.9 1.4-1.4 2.4-1.4.7 0 1.3.3 1.8.7-.1 0-.3 0-.4.1-.4.2-.5.8 0 1.1.3.2.4.6.4.9s-.7 1.5-.7 1.5l-.6-2.2v-.2c0-.1 0-.1.1-.2l.1-.1h.3v-.2h-1.8v.2h.1c.1 0 .1.1.2.1.1.1.1.3.2.5l.2.8-.5 1.2-.6-2.3s0-.2.1-.2l.1-.1v-.2h-1.4zm.3.4s-.1-.2-.3-.2h-.1c-.1.3-.2.7-.2 1.1 0 1.1.7 2.1 1.7 2.5L20.8 17zm4.5-.4c.1.2 0 .5-.1.9-.3.9-.9 2.4-1.2 3 1-.4 1.6-1.4 1.6-2.5.1-.5-.1-1-.3-1.4M23 18.9l-.7 1.7c.2 0 .4.1.6.1s.5 0 .7-.1l-.6-1.7z" opacity=".6" fill="#4f5459"/><path d="M80.6 42.9h-14c-.6 0-1-.5-1-1v-18c0-.5.4-1 1-1h14c.6 0 1 .5 1 1v18c0 .5-.5 1-1 1z" fill="#8e9295"/><path class="st0" d="M77.9 28.2h-8.6c-.4 0-.7-.3-.7-.7 0-.4.3-.7.7-.7h8.6c.4 0 .7.3.7.7 0 .4-.3.7-.7.7zm-.1 5.5h-8.6c-.4 0-.7-.3-.7-.7s.3-.7.7-.7h8.6c.4 0 .7.3.7.7 0 .3-.3.7-.7.7zm.1 5.4h-8.6c-.4 0-.7-.3-.7-.7s.3-.7.7-.7h8.6c.4 0 .7.3.7.7s-.3.7-.7.7z"/><path d="M71.6 16c-.1 0-.2.1-.2.2s.1.2.2.2h.3s.1 0 .1.1l.7 2.3c.1.2.2.3.5.3h1.7c.2 0 .4-.1.5-.4l.4-1.5c0-.1 0-.2-.1-.2h-3.1l-.2-.7c0-.2-.2-.3-.4-.3h-.4zm1.6 3.4c-.2 0-.3.1-.3.3 0 .2.1.3.3.3.2 0 .3-.1.3-.3 0-.2-.1-.3-.3-.3zm1.6 0c-.2 0-.3.1-.3.3 0 .2.1.3.3.3.2 0 .3-.1.3-.3 0-.2-.1-.3-.3-.3z" fill="#4f5459"/></svg>