<svg version="1.1" id="Layer_1" xmlns="http://www.w3.org/2000/svg" x="0" y="0" viewBox="0 0 100 70" xml:space="preserve"><style>.st0{fill:#fff}</style><path class="st0" d="M13 73.5c-1.4 0-2.5-1.1-2.5-2.5V13c0-1.4 1.1-2.5 2.5-2.5h74c1.4 0 2.5 1.1 2.5 2.5v58c0 1.4-1.1 2.5-2.5 2.5H13z"/><path d="M11 11h78v14H11V11z" fill="#edeff0"/><path d="M89.5 70H63.4V10.4H87c1.4 0 2.5 1.1 2.5 2.5V70z" fill="#8e9295"/><path d="M87 11c1.1 0 2 .9 2 2v58c0 1.1-.9 2-2 2H13c-1.1 0-2-.9-2-2V13c0-1.1.9-2 2-2h74m0-1H13c-1.7 0-3 1.3-3 3v58c0 1.7 1.3 3 3 3h74c1.6 0 3-1.3 3-3V13c0-1.7-1.4-3-3-3z" fill="#565d66"/><path d="M20.5 16.6c.5-.9 1.4-1.4 2.4-1.4.7 0 1.3.3 1.8.7-.1 0-.3 0-.4.1-.4.2-.5.8 0 1.1.3.2.4.6.4.9s-.7 1.5-.7 1.5l-.6-2.2v-.2c0-.1 0-.1.1-.2l.1-.1h.3v-.2h-1.8v.2h.1c.1 0 .1.1.2.1.1.1.1.3.2.5l.2.8-.5 1.2-.6-2.3s0-.2.1-.2l.1-.1v-.2h-1.4zm.3.4s-.1-.2-.3-.2h-.1c-.1.3-.2.7-.2 1.1 0 1.1.7 2.1 1.7 2.5L20.8 17zm4.5-.4c.1.2 0 .5-.1.9-.3.9-.9 2.4-1.2 3 1-.4 1.6-1.4 1.6-2.5.1-.5-.1-1-.3-1.4M23 18.9l-.7 1.7c.2 0 .4.1.6.1s.5 0 .7-.1l-.6-1.7z" opacity=".6" fill="#4f5459"/><path class="st0" d="M77.7 18.4h-9c-.4 0-.7-.3-.7-.7 0-.4.3-.8.7-.8h9c.4 0 .8.3.8.8-.1.4-.4.7-.8.7zm-9.7 3h5v5h-5v-5zm16.5 1.8h-10c-.3 0-.5-.2-.5-.5s.2-.5.5-.5h10c.3 0 .5.2.5.5s-.2.5-.5.5zm-3.2 2.4h-6.8c-.3 0-.5-.2-.5-.5s.2-.5.5-.5h6.8c.3 0 .5.2.5.5s-.3.5-.5.5zM68 28.4h5v5h-5v-5zm16.5 1.8h-10c-.3 0-.5-.2-.5-.5s.2-.5.5-.5h10c.3 0 .5.2.5.5s-.2.5-.5.5zm-3.2 2.4h-6.8c-.3 0-.5-.2-.5-.5s.2-.5.5-.5h6.8c.3 0 .5.2.5.5s-.3.5-.5.5zM68 35.4h5v5h-5v-5zm16.5 1.8h-10c-.3 0-.5-.2-.5-.5s.2-.5.5-.5h10c.3 0 .5.2.5.5s-.2.5-.5.5zm-3.2 2.4h-6.8c-.3 0-.5-.2-.5-.5s.2-.5.5-.5h6.8c.3 0 .5.2.5.5s-.3.5-.5.5zM68 42.4h5v5h-5v-5zm16.5 1.8h-10c-.3 0-.5-.2-.5-.5s.2-.5.5-.5h10c.3 0 .5.2.5.5s-.2.5-.5.5zm-3.2 2.4h-6.8c-.3 0-.5-.2-.5-.5s.2-.5.5-.5h6.8c.3 0 .5.2.5.5s-.3.5-.5.5zm3.7 8.6c0-1.1-.9-1.9-1.9-1.9H69.9c-1.1 0-1.9.9-1.9 1.9 0 1.1.9 1.9 1.9 1.9H83c1.1.1 2-.8 2-1.9zm0 6c0-1.1-.9-1.9-1.9-1.9H69.9c-1.1 0-1.9.9-1.9 1.9 0 1.1.9 1.9 1.9 1.9H83c1.1.1 2-.8 2-1.9z"/></svg>