<svg id="Layer_1" xmlns="http://www.w3.org/2000/svg" viewBox="0 0 100 70"><style>.st2{fill:#c3c7ca}.st3{fill:#e6e7e8}</style><path d="M13 73.5c-1.4 0-2.5-1.1-2.5-2.5V13c0-1.4 1.1-2.5 2.5-2.5h74c1.4 0 2.5 1.1 2.5 2.5v58c0 1.4-1.1 2.5-2.5 2.5H13z" fill="#fff"/><path d="M87 11c1.1 0 2 .9 2 2v58c0 1.1-.9 2-2 2H13c-1.1 0-2-.9-2-2V13c0-1.1.9-2 2-2h74m0-1H13c-1.7 0-3 1.3-3 3v58c0 1.7 1.3 3 3 3h74c1.6 0 3-1.3 3-3V13c0-1.7-1.4-3-3-3z" fill="#565d66"/><path class="st2" d="M77.5 36h-55c-.3 0-.5-.2-.5-.5v-19c0-.3.2-.5.5-.5h55c.3 0 .5.2.5.5v19c0 .3-.2.5-.5.5zM56 41H23c-.5 0-1-.5-1-1s.4-1 1-1h33c.5 0 1 .5 1 1s-.5 1-1 1z"/><path class="st3" d="M77.5 45h-55c-.3 0-.5-.2-.5-.5s.2-.5.5-.5h55c.3 0 .5.2.5.5s-.2.5-.5.5zM77.5 48h-55c-.3 0-.5-.2-.5-.5s.2-.5.5-.5h55c.3 0 .5.2.5.5s-.2.5-.5.5z"/><path class="st2" d="M77.5 73h-55c-.3 0-.5-.2-.5-.5v-19c0-.3.2-.5.5-.5h55c.3 0 .5.2.5.5v19c0 .3-.2.5-.5.5z"/></svg>