<svg id="Layer_1" xmlns="http://www.w3.org/2000/svg" viewBox="0 0 100 70"><style>.st2{fill:#c3c7ca}.st3{fill:#e6e7e8}</style><path d="M13 73.5c-1.4 0-2.5-1.1-2.5-2.5V13c0-1.4 1.1-2.5 2.5-2.5h74c1.4 0 2.5 1.1 2.5 2.5v58c0 1.4-1.1 2.5-2.5 2.5H13z" fill="#fff"/><path d="M87 11c1.1 0 2 .9 2 2v58c0 1.1-.9 2-2 2H13c-1.1 0-2-.9-2-2V13c0-1.1.9-2 2-2h74m0-1H13c-1.7 0-3 1.3-3 3v58c0 1.7 1.3 3 3 3h74c1.6 0 3-1.3 3-3V13c0-1.7-1.4-3-3-3z" fill="#565d66"/><path class="st2" d="M38.5 65h-16c-.3 0-.5-.2-.5-.5v-15c0-.3.2-.5.5-.5h16c.3 0 .5.2.5.5v15c0 .3-.2.5-.5.5zM58 65H42c-.3 0-.5-.2-.5-.5v-15c0-.3.2-.5.5-.5h16c.3 0 .5.2.5.5v15c0 .3-.2.5-.5.5zM38 71H23c-.5 0-1-.4-1-1s.4-1 1-1h15c.5 0 1 .4 1 1s-.5 1-1 1z"/><path class="st3" d="M38.5 75h-16c-.3 0-.5-.2-.5-.5s.2-.5.5-.5h16c.3 0 .5.2.5.5s-.2.5-.5.5zM38.5 78h-16c-.3 0-.5-.2-.5-.5s.2-.5.5-.5h16c.3 0 .5.2.5.5s-.2.5-.5.5z"/><path class="st2" d="M77.5 65h-16c-.3 0-.5-.2-.5-.5v-15c0-.3.2-.5.5-.5h16c.3 0 .5.2.5.5v15c0 .3-.2.5-.5.5zM57.5 71h-15c-.5 0-1-.4-1-1s.5-1 1-1h15c.5 0 1 .4 1 1s-.5 1-1 1z"/><path class="st3" d="M58 75H42c-.3 0-.5-.2-.5-.5s.2-.5.5-.5h16c.3 0 .5.2.5.5s-.2.5-.5.5zM58 78H42c-.3 0-.5-.2-.5-.5s.2-.5.5-.5h16c.3 0 .5.2.5.5s-.2.5-.5.5z"/><path class="st2" d="M77 71H62c-.5 0-1-.4-1-1s.5-1 1-1h15c.6 0 1 .4 1 1s-.4 1-1 1z"/><path class="st3" d="M77.5 75h-16c-.3 0-.5-.2-.5-.5s.2-.5.5-.5h16c.3 0 .5.2.5.5s-.2.5-.5.5zM77.5 78h-16c-.3 0-.5-.2-.5-.5s.2-.5.5-.5h16c.3 0 .5.2.5.5s-.2.5-.5.5z"/><path class="st2" d="M48.2 32H22.5c-.3 0-.5-.2-.5-.5v-15c0-.3.2-.5.5-.5h25.8c.3 0 .5.2.5.5v15c0 .3-.3.5-.6.5zM47.8 38H23c-.5 0-1-.5-1-1s.4-1 1-1h24.7c.5 0 1 .5 1 1 .1.5-.4 1-.9 1z"/><path class="st3" d="M48.2 42H22.5c-.3 0-.5-.2-.5-.5s.2-.5.5-.5h25.8c.3 0 .5.2.5.5s-.3.5-.6.5zM48.3 45H22.5c-.3 0-.5-.2-.5-.5s.2-.5.5-.5h25.8c.3 0 .5.2.5.5s-.3.5-.5.5z"/><path class="st2" d="M77.5 32H51.8c-.3 0-.5-.2-.5-.5v-15c0-.3.2-.5.5-.5h25.8c.3 0 .5.2.5.5v15c-.1.3-.3.5-.6.5zM77 38H52.3c-.5 0-1-.5-1-1s.5-1 1-1H77c.6 0 1 .5 1 1s-.4 1-1 1z"/><path class="st3" d="M77.5 42H51.8c-.3 0-.5-.2-.5-.5s.2-.5.5-.5h25.8c.3 0 .5.2.5.5-.1.3-.3.5-.6.5zM77.5 45H51.8c-.3 0-.5-.2-.5-.5s.2-.5.5-.5h25.8c.3 0 .5.2.5.5-.1.3-.3.5-.6.5z"/></svg>