<?xml version="1.0" encoding="utf-8"?>
<!-- Generator: Adobe Illustrator 25.2.3, SVG Export Plug-In . SVG Version: 6.00 Build 0)  -->
<svg version="1.1" id="Layer_1" xmlns="http://www.w3.org/2000/svg" xmlns:xlink="http://www.w3.org/1999/xlink" x="0px" y="0px"
	 viewBox="0 0 100 70" style="enable-background:new 0 0 100 70;" xml:space="preserve">
<style type="text/css">
	.st0{fill:#FFFFFF;}
	.st1{fill:#565D66;}
	.st2{opacity:0.7;fill:#EEEEEF;}
	.st3{fill:#C3C7CA;}
</style>
<path class="st0" d="M13,73.5c-1.4,0-2.5-1.1-2.5-2.5V13c0-1.4,1.1-2.5,2.5-2.5h74c1.4,0,2.5,1.1,2.5,2.5v58c0,1.4-1.1,2.5-2.5,2.5
	H13z"/>
<path class="st1" d="M87,11c1.1,0,2,0.9,2,2v58c0,1.1-0.9,2-2,2H13c-1.1,0-2-0.9-2-2V13c0-1.1,0.9-2,2-2H87 M87,10H13
	c-1.7,0-3,1.3-3,3v58c0,1.7,1.3,3,3,3h74c1.6,0,3-1.3,3-3V13C90,11.3,88.6,10,87,10z"/>
<path class="st2" d="M38.5,56h-16c-0.3,0-0.5,0.2-0.5,0.5s0.2,0.5,0.5,0.5h16c0.3,0,0.5-0.2,0.5-0.5S38.8,56,38.5,56z M38.5,59h-16
	c-0.3,0-0.5,0.2-0.5,0.5s0.2,0.5,0.5,0.5h16c0.3,0,0.5-0.2,0.5-0.5S38.8,59,38.5,59z M58,59H42c-0.3,0-0.5,0.2-0.5,0.5
	S41.7,60,42,60h16c0.3,0,0.5-0.2,0.5-0.5S58.3,59,58,59z M58,56H42c-0.3,0-0.5,0.2-0.5,0.5S41.7,57,42,57h16c0.3,0,0.5-0.2,0.5-0.5
	S58.3,56,58,56z M77.5,59h-16c-0.3,0-0.5,0.2-0.5,0.5s0.2,0.5,0.5,0.5h16c0.3,0,0.5-0.2,0.5-0.5S77.8,59,77.5,59z M77.5,56h-16
	c-0.3,0-0.5,0.2-0.5,0.5s0.2,0.5,0.5,0.5h16c0.3,0,0.5-0.2,0.5-0.5S77.8,56,77.5,56z M38.5,31h-16c-0.3,0-0.5,0.2-0.5,0.5v15
	c0,0.3,0.2,0.5,0.5,0.5h16c0.3,0,0.5-0.2,0.5-0.5v-15C39,31.2,38.8,31,38.5,31z M38,51H23c-0.6,0-1,0.5-1,1s0.5,1,1,1h15
	c0.5,0,1-0.5,1-1S38.5,51,38,51z M58,31H42c-0.3,0-0.5,0.2-0.5,0.5v15c0,0.3,0.2,0.5,0.5,0.5h16c0.3,0,0.5-0.2,0.5-0.5v-15
	C58.5,31.2,58.3,31,58,31z M77.5,31h-16c-0.3,0-0.5,0.2-0.5,0.5v15c0,0.3,0.2,0.5,0.5,0.5h16c0.3,0,0.5-0.2,0.5-0.5v-15
	C78,31.2,77.8,31,77.5,31z M57.5,51h-15c-0.5,0-1,0.5-1,1s0.5,1,1,1h15c0.5,0,1-0.5,1-1S58,51,57.5,51z M77,51H62c-0.5,0-1,0.5-1,1
	s0.5,1,1,1h15c0.6,0,1-0.5,1-1S77.6,51,77,51z M38.5,64h-16c-0.3,0-0.5,0.2-0.5,0.5v15c0,0.3,0.2,0.5,0.5,0.5h16
	c0.3,0,0.5-0.2,0.5-0.5v-15C39,64.2,38.8,64,38.5,64z M58,64H42c-0.3,0-0.5,0.2-0.5,0.5v15c0,0.3,0.2,0.5,0.5,0.5h16
	c0.3,0,0.5-0.2,0.5-0.5v-15C58.5,64.2,58.3,64,58,64z M77.5,64h-16c-0.3,0-0.5,0.2-0.5,0.5v15c0,0.3,0.2,0.5,0.5,0.5h16
	c0.3,0,0.5-0.2,0.5-0.5v-15C78,64.2,77.8,64,77.5,64z"/>
<path class="st3" d="M42.6,22.4c-0.1,0.4-0.4,0.8-0.8,0.8h-5.4c-0.4,0-0.7-0.3-0.7-0.8c0-0.4,0.3-0.7,0.7-0.7h5.4
	C42.2,21.7,42.6,22,42.6,22.4z M52.7,21.7h-5.4c-0.4,0-0.7,0.3-0.7,0.7c0,0.5,0.3,0.8,0.7,0.8h5.4c0.4,0,0.8-0.4,0.7-0.8
	C53.4,22,53.1,21.7,52.7,21.7z M63.7,21.7h-5.4c-0.5,0-0.8,0.3-0.8,0.7c0,0.5,0.4,0.8,0.8,0.8h5.4c0.4,0,0.7-0.4,0.7-0.8
	C64.4,22,64.1,21.7,63.7,21.7z"/>
</svg>
