<svg xmlns="http://www.w3.org/2000/svg" viewBox="0 0 100 70"><path d="M13 73.5c-1.4 0-2.5-1.1-2.5-2.5V13c0-1.4 1.1-2.5 2.5-2.5h74c1.4 0 2.5 1.1 2.5 2.5v58c0 1.4-1.1 2.5-2.5 2.5H13z" fill="#fff"/><path d="M71.7 45.4H60.5c-.3 0-.5-.2-.5-.5s.2-.5.5-.5h11.2c.3 0 .5.2.5.5s-.2.5-.5.5zm-16.2-32h-33c-.3 0-.5 0-.5-.1v-3.2s.2-.1.5-.1h33c.3 0 .5 0 .5.1v3.2c0 .1-.2.1-.5.1zm-13.3 5H23c-.5 0-1-.5-1-1s.4-1 1-1h19.3c.5 0 1 .5 1 1-.1.5-.5 1-1.1 1zm13.3 4h-33c-.3 0-.5-.2-.5-.5s.2-.5.5-.5h33c.3 0 .5.2.5.5s-.2.5-.5.5zm0 3h-33c-.3 0-.5-.2-.5-.5s.2-.5.5-.5h33c.3 0 .5.2.5.5s-.2.5-.5.5zm0 24h-33c-.3 0-.5-.2-.5-.5v-19c0-.3.2-.5.5-.5h33c.3 0 .5.2.5.5v19c0 .3-.2.5-.5.5zM60 10.5h5v4.4h-5v-4.4zm17.5 1.2h-11c-.3 0-.5-.2-.5-.5s.2-.5.5-.5h11c.3 0 .5.2.5.5s-.2.5-.5.5zM74 14.1h-7.5c-.3 0-.5-.2-.5-.5s.2-.5.5-.5H74c.3 0 .5.2.5.5s-.2.5-.5.5zm-14 2.8h5v5h-5v-5zm17.5 1.8h-11c-.3 0-.5-.2-.5-.5s.2-.5.5-.5h11c.3 0 .5.2.5.5s-.2.5-.5.5zM74 21.1h-7.5c-.3 0-.5-.2-.5-.5s.2-.5.5-.5H74c.3 0 .5.2.5.5s-.2.5-.5.5zm-3.1 14.3H60.8c-.4 0-.8-.3-.8-.8 0-.4.3-.7.8-.7h10.1c.4 0 .8.3.8.7-.1.5-.4.8-.8.8zm6.6 4h-17c-.3 0-.5-.2-.5-.5s.2-.5.5-.5h17c.3 0 .5.2.5.5s-.2.5-.5.5zm-11.2 3h-5.8c-.3 0-.5-.2-.5-.5s.2-.5.5-.5h5.8c.3 0 .5.2.5.5s-.2.5-.5.5zm11.2 0h-9.2c-.3 0-.5-.2-.5-.5s.2-.5.5-.5h9.2c.3 0 .5.2.5.5s-.2.5-.5.5zm0 6h-6c-.3 0-.5-.2-.5-.5s.2-.5.5-.5h6c.3 0 .5.2.5.5s-.2.5-.5.5zm-8 0h-9c-.3 0-.5-.2-.5-.5s.2-.5.5-.5h9c.3 0 .5.2.5.5s-.2.5-.5.5zM60 23.9h5v5h-5v-5zm17.5 1.8h-11c-.3 0-.5-.2-.5-.5s.2-.5.5-.5h11c.3 0 .5.2.5.5s-.2.5-.5.5zM74 28.1h-7.5c-.3 0-.5-.2-.5-.5s.2-.5.5-.5H74c.3 0 .5.2.5.5s-.2.5-.5.5zm3.5 17.3h-3.8c-.3 0-.5-.2-.5-.5s.2-.5.5-.5h3.8c.3 0 .5.2.5.5s-.2.5-.5.5z" fill="#f5f6f6"/><path d="M10.5 56h79v14h-79V56z" fill="#dcdee0"/><path d="M24.9 64l.6 1.7c-.2.1-.5.1-.7.1s-.4-.1-.6-.1l.7-1.7zm-1.1-2.2l-.1.2c-.1 0-.1.2-.1.2l.6 2.3.5-1.2-.2-.8c-.1-.2-.1-.4-.2-.5-.1 0-.1-.1-.2-.1H24v-.2h1.8v.2h-.3l-.1.1c-.1.1-.1.1-.1.2v.2l.6 2.2s.7-1.2.7-1.5-.1-.7-.4-.9c-.5-.3-.4-.9 0-1.1.1-.1.3-.1.4-.1-.5-.4-1.1-.7-1.8-.7-1 0-1.9.5-2.4 1.4h1.4v.1zm-1.4 0h-.1c-.1.3-.2.7-.2 1.1 0 1.1.7 2.1 1.7 2.5L22.7 62s-.1-.2-.3-.2zm4.7.7c-.3.9-.9 2.4-1.2 3 1-.4 1.6-1.4 1.6-2.5.1-.5-.1-1-.3-1.4.1.3 0 .6-.1.9zm41.2-.2h-3.6c-.4 0-.7.3-.7.7s.3.7.7.7h3.6c.4 0 .7-.3.7-.7s-.3-.7-.7-.7zm-18 0h-3.6c-.4 0-.7.3-.7.7s.3.7.7.7h3.6c.4 0 .7-.3.7-.7s-.3-.7-.7-.7zm27 0h-3.6c-.4 0-.7.3-.7.7s.3.7.7.7h3.6c.4 0 .7-.3.7-.7s-.3-.7-.7-.7zm-18 0h-3.6c-.4 0-.7.3-.7.7s.3.7.7.7h3.6c.4 0 .7-.3.7-.7s-.3-.7-.7-.7z" fill="#6d767d"/><path d="M87 11c1.1 0 2 .9 2 2v58c0 1.1-.9 2-2 2H13c-1.1 0-2-.9-2-2V13c0-1.1.9-2 2-2h74m0-1H13c-1.7 0-3 1.3-3 3v58c0 1.7 1.3 3 3 3h74c1.6 0 3-1.3 3-3V13c0-1.7-1.4-3-3-3z" fill="#565d66"/></svg>