<?xml version="1.0" encoding="utf-8"?>
<!-- Generator: Adobe Illustrator 23.0.3, SVG Export Plug-In . SVG Version: 6.00 Build 0)  -->
<svg version="1.1" id="Layer_1" xmlns="http://www.w3.org/2000/svg" xmlns:xlink="http://www.w3.org/1999/xlink" x="0px" y="0px"
	 viewBox="0 0 100 70" style="enable-background:new 0 0 100 70;" xml:space="preserve">
<style type="text/css">
	.st0{fill:#FFFFFF;stroke:#565D66;stroke-miterlimit:10;}
	.st1{fill:#E8E9EA;}
	.st2{opacity:0.6;fill:#E8E9EA;}
	.st3{opacity:0.4;fill:#565D66;}
	.st4{fill:#565D66;}
</style>
<path class="st0" d="M88.5,61.5h-77c-0.6,0-1-0.5-1-1v-51c0-0.6,0.4-1,1-1h77c0.6,0,1,0.4,1,1v51C89.5,61,89.1,61.5,88.5,61.5z"/>
<g>
	<rect x="20.5" y="15.8" class="st1" width="27.5" height="6"/>
	<rect x="52" y="15.8" class="st2" width="27.5" height="6"/>
	<rect x="20.5" y="25.8" class="st2" width="59" height="18"/>
	<path class="st3" d="M38.2,54.6H21.6c-0.6,0-1-0.5-1-1v-4.8c0-0.5,0.4-1,1-1h16.6c0.6,0,1,0.5,1,1v4.8
		C39.2,54.1,38.7,54.6,38.2,54.6z"/>
</g>
<rect x="20.5" y="21.2" class="st4" width="27.5" height="1"/>
<rect x="52" y="21.2" class="st3" width="27.5" height="1"/>
<rect x="20.5" y="43.2" class="st3" width="59" height="1"/>
</svg>
