<?xml version="1.0" encoding="utf-8"?>
<!-- Generator: Adobe Illustrator 23.0.3, SVG Export Plug-In . SVG Version: 6.00 Build 0)  -->
<svg version="1.1" id="Layer_1" xmlns="http://www.w3.org/2000/svg" xmlns:xlink="http://www.w3.org/1999/xlink" x="0px" y="0px"
	 viewBox="0 0 100 70" style="enable-background:new 0 0 100 70;" xml:space="preserve">
<style type="text/css">
	.st0{fill:#FFFFFF;stroke:#565D66;stroke-miterlimit:10;}
	.st1{fill:#FFFFFF;stroke:#6E747A;stroke-width:0.75;stroke-miterlimit:10;}
	.st2{opacity:0.4;fill:#FFFFFF;stroke:#6E747A;stroke-width:0.75;stroke-miterlimit:10;enable-background:new    ;}
	.st3{opacity:0.4;fill:#565D66;enable-background:new    ;}
</style>
<path class="st0" d="M88.5,61.5h-77c-0.6,0-1-0.5-1-1v-51c0-0.6,0.4-1,1-1h77c0.6,0,1,0.4,1,1v51C89.5,61,89.1,61.5,88.5,61.5z"/>
<g>
	<path class="st1" d="M47,21.8H21.5c-0.5,0-1-0.5-1-1v-4c0-0.6,0.5-1,1-1H47c0.5,0,1,0.4,1,1v4C48,21.4,47.5,21.8,47,21.8z"/>
	<path class="st2" d="M78.5,21.8H53c-0.5,0-1-0.5-1-1v-4c0-0.6,0.5-1,1-1h25.5c0.6,0,1,0.4,1,1v4C79.5,21.4,79.1,21.8,78.5,21.8z"/>
	<path class="st2" d="M78.5,43.8h-57c-0.5,0-1-0.5-1-1v-16c0-0.5,0.5-1,1-1h57c0.6,0,1,0.5,1,1v16C79.5,43.4,79.1,43.8,78.5,43.8z"
		/>
	<path class="st3" d="M38.2,54.6H21.6c-0.6,0-1-0.5-1-1v-4.8c0-0.5,0.4-1,1-1h16.6c0.6,0,1,0.5,1,1v4.8
		C39.2,54.1,38.7,54.6,38.2,54.6z"/>
</g>
</svg>
