<?xml version="1.0" encoding="utf-8"?>
<!-- Generator: Adobe Illustrator 23.0.3, SVG Export Plug-In . SVG Version: 6.00 Build 0)  -->
<svg version="1.1" id="Layer_1" xmlns="http://www.w3.org/2000/svg" xmlns:xlink="http://www.w3.org/1999/xlink" x="0px" y="0px"
	 viewBox="0 0 100 70" style="enable-background:new 0 0 100 70;" xml:space="preserve">
<style type="text/css">
	.st0{fill:#FFFFFF;}
	.st1{fill:#565D66;}
	.st2{fill:#C3C7CA;}
	.st3{fill:#E6E7E8;}
</style>
<path class="st0" d="M13,73.5c-1.4,0-2.5-1.1-2.5-2.5V13c0-1.4,1.1-2.5,2.5-2.5h74c1.4,0,2.5,1.1,2.5,2.5v58c0,1.4-1.1,2.5-2.5,2.5
	H13z"/>
<path class="st1" d="M87,11c1.1,0,2,0.9,2,2v58c0,1.1-0.9,2-2,2H13c-1.1,0-2-0.9-2-2V13c0-1.1,0.9-2,2-2H87 M87,10H13
	c-1.7,0-3,1.3-3,3v58c0,1.7,1.3,3,3,3h74c1.6,0,3-1.3,3-3V13C90,11.3,88.6,10,87,10z"/>
<path class="st2" d="M77.5,41h-55c-0.3,0-0.5-0.2-0.5-0.5v-19c0-0.3,0.2-0.5,0.5-0.5h55c0.3,0,0.5,0.2,0.5,0.5v19
	C78,40.8,77.8,41,77.5,41z"/>
<path class="st2" d="M77.5,78h-55c-0.3,0-0.5-0.2-0.5-0.5v-19c0-0.3,0.2-0.5,0.5-0.5h55c0.3,0,0.5,0.2,0.5,0.5v19
	C78,77.8,77.8,78,77.5,78z"/>
<path class="st2" d="M44.3,18H31c-0.5,0-1-0.4-1-1v0c0-0.6,0.4-1,1-1h13.3c0.5,0,1,0.4,1,1v0C45.3,17.6,44.9,18,44.3,18z"/>
<path class="st2" d="M65.3,18H47.3c-0.5,0-1-0.4-1-1v0c0-0.6,0.4-1,1-1h17.9c0.6,0,1,0.4,1,1v0C66.3,17.6,65.8,18,65.3,18z"/>
<path class="st3" d="M69.5,45h-39c-0.3,0-0.5-0.2-0.5-0.5l0,0c0-0.3,0.2-0.5,0.5-0.5h39c0.3,0,0.5,0.2,0.5,0.5l0,0
	C70,44.8,69.8,45,69.5,45z"/>
<path class="st3" d="M69.5,48h-39c-0.3,0-0.5-0.2-0.5-0.5l0,0c0-0.3,0.2-0.5,0.5-0.5h39c0.3,0,0.5,0.2,0.5,0.5l0,0
	C70,47.8,69.8,48,69.5,48z"/>
<path class="st2" d="M51.6,55H30.9c-0.5,0-0.9-0.4-0.9-0.9v0c0-0.5,0.4-0.9,0.9-0.9h20.7c0.5,0,0.9,0.4,0.9,0.9v0
	C52.5,54.6,52.1,55,51.6,55z"/>
<path class="st2" d="M62.6,55h-8.3c-0.5,0-0.9-0.4-0.9-0.9v0c0-0.5,0.4-0.9,0.9-0.9h8.3c0.5,0,0.9,0.4,0.9,0.9v0
	C63.5,54.6,63.1,55,62.6,55z"/>
</svg>
