<svg id="Layer_1" xmlns="http://www.w3.org/2000/svg" viewBox="0 0 100 70"><style>.st2{fill:#e6e7e8}.st3{fill:#c3c7ca}</style><path d="M13 73.5c-1.4 0-2.5-1.1-2.5-2.5V13c0-1.4 1.1-2.5 2.5-2.5h74c1.4 0 2.5 1.1 2.5 2.5v58c0 1.4-1.1 2.5-2.5 2.5H13z" fill="#fff"/><path d="M87 11c1.1 0 2 .9 2 2v58c0 1.1-.9 2-2 2H13c-1.1 0-2-.9-2-2V13c0-1.1.9-2 2-2h74m0-1H13c-1.7 0-3 1.3-3 3v58c0 1.7 1.3 3 3 3h74c1.6 0 3-1.3 3-3V13c0-1.7-1.4-3-3-3z" fill="#565d66"/><path class="st2" d="M77.5 30h-55c-.3 0-.5-.2-.5-.5s.2-.5.5-.5h55c.3 0 .5.2.5.5s-.2.5-.5.5zM77.5 33h-55c-.3 0-.5-.2-.5-.5s.2-.5.5-.5h55c.3 0 .5.2.5.5s-.2.5-.5.5zM77.5 36h-55c-.3 0-.5-.2-.5-.5s.2-.5.5-.5h55c.3 0 .5.2.5.5s-.2.5-.5.5zM77.5 60h-55c-.3 0-.5-.2-.5-.5v-21c0-.3.2-.5.5-.5h55c.3 0 .5.2.5.5v21c0 .3-.2.5-.5.5zM77.5 63h-55c-.3 0-.5-.2-.5-.5s.2-.5.5-.5h55c.3 0 .5.2.5.5s-.2.5-.5.5zM52.8 66H22.5c-.3 0-.5-.2-.5-.5s.2-.5.5-.5h30.3c.3 0 .5.2.5.5s-.2.5-.5.5zM52.8 69H22.5c-.3 0-.5-.2-.5-.5s.2-.5.5-.5h30.3c.3 0 .5.2.5.5s-.2.5-.5.5z"/><path class="st3" d="M43.9 20.1H23c-.5 0-1-.4-1-1 0-.5.4-1 1-1h20.9c.5 0 1 .5 1 1s-.4 1-1 1zM58.4 20.1H47.9c-.5 0-1-.4-1-1 0-.5.5-1 1-1h10.5c.5 0 1 .5 1 1s-.4 1-1 1z"/><path class="st2" d="M77.5 66h-22c-.3 0-.5-.2-.5-.5s.2-.5.5-.5h22c.3 0 .5.2.5.5s-.2.5-.5.5zM77.5 69h-22c-.3 0-.5-.2-.5-.5s.2-.5.5-.5h22c.3 0 .5.2.5.5s-.2.5-.5.5z"/><circle class="st3" cx="23" cy="23.1" r="1"/><path class="st3" d="M29.5 23.5h-4c-.3 0-.5-.2-.5-.5s.2-.5.5-.5h4c.3 0 .5.2.5.5s-.2.5-.5.5zM35.5 23.5h-4c-.3 0-.5-.2-.5-.5s.2-.5.5-.5h4c.3 0 .5.2.5.5s-.2.5-.5.5zM41.5 23.5h-4c-.3 0-.5-.2-.5-.5s.2-.5.5-.5h4c.3 0 .5.2.5.5s-.2.5-.5.5zM47.5 23.5h-4c-.3 0-.5-.2-.5-.5s.2-.5.5-.5h4c.3 0 .5.2.5.5s-.2.5-.5.5z"/></svg>