<svg version="1.1" id="Layer_1" xmlns="http://www.w3.org/2000/svg" x="0" y="0" viewBox="0 0 100 70" xml:space="preserve"><style>.st0{fill:#fff}</style><path class="st0" d="M13 73.5c-1.4 0-2.5-1.1-2.5-2.5V13c0-1.4 1.1-2.5 2.5-2.5h74c1.4 0 2.5 1.1 2.5 2.5v58c0 1.4-1.1 2.5-2.5 2.5H13z"/><path d="M89 44.5H11V13.7c0-1.5.9-2.7 2-2.7h74c1.1 0 2 1.2 2 2.7v30.8z" fill="#c3c7ca"/><path d="M87 11c1.1 0 2 .9 2 2v58c0 1.1-.9 2-2 2H13c-1.1 0-2-.9-2-2V13c0-1.1.9-2 2-2h74m0-1H13c-1.7 0-3 1.3-3 3v58c0 1.7 1.3 3 3 3h74c1.6 0 3-1.3 3-3V13c0-1.7-1.4-3-3-3z" fill="#565d66"/><path d="M77.5 50h-55c-.3 0-.5-.2-.5-.5s.2-.5.5-.5h55c.3 0 .5.2.5.5s-.2.5-.5.5zm0 3h-55c-.3 0-.5-.2-.5-.5s.2-.5.5-.5h55c.3 0 .5.2.5.5s-.2.5-.5.5zm0 3h-55c-.3 0-.5-.2-.5-.5s.2-.5.5-.5h55c.3 0 .5.2.5.5s-.2.5-.5.5zm0 17h-55c-.3 0-.5-.1-.5-.3V58.3c0-.2.2-.3.5-.3h55c.3 0 .5.1.5.3v14.3c0 .3-.2.4-.5.4z" fill="#e6e7e8"/><path class="st0" d="M60.5 24.1h-21c-.5 0-1-.4-1-1 0-.5.4-1 1-1h20.9c.5 0 1 .5 1 1 .1.5-.4 1-.9 1zm-7.3 4.2H32.3c-.6 0-1-.4-1-1 0-.5.4-1 1-1h20.9c.5 0 1 .5 1 1s-.4 1-1 1zm14.5 0H57.2c-.6 0-1-.4-1-1 0-.5.4-1 1-1h10.5c.6 0 1 .5 1 1s-.4 1-1 1z"/><circle class="st0" cx="38" cy="34.4" r="1"/><path class="st0" d="M44.5 34.9h-4c-.3 0-.5-.2-.5-.5s.2-.5.5-.5h4c.3 0 .5.2.5.5s-.2.5-.5.5zm6 0h-4c-.3 0-.5-.2-.5-.5s.2-.5.5-.5h4c.3 0 .5.2.5.5s-.2.5-.5.5zm6 0h-4c-.3 0-.5-.2-.5-.5s.2-.5.5-.5h4c.3 0 .5.2.5.5s-.2.5-.5.5zm6 0h-4c-.3 0-.5-.2-.5-.5s.2-.5.5-.5h4c.3 0 .5.2.5.5s-.2.5-.5.5z"/></svg>