<svg xmlns="http://www.w3.org/2000/svg" viewBox="0 0 100 70"><path d="M13 73.5c-1.4 0-2.5-1.1-2.5-2.5V13c0-1.4 1.1-2.5 2.5-2.5h74c1.4 0 2.5 1.1 2.5 2.5v58c0 1.4-1.1 2.5-2.5 2.5H13z" fill="#fff"/><path d="M87 11c1.1 0 2 .9 2 2v58c0 1.1-.9 2-2 2H13c-1.1 0-2-.9-2-2V13c0-1.1.9-2 2-2h74m0-1H13c-1.7 0-3 1.3-3 3v58c0 1.7 1.3 3 3 3h74c1.6 0 3-1.3 3-3V13c0-1.7-1.4-3-3-3z" fill="#565d66"/><path d="M27.8 31.5c-.2-.2-.3-.5-.3-.7 0-.3.1-.6.3-.7l3.3-3c.4-.4 1-.3 1.4.1.4.4.3 1-.1 1.4L30 30.8l2.5 2.2c.4.4.4 1 .1 1.4-.2.2-.5.3-.7.3-.2 0-.5-.1-.7-.3l-3.4-2.9zm14.5 2.9c.2.2.5.3.7.3.2 0 .5-.1.7-.3l3.3-3c.2-.2.3-.5.3-.7 0-.3-.1-.6-.3-.7l-3.3-3c-.4-.4-1-.3-1.4.1-.4.4-.3 1 .1 1.4l2.5 2.2-2.5 2.3c-.4.4-.4 1-.1 1.4zm-7.1 1.3c.1.1.3.1.4.1.4 0 .8-.2.9-.6l3.6-8c.2-.5 0-1.1-.5-1.3-.5-.2-1.1 0-1.3.5l-3.6 8c-.2.5 0 1.1.5 1.3zm21-7.2c.6 0 1-.4 1-1s-.4-1-1-1-1 .4-1 1 .4 1 1 1zm4.9 0c.6 0 1-.4 1-1s-.4-1-1-1H61c-.6 0-1 .4-1 1s.5 1 1.1 1zm4.9 0c.6 0 1-.4 1-1s-.4-1-1-1h-.1c-.6 0-1 .4-1 1s.5 1 1.1 1zm4.8 0c.6 0 1-.4 1-1s-.4-1-1-1-1 .4-1 1 .5 1 1 1zm-15.3 6h16c.6 0 1-.4 1-1s-.4-1-1-1h-16c-.6 0-1 .4-1 1s.4 1 1 1zm-19.7 9c0-.6-.4-1-1-1h-6c-.6 0-1 .4-1 1s.4 1 1 1h6c.5 0 1-.4 1-1zm-1.7 3.7c-.6 0-1 .4-1 1s.4 1 1 1h6c.6 0 1-.4 1-1s-.4-1-1-1h-6zm11.3 0c-.6 0-1 .4-1 1s.4 1 1 1h14c.6 0 1-.4 1-1s-.4-1-1-1h-14zm26.1 0h-7.4c-.6 0-1 .4-1 1s.4 1 1 1h7.4c.6 0 1-.4 1-1s-.4-1-1-1zm-23.4 5.3h-14c-.6 0-1 .4-1 1s.4 1 1 1h14c.6 0 1-.4 1-1 0-.5-.4-1-1-1zm14.7 0h-8.7c-.6 0-1 .4-1 1s.4 1 1 1h8.7c.6 0 1-.4 1-1 0-.5-.4-1-1-1zm-26 6h-6c-.6 0-1 .4-1 1s.4 1 1 1h6c.6 0 1-.4 1-1 0-.5-.5-1-1-1z" fill="#c4c8cb"/></svg>