<svg id="Layer_1" xmlns="http://www.w3.org/2000/svg" viewBox="0 0 100 70"><style>.st3{fill:#e6e7e8}</style><path d="M13 73.5c-1.4 0-2.5-1.1-2.5-2.5V13c0-1.4 1.1-2.5 2.5-2.5h74c1.4 0 2.5 1.1 2.5 2.5v58c0 1.4-1.1 2.5-2.5 2.5H13z" fill="#fff"/><path d="M87 11c1.1 0 2 .9 2 2v58c0 1.1-.9 2-2 2H13c-1.1 0-2-.9-2-2V13c0-1.1.9-2 2-2h74m0-1H13c-1.7 0-3 1.3-3 3v58c0 1.7 1.3 3 3 3h74c1.6 0 3-1.3 3-3V13c0-1.7-1.4-3-3-3z" fill="#565d66"/><path d="M39 72H23c-.6 0-1-.4-1-1V17c0-.6.4-1 1-1h16c.6 0 1 .4 1 1v54c0 .6-.4 1-1 1z" fill="#dedfe0"/><g><path class="st3" d="M77.6 17H44.4c-.3 0-.4-.2-.4-.5s.2-.5.4-.5h33.1c.3 0 .4.2.4.5.1.3-.1.5-.3.5zM77.6 20H44.4c-.3 0-.4-.2-.4-.5s.2-.5.4-.5h33.1c.3 0 .4.2.4.5.1.3-.1.5-.3.5zM77.6 23H44.4c-.3 0-.4-.2-.4-.5s.2-.5.4-.5h33.1c.3 0 .4.2.4.5.1.3-.1.5-.3.5zM77.6 44H44.4c-.3 0-.4-.2-.4-.5v-18c0-.3.2-.5.4-.5h33.1c.3 0 .4.2.4.5v18c.1.3-.1.5-.3.5zM77.6 47H44.4c-.3 0-.4-.2-.4-.5s.2-.5.4-.5h33.1c.3 0 .4.2.4.5.1.3-.1.5-.3.5zM77.6 50H44.4c-.3 0-.4-.2-.4-.5s.2-.5.4-.5h33.1c.3 0 .4.2.4.5.1.3-.1.5-.3.5zM77.6 53H44.4c-.3 0-.4-.2-.4-.5s.2-.5.4-.5h33.1c.3 0 .4.2.4.5.1.3-.1.5-.3.5zM56.5 65H44.4c-.3 0-.4-.2-.4-.5v-9c0-.3.2-.5.4-.5h12.1c.3 0 .4.2.4.5v9c.1.3-.1.5-.4.5zM77.6 56H59.5c-.3 0-.4-.2-.4-.5s.2-.5.4-.5h18.1c.3 0 .4.2.4.5s-.2.5-.4.5zM77.6 59H59.5c-.3 0-.4-.2-.4-.5s.2-.5.4-.5h18.1c.3 0 .4.2.4.5s-.2.5-.4.5zM77.6 62H59.5c-.3 0-.4-.2-.4-.5s.2-.5.4-.5h18.1c.3 0 .4.2.4.5s-.2.5-.4.5zM77.6 65H59.5c-.3 0-.4-.2-.4-.5s.2-.5.4-.5h18.1c.3 0 .4.2.4.5s-.2.5-.4.5zM77.6 68H44.4c-.3 0-.4-.2-.4-.5s.2-.5.4-.5h33.1c.3 0 .4.2.4.5.1.3-.1.5-.3.5zM77.6 71H44.4c-.3 0-.4-.2-.4-.5s.2-.5.4-.5h33.1c.3 0 .4.2.4.5.1.3-.1.5-.3.5zM77.6 74H44.4c-.3 0-.4-.2-.4-.5s.2-.5.4-.5h33.1c.3 0 .4.2.4.5.1.3-.1.5-.3.5z"/></g></svg>