<svg id="Layer_1" xmlns="http://www.w3.org/2000/svg" viewBox="0 0 100 70"><style>.st2{opacity:.9;fill:#e6e7e8;enable-background:new}</style><path d="M13 73.5c-1.4 0-2.5-1.1-2.5-2.5V13c0-1.4 1.1-2.5 2.5-2.5h74c1.4 0 2.5 1.1 2.5 2.5v58c0 1.4-1.1 2.5-2.5 2.5H13z" fill="#fff"/><path d="M87 11c1.1 0 2 .9 2 2v58c0 1.1-.9 2-2 2H13c-1.1 0-2-.9-2-2V13c0-1.1.9-2 2-2h74m0-1H13c-1.7 0-3 1.3-3 3v58c0 1.7 1.3 3 3 3h74c1.6 0 3-1.3 3-3V13c0-1.7-1.4-3-3-3z" fill="#565d66"/><path class="st2" d="M77.5 36h-33c-.3 0-.5-.2-.5-.5v-19c0-.3.2-.5.5-.5h33c.3 0 .5.2.5.5v19c0 .3-.2.5-.5.5zM64.2 41H45c-.5 0-1-.5-1-1s.5-1 1-1h19.2c.6 0 1 .5 1 1s-.4 1-1 1zM77.5 45h-33c-.3 0-.5-.2-.5-.5s.2-.5.5-.5h33c.3 0 .5.2.5.5s-.2.5-.5.5zM77.5 48h-33c-.3 0-.5-.2-.5-.5s.2-.5.5-.5h33c.3 0 .5.2.5.5s-.2.5-.5.5z"/><path d="M39 72H23c-.6 0-1-.4-1-1V17c0-.6.4-1 1-1h16c.6 0 1 .4 1 1v54c0 .6-.4 1-1 1z" fill="#dedfe0"/><path class="st2" d="M77.5 72h-33c-.3 0-.5-.2-.5-.5v-19c0-.3.2-.5.5-.5h33c.3 0 .5.2.5.5v19c0 .3-.2.5-.5.5z"/></svg>