<svg xmlns="http://www.w3.org/2000/svg" viewBox="0 0 100 70"><path d="M13 73.5c-1.4 0-2.5-1.1-2.5-2.5V13c0-1.4 1.1-2.5 2.5-2.5h74c1.4 0 2.5 1.1 2.5 2.5v58c0 1.4-1.1 2.5-2.5 2.5H13z" fill="#fff"/><path d="M87 11c1.1 0 2 .9 2 2v58c0 1.1-.9 2-2 2H13c-1.1 0-2-.9-2-2V13c0-1.1.9-2 2-2h74m0-1H13c-1.7 0-3 1.3-3 3v58c0 1.7 1.3 3 3 3h74c1.6 0 3-1.3 3-3V13c0-1.7-1.4-3-3-3z" fill="#565d66"/><path d="M46.7 29.1l-4.1 1.7c-1.1.5-1.6 1-1.6 2.1v18.2c0 1.1.5 1.7 1.6 2.1l4.1 1.7c.2.1.3.1.6.1.8 0 1.5-.7 1.5-1.8V30.8c0-1.3-1-2.1-2.1-1.7zm.4 14.4c0 .3-.2.6-.6.6-.4 0-.6-.2-.6-.6v-3.1c0-.3.2-.6.6-.6.4 0 .6.2.6.6v3.1zM50 31.6h6.1c.7 0 1.3.6 1.3 1.3v6.5c0 .3.2.5.5.5s.5-.2.5-.5v-6.5c0-1.2-.9-2.1-2.1-2.1h-6.1c-.3 0-.5.2-.5.5-.1.1.1.3.3.3zm7.9 12.5c-.3 0-.5.2-.5.5v6.5c0 .7-.6 1.3-1.3 1.3h-6c-.3 0-.5.2-.5.5s.2.5.5.5h6c1.2 0 2.1-.9 2.1-2.1v-6.5c.2-.5-.1-.7-.3-.7zM67 42c0 .3-.2.5-.5.5H52l3.6 3.6c.2.2.2.5 0 .7-.1.1-.2.1-.3.1-.1 0-.2 0-.3-.1l-4.4-4.4s-.1-.1-.1-.2V42v-.2s0-.1.1-.1v-.1l4.4-4.4c.2-.2.5-.2.7 0 .2.2.2.5 0 .7l-3.6 3.6h14.6c.1 0 .3.2.3.5z" fill-rule="evenodd" clip-rule="evenodd" fill="#6d767d"/></svg>