<svg xmlns="http://www.w3.org/2000/svg" viewBox="0 0 100 70"><path d="M13 73.5c-1.4 0-2.5-1.1-2.5-2.5V13c0-1.4 1.1-2.5 2.5-2.5h74c1.4 0 2.5 1.1 2.5 2.5v58c0 1.4-1.1 2.5-2.5 2.5H13z" fill="#fff"/><path d="M87 11c1.1 0 2 .9 2 2v58c0 1.1-.9 2-2 2H13c-1.1 0-2-.9-2-2V13c0-1.1.9-2 2-2h74m0-1H13c-1.7 0-3 1.3-3 3v58c0 1.7 1.3 3 3 3h74c1.6 0 3-1.3 3-3V13c0-1.7-1.4-3-3-3z" fill="#565d66"/><path d="M46.7 29.1l-4.1 1.6c-1.2.4-1.6 1-1.6 2.1V51c0 1.1.4 1.7 1.6 2.1l4.1 1.6c.2.1.4.1.6.1.9 0 1.5-.7 1.5-1.7V30.7c0-1.2-1-2-2.1-1.6zm.4 14.4c0 .3-.2.5-.5.5s-.5-.2-.5-.5v-3.1c0-.3.2-.5.5-.5s.5.2.5.5v3.1zM50 31.6h6.1c.7 0 1.3.6 1.3 1.3v6.5c0 .2.2.4.4.4s.4-.2.4-.4v-6.5c0-1.2-1-2.2-2.2-2.2h-6c-.2 0-.4.2-.4.4 0 .3.2.5.4.5zm7.9 12.6c-.2 0-.4.2-.4.4v6.5c0 .7-.6 1.3-1.3 1.3h-6.1c-.2 0-.4.2-.4.4s.2.4.4.4h6.1c1.2 0 2.2-1 2.2-2.2v-6.5c-.1-.1-.3-.3-.5-.3zM50.5 42c0-.2.2-.4.4-.4h14.6L61.9 38c-.2-.2-.2-.4 0-.6.2-.2.4-.2.6 0l4.3 4.3s0 .1.1.1V42.1c0 .1-.1.1-.1.1l-4.3 4.3c-.1.1-.2.1-.3.1-.1 0-.2 0-.3-.1-.2-.2-.2-.4 0-.6l3.6-3.6H51c-.3.1-.5-.1-.5-.3z" fill-rule="evenodd" clip-rule="evenodd" fill="#6d767d"/></svg>