<svg version="1.1" id="Layer_1" xmlns="http://www.w3.org/2000/svg" x="0" y="0" viewBox="0 0 100 70" xml:space="preserve"><style>.st3{opacity:.6;fill:#4f5459;enable-background:new}</style><path d="M13 73.5c-1.4 0-2.5-1.1-2.5-2.5V13c0-1.4 1.1-2.5 2.5-2.5h74c1.4 0 2.5 1.1 2.5 2.5v58c0 1.4-1.1 2.5-2.5 2.5H13z" fill="#fff"/><path d="M11 11h78v14H11V11z" fill="#edeff0"/><path d="M87 11c1.1 0 2 .9 2 2v58c0 1.1-.9 2-2 2H13c-1.1 0-2-.9-2-2V13c0-1.1.9-2 2-2h74m0-1H13c-1.7 0-3 1.3-3 3v58c0 1.7 1.3 3 3 3h74c1.6 0 3-1.3 3-3V13c0-1.7-1.4-3-3-3z" fill="#565d66"/><path class="st3" d="M20.5 16.6c.5-.9 1.4-1.4 2.4-1.4.7 0 1.3.3 1.8.7-.1 0-.3 0-.4.1-.4.2-.5.8 0 1.1.3.2.4.6.4.9s-.7 1.5-.7 1.5l-.6-2.2v-.2c0-.1 0-.1.1-.2l.1-.1h.3v-.2h-1.8v.2h.1c.1 0 .1.1.2.1.1.1.1.3.2.5l.2.8-.5 1.2-.6-2.3s0-.2.1-.2l.1-.1v-.2h-1.4zm.3.4s-.1-.2-.3-.2h-.1c-.1.3-.2.7-.2 1.1 0 1.1.7 2.1 1.7 2.5L20.8 17zm4.5-.4c.1.2 0 .5-.1.9-.3.9-.9 2.4-1.2 3 1-.4 1.6-1.4 1.6-2.5.1-.5-.1-1-.3-1.4M23 18.9l-.7 1.7c.2 0 .4.1.6.1s.5 0 .7-.1l-.6-1.7z"/><path d="M60.8 18.7h-3.6c-.4 0-.7-.3-.7-.7 0-.4.3-.7.7-.7h3.6c.4 0 .7.3.7.7 0 .4-.3.7-.7.7z" fill="#4f5459"/><path class="st3" d="M69.8 18.7h-3.6c-.4 0-.7-.3-.7-.7 0-.4.3-.7.7-.7h3.6c.4 0 .7.3.7.7 0 .4-.3.7-.7.7zM78.8 18.7h-3.6c-.4 0-.7-.3-.7-.7 0-.4.3-.7.7-.7h3.6c.4 0 .7.3.7.7 0 .4-.3.7-.7.7z"/></svg>