<?xml version="1.0" encoding="utf-8"?>
<!-- Generator: Adobe Illustrator 23.0.3, SVG Export Plug-In . SVG Version: 6.00 Build 0)  -->
<svg version="1.1" id="Layer_1" xmlns="http://www.w3.org/2000/svg" xmlns:xlink="http://www.w3.org/1999/xlink" x="0px" y="0px"
	 viewBox="0 0 100 70" style="enable-background:new 0 0 100 70;" xml:space="preserve">
<style type="text/css">
	.st0{fill:#FFFFFF;}
	.st1{fill:#EDEFF0;}
	.st2{fill:#565D66;}
	.st3{opacity:0.6;fill:#4F5459;}
	.st4{fill:#4F5459;}
	.st5{fill:#6E747A;}
</style>
<path class="st0" d="M13,73.5c-1.4,0-2.5-1.1-2.5-2.5V13c0-1.4,1.1-2.5,2.5-2.5h74c1.4,0,2.5,1.1,2.5,2.5v58c0,1.4-1.1,2.5-2.5,2.5
	H13z"/>
<path class="st1" d="M11,11h78v14H11V11z"/>
<path class="st2" d="M87,11c1.1,0,2,0.9,2,2v58c0,1.1-0.9,2-2,2H13c-1.1,0-2-0.9-2-2V13c0-1.1,0.9-2,2-2H87 M87,10H13
	c-1.7,0-3,1.3-3,3v58c0,1.7,1.3,3,3,3h74c1.6,0,3-1.3,3-3V13C90,11.3,88.6,10,87,10z"/>
<path class="st3" d="M20.5,16.6c0.5-0.9,1.4-1.4,2.4-1.4c0.7,0,1.3,0.3,1.8,0.7c-0.1,0-0.3,0-0.4,0.1c-0.4,0.2-0.5,0.8,0,1.1
	c0.3,0.2,0.4,0.6,0.4,0.9S24,19.5,24,19.5l-0.6-2.2v-0.2c0-0.1,0-0.1,0.1-0.2l0.1-0.1h0.3v-0.2h-1.8v0.2h0.1c0.1,0,0.1,0.1,0.2,0.1
	c0.1,0.1,0.1,0.3,0.2,0.5l0.2,0.8l-0.5,1.2l-0.6-2.3c0,0,0-0.2,0.1-0.2l0.1-0.1v-0.2C21.9,16.6,20.5,16.6,20.5,16.6z M20.8,17
	c0,0-0.1-0.2-0.3-0.2h-0.1c-0.1,0.3-0.2,0.7-0.2,1.1c0,1.1,0.7,2.1,1.7,2.5L20.8,17z M25.3,16.6c0.1,0.2,0,0.5-0.1,0.9
	c-0.3,0.9-0.9,2.4-1.2,3c1-0.4,1.6-1.4,1.6-2.5C25.7,17.5,25.5,17,25.3,16.6 M23,18.9l-0.7,1.7c0.2,0,0.4,0.1,0.6,0.1s0.5,0,0.7-0.1
	L23,18.9z"/>
<path class="st3" d="M54.8,18.7h-3.6c-0.4,0-0.7-0.3-0.7-0.7v0c0-0.4,0.3-0.7,0.7-0.7h3.6c0.4,0,0.7,0.3,0.7,0.7v0
	C55.5,18.4,55.2,18.7,54.8,18.7z"/>
<path class="st4" d="M42.8,18.7h-3.6c-0.4,0-0.7-0.3-0.7-0.7v0c0-0.4,0.3-0.7,0.7-0.7h3.6c0.4,0,0.7,0.3,0.7,0.7v0
	C43.5,18.4,43.2,18.7,42.8,18.7z"/>
<path class="st3" d="M66.8,18.7h-3.6c-0.4,0-0.7-0.3-0.7-0.7v0c0-0.4,0.3-0.7,0.7-0.7h3.6c0.4,0,0.7,0.3,0.7,0.7v0
	C67.5,18.4,67.2,18.7,66.8,18.7z"/>
<path class="st3" d="M78.8,18.7h-3.6c-0.4,0-0.7-0.3-0.7-0.7v0c0-0.4,0.3-0.7,0.7-0.7h3.6c0.4,0,0.7,0.3,0.7,0.7v0
	C79.5,18.4,79.2,18.7,78.8,18.7z"/>
<rect x="36.5" y="24.2" class="st5" width="9" height="0.8"/>
</svg>
