<svg id="Layer_1" xmlns="http://www.w3.org/2000/svg" viewBox="0 0 100 70"><style>.st2{fill:#e6e7e8}</style><path d="M13 73.5c-1.4 0-2.5-1.1-2.5-2.5V13c0-1.4 1.1-2.5 2.5-2.5h74c1.4 0 2.5 1.1 2.5 2.5v58c0 1.4-1.1 2.5-2.5 2.5H13z" fill="#fff"/><path d="M87 11c1.1 0 2 .9 2 2v58c0 1.1-.9 2-2 2H13c-1.1 0-2-.9-2-2V13c0-1.1.9-2 2-2h74m0-1H13c-1.7 0-3 1.3-3 3v58c0 1.7 1.3 3 3 3h74c1.6 0 3-1.3 3-3V13c0-1.7-1.4-3-3-3z" fill="#565d66"/><path class="st2" d="M77.5 13h-55c-.3 0-.5-.2-.5-.5s.2-.5.5-.5h55c.3 0 .5.2.5.5s-.2.5-.5.5zM77.5 16h-55c-.3 0-.5-.2-.5-.5s.2-.5.5-.5h55c.3 0 .5.2.5.5s-.2.5-.5.5zM77.5 19h-55c-.3 0-.5-.2-.5-.5s.2-.5.5-.5h55c.3 0 .5.2.5.5s-.2.5-.5.5zM82.5 43h-65c-.3 0-.5-.2-.5-.5v-21c0-.3.2-.5.5-.5h65c.3 0 .5.2.5.5v21c0 .3-.2.5-.5.5zM77.5 46h-55c-.3 0-.5-.2-.5-.5s.2-.5.5-.5h55c.3 0 .5.2.5.5s-.2.5-.5.5zM77.5 49h-55c-.3 0-.5-.2-.5-.5s.2-.5.5-.5h55c.3 0 .5.2.5.5s-.2.5-.5.5zM42.9 64H17.5c-.3 0-.5-.2-.5-.5v-12c0-.3.2-.5.5-.5h25.4c.3 0 .5.2.5.5v12c0 .3-.2.5-.5.5zM77.5 52H47.2c-.3 0-.5-.2-.5-.5s.2-.5.5-.5h30.3c.3 0 .5.2.5.5s-.2.5-.5.5zM77.5 55H47.2c-.3 0-.5-.2-.5-.5s.2-.5.5-.5h30.3c.3 0 .5.2.5.5s-.2.5-.5.5zM77.5 58H47.2c-.3 0-.5-.2-.5-.5s.2-.5.5-.5h30.3c.3 0 .5.2.5.5s-.2.5-.5.5zM77.5 61H47.2c-.3 0-.5-.2-.5-.5s.2-.5.5-.5h30.3c.3 0 .5.2.5.5s-.2.5-.5.5zM77.5 64H47.2c-.3 0-.5-.2-.5-.5s.2-.5.5-.5h30.3c.3 0 .5.2.5.5s-.2.5-.5.5zM77.5 67h-55c-.3 0-.5-.2-.5-.5s.2-.5.5-.5h55c.3 0 .5.2.5.5s-.2.5-.5.5zM77.5 70h-55c-.3 0-.5-.2-.5-.5s.2-.5.5-.5h55c.3 0 .5.2.5.5s-.2.5-.5.5z"/></svg>