<svg version="1.1" id="Layer_1" xmlns="http://www.w3.org/2000/svg" x="0" y="0" viewBox="0 0 100 70" xml:space="preserve">
  <style>
    .st0{fill:#fff}.st1{opacity:.7;fill:#f5f6f6}
  </style>
  <path class="st0" d="M13 73.5c-1.4 0-2.5-1.1-2.5-2.5V13c0-1.4 1.1-2.5 2.5-2.5h74c1.4 0 2.5 1.1 2.5 2.5v58c0 1.4-1.1 2.5-2.5 2.5H13z"/>
  <path class="st1" d="M55.5 53h-33c-.3 0-.5-.2-.5-.5V31.9c0-.3.2-.5.5-.5h33c.3 0 .5.2.5.5v20.5c0 .4-.2.6-.5.6zm-13.3 5H23c-.5 0-1-.5-1-1s.4-1 1-1h19.3c.5 0 1 .5 1 1-.1.5-.5 1-1.1 1zm13.3 4h-33c-.3 0-.5-.2-.5-.5s.2-.5.5-.5h33c.3 0 .5.2.5.5s-.2.5-.5.5zm0 3h-33c-.3 0-.5-.2-.5-.5s.2-.5.5-.5h33c.3 0 .5.2.5.5s-.2.5-.5.5zM60 38.4h5v5h-5v-5zm17.5 1.8h-11c-.3 0-.5-.2-.5-.5s.2-.5.5-.5h11c.3 0 .5.2.5.5s-.2.5-.5.5zM74 42.6h-7.5c-.3 0-.5-.2-.5-.5s.2-.5.5-.5H74c.3 0 .5.2.5.5s-.2.5-.5.5zM60 31.4h5v5h-5v-5zm17.5 1.8h-11c-.3 0-.5-.2-.5-.5s.2-.5.5-.5h11c.3 0 .5.2.5.5s-.2.5-.5.5zM74 35.6h-7.5c-.3 0-.5-.2-.5-.5s.2-.5.5-.5H74c.3 0 .5.2.5.5s-.2.5-.5.5zm-14 9.8h5v5h-5v-5zm17.5 1.8h-11c-.3 0-.5-.2-.5-.5s.2-.5.5-.5h11c.3 0 .5.2.5.5s-.2.5-.5.5zM74 49.6h-7.5c-.3 0-.5-.2-.5-.5s.2-.5.5-.5H74c.3 0 .5.2.5.5s-.2.5-.5.5zm-14 2.8h5v5h-5v-5zm17.5 1.8h-11c-.3 0-.5-.2-.5-.5s.2-.5.5-.5h11c.3 0 .5.2.5.5s-.2.5-.5.5zM74 56.6h-7.5c-.3 0-.5-.2-.5-.5s.2-.5.5-.5H74c.3 0 .5.2.5.5s-.2.5-.5.5zm-14 2.8h5v5h-5v-5zm17.5 1.8h-11c-.3 0-.5-.2-.5-.5s.2-.5.5-.5h11c.3 0 .5.2.5.5s-.2.5-.5.5zM74 63.6h-7.5c-.3 0-.5-.2-.5-.5s.2-.5.5-.5H74c.3 0 .5.2.5.5s-.2.5-.5.5zM12.5 10.5h75c1.1 0 2 .9 2 2v12h-79v-12c0-1.1.9-2 2-2z"/>
  <path d="M24.9 18.4l.6 1.7c-.2.1-.5.1-.7.1s-.4-.1-.6-.1l.7-1.7zm-1.1-2.1l-.1.1c-.1 0-.1.2-.1.2l.6 2.3.5-1.2-.2-.8c-.1-.2-.1-.4-.2-.5-.1 0-.1-.1-.2-.1H24v-.2h1.8v.2h-.3l-.1.1c-.1.1-.1.1-.1.2v.2l.6 2.2s.7-1.2.7-1.5-.1-.7-.4-.9c-.5-.3-.4-.9 0-1.1.1-.1.3-.1.4-.1-.5-.4-1.1-.7-1.8-.7-1 0-1.9.5-2.4 1.4h1.4v.2zm-1.4 0h-.1c-.1.3-.2.7-.2 1.1 0 1.1.7 2.1 1.7 2.5l-1.1-3.4s-.1-.2-.3-.2zm4.7.7c-.3.9-.9 2.4-1.2 3 1-.4 1.6-1.4 1.6-2.5.1-.5-.1-1-.3-1.4.1.2 0 .5-.1.9zm41.2-.2h-3.6c-.4 0-.7.3-.7.7s.3.7.7.7h3.6c.4 0 .7-.3.7-.7s-.3-.7-.7-.7zm-18 0h-3.6c-.4 0-.7.3-.7.7s.3.7.7.7h3.6c.4 0 .7-.3.7-.7s-.3-.7-.7-.7zm27 0h-3.6c-.4 0-.7.3-.7.7s.3.7.7.7h3.6c.4 0 .7-.3.7-.7s-.3-.7-.7-.7zm-18 0h-3.6c-.4 0-.7.3-.7.7s.3.7.7.7h3.6c.4 0 .7-.3.7-.7s-.3-.7-.7-.7z" opacity=".7" fill="#dbdddf"/>
  <path d="M87 11c1.1 0 2 .9 2 2v58c0 1.1-.9 2-2 2H13c-1.1 0-2-.9-2-2V13c0-1.1.9-2 2-2h74m0-1H13c-1.7 0-3 1.3-3 3v58c0 1.7 1.3 3 3 3h74c1.6 0 3-1.3 3-3V13c0-1.7-1.4-3-3-3z" fill="#565d66"/>
  <path d="M74 56.9H26c-.6 0-1-.4-1-1V30.5c0-.6.4-1 1-1h48c.6 0 1 .4 1 1v25.4c0 .5-.4 1-1 1z" fill="#c4c8cb"/>
  <path class="st0" d="M32.5 38.7c0-.5.4-1 .9-1h17.7c.5 0 .9.5.9 1s-.4 1-1 1H33.4c-.5 0-.9-.5-.9-1zm14.5 11H33c-.3 0-.5.2-.5.5s.2.5.5.5h14c.3 0 .5-.2.5-.5s-.2-.5-.5-.5zm17.6 0H49.8c-.2 0-.4.2-.4.5s.2.5.4.5h14.9c.3 0 .4-.2.3-.5 0-.3-.2-.5-.4-.5zm-31.6-2h19.5c.3 0 .5-.2.4-.5 0-.3-.2-.5-.5-.5H33c-.3 0-.5.2-.5.5s.2.5.5.5zm34.1-1H55.3c-.2 0-.3.2-.3.5s.1.5.3.5h11.8c.2 0 .3-.2.3-.5s-.1-.5-.3-.5zm-.1-3H33c-.3 0-.5.2-.5.5s.2.5.5.5h34c.3 0 .5-.2.5-.5s-.2-.5-.5-.5zm4.1-10.2l.9-.9c.1-.1.1-.1 0-.2s-.2-.1-.2 0l-.9.9-.9-.9c-.1-.1-.1-.1-.2 0s-.1.2 0 .2l.9.9-.9.9c-.1.1-.1.1 0 .2s.2.1.2 0l.9-.9.9.9c.1.1.1.1.2 0s.1-.2 0-.2l-.9-.9z"/>
</svg>
