<?xml version="1.0" encoding="utf-8"?>
<!-- Generator: Adobe Illustrator 25.2.1, SVG Export Plug-In . SVG Version: 6.00 Build 0)  -->
<svg version="1.1" id="Layer_1" xmlns="http://www.w3.org/2000/svg" xmlns:xlink="http://www.w3.org/1999/xlink" x="0px" y="0px"
	 viewBox="0 0 100 70" style="enable-background:new 0 0 100 70;" xml:space="preserve">
<style type="text/css">
	.st0{fill:#FFFFFF;}
	.st1{fill:#565D66;}
	.st2{fill:#E6E7E8;}
	.st3{fill:#D2D4D6;}
</style>
<path class="st0" d="M13,73.5c-1.4,0-2.5-1.1-2.5-2.5V13c0-1.4,1.1-2.5,2.5-2.5h74c1.4,0,2.5,1.1,2.5,2.5v58c0,1.4-1.1,2.5-2.5,2.5
	H13z"/>
<path class="st1" d="M87,11c1.1,0,2,0.9,2,2v58c0,1.1-0.9,2-2,2H13c-1.1,0-2-0.9-2-2V13c0-1.1,0.9-2,2-2H87 M87,10H13
	c-1.7,0-3,1.3-3,3v58c0,1.7,1.3,3,3,3h74c1.6,0,3-1.3,3-3V13C90,11.3,88.6,10,87,10z"/>
<path class="st2" d="M68.5,45h-37c-0.3,0-0.5-0.2-0.5-0.5l0,0c0-0.3,0.2-0.5,0.5-0.5h36.9c0.3,0,0.5,0.2,0.5,0.5l0,0
	C69,44.8,68.8,45,68.5,45z"/>
<path class="st2" d="M68.5,48h-37c-0.3,0-0.5-0.2-0.5-0.5l0,0c0-0.3,0.2-0.5,0.5-0.5h36.9c0.3,0,0.5,0.2,0.5,0.5l0,0
	C69,47.8,68.8,48,68.5,48z"/>
<path class="st2" d="M68.5,51.1h-37c-0.3,0-0.5-0.2-0.5-0.5l0,0c0-0.3,0.2-0.5,0.5-0.5h36.9c0.3,0,0.5,0.2,0.5,0.5l0,0
	C69,50.8,68.8,51.1,68.5,51.1z"/>
<path class="st2" d="M68.5,54.1h-37c-0.3,0-0.5-0.2-0.5-0.5l0,0c0-0.3,0.2-0.5,0.5-0.5h36.9c0.3,0,0.5,0.2,0.5,0.5l0,0
	C69,53.9,68.8,54.1,68.5,54.1z"/>
<path class="st2" d="M68.5,57.1h-37c-0.3,0-0.5-0.2-0.5-0.5l0,0c0-0.3,0.2-0.5,0.5-0.5h36.9c0.3,0,0.5,0.2,0.5,0.5l0,0
	C69,56.9,68.8,57.1,68.5,57.1z"/>
<path class="st2" d="M68.5,60.2h-37c-0.3,0-0.5-0.2-0.5-0.5l0,0c0-0.3,0.2-0.5,0.5-0.5h36.9c0.3,0,0.5,0.2,0.5,0.5l0,0
	C69,59.9,68.8,60.2,68.5,60.2z"/>
<path class="st2" d="M68.5,63.2h-37c-0.3,0-0.5-0.2-0.5-0.5l0,0c0-0.3,0.2-0.5,0.5-0.5h36.9c0.3,0,0.5,0.2,0.5,0.5l0,0
	C69,62.9,68.8,63.2,68.5,63.2z"/>
<path class="st2" d="M68.5,66.2h-37c-0.3,0-0.5-0.2-0.5-0.5l0,0c0-0.3,0.2-0.5,0.5-0.5h36.9c0.3,0,0.5,0.2,0.5,0.5l0,0
	C69,66,68.8,66.2,68.5,66.2z"/>
<path class="st3" d="M39.2,19.3h-7.4c-0.4,0-0.8-0.4-0.8-0.8l0,0c0-0.4,0.4-0.8,0.8-0.8h7.4c0.4,0,0.8,0.4,0.8,0.8l0,0
	C40,19,39.6,19.3,39.2,19.3z"/>
<path class="st3" d="M53.2,19.3H42.8c-0.4,0-0.8-0.4-0.8-0.8l0,0c0-0.4,0.4-0.8,0.8-0.8h10.4c0.4,0,0.8,0.4,0.8,0.8l0,0
	C54,19,53.6,19.3,53.2,19.3z"/>
<path class="st3" d="M46.2,22.9H31.8c-0.4,0-0.8-0.4-0.8-0.8l0,0c0-0.4,0.4-0.8,0.8-0.8h14.4c0.4,0,0.8,0.4,0.8,0.8l0,0
	C47,22.6,46.6,22.9,46.2,22.9z"/>
<path class="st3" d="M64.2,22.9H49.8c-0.4,0-0.8-0.4-0.8-0.8l0,0c0-0.4,0.4-0.8,0.8-0.8h14.4c0.4,0,0.8,0.4,0.8,0.8l0,0
	C65,22.6,64.7,22.9,64.2,22.9z"/>
<path class="st2" d="M68.5,39h-37c-0.3,0-0.5-0.2-0.5-0.5l0,0c0-0.3,0.2-0.5,0.5-0.5h36.9c0.3,0,0.5,0.2,0.5,0.5l0,0
	C69,38.7,68.8,39,68.5,39z"/>
<path class="st2" d="M68.5,42h-37c-0.3,0-0.5-0.2-0.5-0.5l0,0c0-0.3,0.2-0.5,0.5-0.5h36.9c0.3,0,0.5,0.2,0.5,0.5l0,0
	C69,41.8,68.8,42,68.5,42z"/>
<path class="st1" d="M31,28v5h7.8v-5H31z M34.9,31.4c-0.5,0-0.9-0.4-0.9-0.9c0-0.5,0.4-0.9,0.9-0.9s0.9,0.4,0.9,0.9
	C35.8,30.9,35.4,31.4,34.9,31.4z"/>
<path class="st1" d="M41.1,28v5h7.8v-5H41.1z M45,31.4c-0.5,0-0.9-0.4-0.9-0.9c0-0.5,0.4-0.9,0.9-0.9s0.9,0.4,0.9,0.9
	C45.9,30.9,45.5,31.4,45,31.4z"/>
<path class="st1" d="M51.2,28v5H59v-5H51.2z M55.1,31.4c-0.5,0-0.9-0.4-0.9-0.9c0-0.5,0.4-0.9,0.9-0.9S56,30,56,30.5
	C56,30.9,55.6,31.4,55.1,31.4z"/>
<path class="st1" d="M61.3,28v5h7.8v-5H61.3z M65.2,31.4c-0.5,0-0.9-0.4-0.9-0.9c0-0.5,0.4-0.9,0.9-0.9s0.9,0.4,0.9,0.9
	C66.1,30.9,65.7,31.4,65.2,31.4z"/>
</svg>
