<?xml version="1.0" encoding="utf-8"?>
<!-- Generator: Adobe Illustrator 23.0.4, SVG Export Plug-In . SVG Version: 6.00 Build 0)  -->
<svg version="1.1" id="Layer_1" xmlns="http://www.w3.org/2000/svg" xmlns:xlink="http://www.w3.org/1999/xlink" x="0px" y="0px"
	 viewBox="0 0 100 70" style="enable-background:new 0 0 100 70;" xml:space="preserve">
<style type="text/css">
	.st0{fill:#FFFFFF;}
	.st1{fill:#565D66;}
	.st2{fill:#E6E7E8;}
	.st3{fill:#D2D4D6;}
	.st4{fill:none;stroke:#565D66;stroke-width:0.5;stroke-miterlimit:10;}
</style>
<path class="st0" d="M13,73.5c-1.4,0-2.5-1.1-2.5-2.5V13c0-1.4,1.1-2.5,2.5-2.5h74c1.4,0,2.5,1.1,2.5,2.5v58c0,1.4-1.1,2.5-2.5,2.5
	H13z"/>
<path class="st1" d="M87,11c1.1,0,2,0.9,2,2v58c0,1.1-0.9,2-2,2H13c-1.1,0-2-0.9-2-2V13c0-1.1,0.9-2,2-2H87 M87,10H13
	c-1.7,0-3,1.3-3,3v58c0,1.7,1.3,3,3,3h74c1.6,0,3-1.3,3-3V13C90,11.3,88.6,10,87,10z"/>
<path class="st2" d="M68.5,45H31.5c-0.3,0-0.5-0.2-0.5-0.5v0c0-0.3,0.2-0.5,0.5-0.5h36.9c0.3,0,0.5,0.2,0.5,0.5v0
	C69,44.8,68.8,45,68.5,45z"/>
<path class="st2" d="M68.5,48H31.5c-0.3,0-0.5-0.2-0.5-0.5l0,0c0-0.3,0.2-0.5,0.5-0.5h36.9c0.3,0,0.5,0.2,0.5,0.5l0,0
	C69,47.8,68.8,48,68.5,48z"/>
<path class="st2" d="M68.5,51.1H31.5c-0.3,0-0.5-0.2-0.5-0.5l0,0c0-0.3,0.2-0.5,0.5-0.5h36.9c0.3,0,0.5,0.2,0.5,0.5l0,0
	C69,50.8,68.8,51.1,68.5,51.1z"/>
<path class="st2" d="M68.5,54.1H31.5c-0.3,0-0.5-0.2-0.5-0.5l0,0c0-0.3,0.2-0.5,0.5-0.5h36.9c0.3,0,0.5,0.2,0.5,0.5l0,0
	C69,53.9,68.8,54.1,68.5,54.1z"/>
<path class="st2" d="M68.5,57.1H31.5c-0.3,0-0.5-0.2-0.5-0.5l0,0c0-0.3,0.2-0.5,0.5-0.5h36.9c0.3,0,0.5,0.2,0.5,0.5l0,0
	C69,56.9,68.8,57.1,68.5,57.1z"/>
<path class="st2" d="M68.5,60.2H31.5c-0.3,0-0.5-0.2-0.5-0.5l0,0c0-0.3,0.2-0.5,0.5-0.5h36.9c0.3,0,0.5,0.2,0.5,0.5l0,0
	C69,59.9,68.8,60.2,68.5,60.2z"/>
<path class="st2" d="M68.5,63.2H31.5c-0.3,0-0.5-0.2-0.5-0.5l0,0c0-0.3,0.2-0.5,0.5-0.5h36.9c0.3,0,0.5,0.2,0.5,0.5l0,0
	C69,62.9,68.8,63.2,68.5,63.2z"/>
<path class="st2" d="M68.5,66.2H31.5c-0.3,0-0.5-0.2-0.5-0.5l0,0c0-0.3,0.2-0.5,0.5-0.5h36.9c0.3,0,0.5,0.2,0.5,0.5l0,0
	C69,66,68.8,66.2,68.5,66.2z"/>
<path class="st3" d="M39.2,19.3h-7.4c-0.4,0-0.8-0.4-0.8-0.8v0c0-0.4,0.4-0.8,0.8-0.8h7.4c0.4,0,0.8,0.4,0.8,0.8v0
	C40,19,39.6,19.3,39.2,19.3z"/>
<path class="st3" d="M53.2,19.3H42.8c-0.4,0-0.8-0.4-0.8-0.8v0c0-0.4,0.4-0.8,0.8-0.8h10.4c0.4,0,0.8,0.4,0.8,0.8v0
	C54,19,53.6,19.3,53.2,19.3z"/>
<path class="st3" d="M46.2,22.9H31.8c-0.4,0-0.8-0.4-0.8-0.8v0c0-0.4,0.4-0.8,0.8-0.8h14.4c0.4,0,0.8,0.4,0.8,0.8v0
	C47,22.6,46.6,22.9,46.2,22.9z"/>
<path class="st3" d="M64.2,22.9H49.8c-0.4,0-0.8-0.4-0.8-0.8v0c0-0.4,0.4-0.8,0.8-0.8h14.4c0.4,0,0.8,0.4,0.8,0.8v0
	C65,22.6,64.7,22.9,64.2,22.9z"/>
<rect x="31" y="28.2" class="st4" width="38" height="4.5"/>
<line class="st4" x1="40" y1="28.2" x2="40" y2="32.7"/>
<line class="st4" x1="50" y1="28.2" x2="50" y2="32.7"/>
<line class="st4" x1="59.4" y1="28.2" x2="59.4" y2="32.7"/>
<circle class="st1" cx="35.4" cy="30.5" r="0.9"/>
<circle class="st1" cx="45" cy="30.6" r="0.9"/>
<circle class="st1" cx="54.7" cy="30.5" r="0.9"/>
<circle class="st1" cx="64.2" cy="30.5" r="0.9"/>
<path class="st2" d="M68.5,39H31.5c-0.3,0-0.5-0.2-0.5-0.5l0,0c0-0.3,0.2-0.5,0.5-0.5h36.9c0.3,0,0.5,0.2,0.5,0.5l0,0
	C69,38.7,68.8,39,68.5,39z"/>
<path class="st2" d="M68.5,42H31.5c-0.3,0-0.5-0.2-0.5-0.5v0c0-0.3,0.2-0.5,0.5-0.5h36.9c0.3,0,0.5,0.2,0.5,0.5v0
	C69,41.8,68.8,42,68.5,42z"/>
</svg>
