<svg version="1.1" id="Layer_1" xmlns="http://www.w3.org/2000/svg" x="0" y="0" viewBox="0 0 100 70" xml:space="preserve">
  <style>
    .st0{fill:#fff}
  </style>
  <path class="st0" d="M13 73.5c-1.4 0-2.5-1.1-2.5-2.5V13c0-1.4 1.1-2.5 2.5-2.5h74c1.4 0 2.5 1.1 2.5 2.5v58c0 1.4-1.1 2.5-2.5 2.5H13z"/>
  <path d="M87 11c1.1 0 2 .9 2 2v58c0 1.1-.9 2-2 2H13c-1.1 0-2-.9-2-2V13c0-1.1.9-2 2-2h74m0-1H13c-1.7 0-3 1.3-3 3v58c0 1.7 1.3 3 3 3h74c1.6 0 3-1.3 3-3V13c0-1.7-1.4-3-3-3z" fill="#565d66"/>
  <path d="M22 40c0-.5.4-1 1-1h19.3c.5 0 1 .5 1 1-.1.5-.5 1-1.1 1H23c-.5 0-1-.5-1-1zm33.5-24h-33c-.3 0-.5.2-.5.5v19c0 .3.2.5.5.5h33c.3 0 .5-.2.5-.5v-19c0-.3-.2-.5-.5-.5zm0 28h-33c-.3 0-.5.2-.5.5s.2.5.5.5h33c.3 0 .5-.2.5-.5s-.2-.5-.5-.5zm0 8h-33c-.3 0-.5.2-.5.5v19c0 .3.2.5.5.5h33c.3 0 .5-.2.5-.5v-19c0-.3-.2-.5-.5-.5zm0-5h-33c-.3 0-.5.2-.5.5s.2.5.5.5h33c.3 0 .5-.2.5-.5s-.2-.5-.5-.5zm5.2-29.5h9c.4 0 .8-.3.8-.8s-.4-.8-.8-.8h-9c-.5 0-.8.4-.8.8 0 .5.4.8.8.8zm-.7 15h5v-5h-5v5zm6.5-8.8c-.3 0-.5.2-.5.5s.2.5.5.5H74c.3 0 .5-.2.5-.5s-.2-.5-.5-.5h-7.5zM65 20.5h-5v5h5v-5zm1 1.3c0 .3.2.5.5.5h11c.3 0 .5-.2.5-.5s-.2-.5-.5-.5h-11c-.3 0-.5.2-.5.5zm11.5 20.5h-11c-.3 0-.5.2-.5.5s.2.5.5.5h11c.3 0 .5-.2.5-.5s-.2-.5-.5-.5zm0-7h-11c-.3 0-.5.2-.5.5s.2.5.5.5h11c.3 0 .5-.2.5-.5s-.2-.5-.5-.5zm-11 3.4H74c.3 0 .5-.2.5-.5s-.2-.5-.5-.5h-7.5c-.3 0-.5.2-.5.5s.2.5.5.5zm11-10.4h-11c-.3 0-.5.2-.5.5s.2.5.5.5h11c.3 0 .5-.2.5-.5s-.2-.5-.5-.5zM60 39.5h5v-5h-5v5zm6.5-7.8H74c.3 0 .5-.2.5-.5s-.2-.5-.5-.5h-7.5c-.3 0-.5.2-.5.5s.2.5.5.5zM60 46.5h5v-5h-5v5zm.8 6.5h10.1c.4 0 .7-.3.8-.8 0-.4-.4-.7-.8-.7H60.8c-.5 0-.8.3-.8.7 0 .5.4.8.8.8zm13.7-7.8c0-.3-.2-.5-.5-.5h-7.5c-.3 0-.5.2-.5.5s.2.5.5.5H74c.3 0 .5-.2.5-.5z" fill="#f3f3f3"/>
  <path d="M83 66H17c-1.1 0-2-.9-2-2v-6c0-1.1.9-2 2-2h66c1.1 0 2 .9 2 2v6c0 1.1-.9 2-2 2z" fill="#c3c7ca"/>
  <path class="st0" d="M24.2 60.2v1.5c0 .5-.5 1-1 1h-1.5c-.6 0-1-.5-1-1v-1.5c0-.5.4-1 1-1h1.5c.5 0 1 .5 1 1zm12.8-1h-1.5c-.5 0-1 .5-1 1v1.5c0 .5.5 1 1 1H37c.5 0 1-.5 1-1v-1.5c0-.5-.5-1-1-1zm13.7 0h-1.5c-.6 0-1 .5-1 1v1.5c0 .5.4 1 1 1h1.5c.5 0 1-.5 1-1v-1.5c0-.5-.4-1-1-1zm13.8 0H63c-.5 0-1 .5-1 1v1.5c0 .5.5 1 1 1h1.5c.6 0 1-.5 1-1v-1.5c0-.5-.5-1-1-1zm13.8 0h-1.5c-.5 0-1 .5-1 1v1.5c0 .5.5 1 1 1h1.5c.6 0 1-.5 1-1v-1.5c0-.5-.4-1-1-1z"/>
</svg>
