<svg id="Layer_1" xmlns="http://www.w3.org/2000/svg" viewBox="0 0 100 70"><style>.st0{fill:#fff}.st2{opacity:.7;fill:#e6e7e8}</style><path class="st0" d="M13 73.5c-1.4 0-2.5-1.1-2.5-2.5V13c0-1.4 1.1-2.5 2.5-2.5h74c1.4 0 2.5 1.1 2.5 2.5v58c0 1.4-1.1 2.5-2.5 2.5H13z"/><path d="M87 11c1.1 0 2 .9 2 2v58c0 1.1-.9 2-2 2H13c-1.1 0-2-.9-2-2V13c0-1.1.9-2 2-2h74m0-1H13c-1.7 0-3 1.3-3 3v58c0 1.7 1.3 3 3 3h74c1.6 0 3-1.3 3-3V13c0-1.7-1.4-3-3-3z" fill="#565d66"/><path class="st2" d="M52.8 36H22.5c-.3 0-.5-.2-.5-.5v-19c0-.3.2-.5.5-.5h30.3c.3 0 .5.2.5.5v19c-.1.3-.3.5-.5.5zM40.5 41H22.9c-.5 0-.9-.5-.9-1s.4-1 .9-1h17.7c.5 0 .9.5.9 1s-.4 1-1 1zM52.8 45H22.5c-.3 0-.5-.2-.5-.5s.2-.5.5-.5h30.3c.3 0 .5.2.5.5-.1.3-.3.5-.5.5zM52.8 48H22.5c-.3 0-.5-.2-.5-.5s.2-.5.5-.5h30.3c.3 0 .5.2.5.5-.1.3-.3.5-.5.5z"/><path d="M76.8 72H57.9c-.7 0-1.2-.4-1.2-1V17c0-.6.5-1 1.2-1h18.9c.7 0 1.2.4 1.2 1v54c0 .6-.5 1-1.2 1z" fill="#c3c7ca"/><path class="st0" d="M69.9 65H59.4c-.3 0-.5-.2-.5-.5s.2-.5.5-.5H70c.3 0 .5.2.5.5-.1.3-.3.5-.6.5z"/><path class="st2" d="M52.8 72H22.5c-.3 0-.5-.2-.5-.5v-19c0-.3.2-.5.5-.5h30.3c.3 0 .5.2.5.5v19c-.1.3-.3.5-.5.5z"/><path class="st0" d="M68.6 19.5h-9c-.4 0-.7-.3-.7-.7 0-.4.3-.8.7-.8h9c.4 0 .8.3.8.8-.1.4-.4.7-.8.7zM58.9 22.5h5v5h-5zM75.4 24.3h-10c-.3 0-.5-.2-.5-.5s.2-.5.5-.5h10c.3 0 .5.2.5.5s-.2.5-.5.5zM72.2 26.7h-6.8c-.3 0-.5-.2-.5-.5s.2-.5.5-.5h6.8c.3 0 .5.2.5.5s-.3.5-.5.5zM58.9 29.5h5v5h-5zM75.4 31.3h-10c-.3 0-.5-.2-.5-.5s.2-.5.5-.5h10c.3 0 .5.2.5.5s-.2.5-.5.5zM72.2 33.7h-6.8c-.3 0-.5-.2-.5-.5s.2-.5.5-.5h6.8c.3 0 .5.2.5.5s-.3.5-.5.5zM58.9 36.5h5v5h-5zM75.4 38.3h-10c-.3 0-.5-.2-.5-.5s.2-.5.5-.5h10c.3 0 .5.2.5.5s-.2.5-.5.5zM72.2 40.7h-6.8c-.3 0-.5-.2-.5-.5s.2-.5.5-.5h6.8c.3 0 .5.2.5.5s-.3.5-.5.5zM69.7 55H59.6c-.4 0-.7-.3-.7-.8 0-.4.3-.8.7-.8h10.1c.4 0 .8.3.8.8s-.4.8-.8.8zM75.4 59h-16c-.3 0-.5-.2-.5-.5s.2-.5.5-.5h16c.3 0 .5.2.5.5s-.2.5-.5.5zM64.8 62h-5.4c-.3 0-.5-.2-.5-.5s.2-.5.5-.5h5.4c.3 0 .5.2.5.5s-.2.5-.5.5zM75.4 62h-8.7c-.3 0-.5-.2-.5-.5s.2-.5.5-.5h8.7c.3 0 .5.2.5.5s-.2.5-.5.5zM75.4 68h-5.6c-.3 0-.5-.2-.5-.5s.2-.5.5-.5h5.6c.3 0 .5.2.5.5s-.2.5-.5.5zM67.9 68h-8.5c-.3 0-.5-.2-.5-.5s.2-.5.5-.5h8.5c.3 0 .5.2.5.5s-.3.5-.5.5z"/><g><path class="st0" d="M58.9 43.5h5v5h-5zM75.4 45.3h-10c-.3 0-.5-.2-.5-.5s.2-.5.5-.5h10c.3 0 .5.2.5.5s-.2.5-.5.5zM72.2 47.7h-6.8c-.3 0-.5-.2-.5-.5s.2-.5.5-.5h6.8c.3 0 .5.2.5.5s-.3.5-.5.5z"/></g><path class="st0" d="M75.4 65h-3.5c-.3 0-.5-.2-.5-.5s.2-.5.5-.5h3.5c.3 0 .5.2.5.5s-.2.5-.5.5z"/></svg>