<?xml version="1.0" encoding="utf-8"?>
<!-- Generator: Adobe Illustrator 23.0.2, SVG Export Plug-In . SVG Version: 6.00 Build 0)  -->
<svg version="1.1" id="Layer_1" xmlns="http://www.w3.org/2000/svg" xmlns:xlink="http://www.w3.org/1999/xlink" x="0px" y="0px"
	 viewBox="0 0 100 70" style="enable-background:new 0 0 100 70;" xml:space="preserve">
<style type="text/css">
	.st0{fill:#FFFFFF;}
	.st1{fill:#C3C7CA;}
	.st2{fill:#565D66;}
	.st3{opacity:0.8;fill:#E6E7E8;enable-background:new    ;}
</style>
<path class="st0" d="M13,73.5c-1.4,0-2.5-1.1-2.5-2.5V13c0-1.4,1.1-2.5,2.5-2.5h74c1.4,0,2.5,1.1,2.5,2.5v58c0,1.4-1.1,2.5-2.5,2.5
	H13z"/>
<rect x="57.4" y="11" class="st1" width="1" height="62"/>
<path class="st2" d="M87,11c1.1,0,2,0.9,2,2v58c0,1.1-0.9,2-2,2H13c-1.1,0-2-0.9-2-2V13c0-1.1,0.9-2,2-2H87 M87,10H13
	c-1.7,0-3,1.3-3,3v58c0,1.7,1.3,3,3,3h74c1.6,0,3-1.3,3-3V13C90,11.3,88.6,10,87,10z"/>
<path class="st1" d="M74.7,63H63.5c-0.3,0-0.5-0.2-0.5-0.5s0.2-0.5,0.5-0.5h11.2c0.3,0,0.5,0.2,0.5,0.5S75,63,74.7,63z"/>
<path class="st3" d="M52.5,36h-33c-0.3,0-0.5-0.2-0.5-0.5v-19c0-0.3,0.2-0.5,0.5-0.5h33c0.3,0,0.5,0.2,0.5,0.5v19
	C53,35.8,52.8,36,52.5,36z M39.2,41H20c-0.5,0-1-0.5-1-1s0.4-1,1-1h19.3c0.5,0,1,0.5,1,1C40.2,40.5,39.8,41,39.2,41z M52.5,45h-33
	c-0.3,0-0.5-0.2-0.5-0.5s0.2-0.5,0.5-0.5h33c0.3,0,0.5,0.2,0.5,0.5S52.8,45,52.5,45z M52.5,48h-33c-0.3,0-0.5-0.2-0.5-0.5
	s0.2-0.5,0.5-0.5h33c0.3,0,0.5,0.2,0.5,0.5S52.8,48,52.5,48z M52.5,72h-33c-0.3,0-0.5-0.2-0.5-0.5v-19c0-0.3,0.2-0.5,0.5-0.5h33
	c0.3,0,0.5,0.2,0.5,0.5v19C53,71.8,52.8,72,52.5,72z"/>
<path class="st1" d="M72.7,17.5h-9c-0.4,0-0.8-0.3-0.8-0.8c0-0.4,0.3-0.8,0.8-0.8h9c0.4,0,0.8,0.3,0.8,0.8S73.1,17.5,72.7,17.5z
	 M63,20.5h5v5h-5V20.5z M80.5,22.3h-11c-0.3,0-0.5-0.2-0.5-0.5s0.2-0.5,0.5-0.5h11c0.3,0,0.5,0.2,0.5,0.5S80.8,22.3,80.5,22.3z
	 M77,24.7h-7.5c-0.3,0-0.5-0.2-0.5-0.5s0.2-0.5,0.5-0.5H77c0.3,0,0.5,0.2,0.5,0.5S77.3,24.7,77,24.7z M63,27.5h5v5h-5V27.5z
	 M80.5,29.3h-11c-0.3,0-0.5-0.2-0.5-0.5s0.2-0.5,0.5-0.5h11c0.3,0,0.5,0.2,0.5,0.5S80.8,29.3,80.5,29.3z M77,31.7h-7.5
	c-0.3,0-0.5-0.2-0.5-0.5s0.2-0.5,0.5-0.5H77c0.3,0,0.5,0.2,0.5,0.5S77.3,31.7,77,31.7z M63,34.5h5v5h-5V34.5z M80.5,36.3h-11
	c-0.3,0-0.5-0.2-0.5-0.5s0.2-0.5,0.5-0.5h11c0.3,0,0.5,0.2,0.5,0.5S80.8,36.3,80.5,36.3z M77,38.7h-7.5c-0.3,0-0.5-0.2-0.5-0.5
	s0.2-0.5,0.5-0.5H77c0.3,0,0.5,0.2,0.5,0.5S77.3,38.7,77,38.7z M73.9,53H63.8c-0.4,0-0.8-0.3-0.8-0.8c0-0.4,0.3-0.7,0.8-0.7h10.1
	c0.4,0,0.8,0.3,0.8,0.7C74.6,52.7,74.3,53,73.9,53z M80.5,57h-17c-0.3,0-0.5-0.2-0.5-0.5s0.2-0.5,0.5-0.5h17c0.3,0,0.5,0.2,0.5,0.5
	S80.8,57,80.5,57z M69.3,60h-5.8c-0.3,0-0.5-0.2-0.5-0.5s0.2-0.5,0.5-0.5h5.8c0.3,0,0.5,0.2,0.5,0.5S69.6,60,69.3,60z M80.5,60h-9.2
	c-0.3,0-0.5-0.2-0.5-0.5S71,59,71.3,59h9.2c0.3,0,0.5,0.2,0.5,0.5S80.8,60,80.5,60z M80.5,66h-6c-0.3,0-0.5-0.2-0.5-0.5
	s0.2-0.5,0.5-0.5h6c0.3,0,0.5,0.2,0.5,0.5S80.8,66,80.5,66z M72.5,66h-9c-0.3,0-0.5-0.2-0.5-0.5s0.2-0.5,0.5-0.5h9
	c0.3,0,0.5,0.2,0.5,0.5S72.8,66,72.5,66z"/>
<g>
	<path class="st1" d="M63,41.5h5v5h-5V41.5z M80.5,43.3h-11c-0.3,0-0.5-0.2-0.5-0.5s0.2-0.5,0.5-0.5h11c0.3,0,0.5,0.2,0.5,0.5
		S80.8,43.3,80.5,43.3z M77,45.7h-7.5c-0.3,0-0.5-0.2-0.5-0.5s0.2-0.5,0.5-0.5H77c0.3,0,0.5,0.2,0.5,0.5S77.3,45.7,77,45.7z"/>
</g>
<path class="st1" d="M80.5,63h-3.8c-0.3,0-0.5-0.2-0.5-0.5s0.2-0.5,0.5-0.5h3.8c0.3,0,0.5,0.2,0.5,0.5S80.8,63,80.5,63z"/>
</svg>
