<svg id="Layer_1" xmlns="http://www.w3.org/2000/svg" viewBox="0 0 100 70"><style>.st2{fill:#c3c7ca}.st3{opacity:.8;fill:#e6e7e8;enable-background:new}</style><path d="M13 73.5c-1.4 0-2.5-1.1-2.5-2.5V13c0-1.4 1.1-2.5 2.5-2.5h74c1.4 0 2.5 1.1 2.5 2.5v58c0 1.4-1.1 2.5-2.5 2.5H13z" fill="#fff"/><path d="M87 11c1.1 0 2 .9 2 2v58c0 1.1-.9 2-2 2H13c-1.1 0-2-.9-2-2V13c0-1.1.9-2 2-2h74m0-1H13c-1.7 0-3 1.3-3 3v58c0 1.7 1.3 3 3 3h74c1.6 0 3-1.3 3-3V13c0-1.7-1.4-3-3-3z" fill="#565d66"/><path class="st2" d="M71.7 63H60.5c-.3 0-.5-.2-.5-.5s.2-.5.5-.5h11.2c.3 0 .5.2.5.5s-.2.5-.5.5z"/><path class="st3" d="M55.5 36h-33c-.3 0-.5-.2-.5-.5v-19c0-.3.2-.5.5-.5h33c.3 0 .5.2.5.5v19c0 .3-.2.5-.5.5zM42.2 41H23c-.5 0-1-.5-1-1s.4-1 1-1h19.3c.5 0 1 .5 1 1-.1.5-.5 1-1.1 1zM55.5 45h-33c-.3 0-.5-.2-.5-.5s.2-.5.5-.5h33c.3 0 .5.2.5.5s-.2.5-.5.5zM55.5 48h-33c-.3 0-.5-.2-.5-.5s.2-.5.5-.5h33c.3 0 .5.2.5.5s-.2.5-.5.5zM55.5 72h-33c-.3 0-.5-.2-.5-.5v-19c0-.3.2-.5.5-.5h33c.3 0 .5.2.5.5v19c0 .3-.2.5-.5.5z"/><path class="st2" d="M69.7 17.5h-9c-.4 0-.8-.3-.8-.8 0-.4.3-.8.8-.8h9c.4 0 .8.3.8.8s-.4.8-.8.8zM60 20.5h5v5h-5zM77.5 22.3h-11c-.3 0-.5-.2-.5-.5s.2-.5.5-.5h11c.3 0 .5.2.5.5s-.2.5-.5.5zM74 24.7h-7.5c-.3 0-.5-.2-.5-.5s.2-.5.5-.5H74c.3 0 .5.2.5.5s-.2.5-.5.5zM60 27.5h5v5h-5zM77.5 29.3h-11c-.3 0-.5-.2-.5-.5s.2-.5.5-.5h11c.3 0 .5.2.5.5s-.2.5-.5.5zM74 31.7h-7.5c-.3 0-.5-.2-.5-.5s.2-.5.5-.5H74c.3 0 .5.2.5.5s-.2.5-.5.5zM60 34.5h5v5h-5zM77.5 36.3h-11c-.3 0-.5-.2-.5-.5s.2-.5.5-.5h11c.3 0 .5.2.5.5s-.2.5-.5.5zM74 38.7h-7.5c-.3 0-.5-.2-.5-.5s.2-.5.5-.5H74c.3 0 .5.2.5.5s-.2.5-.5.5zM70.9 53H60.8c-.4 0-.8-.3-.8-.8 0-.4.3-.7.8-.7h10.1c.4 0 .8.3.8.7-.1.5-.4.8-.8.8zM77.5 57h-17c-.3 0-.5-.2-.5-.5s.2-.5.5-.5h17c.3 0 .5.2.5.5s-.2.5-.5.5zM66.3 60h-5.8c-.3 0-.5-.2-.5-.5s.2-.5.5-.5h5.8c.3 0 .5.2.5.5s-.2.5-.5.5zM77.5 60h-9.2c-.3 0-.5-.2-.5-.5s.2-.5.5-.5h9.2c.3 0 .5.2.5.5s-.2.5-.5.5zM77.5 66h-6c-.3 0-.5-.2-.5-.5s.2-.5.5-.5h6c.3 0 .5.2.5.5s-.2.5-.5.5zM69.5 66h-9c-.3 0-.5-.2-.5-.5s.2-.5.5-.5h9c.3 0 .5.2.5.5s-.2.5-.5.5z"/><g><path class="st2" d="M60 41.5h5v5h-5zM77.5 43.3h-11c-.3 0-.5-.2-.5-.5s.2-.5.5-.5h11c.3 0 .5.2.5.5s-.2.5-.5.5zM74 45.7h-7.5c-.3 0-.5-.2-.5-.5s.2-.5.5-.5H74c.3 0 .5.2.5.5s-.2.5-.5.5z"/></g><path class="st2" d="M77.5 63h-3.8c-.3 0-.5-.2-.5-.5s.2-.5.5-.5h3.8c.3 0 .5.2.5.5s-.2.5-.5.5z"/></svg>