<?xml version="1.0" encoding="utf-8"?>
<!-- Generator: Adobe Illustrator 23.0.2, SVG Export Plug-In . SVG Version: 6.00 Build 0)  -->
<svg version="1.1" id="Layer_1" xmlns="http://www.w3.org/2000/svg" xmlns:xlink="http://www.w3.org/1999/xlink" x="0px" y="0px"
	 viewBox="0 0 100 70" style="enable-background:new 0 0 100 70;" xml:space="preserve">
<style type="text/css">
	.st0{fill:#FFFFFF;}
	.st1{fill:#C3C7CA;}
	.st2{fill:#565D66;}
	.st3{opacity:0.7;fill:#E6E7E8;enable-background:new    ;}
</style>
<path class="st0" d="M13,73.5c-1.4,0-2.5-1.1-2.5-2.5V13c0-1.4,1.1-2.5,2.5-2.5h74c1.4,0,2.5,1.1,2.5,2.5v58c0,1.4-1.1,2.5-2.5,2.5
	H13z"/>
<path class="st1" d="M87.5,73.5H56.7V10.6h30.8c1.1,0,2,0.9,2,2v58.9C89.5,72.6,88.6,73.5,87.5,73.5z"/>
<path class="st2" d="M87,11c1.1,0,2,0.9,2,2v58c0,1.1-0.9,2-2,2H13c-1.1,0-2-0.9-2-2V13c0-1.1,0.9-2,2-2H87 M87,10H13
	c-1.7,0-3,1.3-3,3v58c0,1.7,1.3,3,3,3h74c1.6,0,3-1.3,3-3V13C90,11.3,88.6,10,87,10z"/>
<path class="st3" d="M50.8,36H20.5c-0.3,0-0.5-0.2-0.5-0.5v-19c0-0.3,0.2-0.5,0.5-0.5h30.3c0.3,0,0.5,0.2,0.5,0.5v19
	C51.2,35.8,51,36,50.8,36z M38.5,41H20.9c-0.5,0-0.9-0.5-0.9-1s0.4-1,0.9-1h17.7c0.5,0,0.9,0.5,0.9,1S39.1,41,38.5,41z M50.8,45
	H20.5c-0.3,0-0.5-0.2-0.5-0.5s0.2-0.5,0.5-0.5h30.3c0.3,0,0.5,0.2,0.5,0.5C51.2,44.8,51,45,50.8,45z M50.8,48H20.5
	c-0.3,0-0.5-0.2-0.5-0.5s0.2-0.5,0.5-0.5h30.3c0.3,0,0.5,0.2,0.5,0.5C51.2,47.8,51,48,50.8,48z"/>
<path class="st0" d="M72.9,65H62.4c-0.3,0-0.5-0.2-0.5-0.5s0.2-0.5,0.5-0.5H73c0.3,0,0.5,0.2,0.5,0.5C73.4,64.8,73.2,65,72.9,65z"/>
<path class="st3" d="M50.8,72H20.5c-0.3,0-0.5-0.2-0.5-0.5v-19c0-0.3,0.2-0.5,0.5-0.5h30.3c0.3,0,0.5,0.2,0.5,0.5v19
	C51.2,71.8,51,72,50.8,72z"/>
<path class="st0" d="M71.6,19.5h-9c-0.4,0-0.7-0.3-0.7-0.7c0-0.4,0.3-0.8,0.7-0.8h9c0.4,0,0.8,0.3,0.8,0.8
	C72.3,19.2,72,19.5,71.6,19.5z M61.9,22.5h5v5h-5V22.5z M78.4,24.3h-10c-0.3,0-0.5-0.2-0.5-0.5s0.2-0.5,0.5-0.5h10
	c0.3,0,0.5,0.2,0.5,0.5S78.7,24.3,78.4,24.3z M75.2,26.7h-6.8c-0.3,0-0.5-0.2-0.5-0.5s0.2-0.5,0.5-0.5h6.8c0.3,0,0.5,0.2,0.5,0.5
	S75.4,26.7,75.2,26.7z M61.9,29.5h5v5h-5V29.5z M78.4,31.3h-10c-0.3,0-0.5-0.2-0.5-0.5s0.2-0.5,0.5-0.5h10c0.3,0,0.5,0.2,0.5,0.5
	S78.7,31.3,78.4,31.3z M75.2,33.7h-6.8c-0.3,0-0.5-0.2-0.5-0.5s0.2-0.5,0.5-0.5h6.8c0.3,0,0.5,0.2,0.5,0.5S75.4,33.7,75.2,33.7z
	 M61.9,36.5h5v5h-5V36.5z M78.4,38.3h-10c-0.3,0-0.5-0.2-0.5-0.5s0.2-0.5,0.5-0.5h10c0.3,0,0.5,0.2,0.5,0.5S78.7,38.3,78.4,38.3z
	 M75.2,40.7h-6.8c-0.3,0-0.5-0.2-0.5-0.5s0.2-0.5,0.5-0.5h6.8c0.3,0,0.5,0.2,0.5,0.5S75.4,40.7,75.2,40.7z M72.7,55H62.6
	c-0.4,0-0.7-0.3-0.7-0.8c0-0.4,0.3-0.8,0.7-0.8h10.1c0.4,0,0.8,0.3,0.8,0.8S73.1,55,72.7,55z M78.4,59h-16c-0.3,0-0.5-0.2-0.5-0.5
	s0.2-0.5,0.5-0.5h16c0.3,0,0.5,0.2,0.5,0.5S78.7,59,78.4,59z M67.8,62h-5.4c-0.3,0-0.5-0.2-0.5-0.5s0.2-0.5,0.5-0.5h5.4
	c0.3,0,0.5,0.2,0.5,0.5S68.1,62,67.8,62z M78.4,62h-8.7c-0.3,0-0.5-0.2-0.5-0.5s0.2-0.5,0.5-0.5h8.7c0.3,0,0.5,0.2,0.5,0.5
	S78.7,62,78.4,62z M78.4,68h-5.6c-0.3,0-0.5-0.2-0.5-0.5s0.2-0.5,0.5-0.5h5.6c0.3,0,0.5,0.2,0.5,0.5S78.7,68,78.4,68z M70.9,68h-8.5
	c-0.3,0-0.5-0.2-0.5-0.5s0.2-0.5,0.5-0.5h8.5c0.3,0,0.5,0.2,0.5,0.5S71.1,68,70.9,68z"/>
<g>
	<path class="st0" d="M61.9,43.5h5v5h-5V43.5z M78.4,45.3h-10c-0.3,0-0.5-0.2-0.5-0.5s0.2-0.5,0.5-0.5h10c0.3,0,0.5,0.2,0.5,0.5
		S78.7,45.3,78.4,45.3z M75.2,47.7h-6.8c-0.3,0-0.5-0.2-0.5-0.5s0.2-0.5,0.5-0.5h6.8c0.3,0,0.5,0.2,0.5,0.5S75.4,47.7,75.2,47.7z"/>
</g>
<path class="st0" d="M78.4,65h-3.5c-0.3,0-0.5-0.2-0.5-0.5s0.2-0.5,0.5-0.5h3.5c0.3,0,0.5,0.2,0.5,0.5S78.7,65,78.4,65z"/>
</svg>
