<svg id="Layer_1" xmlns="http://www.w3.org/2000/svg" viewBox="0 0 100 70"><style>.st2{fill:#c3c7ca}.st3{fill:#e6e7e8}</style><path d="M13 73.5c-1.4 0-2.5-1.1-2.5-2.5V13c0-1.4 1.1-2.5 2.5-2.5h74c1.4 0 2.5 1.1 2.5 2.5v58c0 1.4-1.1 2.5-2.5 2.5H13z" fill="#fff"/><path d="M87 11c1.1 0 2 .9 2 2v58c0 1.1-.9 2-2 2H13c-1.1 0-2-.9-2-2V13c0-1.1.9-2 2-2h74m0-1H13c-1.7 0-3 1.3-3 3v58c0 1.7 1.3 3 3 3h74c1.6 0 3-1.3 3-3V13c0-1.7-1.4-3-3-3z" fill="#565d66"/><path class="st2" d="M38.5 32h-16c-.3 0-.5-.2-.5-.5v-15c0-.3.2-.5.5-.5h16c.3 0 .5.2.5.5v15c0 .3-.2.5-.5.5zM61.6 20H44c-.5 0-.9-.5-.9-1s.4-1 .9-1h17.7c.5 0 .9.5.9 1s-.4 1-1 1z"/><path class="st3" d="M77.6 25h-34c-.3 0-.5-.2-.5-.5s.2-.5.5-.5h34c.3 0 .5.2.5.5s-.2.5-.5.5zM77.7 28H65.9c-.2 0-.3-.2-.3-.5s.1-.5.3-.5h11.8c.2 0 .3.2.3.5s-.1.5-.3.5zM63.1 28H43.6c-.3 0-.5-.2-.5-.5s.2-.5.5-.5H63c.3 0 .5.2.5.5.1.3-.1.5-.4.5zM57.6 31h-14c-.3 0-.5-.2-.5-.5s.2-.5.5-.5h14c.3 0 .5.2.5.5s-.2.5-.5.5zM75.3 31H60.4c-.2 0-.4-.2-.4-.5s.2-.5.4-.5h14.8c.2 0 .4.2.4.5.1.3 0 .5-.3.5z"/><path class="st2" d="M38.5 52h-16c-.3 0-.5-.2-.5-.5v-15c0-.3.2-.5.5-.5h16c.3 0 .5.2.5.5v15c0 .3-.2.5-.5.5zM61.5 40H43.9c-.5 0-.9-.5-.9-1s.4-1 .9-1h17.7c.5 0 .9.5.9 1s-.4 1-1 1z"/><path class="st3" d="M77.5 45h-34c-.3 0-.5-.2-.5-.5s.2-.5.5-.5h34c.3 0 .5.2.5.5s-.2.5-.5.5zM77.7 48H65.8c-.2 0-.3-.2-.3-.5s.1-.5.3-.5h11.8c.2 0 .3.2.3.5.1.3 0 .5-.2.5zM63 48H43.5c-.3 0-.5-.2-.5-.5s.2-.5.5-.5h19.4c.3 0 .5.2.5.5.1.3-.1.5-.4.5zM57.5 51h-14c-.3 0-.5-.2-.5-.5s.2-.5.5-.5h14c.3 0 .5.2.5.5s-.2.5-.5.5zM75.3 51H60.4c-.2 0-.4-.2-.4-.5s.2-.5.4-.5h14.8c.2 0 .4.2.4.5.1.3 0 .5-.3.5z"/><path class="st2" d="M38.5 72h-16c-.3 0-.5-.2-.5-.5v-15c0-.3.2-.5.5-.5h16c.3 0 .5.2.5.5v15c0 .3-.2.5-.5.5zM61.5 60H43.9c-.5 0-.9-.5-.9-1s.4-1 .9-1h17.7c.5 0 .9.5.9 1s-.4 1-1 1z"/><path class="st3" d="M77.5 65h-34c-.3 0-.5-.2-.5-.5s.2-.5.5-.5h34c.3 0 .5.2.5.5s-.2.5-.5.5zM77.7 68H65.8c-.2 0-.3-.2-.3-.5s.1-.5.3-.5h11.8c.2 0 .3.2.3.5.1.3 0 .5-.2.5zM63 68H43.5c-.3 0-.5-.2-.5-.5s.2-.5.5-.5h19.4c.3 0 .5.2.5.5.1.3-.1.5-.4.5zM57.5 71h-14c-.3 0-.5-.2-.5-.5s.2-.5.5-.5h14c.3 0 .5.2.5.5s-.2.5-.5.5zM75.3 71H60.4c-.2 0-.4-.2-.4-.5s.2-.5.4-.5h14.8c.2 0 .4.2.4.5.1.3 0 .5-.3.5z"/></svg>