<svg xmlns="http://www.w3.org/2000/svg" viewBox="0 0 100 70"><path d="M13 73.5c-1.4 0-2.5-1.1-2.5-2.5V13c0-1.4 1.1-2.5 2.5-2.5h74c1.4 0 2.5 1.1 2.5 2.5v58c0 1.4-1.1 2.5-2.5 2.5H13z" fill="#fff"/><path d="M71.7 65H60.5c-.3 0-.5-.2-.5-.5s.2-.5.5-.5h11.2c.3 0 .5.2.5.5s-.2.5-.5.5zM55.5 38h-33c-.3 0-.5-.2-.5-.5V16.9c0-.3.2-.5.5-.5h33c.3 0 .5.2.5.5v20.5c0 .4-.2.6-.5.6zm-13.3 5H23c-.5 0-1-.5-1-1s.4-1 1-1h19.3c.5 0 1 .5 1 1-.1.5-.5 1-1.1 1zm13.3 4h-33c-.3 0-.5-.2-.5-.5s.2-.5.5-.5h33c.3 0 .5.2.5.5s-.2.5-.5.5zm0 3h-33c-.3 0-.5-.2-.5-.5s.2-.5.5-.5h33c.3 0 .5.2.5.5s-.2.5-.5.5zm0 24h-33c-.3 0-.5-.2-.5-.5v-19c0-.3.2-.5.5-.5h33c.3 0 .5.2.5.5v19c0 .3-.2.5-.5.5zM60 22.5h5v5h-5v-5zm17.5 1.8h-11c-.3 0-.5-.2-.5-.5s.2-.5.5-.5h11c.3 0 .5.2.5.5s-.2.5-.5.5zM74 26.7h-7.5c-.3 0-.5-.2-.5-.5s.2-.5.5-.5H74c.3 0 .5.2.5.5s-.2.5-.5.5zM60 15.5h5v5h-5v-5zm17.5 1.8h-11c-.3 0-.5-.2-.5-.5s.2-.5.5-.5h11c.3 0 .5.2.5.5s-.2.5-.5.5zM74 19.7h-7.5c-.3 0-.5-.2-.5-.5s.2-.5.5-.5H74c.3 0 .5.2.5.5s-.2.5-.5.5zm-14 9.8h5v5h-5v-5zm17.5 1.8h-11c-.3 0-.5-.2-.5-.5s.2-.5.5-.5h11c.3 0 .5.2.5.5s-.2.5-.5.5zM74 33.7h-7.5c-.3 0-.5-.2-.5-.5s.2-.5.5-.5H74c.3 0 .5.2.5.5s-.2.5-.5.5zm-14 2.8h5v5h-5v-5zm17.5 1.8h-11c-.3 0-.5-.2-.5-.5s.2-.5.5-.5h11c.3 0 .5.2.5.5s-.2.5-.5.5zM74 40.7h-7.5c-.3 0-.5-.2-.5-.5s.2-.5.5-.5H74c.3 0 .5.2.5.5s-.2.5-.5.5zM70.9 55H60.8c-.4 0-.8-.3-.8-.8 0-.4.3-.7.8-.7h10.1c.4 0 .8.3.8.7-.1.5-.4.8-.8.8zm6.6 4h-17c-.3 0-.5-.2-.5-.5s.2-.5.5-.5h17c.3 0 .5.2.5.5s-.2.5-.5.5zm-11.2 3h-5.8c-.3 0-.5-.2-.5-.5s.2-.5.5-.5h5.8c.3 0 .5.2.5.5s-.2.5-.5.5zm11.2 0h-9.2c-.3 0-.5-.2-.5-.5s.2-.5.5-.5h9.2c.3 0 .5.2.5.5s-.2.5-.5.5zm0 6h-6c-.3 0-.5-.2-.5-.5s.2-.5.5-.5h6c.3 0 .5.2.5.5s-.2.5-.5.5zm-8 0h-9c-.3 0-.5-.2-.5-.5s.2-.5.5-.5h9c.3 0 .5.2.5.5s-.2.5-.5.5zM60 43.5h5v5h-5v-5zm17.5 1.8h-11c-.3 0-.5-.2-.5-.5s.2-.5.5-.5h11c.3 0 .5.2.5.5s-.2.5-.5.5zM74 47.7h-7.5c-.3 0-.5-.2-.5-.5s.2-.5.5-.5H74c.3 0 .5.2.5.5s-.2.5-.5.5zM77.5 65h-3.8c-.3 0-.5-.2-.5-.5s.2-.5.5-.5h3.8c.3 0 .5.2.5.5s-.2.5-.5.5z" fill="#f5f6f6"/><path d="M89.5 17.5h-79V13c0-1.4 1.1-2.5 2.5-2.5h74c1.4 0 2.5 1.1 2.5 2.5v4.5z" fill="#8a9297"/><path d="M78 14.2c0 .4-.3.7-.7.7h-3.6c-.4 0-.7-.3-.7-.7 0-.4.3-.7.7-.7h3.6c.4 0 .7.3.7.7zm-55-.9c-.5 0-.9.4-.9.9s.4.9.9.9.9-.4.9-.9-.4-.9-.9-.9zm4 0c-.5 0-.9.4-.9.9s.4.9.9.9.9-.4.9-.9-.4-.9-.9-.9zm4 0c-.5 0-.9.4-.9.9s.4.9.9.9.9-.4.9-.9-.4-.9-.9-.9z" fill="#51595e"/><path d="M87 11c1.1 0 2 .9 2 2v58c0 1.1-.9 2-2 2H13c-1.1 0-2-.9-2-2V13c0-1.1.9-2 2-2h74m0-1H13c-1.7 0-3 1.3-3 3v58c0 1.7 1.3 3 3 3h74c1.6 0 3-1.3 3-3V13c0-1.7-1.4-3-3-3z" fill="#565d66"/></svg>