<svg xmlns="http://www.w3.org/2000/svg" viewBox="0 0 100 70"><path d="M13 73.5c-1.4 0-2.5-1.1-2.5-2.5V13c0-1.4 1.1-2.5 2.5-2.5h74c1.4 0 2.5 1.1 2.5 2.5v58c0 1.4-1.1 2.5-2.5 2.5H13z" fill="#fff"/><path d="M71.7 65H60.5c-.3 0-.5-.2-.5-.5s.2-.5.5-.5h11.2c.3 0 .5.2.5.5s-.2.5-.5.5zM55.5 38h-33c-.3 0-.5-.2-.5-.5V16.9c0-.3.2-.5.5-.5h33c.3 0 .5.2.5.5v20.5c0 .4-.2.6-.5.6zm-13.3 5H23c-.5 0-1-.5-1-1s.4-1 1-1h19.3c.5 0 1 .5 1 1-.1.5-.5 1-1.1 1zm13.3 4h-33c-.3 0-.5-.2-.5-.5s.2-.5.5-.5h33c.3 0 .5.2.5.5s-.2.5-.5.5zm0 3h-33c-.3 0-.5-.2-.5-.5s.2-.5.5-.5h33c.3 0 .5.2.5.5s-.2.5-.5.5zm0 24h-33c-.3 0-.5-.2-.5-.5v-19c0-.3.2-.5.5-.5h33c.3 0 .5.2.5.5v19c0 .3-.2.5-.5.5zM60 22.5h5v5h-5v-5zm17.5 1.8h-11c-.3 0-.5-.2-.5-.5s.2-.5.5-.5h11c.3 0 .5.2.5.5s-.2.5-.5.5zM74 26.7h-7.5c-.3 0-.5-.2-.5-.5s.2-.5.5-.5H74c.3 0 .5.2.5.5s-.2.5-.5.5zM60 15.5h5v5h-5v-5zm17.5 1.8h-11c-.3 0-.5-.2-.5-.5s.2-.5.5-.5h11c.3 0 .5.2.5.5s-.2.5-.5.5zM74 19.7h-7.5c-.3 0-.5-.2-.5-.5s.2-.5.5-.5H74c.3 0 .5.2.5.5s-.2.5-.5.5zm-14 9.8h5v5h-5v-5zm17.5 1.8h-11c-.3 0-.5-.2-.5-.5s.2-.5.5-.5h11c.3 0 .5.2.5.5s-.2.5-.5.5zM74 33.7h-7.5c-.3 0-.5-.2-.5-.5s.2-.5.5-.5H74c.3 0 .5.2.5.5s-.2.5-.5.5zm-14 2.8h5v5h-5v-5zm17.5 1.8h-11c-.3 0-.5-.2-.5-.5s.2-.5.5-.5h11c.3 0 .5.2.5.5s-.2.5-.5.5zM74 40.7h-7.5c-.3 0-.5-.2-.5-.5s.2-.5.5-.5H74c.3 0 .5.2.5.5s-.2.5-.5.5zM70.9 55H60.8c-.4 0-.8-.3-.8-.8 0-.4.3-.7.8-.7h10.1c.4 0 .8.3.8.7-.1.5-.4.8-.8.8zm6.6 4h-17c-.3 0-.5-.2-.5-.5s.2-.5.5-.5h17c.3 0 .5.2.5.5s-.2.5-.5.5zm-11.2 3h-5.8c-.3 0-.5-.2-.5-.5s.2-.5.5-.5h5.8c.3 0 .5.2.5.5s-.2.5-.5.5zm11.2 0h-9.2c-.3 0-.5-.2-.5-.5s.2-.5.5-.5h9.2c.3 0 .5.2.5.5s-.2.5-.5.5zm0 6h-6c-.3 0-.5-.2-.5-.5s.2-.5.5-.5h6c.3 0 .5.2.5.5s-.2.5-.5.5zm-8 0h-9c-.3 0-.5-.2-.5-.5s.2-.5.5-.5h9c.3 0 .5.2.5.5s-.2.5-.5.5zM60 43.5h5v5h-5v-5zm17.5 1.8h-11c-.3 0-.5-.2-.5-.5s.2-.5.5-.5h11c.3 0 .5.2.5.5s-.2.5-.5.5zM74 47.7h-7.5c-.3 0-.5-.2-.5-.5s.2-.5.5-.5H74c.3 0 .5.2.5.5s-.2.5-.5.5zM77.5 65h-3.8c-.3 0-.5-.2-.5-.5s.2-.5.5-.5h3.8c.3 0 .5.2.5.5s-.2.5-.5.5z" fill="#f5f6f6"/><path d="M89.5 17.5h-79V13c0-1.4 1.1-2.5 2.5-2.5h74c1.4 0 2.5 1.1 2.5 2.5v4.5z" fill="#8a9297"/><path d="M78 14.2c0 .4-.3.7-.7.7h-3.6c-.4 0-.7-.3-.7-.7 0-.4.3-.7.7-.7h3.6c.4 0 .7.3.7.7zm-55-.9c-.5 0-.9.4-.9.9s.4.9.9.9.9-.4.9-.9-.4-.9-.9-.9zm4 0c-.5 0-.9.4-.9.9s.4.9.9.9.9-.4.9-.9-.4-.9-.9-.9zm4 0c-.5 0-.9.4-.9.9s.4.9.9.9.9-.4.9-.9-.4-.9-.9-.9z" fill="#51595e"/><path d="M10.5 17.5h79v14h-79v-14z" fill="#c4c8cb"/><path d="M10.2 31.5h79v7h-79v-7z" fill="#dbdddf"/><path d="M24.9 25.4l.6 1.7c-.2.1-.5.1-.7.1s-.4-.1-.6-.1l.7-1.7zm-1.1-2.1l-.1.1c-.1 0-.1.2-.1.2l.6 2.3.5-1.2-.2-.8c-.1-.2-.1-.4-.2-.5-.1 0-.1-.1-.2-.1H24v-.2h1.8v.2h-.3l-.1.1c-.1.1-.1.1-.1.2v.2l.6 2.2s.7-1.2.7-1.5-.1-.7-.4-.9c-.5-.3-.4-.9 0-1.1.1-.1.3-.1.4-.1-.5-.4-1.1-.7-1.8-.7-1 0-1.9.5-2.4 1.4h1.4v.2zm3.3.7c-.3.9-.9 2.4-1.2 3 1-.4 1.6-1.4 1.6-2.5.1-.5-.1-1-.3-1.4.1.2 0 .5-.1.9zm-4.7-.7h-.1c-.1.3-.2.7-.2 1.1 0 1.1.7 2.1 1.7 2.5l-1.1-3.4s-.1-.2-.3-.2zm45.9.5h-3.6c-.4 0-.7.3-.7.7s.3.7.7.7h3.6c.4 0 .7-.3.7-.7s-.3-.7-.7-.7zm9 0h-3.6c-.4 0-.7.3-.7.7s.3.7.7.7h3.6c.4 0 .7-.3.7-.7s-.3-.7-.7-.7zm-27 0h-3.6c-.4 0-.7.3-.7.7s.3.7.7.7h3.6c.4 0 .7-.3.7-.7s-.3-.7-.7-.7zm9 0h-3.6c-.4 0-.7.3-.7.7s.3.7.7.7h3.6c.4 0 .7-.3.7-.7s-.3-.7-.7-.7z" fill="#6d767d"/><path d="M87 11c1.1 0 2 .9 2 2v58c0 1.1-.9 2-2 2H13c-1.1 0-2-.9-2-2V13c0-1.1.9-2 2-2h74m0-1H13c-1.7 0-3 1.3-3 3v58c0 1.7 1.3 3 3 3h74c1.6 0 3-1.3 3-3V13c0-1.7-1.4-3-3-3z" fill="#565d66"/><path d="M44.4 35c0 .3-.2.6-.6.6h-9.3c-.3 0-.6-.3-.6-.6s.3-.6.6-.6h9.3c.3 0 .6.3.6.6zm-12.6-.6h-9.3c-.3 0-.6.3-.6.6s.3.6.6.6h9.3c.4 0 .6-.3.6-.6s-.3-.6-.6-.6zm45.3-.2c-.5 0-.9.4-.9.9s.4.9.9.9.9-.4.9-.9-.4-.9-.9-.9z" fill="#a7adb1"/></svg>