<?xml version="1.0" encoding="utf-8"?>
<!-- Generator: Adobe Illustrator 26.2.1, SVG Export Plug-In . SVG Version: 6.00 Build 0)  -->
<svg version="1.1" id="Layer_1" xmlns="http://www.w3.org/2000/svg" xmlns:xlink="http://www.w3.org/1999/xlink" x="0px" y="0px"
	 viewBox="0 0 100 70" style="enable-background:new 0 0 100 70;" xml:space="preserve">
<style type="text/css">
	.st0{fill:#FFFFFF;}
	.st1{fill:#565D66;}
	.st2{opacity:0.5;fill:#DBDDDF;}
	.st3{opacity:0.5;fill:#C4C8CB;}
	.st4{opacity:0.5;fill:#A7ADB1;}
	.st5{opacity:0.5;fill:#8A9297;}
</style>
<path class="st0" d="M13,73.5c-1.4,0-2.5-1.1-2.5-2.5V13c0-1.4,1.1-2.5,2.5-2.5h74c1.4,0,2.5,1.1,2.5,2.5v58c0,1.4-1.1,2.5-2.5,2.5
	H13z"/>
<path class="st1" d="M87,11c1.1,0,2,0.9,2,2v58c0,1.1-0.9,2-2,2H13c-1.1,0-2-0.9-2-2V13c0-1.1,0.9-2,2-2H87 M87,10H13
	c-1.7,0-3,1.3-3,3v58c0,1.7,1.3,3,3,3h74c1.6,0,3-1.3,3-3V13C90,11.3,88.6,10,87,10z"/>
<path class="st2" d="M43.2,78.5H22.5c-0.3,0-0.5-0.2-0.5-0.5V36.5c0-0.3,0.2-0.5,0.5-0.5h20.6c0.3,0,0.5,0.2,0.5,0.5V78
	C43.7,78.3,43.4,78.5,43.2,78.5z"/>
<path class="st3" d="M77.4,55.7H47.7c-0.3,0-0.5-0.2-0.5-0.5V36.5c0-0.3,0.2-0.5,0.5-0.5h29.8c0.3,0,0.5,0.2,0.5,0.5v18.8
	C77.9,55.5,77.7,55.7,77.4,55.7z"/>
<path class="st4" d="M77.4,79H64.8c-0.3,0-0.5-0.2-0.5-0.5V59.7c0-0.3,0.2-0.5,0.5-0.5h12.6c0.3,0,0.5,0.2,0.5,0.5v18.8
	C77.9,78.8,77.7,79,77.4,79z"/>
<path class="st5" d="M60.8,59.7v18.8c0,0.3-0.2,0.5-0.5,0.5H47.7c-0.3,0-0.5-0.2-0.5-0.5V59.7c0-0.3,0.2-0.5,0.5-0.5h12.6
	C60.6,59.2,60.8,59.5,60.8,59.7z M77.4,22.2H22.5c-0.3,0-0.5,0.2-0.5,0.5V32c0,0.3,0.2,0.5,0.5,0.5h54.9c0.3,0,0.5-0.2,0.5-0.5v-9.2
	C77.9,22.4,77.7,22.2,77.4,22.2z"/>
</svg>
