<svg viewBox="0 0 100 70" xmlns="http://www.w3.org/2000/svg"><g fill-rule="nonzero" fill="none"><path d="M13 73.5c-1.4 0-2.5-1.1-2.5-2.5V13c0-1.4 1.1-2.5 2.5-2.5h74c1.4 0 2.5 1.1 2.5 2.5v58c0 1.4-1.1 2.5-2.5 2.5H13z" fill="#FFF"/><path d="M87 11c1.1 0 2 .9 2 2v58c0 1.1-.9 2-2 2H13c-1.1 0-2-.9-2-2V13c0-1.1.9-2 2-2h74m0-1H13c-1.7 0-3 1.3-3 3v58c0 1.7 1.3 3 3 3h74c1.6 0 3-1.3 3-3V13c0-1.7-1.4-3-3-3z" fill="#565D66"/><path d="M35 66a1 1 0 010 2h-9a1 1 0 010-2h9zm19.5 0a1 1 0 010 2h-9a1 1 0 010-2h9zM74 66a1 1 0 010 2h-9a1 1 0 010-2h9zM37.5 38a.5.5 0 110 1h-14a.5.5 0 110-1h14zM57 38a.5.5 0 110 1H43a.5.5 0 110-1h14zm19.5 0a.5.5 0 110 1h-14a.5.5 0 110-1h14zM35 34a1 1 0 010 2h-9a1 1 0 010-2h9zm19.5 0a1 1 0 010 2h-9a1 1 0 010-2h9zM74 34a1 1 0 010 2h-9a1 1 0 010-2h9z" fill="#E6E7E8"/><path d="M38.5 48a.5.5 0 01.5.5v15a.5.5 0 01-.5.5h-16a.5.5 0 01-.5-.5v-15a.5.5 0 01.5-.5h16zM58 48a.5.5 0 01.5.5v15a.5.5 0 01-.5.5H42a.5.5 0 01-.5-.5v-15a.5.5 0 01.5-.5h16zm19.5 0a.5.5 0 01.5.5v15a.5.5 0 01-.5.5h-16a.5.5 0 01-.5-.5v-15a.5.5 0 01.5-.5h16zM28 41a1 1 0 010 2h-5a1 1 0 010-2h5zm10 0a1 1 0 010 2h-5a1 1 0 010-2h5zm9.5 0a1 1 0 010 2h-5a1 1 0 010-2h5zm10 0a1 1 0 010 2h-5a1 1 0 010-2h5zm9.5 0a1 1 0 010 2h-5a1 1 0 010-2h5zm10 0a1 1 0 010 2h-5a1 1 0 010-2h5zM38.5 16a.5.5 0 01.5.5v15a.5.5 0 01-.5.5h-16a.5.5 0 01-.5-.5v-15a.5.5 0 01.5-.5h16zM58 16a.5.5 0 01.5.5v15a.5.5 0 01-.5.5H42a.5.5 0 01-.5-.5v-15a.5.5 0 01.5-.5h16zm19.5 0a.5.5 0 01.5.5v15a.5.5 0 01-.5.5h-16a.5.5 0 01-.5-.5v-15a.5.5 0 01.5-.5h16z" fill="#C3C7CA"/></g></svg>