<svg id="Layer_1" xmlns="http://www.w3.org/2000/svg" viewBox="0 0 100 70"><style>.st2{fill:#e6e7e8}.st3{fill:#c3c7ca}</style><path d="M13 73.5c-1.4 0-2.5-1.1-2.5-2.5V13c0-1.4 1.1-2.5 2.5-2.5h74c1.4 0 2.5 1.1 2.5 2.5v58c0 1.4-1.1 2.5-2.5 2.5H13z" fill="#fff"/><path d="M87 11c1.1 0 2 .9 2 2v58c0 1.1-.9 2-2 2H13c-1.1 0-2-.9-2-2V13c0-1.1.9-2 2-2h74m0-1H13c-1.7 0-3 1.3-3 3v58c0 1.7 1.3 3 3 3h74c1.6 0 3-1.3 3-3V13c0-1.7-1.4-3-3-3z" fill="#565d66"/><path class="st2" d="M72.7 31.5H57c-.6 0-1-.5-1-1 0-.6.5-1 1-1h15.7c.6 0 1 .5 1 1 0 .6-.4 1-1 1zM79.5 36.5h-23c-.3 0-.5-.2-.5-.5s.2-.5.5-.5h23c.3 0 .5.2.5.5s-.3.5-.5.5zM63.8 39.5h-7.3c-.3 0-.5-.2-.5-.5s.2-.5.5-.5h7.3c.3 0 .5.2.5.5s-.2.5-.5.5zM77.5 39.5H66.8c-.3 0-.5-.2-.5-.5s.2-.5.5-.5h10.7c.3 0 .5.2.5.5s-.3.5-.5.5zM67.5 42.5h-11c-.3 0-.5-.2-.5-.5s.2-.5.5-.5h11c.3 0 .5.2.5.5s-.2.5-.5.5zM75.2 42.5h-4.7c-.3 0-.5-.2-.5-.5s.2-.5.5-.5h4.7c.3 0 .5.2.5.5s-.2.5-.5.5z"/><path class="st3" d="M48.5 49h-27c-.3 0-.5-.2-.5-.5v-24c0-.3.2-.5.5-.5h27c.3 0 .5.2.5.5v24c0 .2-.2.5-.5.5zM26 56.5h-4.5c-.3 0-.5-.2-.5-.5v-4.5c0-.3.2-.5.5-.5H26c.3 0 .5.2.5.5V56c0 .2-.2.5-.5.5zM33.5 56.5H29c-.3 0-.5-.2-.5-.5v-4.5c0-.3.2-.5.5-.5h4.5c.3 0 .5.2.5.5V56c0 .2-.2.5-.5.5zM41 56.5h-4.5c-.3 0-.5-.2-.5-.5v-4.5c0-.3.2-.5.5-.5H41c.3 0 .5.2.5.5V56c0 .2-.2.5-.5.5zM48.5 56.5H44c-.3 0-.5-.2-.5-.5v-4.5c0-.3.2-.5.5-.5h4.5c.3 0 .5.2.5.5V56c0 .2-.2.5-.5.5z"/><path class="st2" d="M72.2 45.5H56.5c-.3 0-.5-.2-.5-.5s.2-.5.5-.5h15.7c.3 0 .5.2.5.5s-.2.5-.5.5zM57.8 53c-1 0-1.8-.8-1.8-1.8s.8-1.8 1.8-1.8 1.8.8 1.8 1.8c-.1 1-.9 1.8-1.8 1.8zM69.9 53h-6.6c-1 0-1.8-.8-1.8-1.8s.8-1.8 1.8-1.8h6.6c1 0 1.8.8 1.8 1.8s-.8 1.8-1.8 1.8z"/></svg>