<svg version="1.1" id="Layer_1" xmlns="http://www.w3.org/2000/svg" x="0" y="0" viewBox="0 0 100 70" xml:space="preserve"><style>.st2{fill:#e6e7e8}</style><path d="M13 73.5c-1.4 0-2.5-1.1-2.5-2.5V13c0-1.4 1.1-2.5 2.5-2.5h74c1.4 0 2.5 1.1 2.5 2.5v58c0 1.4-1.1 2.5-2.5 2.5H13z" fill="#fff"/><path d="M87 11c1.1 0 2 .9 2 2v58c0 1.1-.9 2-2 2H13c-1.1 0-2-.9-2-2V13c0-1.1.9-2 2-2h74m0-1H13c-1.7 0-3 1.3-3 3v58c0 1.7 1.3 3 3 3h74c1.6 0 3-1.3 3-3V13c0-1.7-1.4-3-3-3z" fill="#565d66"/><path class="st2" d="M72.7 30.5H57c-.6 0-1-.5-1-1 0-.6.5-1 1-1h15.7c.6 0 1 .5 1 1 0 .6-.4 1-1 1zm6.8 5h-23c-.3 0-.5-.2-.5-.5s.2-.5.5-.5h23c.3 0 .5.2.5.5s-.3.5-.5.5zm-15.7 3h-7.3c-.3 0-.5-.2-.5-.5s.2-.5.5-.5h7.3c.3 0 .5.2.5.5s-.2.5-.5.5zm13.7 0H66.8c-.3 0-.5-.2-.5-.5s.2-.5.5-.5h10.7c.3 0 .5.2.5.5s-.3.5-.5.5zm-10 3h-11c-.3 0-.5-.2-.5-.5s.2-.5.5-.5h11c.3 0 .5.2.5.5s-.2.5-.5.5zm7.7 0h-4.7c-.3 0-.5-.2-.5-.5s.2-.5.5-.5h4.7c.3 0 .5.2.5.5s-.2.5-.5.5zM72.2 44.5H56.5c-.3 0-.5-.2-.5-.5s.2-.5.5-.5h15.7c.3 0 .5.2.5.5s-.2.5-.5.5zM57.8 52c-1 0-1.8-.8-1.8-1.8s.8-1.8 1.8-1.8 1.8.8 1.8 1.8c-.1 1-.9 1.8-1.8 1.8zm12.1 0h-6.6c-1 0-1.8-.8-1.8-1.8s.8-1.8 1.8-1.8h6.6c1 0 1.8.8 1.8 1.8s-.8 1.8-1.8 1.8z"/><path d="M32 26.4v16c0 .3-.2.5-.5.5h-13c-.3 0-.5-.2-.5-.5v-16c0-.3.2-.5.5-.5h13c.3 0 .5.3.5.5zm17.5-.5h-13c-.3 0-.5.2-.5.5v16c0 .3.2.5.5.5h13c.3 0 .5-.2.5-.5v-16c0-.2-.2-.5-.5-.5zm-18 21h-13c-.3 0-.5.2-.5.5v16c0 .3.2.5.5.5h13c.3 0 .5-.2.5-.5v-16c0-.2-.2-.5-.5-.5zm18 0h-13c-.3 0-.5.2-.5.5v16c0 .3.2.5.5.5h13c.3 0 .5-.2.5-.5v-16c0-.2-.2-.5-.5-.5z" fill="#c3c7ca"/></svg>