<svg xmlns="http://www.w3.org/2000/svg" viewBox="0 0 128 80"><path d="M128 75.732c0 2.358-1.91 4.268-4.268 4.268H4.266C1.91 80 0 78.09 0 75.732V4.267C0 1.907 1.91 0 4.266 0h119.467C126.09 0 128 1.908 128 4.267v71.465z" fill="#F8991D"/><g fill-rule="evenodd" clip-rule="evenodd" fill="#231F20"><path d="M73.232 48.118c-4.457 3.29-10.917 5.038-16.48 5.038-7.796 0-14.816-2.88-20.13-7.68-.416-.377-.046-.89.456-.6 5.732 3.336 12.82 5.346 20.142 5.346 4.94 0 10.37-1.024 15.365-3.146.753-.318 1.387.5.647 1.042zM75.088 46.002c-.57-.73-3.77-.346-5.204-.175-.435.052-.504-.326-.11-.602 2.55-1.79 6.73-1.274 7.216-.674.49.605-.127 4.796-2.52 6.797-.366.307-.717.144-.554-.265.538-1.342 1.742-4.35 1.172-5.08zM69.983 32.567v-1.74c.002-.266.2-.44.442-.44l7.804-.002c.248 0 .447.184.45.44l-.003 1.492c-.002.252-.212.578-.588 1.097l-4.04 5.77c1.497-.034 3.086.19 4.45.956.307.172.388.43.412.68v1.858c0 .255-.28.55-.574.396-2.4-1.257-5.59-1.396-8.244.016-.27.145-.556-.147-.556-.402V40.92c0-.28.006-.765.29-1.195l4.683-6.717-4.077-.002c-.246 0-.448-.178-.45-.44zM41.523 43.44h-2.376c-.224-.013-.406-.184-.423-.4V30.857c0-.245.206-.438.46-.438h2.21c.232.013.418.188.432.41v1.59h.044c.576-1.54 1.662-2.257 3.123-2.257 1.487 0 2.416.72 3.082 2.258.575-1.54 1.883-2.257 3.278-2.257 1 0 2.085.412 2.75 1.334.752 1.027.597 2.512.597 3.82L54.698 43c0 .243-.205.438-.46.438H51.87c-.24-.016-.425-.204-.425-.438l-.002-6.458c0-.513.044-1.793-.066-2.28-.18-.82-.71-1.052-1.396-1.052-.575 0-1.173.384-1.416 1-.245.614-.224 1.64-.224 2.332v6.458c0 .243-.203.438-.456.438h-2.372c-.237-.016-.427-.204-.427-.438l-.002-6.458c0-1.358.222-3.358-1.46-3.358-1.71 0-1.642 1.948-1.642 3.358v6.458c0 .244-.204.44-.457.44zM85.395 30.16c3.525 0 5.43 3.026 5.43 6.872 0 3.718-2.104 6.667-5.43 6.667-3.456 0-5.34-3.028-5.34-6.796 0-3.795 1.905-6.743 5.34-6.743zm.023 2.488c-1.752 0-1.86 2.384-1.86 3.872 0 1.486-.024 4.666 1.837 4.666 1.842 0 1.93-2.564 1.93-4.128 0-1.026-.044-2.257-.357-3.232-.266-.845-.796-1.178-1.55-1.178zM95.395 43.44H93.03c-.238-.015-.428-.203-.428-.437L92.6 30.816c.02-.224.218-.398.454-.398h2.203c.207.01.38.152.422.34v1.864h.043c.666-1.665 1.595-2.46 3.235-2.46 1.062 0 2.104.384 2.77 1.436.62.974.62 2.614.62 3.794v7.666c-.025.217-.22.384-.454.384h-2.38c-.22-.014-.396-.175-.422-.384v-6.614c0-1.335.155-3.282-1.485-3.282-.576 0-1.108.385-1.373.975-.333.743-.38 1.486-.38 2.308v6.56c-.003.24-.208.436-.46.436zM63.765 37.624c0 .925.023 1.695-.444 2.518-.378.668-.976 1.08-1.642 1.08-.91 0-1.444-.695-1.444-1.722 0-2.022 1.814-2.39 3.53-2.39v.514zm2.393 5.788c-.16.14-.384.15-.562.054-.787-.654-.93-.96-1.36-1.582-1.303 1.33-2.226 1.726-3.914 1.726-1.997 0-3.554-1.232-3.554-3.7 0-1.925 1.045-3.236 2.53-3.88 1.29-.564 3.09-.667 4.466-.82v-.31c0-.564.044-1.232-.29-1.72-.288-.44-.842-.618-1.332-.618-.905 0-1.71.464-1.907 1.426-.042.213-.197.426-.413.437l-2.302-.248c-.19-.045-.41-.2-.35-.5.526-2.79 3.048-3.632 5.305-3.632 1.155 0 2.666.31 3.575 1.182 1.156 1.078 1.045 2.518 1.045 4.086v3.697c0 1.114.462 1.6.896 2.2.152.216.185.474-.007.63-.484.408-1.348 1.156-1.82 1.578l-.005-.006zM32.646 37.624c0 .925.022 1.695-.442 2.518-.38.668-.978 1.08-1.644 1.08-.91 0-1.444-.695-1.444-1.722 0-2.022 1.815-2.39 3.53-2.39v.514zm2.394 5.788c-.158.14-.385.15-.562.054-.787-.654-.93-.96-1.36-1.582-1.303 1.33-2.226 1.726-3.913 1.726-2 0-3.553-1.232-3.553-3.7 0-1.925 1.043-3.236 2.53-3.88 1.29-.564 3.09-.667 4.464-.82v-.31c0-.564.044-1.232-.29-1.72-.288-.44-.842-.618-1.33-.618-.907 0-1.71.464-1.907 1.426-.043.213-.2.426-.416.437l-2.298-.248c-.195-.045-.412-.2-.357-.5.53-2.79 3.048-3.632 5.31-3.632 1.153 0 2.662.31 3.574 1.182 1.154 1.078 1.043 2.518 1.043 4.086v3.697c0 1.114.462 1.6.896 2.2.15.216.186.474-.008.63-.484.408-1.348 1.156-1.82 1.578l-.005-.006z"/></g></svg>