<svg xmlns="http://www.w3.org/2000/svg" viewBox="0 0 128 80"><path d="M128 75.734c0 2.356-1.908 4.266-4.268 4.266H4.266C1.91 80 0 78.09 0 75.734V4.27C0 1.91 1.91 0 4.266 0h119.467C126.093 0 128 1.91 128 4.27v71.464z" fill="#14477C"/><circle cx="48.607" cy="40" r="22.93" fill="#007CC3"/><path d="M79.393 17.07c-5.924 0-11.324 2.25-15.395 5.936-.826.75-1.6 1.562-2.314 2.426h4.633c.635.77 1.22 1.58 1.748 2.43h-8.13c-.487.78-.93 1.59-1.32 2.428h10.77c.368.786.694 1.597.974 2.428H57.643c-.268.79-.488 1.6-.666 2.428H71.02c.338 1.564.518 3.188.518 4.854 0 2.548-.416 4.996-1.18 7.284H57.644c.28.83.602 1.642.97 2.43h10.77c-.392.836-.833 1.647-1.32 2.427h-8.128c.53.85 1.115 1.66 1.748 2.428h4.63c-.71.865-1.484 1.68-2.316 2.43 4.07 3.687 9.47 5.933 15.395 5.933 12.662 0 22.928-10.264 22.928-22.93 0-12.662-10.265-22.93-22.927-22.93z" fill="#009DDD"/><path d="M99.266 52.782c0-.41.33-.74.738-.74.41 0 .742.33.742.74s-.332.74-.742.74c-.408 0-.738-.33-.738-.74zm.738.564c.312 0 .562-.253.562-.563 0-.312-.25-.562-.562-.562-.31 0-.56.25-.56.563 0 .31.25.563.56.563zm-.1-.24h-.15v-.65h.275c.054 0 .114 0 .163.032.055.037.082.098.082.163 0 .074-.04.143-.11.17l.118.287h-.168l-.098-.26h-.113v.26zm0-.37h.084c.033 0 .066.004.092-.012.025-.015.04-.046.04-.075 0-.025-.017-.053-.038-.067-.027-.015-.066-.012-.098-.012h-.08v.167z" fill="#009DDD"/><path d="M91.572 45.12c0-.408.33-.74.738-.74.41 0 .742.332.742.74 0 .41-.332.74-.742.74-.408 0-.738-.33-.738-.74zm.74.565c.31 0 .56-.253.56-.563 0-.312-.25-.564-.56-.564-.312 0-.562.252-.562.564 0 .31.25.563.56.563zm-.1-.24h-.15v-.65h.272c.057 0 .117 0 .166.033.053.035.082.1.082.163 0 .074-.04.143-.11.17l.118.284h-.17l-.098-.256h-.11v.256zm0-.368h.083c.033 0 .066.002.092-.013.025-.017.04-.045.04-.075 0-.024-.017-.055-.038-.067-.026-.017-.07-.01-.1-.01h-.08v.164zM48 34.035c-.202.9-.31 1.41-.587 2.502-1.725-.73-4.036-1.11-5.812-.004-1.67 1.066-2.237 2.728-2.115 4.568.126.887.79 1.753 1.726 2.13 1.624.597 3.173.38 4.898-.503-.245 1.108-.433 1.98-.646 2.772-2.07.574-4.032.766-6.1.078-1.846-.642-3.348-2.306-3.47-4.1-.42-2.882.96-5.832 3.765-7.186 2.612-1.172 5.585-.97 8.344-.257zM77.22 44.28c-.544.544-1.472 1.738-3.99 1.738-2.29 0-3.745-1.688-2.933-5.487l.95-4.466h3.497s-.95 4.473-.95 4.467c-.32 1.522-.245 2.68 1.298 2.68 1.82 0 2.367-1.1 2.71-2.68-.003.005.95-4.466.95-4.466h3.498l-1.572 7.183c-.178.842-.348 1.735-.447 2.616h-3.284l.273-1.584zM83.41 39.163c0 1.242.814 2.09 2.67 2.726 1.432.5 1.656.646 1.656 1.082 0 .62-.64.882-2.017.882-1.052 0-2.028-.104-3.157-.377 0 0-.443 2.033-.488 2.267.98.174 2.68.275 3.668.275 3.705 0 5.424-1.034 5.424-3.27 0-1.338-.723-2.124-2.48-2.728-1.48-.486-1.646-.6-1.646-1.064 0-.52.59-.795 1.728-.795.686 0 1.645.058 2.537.15l.49-2.273c-.91-.107-2.297-.197-3.096-.197-3.934 0-5.302 1.516-5.29 3.32zM49.49 36.064h3.508l-2.087 9.8H47.4M70.25 36.022c-2.584-.34-3.32.927-4.014 1.557.084-.512.236-1.01.205-1.516h-3.21c-.46 3.033-1.283 6.104-1.924 9.138l-.168.66h3.652c.436-1.99.942-4.995 1.524-5.903.58-.91 1.547-1.636 2.818-1.2l1.118-2.738zM62.265 36.022c-2.58-.34-3.316.927-4.012 1.557.084-.512.236-1.01.205-1.516h-3.21c-.462 3.033-1.282 6.104-1.926 9.138l-.167.66h3.653c.436-1.99.94-4.995 1.523-5.903.583-.91 1.552-1.636 2.82-1.2l1.115-2.738z" fill="#FFF"/></svg>