<svg xmlns="http://www.w3.org/2000/svg" viewBox="0 0 128 80"><path d="M128 75.732c0 2.358-1.91 4.268-4.266 4.268H4.268C1.908 80 0 78.09 0 75.732V4.267C0 1.907 1.91 0 4.268 0h119.467C126.09 0 128 1.908 128 4.267v71.465z" fill="#F9F9FA"/><g fill-rule="evenodd" clip-rule="evenodd"><path d="M43.107 45.054c9.686-4.15 23.276-7.912 41.274-4.146l.19-4.565c-18.99-2.07-32.615 3.975-41.463 8.262v.45z" fill="#FBAA28"/><path fill="#075FA0" d="M52.952 32.177l4.2-13.84h3.744l-4.2 13.84h-3.744M51.28 18.34l-3.37 5.866c-.858 1.537-1.36 2.314-1.602 3.285h-.05c.058-1.23-.11-2.742-.13-3.596l-.372-5.556h-6.303l-.065.374c1.618 0 2.58.812 2.844 2.477l1.23 10.985h3.882l7.845-13.838h-3.91v.002zM80.405 32.177L80.3 30.12l-4.677-.005-.955 2.062h-4.065l7.37-13.814h4.993l1.248 13.814h-3.81zm-.43-8.163c-.04-1.024-.075-2.412-.006-3.253h-.057c-.228.69-1.208 2.752-1.636 3.767L76.88 27.56h3.285l-.19-3.546zM64.827 32.57c-2.642 0-4.398-.84-5.65-1.587l1.784-2.725c1.125.63 2.008 1.354 4.038 1.354.656 0 1.284-.17 1.64-.788.523-.9-.116-1.385-1.58-2.214l-.723-.47c-2.17-1.48-3.108-2.89-2.087-5.346.655-1.572 2.378-2.764 5.22-2.764 1.96 0 3.8.848 4.87 1.677l-2.052 2.406c-1.046-.847-1.91-1.273-2.905-1.273-.785 0-1.387.305-1.594.715-.39.773.125 1.3 1.266 2.01l.858.546c2.634 1.662 3.26 3.402 2.602 5.03-1.137 2.804-3.36 3.43-5.685 3.43z"/></g><g fill="#075FA0"><path d="M47.498 54.713c.707.232 1.28.658 1.717 1.278.352.502.59 1.045.72 1.628s.19 1.14.19 1.668c0 1.34-.27 2.475-.808 3.404-.73 1.253-1.855 1.88-3.38 1.88h-4.344V54.494h4.345c.624.01 1.145.082 1.56.22zm-3.86 1.53v6.577h1.944c.995 0 1.69-.49 2.08-1.47.216-.538.323-1.178.323-1.92 0-1.026-.16-1.813-.482-2.362-.322-.55-.962-.824-1.92-.824h-1.945zM59.155 56.278h-5.332v2.14h4.895v1.75h-4.895v2.59H59.4v1.812h-7.635V54.494h7.39v1.784zM68.557 55.567c.31.43.463.94.463 1.538 0 .615-.155 1.11-.467 1.483-.174.21-.43.4-.77.574.516.187.903.483 1.165.89.262.404.393.896.393 1.476 0 .597-.148 1.133-.447 1.606-.19.314-.43.58-.714.793-.323.246-.702.415-1.14.506-.438.09-.912.137-1.424.137h-4.54V54.494h4.87c1.228.02 2.1.376 2.61 1.073zm-5.47.677v2.222h2.448c.438 0 .792-.083 1.065-.25.272-.166.41-.46.41-.885 0-.47-.182-.778-.542-.93-.312-.103-.708-.156-1.19-.156h-2.192zm0 3.89v2.687h2.445c.437 0 .777-.06 1.02-.177.442-.22.663-.638.663-1.258 0-.524-.214-.884-.642-1.08-.24-.11-.575-.166-1.007-.17h-2.48zM73.073 64.57H70.98V54.494h2.093V64.57zM82.363 54.494v1.784h-3.015v8.292h-2.12v-8.292h-3.027v-1.784h8.163z"/></g></svg>