<svg xmlns="http://www.w3.org/2000/svg" viewBox="0 0 128 80"><path d="M4.262 79.875c-2.28 0-4.137-1.857-4.137-4.14V4.267C.125 1.984 1.98.125 4.262.125h119.465c2.287 0 4.148 1.858 4.148 4.143v71.467c0 2.283-1.86 4.14-4.148 4.14H4.262z" fill="#FFF"/><path d="M123.727.25c2.22 0 4.023 1.802 4.023 4.018v71.467c0 2.214-1.805 4.016-4.023 4.016H4.262C2.05 79.75.25 77.95.25 75.736V4.268C.25 2.053 2.05.25 4.262.25h119.465m0-.25H4.262C1.906 0 0 1.91 0 4.268v71.467C0 78.09 1.906 80 4.262 80h119.465c2.36 0 4.273-1.91 4.273-4.266V4.268C128 1.91 126.086 0 123.727 0z" fill="#848484"/><circle cx="87.27" cy="57.561" r="13.382" fill="#F2706C"/><circle cx="100.654" cy="57.561" r="13.383" fill="#8FD7F1"/><path fill="#4A4A4A" d="M.002 14.83H128v14.88H.002z"/><path fill="#C9C9C9" d="M11.275 44.178h44.867v4.865H11.275zM11.275 55.125h44.867v4.87H11.275zM11.275 66.076h44.867v4.867H11.275z"/></svg>