<svg xmlns="http://www.w3.org/2000/svg" viewBox="0 0 128 80"><path d="M128 75.734c0 2.356-1.91 4.266-4.268 4.266H4.266C1.91 80 0 78.09 0 75.734V4.266C0 1.91 1.91 0 4.266 0h119.467C126.09 0 128 1.91 128 4.266v71.468z" fill="#9A9FB8"/><g fill-rule="evenodd" clip-rule="evenodd" fill="#FFF"><path d="M89.727 27.468c6.944 0 12.59 5.585 12.59 12.457 0 6.853-5.645 12.457-12.59 12.457-.017 0-.054-.016-.067-.016v-3.554c4.957 0 8.984-4.003 8.984-8.888 0-4.903-4.027-8.905-8.984-8.905v-3.553h.067zm-.067 24.898c-6.896-.036-12.512-5.62-12.512-12.44 0-6.84 5.615-12.408 12.512-12.458v3.552c-4.957 0-9.003 4.002-9.003 8.905 0 4.885 4.046 8.888 9.003 8.888v3.553zM76.392 27.468c-3.54 2.95-5.782 7.37-5.782 12.273 0 5.203 2.514 9.84 6.406 12.79h-4.062c-3.862-2.95-6.374-7.568-6.374-12.775 0-4.917 2.26-9.338 5.8-12.287h4.012zM66.158 27.468c-3.508 2.95-5.766 7.37-5.766 12.273 0 5.203 2.527 9.84 6.39 12.79h-4.028c-3.878-2.95-6.39-7.568-6.39-12.775 0-4.917 2.256-9.338 5.798-12.287h3.996zM55.94 27.468c-3.522 2.95-5.78 7.37-5.78 12.273 0 5.203 2.528 9.84 6.42 12.79h-4.06c-3.878-2.95-6.39-7.568-6.39-12.775 0-4.917 2.257-9.338 5.8-12.287h4.01zM45.71 27.468c-3.525 2.95-5.768 7.37-5.768 12.273 0 5.203 2.512 9.84 6.406 12.79h-4.064c-3.874-2.95-6.37-7.568-6.37-12.775 0-4.917 2.24-9.338 5.8-12.287h3.995zM35.476 27.468c-3.523 2.95-5.766 7.37-5.766 12.273 0 5.203 2.512 9.84 6.406 12.79h-4.062c-3.88-2.95-6.374-7.568-6.374-12.775 0-4.917 2.26-9.338 5.8-12.287h3.996z"/></g></svg>