<svg xmlns="http://www.w3.org/2000/svg" viewBox="0 0 128 80"><path d="M128 75.733c0 2.356-1.91 4.267-4.268 4.267H4.266C1.91 80 0 78.09 0 75.733V4.265C0 1.91 1.91 0 4.266 0h119.467C126.09 0 128 1.91 128 4.265v71.468z" fill="#0078A9"/><path d="M39.714 38.137v-1.28l-.612 1.28h-5.3l-.666-1.373v1.373H23.23l-1.17-2.77h-1.985l-1.24 2.77H13.7v-8.363l3.764-8.518h7.21l1.012 2.414v-2.396h8.816l1.94 4.064 1.896-4.082H66.17s1.46-.02 2.42.656l-.006-.656h7.012v.923s1.262-.924 3.126-.924h12.373l1.086 2.45v-2.45h7.93l1.44 2.45v-2.45h7.58v16.898h-7.788l-1.83-2.946v2.93h-9.68l-1.36-3.018h-1.897L85.3 38.138h-5.86s-2.184-.027-3.822-1.2v1.2H63.956v-3.942c0-.572-.438-.532-.438-.532h-.427v4.475H39.715zM33.894 41.796h15.323L51.43 44.3l2.262-2.504h11.78s1.107.028 2.158.59v-.59h10.49c1.333 0 2.45.666 2.45.666v-.666h13.486v.614s.96-.614 2.252-.614h8.786v.614s1.106-.614 2.276-.614h6.898V57.72s-.907 1.026-2.783 1.026h-9.095v-.506s-.864.506-2.184.506h-24.16V54.63c0-.404-.175-.478-.535-.478h-.33v4.594h-7.55V54.18s-.838.45-2.236.45H62.68v4.116H53.37l-2.116-2.583-2.265 2.583H33.895v-16.95z" fill="#FFF"/><path fill="#0078A9" d="M82.19 44.338h9.617v2.58h-6.673v2.247h6.485v2.273h-6.486v2.365h6.673v2.515H82.19M110.385 49.006c3.613.184 3.916 1.99 3.916 3.916 0 2.244-1.845 3.45-3.77 3.45h-6.178v-2.57h4.813c.816 0 2.033 0 2.033-1.148 0-.547-.214-.896-1.083-.987-.387-.056-1.815-.135-2.033-.14-3.265-.085-4.025-1.71-4.025-3.687 0-2.246 1.578-3.475 3.506-3.475h6.177v2.567h-4.52c-1.03.01-2.14-.12-2.14 1.04 0 .736.548.884 1.243.95.24.002 1.846.086 2.062.084zM99.31 49.006c3.614.184 3.918 1.99 3.918 3.916 0 2.244-1.844 3.45-3.77 3.45H93.28v-2.57h4.813c.815 0 2.033 0 2.033-1.148 0-.547-.216-.896-1.084-.987-.387-.056-1.818-.135-2.03-.14-3.27-.085-4.025-1.71-4.025-3.687 0-2.246 1.576-3.475 3.502-3.475h6.176v2.567h-4.52c-1.03.01-2.14-.12-2.14 1.04 0 .736.55.884 1.246.95.24.002 1.844.086 2.057.084zM64.433 44.363H54.11l-3.37 3.718-3.262-3.742H35.885v11.98h11.218l3.53-3.957 3.45 3.987h5.644V52.28h3.956c1.525 0 4.308-.053 4.308-4.252 0-2.997-2.112-3.665-3.557-3.665zm-18.866 9.44h-6.783v-2.365h6.488v-2.272h-6.488v-2.248l7.154.016 2.863 3.26-3.233 3.61zm11.243 1.39l-4.225-5 4.225-4.68v9.68zm6.632-5.382h-3.664v-2.875h3.676c1.23 0 1.62.79 1.62 1.377 0 .803-.43 1.5-1.632 1.5zM78.642 50.89c1.606-.802 2.033-1.872 2.033-3.317 0-2.565-2.085-3.207-3.53-3.207h-7.647v11.98h2.942V52.12h3.85c1.018 0 1.418 1.016 1.443 2.032l.078 2.194h2.865l-.107-2.462c0-1.927-.533-2.835-1.926-2.995zm-2.54-1.24H72.44v-2.716h3.674c1.23 0 1.618.79 1.618 1.377 0 .803-.425 1.34-1.63 1.34zM70.675 23.654h2.942V35.65h-2.942zM46.596 23.67h9.613v2.578h-6.672v2.248h6.483v2.273H49.54v2.364h6.67v2.515h-9.612M67.102 30.192c1.606-.8 2.033-1.872 2.033-3.316 0-2.567-2.087-3.207-3.53-3.207h-7.65v11.98h2.942v-4.227h3.85c1.018 0 1.42 1.015 1.446 2.03l.08 2.195h2.862l-.106-2.462c-.002-1.923-.538-2.832-1.928-2.994zm-2.542-1.24h-3.663v-2.714h3.678c1.228 0 1.618.79 1.618 1.377 0 .803-.43 1.337-1.633 1.337zM39.81 23.67l-3.61 8.035-3.597-8.036h-4.61v11.537L22.856 23.67h-3.893l-5.242 11.98h3.103l1.148-2.676h5.87l1.165 2.675h5.922v-8.894l3.933 8.893h2.675l4.024-8.747v8.746h2.94V23.67h-4.69zm-20.724 6.72l1.755-4.188 1.828 4.188h-3.582zM103.97 23.663v8.295l-4.96-8.295h-4.347v11.25L89.65 23.67H85.76l-4.052 9.28s-1.712 0-1.886-.043c-.707-.146-1.815-.646-1.83-2.76v-.868c0-2.81 1.525-3.015 3.48-3.015h1.816v-2.603h-3.84c-1.34 0-4.25 1.02-4.347 5.94-.068 3.317 1.377 6.052 4.64 6.052h3.878l1.148-2.675h5.87l1.164 2.674h5.804V26.88l5.294 8.774h4.012v-11.99h-2.94zm-18.068 6.733l1.752-4.188 1.846 4.188h-3.598z"/></svg>