<svg xmlns="http://www.w3.org/2000/svg" viewBox="0 0 128 80"><path d="M128 75.732c0 2.356-1.91 4.268-4.268 4.268H4.266C1.91 80 0 78.09 0 75.732V4.268C0 1.908 1.91 0 4.266 0h119.467C126.09 0 128 1.91 128 4.268v71.464z" fill="#F2F2F2"/><path d="M35.184 80h88.55c2.355 0 4.267-1.91 4.267-4.268V45.778C119.5 51.166 87.46 69.738 35.185 80z" fill="#F58220"/><radialGradient id="a" cx="59.138" cy="-446.077" r="6.307" gradientTransform="translate(6.416 486.083)" gradientUnits="userSpaceOnUse"><stop offset=".006" stop-color="#FFEEE1"/><stop offset=".097" stop-color="#FFEAD8"/><stop offset=".245" stop-color="#FEDDC2"/><stop offset=".433" stop-color="#FCCA9F"/><stop offset=".652" stop-color="#F9AF72"/><stop offset=".895" stop-color="#F68F39"/><stop offset="1" stop-color="#F48220"/></radialGradient><path d="M65.563 33.77c-3.527 0-6.388 2.756-6.388 6.156 0 3.615 2.734 6.316 6.388 6.316 3.558 0 6.368-2.737 6.368-6.247.002-3.486-2.79-6.224-6.367-6.224z" fill="url(#a)"/><path d="M29.298 33.994h-3.433v11.98h3.417c1.812 0 3.123-.432 4.273-1.382 1.364-1.135 2.173-2.84 2.173-4.603 0-3.537-2.64-5.996-6.43-5.996zm2.732 8.997c-.74.666-1.688.953-3.2.953h-.63v-7.92h.63c1.512 0 2.425.27 3.2.968.808.72 1.288 1.833 1.288 2.98 0 1.153-.48 2.305-1.288 3.02zM36.806 33.994h2.332v11.98h-2.332zM44.852 38.588c-1.403-.52-1.813-.86-1.813-1.507 0-.752.734-1.326 1.74-1.326.7 0 1.274.287 1.888.967l1.22-1.594c-1.006-.883-2.21-1.332-3.522-1.332-2.117 0-3.735 1.474-3.735 3.43 0 1.655.755 2.498 2.947 3.288.917.322 1.383.538 1.616.684.467.307.7.735.7 1.237 0 .973-.77 1.69-1.814 1.69-1.115 0-2.012-.555-2.55-1.598l-1.507 1.457c1.074 1.58 2.367 2.28 4.147 2.28 2.424 0 4.13-1.618 4.13-3.935 0-1.903-.786-2.766-3.448-3.74zM49.036 39.99c0 3.522 2.767 6.252 6.324 6.252 1.007 0 1.868-.197 2.928-.7v-2.748c-.935.935-1.762 1.31-2.82 1.31-2.352 0-4.023-1.707-4.023-4.132 0-2.297 1.722-4.112 3.916-4.112 1.113 0 1.958.396 2.93 1.348v-2.75c-1.023-.52-1.87-.732-2.875-.732-3.54 0-6.38 2.783-6.38 6.263zM77.218 42.04l-3.196-8.046H71.47l5.086 12.285h1.255l5.176-12.286h-2.53M84.05 45.973h6.624v-2.03H86.38V40.71h4.13V38.68h-4.13v-2.66h4.294v-2.028H84.05M99.922 37.53c0-2.245-1.543-3.536-4.237-3.536h-3.468v11.98h2.338V41.16h.305l3.233 4.813h2.872l-3.773-5.047c1.76-.36 2.73-1.563 2.73-3.397zm-4.688 1.977h-.68v-3.63h.718c1.456 0 2.246.614 2.246 1.778 0 1.204-.79 1.852-2.284 1.852z" fill="#081A23"/><path d="M101.57 34.887c0-.21-.142-.325-.398-.325h-.34v1.057h.252v-.41l.293.41h.315l-.352-.438c.148-.04.23-.148.23-.295zm-.442.143h-.044v-.273h.046c.128 0 .19.044.19.134 0 .092-.064.14-.192.14z" fill="#231F20"/><path d="M101.224 34.165c-.513 0-.92.41-.92.923 0 .51.41.92.92.92.5 0 .91-.414.91-.92s-.41-.923-.91-.923zm-.002 1.68c-.408 0-.737-.336-.737-.755 0-.423.324-.758.737-.758.398 0 .726.342.726.758 0 .415-.328.754-.726.754z" fill="#231F20"/></svg>