<svg xmlns="http://www.w3.org/2000/svg" viewBox="0 0 128 80"><path d="M128 75.732c0 2.357-1.91 4.268-4.268 4.268H4.266C1.91 80 0 78.09 0 75.732V4.267C0 1.907 1.91 0 4.266 0h119.467C126.09 0 128 1.908 128 4.267v71.465z" fill="#084E94"/><path d="M67.06 43.634c7.234.035 13.835-5.896 13.835-13.115 0-7.893-6.6-13.348-13.834-13.344h-6.225c-7.317-.004-13.342 5.452-13.342 13.343 0 7.218 6.024 13.15 13.342 13.114h6.226z" fill="#FFF"/><path d="M63.613 37.547V23.215c2.88 1.107 4.925 3.895 4.93 7.167-.005 3.27-2.05 6.057-4.93 7.165M53.19 30.382c.005-3.27 2.048-6.058 4.926-7.167v14.33c-2.878-1.11-4.92-3.894-4.927-7.163m7.675-12.113c-6.688 0-12.108 5.422-12.11 12.112.002 6.688 5.423 12.108 12.11 12.11 6.69-.003 12.11-5.423 12.112-12.11 0-6.69-5.42-12.11-12.112-12.113" fill="#084E94"/><g fill="#FFF"><path d="M33.96 52.663c0 1.078.772 1.203 1.456 1.203 3.02 0 4.017-2.28 4.017-4.364 0-2.616-1.68-4.504-4.38-4.504-.573 0-.838.04-1.092.056v7.61zm-1.368-6.56c0-1.26-.657-1.175-1.287-1.188v-.365c.546.028 1.105.028 1.652.028.586 0 1.383-.028 2.42-.028 3.62 0 5.594 2.42 5.594 4.897 0 1.383-.81 4.867-5.76 4.867-.715 0-1.372-.028-2.03-.028-.63 0-1.245.015-1.875.028v-.363c.84-.084 1.245-.11 1.287-1.063v-6.784zM42.958 45.768c-.364 0-.686-.337-.686-.7 0-.352.337-.673.686-.673.363 0 .684.295.684.674 0 .374-.307.698-.684.698m-1.496 8.183h.265c.393 0 .672 0 .672-.462v-3.79c0-.616-.21-.7-.73-.98v-.224c.656-.197 1.44-.46 1.498-.502.098-.058.18-.073.25-.073s.1.085.1.196v5.37c0 .464.306.464.698.464h.24v.363c-.478 0-.968-.028-1.47-.028-.504 0-1.01.015-1.524.028v-.362zM45.782 49.78c0-.517-.155-.655-.81-.92v-.27c.6-.193 1.175-.376 1.845-.67.044 0 .083.03.083.14v.91c.8-.573 1.485-1.05 2.424-1.05 1.188 0 1.606.867 1.606 1.96v3.607c0 .463.31.463.7.463h.253v.363c-.492 0-.982-.028-1.483-.028-.504 0-1.006.015-1.51.028v-.363h.248c.394 0 .672 0 .672-.463v-3.622c0-.798-.486-1.19-1.285-1.19-.446 0-1.16.364-1.625.674v4.138c0 .463.312.463.702.463h.25v.364c-.487 0-.977-.028-1.482-.028-.502 0-1.006.015-1.51.028v-.363h.253c.39 0 .67 0 .67-.462V49.78zM55.422 50.006c.35 0 .39-.183.39-.35 0-.715-.432-1.287-1.215-1.287-.854 0-1.44.63-1.608 1.636h2.432zm-2.476.447c-.028.127-.028.335 0 .812.083 1.33.938 2.42 2.055 2.42.772 0 1.374-.42 1.89-.936l.196.193c-.644.854-1.44 1.58-2.587 1.58-2.226 0-2.674-2.154-2.674-3.05 0-2.742 1.846-3.554 2.826-3.554 1.134 0 2.352.714 2.363 2.197 0 .084 0 .167-.012.252l-.127.082h-3.93zM57.34 53.95h.376c.39 0 .672 0 .672-.462v-3.93c0-.434-.517-.52-.728-.63v-.21c1.02-.434 1.58-.8 1.708-.8.08 0 .123.045.123.186v1.26h.03c.35-.547.938-1.444 1.79-1.444.352 0 .798.237.798.742 0 .378-.265.714-.657.714-.434 0-.434-.336-.924-.336-.237 0-1.02.323-1.02 1.162v3.286c0 .463.28.463.672.463h.78v.364c-.768-.014-1.354-.028-1.956-.028-.574 0-1.16.015-1.664.028v-.363zM62.725 52.37c.18.923.74 1.707 1.762 1.707.825 0 1.132-.504 1.132-.994 0-1.65-3.048-1.118-3.048-3.37 0-.785.628-1.793 2.168-1.793.446 0 1.047.127 1.595.407l.098 1.425h-.323c-.14-.88-.63-1.382-1.524-1.382-.56 0-1.09.32-1.09.923 0 1.637 3.244 1.132 3.244 3.327 0 .925-.74 1.903-2.405 1.903-.56 0-1.218-.195-1.706-.475l-.154-1.608.25-.07zM79.37 47.08h-.35c-.266-1.636-1.428-2.293-2.994-2.293-1.608 0-3.946 1.076-3.946 4.435 0 2.826 2.018 4.855 4.17 4.855 1.385 0 2.533-.95 2.814-2.42l.32.082-.32 2.042c-.59.364-2.17.74-3.094.74-3.272 0-5.342-2.11-5.342-5.26 0-2.867 2.56-4.923 5.3-4.923 1.133 0 2.225.363 3.303.74l.14 2zM79.875 53.95h.266c.394 0 .673 0 .673-.462v-7.79c0-.91-.21-.938-.744-1.093v-.223c.56-.182 1.15-.433 1.442-.603.15-.084.266-.154.307-.154.083 0 .11.084.11.195v9.667c0 .463.31.463.702.463h.235v.363c-.475 0-.965-.028-1.467-.028-.505 0-1.007.015-1.525.028v-.362zM88.856 53.545c0 .253.153.265.39.265.17 0 .378-.012.562-.012v.293c-.603.057-1.75.35-2.016.434l-.07-.042V53.35c-.838.686-1.482 1.174-2.477 1.174-.756 0-1.54-.488-1.54-1.663V49.28c0-.362-.053-.713-.836-.782v-.266c.5-.015 1.62-.098 1.803-.098.155 0 .155.098.155.404v3.61c0 .42 0 1.622 1.216 1.622.475 0 1.104-.364 1.692-.853V49.15c0-.278-.672-.432-1.174-.57v-.254c1.258-.084 2.04-.195 2.18-.195.114 0 .114.1.114.254v5.16zM91.64 52.733c0 .53.504 1.428 1.44 1.428 1.5 0 2.125-1.47 2.125-2.715 0-1.51-1.146-2.77-2.236-2.77-.52 0-.952.337-1.33.66v3.398zm0-3.805c.56-.476 1.314-1.008 2.084-1.008 1.623 0 2.602 1.415 2.602 2.938 0 1.832-1.344 3.665-3.343 3.665-1.036 0-1.58-.336-1.945-.488l-.42.32-.292-.152c.124-.825.195-1.637.195-2.49v-6.015c0-.91-.21-.938-.74-1.093v-.223c.56-.182 1.146-.433 1.44-.603.154-.084.264-.154.31-.154.084 0 .11.084.11.195v5.108zM31.288 62.448h.108c.272 0 .562-.038.562-.435v-3.986c0-.396-.29-.436-.562-.436h-.108v-.227c.3 0 .756.03 1.13.03.38 0 .836-.03 1.192-.03v.228h-.105c-.273 0-.564.04-.564.437v3.986c0 .396.292.435.565.435h.105v.23c-.364 0-.82-.032-1.202-.032-.372 0-.82.03-1.12.03v-.228z"/><path d="M33.578 62.644v-.162h-.073c-.27 0-.596-.046-.598-.468v-3.986c.002-.42.326-.468.598-.468h.073v-.163c-.353 0-.79.03-1.16.03-.362 0-.8-.03-1.096-.03v.163h.072c.273 0 .596.047.596.468v3.986c0 .422-.323.468-.596.468h-.072v.162c.295-.002.726-.03 1.086-.03.37 0 .812.03 1.17.03m.032.064c-.366 0-.82-.028-1.202-.028-.372 0-.818.028-1.12.028h-.03V62.415h.136c.278-.006.527-.027.53-.4V58.03c-.003-.375-.252-.397-.53-.403h-.138V57.33h.03c.303 0 .757.03 1.13.03.38 0 .835-.03 1.193-.03h.033V57.624h-.138c-.275.007-.53.03-.53.403v3.986c0 .373.255.395.53.4h.14V62.707h-.035zM38.84 61.177l.015-.016v-2.853c0-.624-.433-.716-.662-.716h-.167v-.227c.356 0 .707.03 1.066.03.31 0 .624-.03.935-.03v.228h-.113c-.32 0-.678.062-.678.968v3.464c0 .267.008.53.046.77h-.29l-3.92-4.37v3.136c0 .663.13.89.716.89h.13v.23c-.327 0-.654-.03-.983-.03-.34 0-.69.03-1.034.03v-.23h.108c.525 0 .684-.356.684-.966v-3.205c0-.425-.35-.685-.69-.685h-.1v-.228c.288 0 .585.03.872.03.23 0 .45-.03.68-.03l3.387 3.813z"/><path d="M38.824 61.16l-.008-.008.008.01zm.017.017l.025-.022-.024.022zm.152 1.58h.253c-.036-.23-.042-.48-.042-.734v-3.465c0-.91.383-.998.71-.998h.08v-.163c-.298 0-.6.03-.9.03-.35 0-.69-.03-1.033-.03v.163h.133c.233 0 .696.104.696.75l-.012 2.876-.016.014-.025.024-3.385-3.828c-.226 0-.446.03-.68.03-.277 0-.564-.03-.84-.03v.163h.066c.356 0 .726.27.726.716v3.205c0 .61-.17 1-.718 1.002l-.073-.002v.163c.33-.002.67-.03 1-.03.32 0 .636.028.95.03v-.16h-.097c-.598-.003-.747-.263-.747-.926v-3.222l3.952 4.422zm.29.066l-.314-.01-3.864-4.307v3.05c.01.664.11.85.684.858h.163V62.708h-.032c-.33 0-.656-.028-.983-.028-.34 0-.69.028-1.034.028h-.033V62.414H34.01c.503-.003.646-.324.654-.933v-3.204c-.002-.404-.337-.65-.662-.65h-.134V57.332h.034c.29 0 .588.027.873.027.228 0 .448-.028.705-.02l3.347 3.77v-2.802c-.006-.607-.41-.678-.632-.684h-.2V57.33h.033c.358 0 .71.028 1.066.028.31 0 .622-.027.935-.027h.034V57.624H39.915c-.315.01-.636.037-.645.934v3.465c0 .267.006.53.04.762l.01.04h-.04zM41.17 57.744c-.573 0-.598.136-.71.692h-.228c.03-.214.068-.426.094-.647.028-.215.044-.426.044-.647h.182c.062.23.25.22.458.22h3.927c.207 0 .397-.007.41-.235l.184.03c-.028.206-.06.41-.083.616-.014.206-.014.41-.014.616l-.23.085c-.015-.28-.053-.732-.562-.732h-1.247v4.05c0 .587.268.654.632.654h.144v.23c-.296 0-.83-.032-1.24-.032-.457 0-.99.03-1.286.03v-.228h.144c.42 0 .632-.038.632-.64v-4.065h-1.25z"/><path d="M44.168 62.708c-.3 0-.83-.028-1.24-.028-.458 0-.988.028-1.287.028h-.032V62.414h.178c.42-.008.588-.015.598-.604v-4.033H41.17v-.065h1.28v4.1c0 .61-.246.67-.665.672h-.11v.16c.3 0 .81-.03 1.253-.03.398 0 .906.03 1.207.03v-.16h-.11c-.37 0-.664-.09-.664-.688v-4.084h1.282c.508.002.576.436.592.717l.165-.06c0-.2.002-.398.016-.6.02-.194.048-.39.077-.583l-.115-.02c-.036.222-.25.232-.442.23H40.97c-.178 0-.373-.008-.44-.22h-.126c-.002.21-.02.413-.046.615-.022.21-.056.41-.084.612h.16c.103-.53.167-.703.737-.694v.065c-.563.012-.552.104-.677.668l-.004.026H40.192l.007-.04c.03-.214.07-.426.09-.647.033-.21.047-.422.047-.64v-.033h.244l.004.023c.053.192.193.193.387.196h3.966c.213-.004.366-.007.38-.206l.003-.035.035.006.215.034-.006.032c-.03.205-.06.41-.084.613-.014.204-.014.408-.014.614v.023l-.022.01-.27.096v-.045c-.023-.284-.05-.7-.53-.7h-1.217v4.02c.006.572.233.61.598.618h.175V62.707h-.032zM45.77 62.448h.11c.272 0 .56-.038.56-.435v-3.986c0-.396-.288-.436-.56-.436h-.11v-.227c.465 0 1.258.03 1.896.03.64 0 1.432-.03 1.95-.03-.015.325-.007.83.016 1.163l-.23.062c-.037-.494-.127-.89-.928-.89h-1.057v1.993h.905c.456 0 .556-.258.6-.67h.23c-.016.3-.023.595-.023.892 0 .29.007.58.02.868l-.227.044c-.046-.455-.067-.752-.596-.752h-.91v1.772c0 .494.44.494.926.494.915 0 1.317-.06 1.545-.927l.215.053c-.1.404-.19.807-.26 1.212-.487 0-1.362-.03-2.046-.03-.688 0-1.59.03-2.027.03v-.227z"/><path d="M49.814 62.643c.068-.384.155-.77.247-1.152l-.148-.036c-.23.852-.67.928-1.566.922-.48 0-.96 0-.963-.528v-1.805h.945c.532-.007.586.313.624.747l.165-.035c-.016-.278-.02-.56-.02-.84 0-.287.005-.57.02-.858h-.165c-.042.396-.166.674-.63.67h-.94v-2.06h1.09c.794-.006.924.4.96.88l.163-.043c-.012-.214-.023-.49-.023-.744 0-.13.002-.255.006-.362-.516 0-1.285.03-1.913.03-.626 0-1.396-.03-1.86-.03v.163h.074c.27 0 .594.048.596.47v3.985c-.002.422-.327.467-.597.47h-.076v.16c.444 0 1.32-.03 1.993-.03.673-.002 1.527.028 2.017.028m.03.065c-.487 0-1.364-.03-2.046-.03-.688 0-1.59.03-2.027.03h-.028V62.415h.138c.275-.004.526-.027.528-.4V58.03c-.002-.372-.253-.397-.528-.403h-.14V57.334h.03c.467 0 1.258.027 1.896.027.64 0 1.432-.026 1.95-.026h.033v.034c-.01.114-.01.25-.01.393 0 .264.01.55.022.768v.028l-.023.007-.27.07-.003-.04c-.044-.492-.11-.853-.895-.858h-1.026v1.927h.875c.44-.004.517-.23.568-.64l.004-.03H49.182v.035c-.013.297-.022.593-.022.89 0 .288.01.577.02.866l.003.027-.027.005-.264.056-.002-.04c-.052-.466-.056-.718-.562-.724h-.88v1.74c0 .462.4.46.897.462.915-.006 1.284-.05 1.513-.904l.008-.03.03.006.245.06-.007.033c-.098.4-.19.806-.257 1.21l-.007.024h-.025zM52.102 59.935h.375c.762 0 1.17-.287 1.17-1.186 0-.68-.43-1.11-1.11-1.11-.23 0-.326.02-.435.028v2.267zm-.972-1.765c0-.555-.305-.578-.542-.578h-.136v-.228c.243 0 .714.03 1.18.03.457 0 .822-.03 1.225-.03.96 0 1.813.257 1.813 1.34 0 .684-.458 1.103-1.06 1.34l1.303 1.948c.214.32.365.41.74.456v.23c-.254 0-.497-.032-.748-.032-.235 0-.48.03-.716.03-.587-.77-1.09-1.59-1.583-2.467h-.505v1.63c0 .586.275.607.624.607h.138v.23c-.433 0-.873-.032-1.308-.032-.366 0-.724.03-1.104.03v-.228h.136c.285 0 .542-.13.542-.41V58.17z"/><path d="M52.477 59.903c.754-.007 1.132-.27 1.14-1.153-.006-.665-.418-1.077-1.08-1.08-.205 0-.303.02-.4.027v2.206h.34zm-.375.066h-.03v-2.33l.028-.005c.104-.008.206-.028.437-.028.694 0 1.145.45 1.146 1.144-.002.91-.44 1.22-1.206 1.22h-.375zm0 .206h.523l.008.02c.496.874.997 1.695 1.557 2.448.23 0 .48-.03.714-.03.243 0 .48.026.716.03v-.167c-.36-.044-.526-.15-.733-.467l-1.324-1.98.036-.018c.595-.234 1.037-.64 1.037-1.308 0-1.058-.822-1.303-1.78-1.308-.4 0-.767.03-1.223.03-.45 0-.9-.03-1.148-.03v.163h.104c.24 0 .574.037.574.61v3.867c0 .305-.285.443-.574.444h-.104v.16c.367 0 .714-.028 1.07-.028.425 0 .855.03 1.275.03v-.16h-.103c-.347-.002-.655-.043-.655-.644v-1.663h.03zm3.55 2.532c-.257 0-.5-.028-.75-.028-.23 0-.474.028-.738.017-.584-.766-1.085-1.583-1.577-2.452h-.45v1.595c.008.57.237.567.59.575h.172V62.71h-.035c-.435 0-.877-.03-1.31-.03-.362 0-.722.03-1.103.03h-.033V62.414h.168c.275-.002.507-.12.51-.376v-3.87c-.007-.54-.27-.537-.51-.545h-.17V57.33h.034c.248 0 .716.03 1.18.03.455 0 .82-.03 1.225-.03.96.003 1.844.267 1.846 1.374 0 .685-.455 1.115-1.04 1.354l1.277 1.914c.213.316.347.396.717.44l.028.005V62.707h-.033zM60.82 61.177l.013-.016v-2.853c0-.624-.435-.716-.662-.716h-.166v-.227c.356 0 .707.03 1.066.03.312 0 .622-.03.937-.03v.228h-.113c-.32 0-.678.062-.678.968v3.464c0 .267.008.53.044.77h-.29l-3.918-4.37v3.136c0 .663.128.89.716.89h.13v.23c-.327 0-.656-.03-.983-.03-.343 0-.693.03-1.034.03v-.23h.105c.528 0 .688-.356.688-.966v-3.205c0-.425-.35-.685-.693-.685h-.1v-.228c.287 0 .584.03.873.03.228 0 .448-.03.678-.03l3.39 3.813z"/><path d="M60.8 61.16l-.007-.007.006.008zm.02.017l.022-.022-.023.022zm.15 1.58h.252c-.034-.227-.042-.48-.042-.734v-3.465c.002-.91.387-.996.714-.998h.08v-.163c-.3 0-.6.03-.903.03-.35 0-.688-.03-1.03-.03v.163h.132c.235.002.696.104.696.748l-.013 2.878-.012.014-.023.024-3.39-3.828c-.225 0-.445.03-.677.03-.28 0-.566-.03-.843-.03v.163h.067c.358 0 .726.27.726.716v3.204c0 .61-.172 1-.72 1.002h-.073v.16c.33 0 .667-.03 1.002-.03.32 0 .636.03.953.03v-.16h-.098c-.6 0-.75-.262-.752-.925v-3.22l3.956 4.42zm.29.066l-.313-.01-3.862-4.307v3.05c.01.664.107.85.684.858h.16V62.708h-.034c-.328 0-.655-.03-.982-.03-.34 0-.69.03-1.032.03h-.036V62.414H55.986c.502-.002.647-.324.654-.934v-3.204c-.002-.404-.335-.65-.66-.65h-.134V57.33h.036c.29 0 .586.03.873.03.226 0 .444-.03.7-.02l3.346 3.77v-2.803c0-.605-.405-.68-.627-.683h-.203V57.33h.034c.358 0 .71.03 1.066.03.31 0 .622-.03.935-.03h.036V57.624H61.896c-.316.01-.64.037-.647.934v3.465c0 .267.007.53.044.763l.004.038h-.036zM64.343 58.216h-.016l-.708 2.155h1.42l-.697-2.154zm-1.113 3.37c-.075.26-.17.46-.17.596 0 .23.32.267.572.267h.086v.228c-.307-.02-.618-.03-.925-.03-.272 0-.544.012-.82.03v-.23h.047c.295 0 .55-.175.66-.495l1.22-3.492c.1-.28.237-.66.283-.943.243-.084.546-.235.69-.327.024-.006.04-.015.06-.015.023 0 .04 0 .055.023.022.06.044.13.07.19l1.4 3.98c.09.267.182.546.28.777.09.213.25.303.504.303h.044v.23c-.34-.02-.684-.032-1.05-.032-.372 0-.754.013-1.143.03v-.228h.085c.174 0 .473-.03.473-.22 0-.1-.066-.306-.154-.55l-.296-.882h-1.727l-.243.79z"/><path d="M64.31 58.227l.018-.006-.02.007zm-.647 2.11h1.334l-.662-2.038-.672 2.037zm-.092.066l.73-2.22h.043v.032l-.008.002.008-.002v-.033h.02l.725 2.22H63.57zm1.558 2.24c.375-.015.748-.03 1.108-.03.354 0 .686.016 1.02.03v-.16h-.013c-.262.002-.44-.1-.534-.325-.1-.23-.194-.512-.284-.78l-1.4-3.98c-.022-.06-.045-.128-.064-.184-.008-.007-.004-.007-.013-.007h-.015c-.016 0-.023.004-.044.01-.146.096-.45.246-.677.306-.046.287-.185.666-.282.95l-1.217 3.493c-.118.332-.383.518-.692.517h-.013v.16c.263-.014.526-.028.79-.028.294 0 .595.015.884.028v-.16h-.047c-.25-.003-.594-.03-.604-.3 0-.15.093-.345.166-.603l.034.01-.034-.01.252-.814h1.775l.305.905c.084.245.156.447.156.562-.013.232-.333.248-.507.252h-.05v.158zm2.157.065c-.34-.013-.685-.03-1.05-.03-.37 0-.75.018-1.14.03l-.033.004V62.412h.115c.178 0 .437-.038.438-.183.002-.09-.065-.3-.15-.54l-.29-.86h-1.678l-.235.768c-.078.26-.17.46-.17.584.002.186.287.23.54.23h.118v.3l-.036-.004c-.303-.013-.616-.03-.92-.03-.27 0-.545.018-.818.03l-.035.004V62.412h.08c.283 0 .52-.16.628-.47l1.22-3.493c.1-.283.235-.662.304-.966.236-.083.542-.234.69-.327.02-.008.043-.018.072-.018.02-.002.06.003.084.044.02.062.046.13.07.19l1.4 3.983c.09.265.18.548.28.772.087.202.23.28.474.28h.077v.301l-.035-.002zM67.62 57.744c-.568 0-.593.136-.706.692h-.23c.03-.214.07-.426.095-.647.03-.215.04-.426.04-.647h.187c.06.23.253.22.456.22h3.93c.204 0 .394-.007.407-.235l.184.03c-.03.206-.06.41-.082.616-.016.206-.016.41-.016.616l-.23.085c-.013-.28-.05-.732-.56-.732h-1.25v4.05c0 .587.266.654.63.654h.147v.23c-.297 0-.83-.032-1.24-.032-.458 0-.99.03-1.287.03v-.228h.144c.42 0 .632-.038.632-.64v-4.065h-1.25z"/><path d="M70.62 62.708c-.298 0-.832-.028-1.24-.028-.455 0-.987.028-1.286.028h-.034V62.414h.178c.42-.008.588-.015.6-.604l-.002-4.033h-1.214v-.065h1.282v4.1c0 .61-.247.67-.666.67h-.11v.163c.3-.002.812-.03 1.253-.03.4 0 .907.028 1.208.03v-.162h-.11c-.367 0-.662-.09-.665-.687v-4.084h1.282c.51.002.576.436.592.717l.165-.06c0-.2.002-.398.017-.598.02-.196.05-.39.074-.585l-.113-.02c-.035.222-.248.232-.437.23h-3.97c-.176 0-.37-.008-.44-.222h-.126c0 .21-.015.415-.044.617-.022.21-.058.412-.088.612h.163c.1-.53.168-.703.735-.694v.065c-.563.01-.55.104-.675.668l-.004.026H66.648l.007-.038c.03-.216.067-.428.09-.648.03-.212.045-.423.045-.642v-.032h.242l.005.023c.057.192.193.193.387.196h3.97c.208-.004.363-.007.376-.205l.002-.036.033.006.22.034-.008.032c-.032.205-.06.41-.084.613-.014.204-.014.41-.014.614v.023l-.024.01-.27.096v-.045c-.02-.284-.048-.7-.53-.7H69.88v4.02c.008.572.235.61.598.618h.178V62.707h-.035zM72.264 62.448h.107c.274 0 .563-.038.563-.435v-3.986c0-.396-.29-.436-.562-.436h-.106v-.227c.297 0 .753.03 1.126.03.38 0 .837-.03 1.196-.03v.228h-.106c-.276 0-.565.04-.565.437v3.986c0 .396.29.435.565.435h.106v.23c-.367 0-.82-.032-1.202-.032-.375 0-.823.03-1.12.03v-.228z"/><path d="M74.552 62.643v-.16h-.072c-.274 0-.598-.047-.598-.47V58.03c0-.42.323-.468.598-.468h.072v-.163c-.353 0-.793.03-1.162.03-.36 0-.797-.03-1.094-.03v.163h.075c.27 0 .597.047.597.468v3.986c0 .422-.326.468-.596.468h-.074v.16c.295-.002.723-.028 1.088-.028.367 0 .807.028 1.168.03m.034.064c-.37 0-.825-.03-1.202-.03-.373 0-.82.03-1.12.03h-.034V62.415H72.37c.274-.004.527-.027.53-.4V58.03c-.003-.372-.256-.397-.53-.403h-.14V57.334h.033c.3 0 .755.027 1.126.027.378 0 .834-.026 1.195-.026h.03V57.626h-.136c-.28.007-.53.032-.532.403v3.985c.002.373.25.396.53.4h.14V62.71h-.032zM77.736 62.456c1.478 0 1.734-1.303 1.734-2.41 0-1.114-.6-2.46-1.863-2.46-1.332 0-1.73 1.187-1.73 2.205.002 1.363.626 2.666 1.86 2.666m-.116-5.206c1.623 0 2.915 1.006 2.915 2.627 0 1.75-1.254 2.914-2.874 2.914-1.613 0-2.848-1.095-2.848-2.73 0-1.584 1.227-2.81 2.81-2.81"/><path d="M75.846 59.79c.002-1.024.4-2.24 1.762-2.24 1.29.005 1.894 1.376 1.897 2.495-.004 1.108-.264 2.442-1.77 2.442v-.063c1.448-.002 1.7-1.27 1.703-2.38 0-1.103-.596-2.425-1.83-2.427-1.31.002-1.693 1.16-1.697 2.174.003 1.356.62 2.63 1.826 2.634v.062c-1.263 0-1.888-1.325-1.89-2.695m-1.067.27c0-1.603 1.24-2.84 2.84-2.844v.067c-1.563 0-2.775 1.21-2.775 2.775.002 1.618 1.216 2.697 2.814 2.698 1.605 0 2.843-1.148 2.845-2.882 0-1.6-1.273-2.59-2.884-2.592v-.066c1.636.003 2.945 1.02 2.95 2.66-.003 1.77-1.274 2.944-2.91 2.947-1.63-.003-2.88-1.11-2.88-2.764M85.668 61.177l.016-.016v-2.853c0-.624-.437-.716-.666-.716h-.163v-.227c.355 0 .705.03 1.063.03.312 0 .626-.03.938-.03v.228h-.116c-.32 0-.678.062-.678.968v3.464c0 .267.006.53.046.77h-.29l-3.92-4.37v3.136c0 .663.128.89.716.89h.13v.23c-.327 0-.654-.03-.98-.03-.346 0-.694.03-1.04.03v-.23h.11c.526 0 .684-.356.684-.966v-3.205c0-.425-.35-.685-.693-.685h-.1v-.228c.29 0 .586.03.877.03.228 0 .448-.03.678-.03l3.388 3.813z"/><path d="M85.647 61.16l-.004-.007.004.008zm.02.017l.022-.022-.022.022zm.152 1.58h.248c-.032-.23-.038-.48-.038-.734v-3.465c0-.915.385-.996.71-.998h.08v-.163c-.3 0-.6.03-.905.03-.345 0-.686-.03-1.03-.03v.163h.133c.235.002.695.105.695.75l-.008 2.876-.016.014-.022.024-3.39-3.828c-.225 0-.445.03-.677.03-.28 0-.565-.03-.842-.03v.163h.065c.358 0 .726.27.726.716v3.205c0 .61-.17 1-.717 1.002h-.075v.16c.332 0 .67-.03 1.002-.03.32 0 .634.03.95.03v-.16h-.1c-.598 0-.747-.262-.747-.925v-3.222l3.956 4.422zm.288.066l-.315-.01-3.862-4.307v3.05c.01.664.112.85.683.856h.163v.296h-.032c-.328 0-.657-.028-.982-.028-.34 0-.69.028-1.036.028h-.032V62.412H80.836c.5 0 .644-.322.648-.93v-3.206c0-.404-.332-.65-.66-.65h-.13V57.33h.03c.294 0 .59.027.878.027.226 0 .444-.028.7-.02l3.346 3.77v-2.802c-.002-.607-.406-.678-.63-.684h-.2V57.33h.035c.358 0 .71.028 1.063.028.312 0 .623-.027.94-.027h.032V57.624H86.74c-.313.01-.64.038-.646.934v3.465c0 .267.008.53.046.763l.006.038h-.038zM89.19 58.216h-.017l-.708 2.155h1.425l-.7-2.154zm-1.113 3.37c-.073.26-.167.46-.167.596 0 .23.32.267.57.267h.085v.228c-.305-.02-.618-.03-.923-.03-.272 0-.546.012-.82.03v-.23h.043c.3 0 .553-.175.664-.495l1.22-3.492c.097-.28.234-.66.278-.943.245-.084.55-.235.695-.327.02-.006.036-.015.06-.015.022 0 .038 0 .052.023.024.06.048.13.07.19l1.398 3.98c.092.267.184.546.283.777.092.213.25.303.503.303h.045v.23c-.344-.02-.687-.032-1.053-.032-.37 0-.752.013-1.14.03v-.228h.083c.176 0 .473-.03.473-.22 0-.1-.068-.306-.153-.55l-.297-.883H88.32l-.243.792z"/><path d="M89.16 58.227l.014-.006-.015.007zm-.648 2.11h1.33L89.18 58.3l-.668 2.037zm-.092.066l.73-2.22H89.19v.032l-.01.002.01-.002v-.033h.022l.722 2.22H88.42zm1.555 2.24c.38-.015.747-.03 1.108-.03.356 0 .687.016 1.02.03l-.003-.16h-.012c-.258 0-.437-.1-.53-.325-.102-.23-.19-.512-.283-.78l-1.4-3.98c-.022-.06-.047-.128-.063-.182-.008-.01-.008-.01-.012-.01h-.017c-.016 0-.025.005-.044.01-.148.095-.453.248-.68.307-.045.287-.183.666-.282.95l-1.22 3.493c-.115.332-.38.518-.693.517h-.01v.16c.263-.014.524-.028.787-.028.297 0 .598.015.89.028v-.16h-.053c-.248-.003-.595-.03-.604-.3.002-.15.096-.344.17-.604l.03.008-.03-.01.253-.813h1.773l.303.905c.086.244.156.446.156.56-.013.233-.33.25-.505.253h-.052v.16zm2.16.065c-.347-.013-.688-.028-1.052-.028-.37 0-.752.016-1.14.028l-.032.004V62.414h.116c.178 0 .438-.04.438-.185.002-.09-.065-.296-.15-.54l-.29-.86h-1.68l-.233.768c-.08.26-.17.46-.167.583 0 .188.285.234.536.234h.117V62.712l-.034-.004c-.305-.013-.616-.028-.92-.028-.272 0-.545.016-.82.028l-.033.004V62.414H86.865c.285-.002.522-.163.634-.47l1.217-3.495c.098-.283.235-.662.3-.966.242-.083.548-.234.695-.327.02-.008.04-.017.07-.017.022-.002.06.003.085.046.02.058.044.13.07.19l1.398 3.98c.092.266.184.55.28.774.093.2.23.28.472.282h.08V62.71l-.033-.002zM94.053 61.93c0 .308.213.397.456.43.31.022.653.022 1.006-.02.32-.037.592-.22.73-.41.12-.167.188-.38.234-.548h.22c-.082.435-.19.862-.28 1.296-.67 0-1.34-.03-2.01-.03-.67 0-1.338.03-2.01.03v-.23h.105c.275 0 .572-.037.572-.51v-3.91c0-.396-.297-.436-.572-.436H92.4v-.228c.404 0 .8.03 1.204.03.39 0 .768-.03 1.156-.03v.228h-.19c-.288 0-.518.008-.518.412v3.927z"/><path d="M96.393 62.643c.088-.41.188-.816.27-1.227h-.158c-.046.165-.115.37-.232.536-.144.195-.425.382-.756.423-.2.02-.395.03-.582.03-.147 0-.29-.006-.43-.016-.248-.028-.487-.134-.485-.46v-3.927c0-.425.268-.444.55-.444h.158v-.164c-.375 0-.743.03-1.122.03-.396 0-.78-.03-1.172-.03v.163h.073c.27 0 .606.046.606.466v3.912c0 .492-.33.543-.606.543h-.073v.162c.66 0 1.317-.03 1.98-.03.66 0 1.32.03 1.98.03m.027.066c-.67 0-1.34-.028-2.01-.028-.67 0-1.338.028-2.012.028h-.03V62.414h.137c.275-.006.536-.025.538-.476v-3.912c-.002-.37-.26-.396-.538-.4h-.138V57.33h.03c.406 0 .803.027 1.206.027.387 0 .765-.028 1.156-.028h.03V57.624h-.222c-.293.01-.48-.005-.484.38v3.927c.002.284.19.36.426.395.134.01.275.015.423.015.186 0 .38-.008.576-.028.31-.038.577-.217.706-.4.118-.16.185-.37.23-.534l.007-.025H96.74l-.006.04c-.088.434-.19.86-.285 1.293l-.007.024h-.022z"/></g></svg>