<svg xmlns="http://www.w3.org/2000/svg" viewBox="0 0 128 80"><path d="M128 75.732c0 2.355-1.91 4.268-4.267 4.268H4.266C1.91 80 0 78.088 0 75.732V4.268C0 1.908 1.91 0 4.266 0h119.468C126.09 0 128 1.91 128 4.268v71.464z" fill="#F9F9FA"/><path d="M86.28 42.716c.156 4.662.312 9.48.078 14.22-.155 1.865-1.32 3.652-3.03 4.74-1.32.855-2.954.934-4.663 1.01l-6.178-.076-.04-39.555c.313-2.643 2.256-4.895 4.742-5.595 3.028-.39 5.828-.233 9.013-.31l.155 2.02v22.457l-.078.078v1.01z" fill="#03A550"/><path d="M41.52 41.24V22.59c.39-2.1 2.1-4.04 4.12-4.818 3.03-.934 6.527-.387 9.634-.47.155 3.034 0 6.842.08 9.484l.155 24.32c-.392 3.73 1.01 8.782-3.655 10.88-2.95 1.476-6.916.545-10.257.856l-.077-.544V41.24z" fill="#0C72BA"/><path d="M41.52 42.016c1.243 1.633 2.954 2.874 5.052 2.952 2.564.235 5.906.467 7.614-1.94 1.167-1.245.468-2.953.7-4.585l-.076-2.954c-1.477-.312-2.8 0-4.51-.08-.853 3.19 1.4 6.762-2.252 8.395-.855.233-2.1.078-2.953-.467-1.398-.31-.62-2.564-2.486-1.943l-1.09-.153v.774z" fill="#FFF"/><path d="M70.816 19.87l.078 37.844c-.543 1.786-1.943 3.73-3.885 4.43-2.954 1.008-6.607.543-9.87.543l-.156-39.865c.156-1.865 1.4-3.495 3.03-4.506 1.167-.777 2.565-1.013 4.042-1.09h6.605l.156 2.644z" fill="#EB2227"/><path d="M70.195 35.488c.156.467 0 .855.078 1.4-2.33-.623-5.207-1.322-7.306.388-.775.93-1.243 1.865-1.165 3.107.234 1.398 1.09 2.72 2.41 3.265 2.02.622 4.117.077 5.982-.39.078.39.156.932 0 1.242h-8.938c-1.553-.31-2.796-1.164-3.495-2.72-.62-1.476-.31-3.494.777-4.738.933-1.088 2.254-1.71 3.73-1.633l7.928.078zM86.28 42.716c-.232.933-1.01 1.785-1.942 1.94h-10.88l-.387-.155c0-3.106-.078-6.058.08-9.09h6.913c2.176.233 4.585-.7 5.597 1.322.31.7.232 1.632-.312 2.176-.31.543-1.01.622-1.165 1.01.855.232 1.786.932 2.098 1.787v1.01zm-9.325-6.372c-.232.853-.232 2.02-.077 2.95 1.633-.074 3.73.546 4.817-.696.39-.47.156-1.244-.078-1.635-1.243-1.086-3.106-.387-4.662-.62zm4.198 4.273c-1.476-.233-2.954-.156-4.352-.078-.077 1.165 0 2.098.155 3.186 1.556 0 3.264.23 4.662-.468.39-.387.622-1.01.47-1.553-.08-.465-.47-.855-.934-1.088z" fill="#FFF"/></svg>