<svg xmlns="http://www.w3.org/2000/svg" viewBox="0 0 128 80"><path d="M128 75.734c0 2.356-1.91 4.266-4.266 4.266H4.268C1.908 80 0 78.09 0 75.734V4.27C0 1.91 1.91 0 4.268 0h119.467C126.09 0 128 1.91 128 4.27v71.464z" fill="#14477C"/><path fill="#EB2230" d="M79.235 62.975l1.187-.032 1.17-.09 1.147-.144 1.132-.205 1.116-.255 1.094-.31 1.066-.362 1.05-.416 1.02-.46.988-.507.965-.55.932-.604.904-.64.87-.68.836-.724.8-.764.755-.8.725-.838.69-.868.64-.9.596-.934.55-.967.514-.99.46-1.018.41-1.05.362-1.064.31-1.094.254-1.11.205-1.14.144-1.15.09-1.17.032-1.185-.033-1.177-.09-1.164-.144-1.14-.205-1.13-.255-1.104-.31-1.086-.36-1.065-.41-1.043-.46-1.01-.515-.99-.55-.96-.596-.937-.64-.896-.69-.87-.725-.83-.755-.8-.8-.755-.837-.727-.87-.68-.903-.64-.93-.596-.966-.55-.988-.515-1.02-.46-1.05-.41-1.066-.362-1.094-.31-1.116-.255-1.133-.204-1.148-.143-1.17-.09-1.187-.03-1.185.03-1.17.09-1.147.144-1.133.205-1.117.256-1.088.31-1.072.363-1.04.408-1.02.462-.988.514-.96.55-.937.596-.898.642-.868.68-.83.725-.795.754-.76.8-.724.83-.68.87-.642.896-.597.937-.55.96-.507.99-.454 1.01-.412 1.042-.363 1.064-.303 1.086-.257 1.103-.2 1.132-.147 1.14-.09 1.163-.03 1.177.03 1.186.09 1.17.146 1.15.2 1.14.258 1.11.303 1.093.363 1.064.412 1.05.454 1.02.507.988.55.967.598.935.643.9.68.867.723.838.76.8.796.764.83.724.868.68.898.64.936.604.96.55.988.507 1.02.462 1.04.416 1.073.36 1.088.312 1.117.255 1.133.204 1.147.144 1.17.09"/><path fill="#0B84C4" d="M48.765 62.975l1.185-.032 1.17-.09 1.15-.144 1.13-.205 1.12-.255 1.084-.31 1.075-.362 1.04-.416 1.018-.46.99-.507.957-.55.937-.604.9-.64.866-.68.832-.724.8-.764.753-.8.726-.838.68-.868.64-.9.6-.934.55-.967.506-.99.458-1.018.408-1.05.36-1.064.304-1.094.26-1.11.203-1.14.14-1.15.09-1.17.03-1.185-.03-1.177-.09-1.164-.14-1.14-.205-1.13-.26-1.104-.302-1.086-.36-1.065-.41-1.043-.457-1.01-.507-.99-.55-.96-.6-.937-.64-.896-.68-.87-.727-.83-.754-.8-.8-.755-.832-.727-.867-.68-.898-.64-.937-.596-.958-.55-.99-.515-1.017-.46-1.04-.41-1.076-.362-1.085-.31-1.12-.255-1.13-.204-1.15-.143-1.17-.09-1.185-.03-1.185.03-1.17.09-1.147.144-1.133.205-1.118.256-1.094.31-1.065.363-1.05.408-1.02.462-.987.514-.967.55-.93.596-.906.642-.867.68-.84.725-.793.754-.76.8-.726.83-.687.87-.64.896-.596.937-.552.96-.514.99-.46 1.01-.408 1.042-.362 1.064-.31 1.086-.256 1.103-.203 1.132-.145 1.14-.092 1.163-.03 1.177.03 1.186.092 1.17.144 1.15.202 1.14.256 1.11.31 1.093.362 1.064.408 1.05.46 1.02.514.988.552.967.596.935.64.9.688.867.725.838.76.8.794.764.84.724.867.68.906.64.93.604.966.55.988.507 1.02.462 1.05.416 1.064.36 1.094.312 1.118.255 1.133.204 1.147.144 1.17.09"/><path fill="#EB2230" d="M61.17 25.777h11.647v-1.283H62.294M59.342 28.495h13.475V27.22h-12.66M57.975 31.26h14.842v-1.285H58.602M57.086 33.977h15.73V32.7H57.48M56.504 36.702h16.313v-1.285h-16.08M56.382 41.98h16.435v-1.286H56.27M56.776 44.855h16.04v-1.283H56.543M57.554 47.188h15.263v-1.283H57.16M58.714 50.026h14.103v-1.283h-14.72M60.352 52.903h12.465V51.62H59.493M62.407 55.665h10.3v-1.282H61.282"/><g fill="#EB2230"><path d="M98.466 54.066l.067-.204.113-.188.144-.167.166-.137.188-.105.205-.068.217-.022.226.022.213.068.187.105.166.137.134.167.108.188.068.204h-.234l-.047-.143-.082-.16-.107-.135-.128-.107-.15-.08-.175-.053-.18-.017-.18.017-.174.052-.152.08-.136.108-.104.136-.084.16-.046.142"/><path d="M99.175 54.066v-.272h.428l.1.007.084.01.075.023.06.03.047.036.036.044.022.053.006.07h-.195l-.01-.04-.013-.03-.024-.03-.03-.023-.037-.014-.037-.007-.04-.008h-.277v.15M98.45 54.263l.016-.19v-.007h.224l-.007.038-.014.16"/><path d="M99.175 54.263v-.197h.197v.158h.323l.044-.007.037-.016.024-.014.025-.03.014-.037v-.054h.194l-.006.068-.013.06-.025.045-.02.023M100.46 54.263l-.018-.16-.006-.037h.234v.007l.02.19M98.45 54.263l-.007.037.023.225.067.213.113.18.144.167.166.127.188.1.205.06.217.023.226-.023.213-.06.187-.1.166-.127.134-.166.108-.182.068-.213.02-.225v-.037h-.23v.037l-.018.197-.053.18-.082.16-.107.135-.128.113-.15.083-.175.052-.18.016-.18-.016-.174-.052-.152-.083-.136-.113-.104-.136-.084-.16-.053-.18-.014-.196v-.037"/><path d="M99.175 54.263v.466h.197v-.385h.195l.234.384H100l-.28-.385.07-.008.066-.008.052-.022.046-.03.017-.015"/></g><path fill="#FFF" d="M74.26 38.023l-.15-.007-.152-.016-.136-.022-.136-.014-.135-.025-.134-.022-.144-.023-.15-.023-.16-.017-.166-.014-.19-.014-.203-.008h-.225l-.25.008-.28.015-.3.024-.218.03-.206.045-.19.06-.167.07-.15.08-.135.092-.113.106-.09.105-.07.12-.046.13-.023.127v.136l.034.143.05.143.083.143.108.144.217.197.256.16.304.134.324.114.34.114.355.113.363.13.347.15.325.182.308.22.272.278.227.332.173.407.117.484.037.572-.038.68-.084.506-.138.452-.174.41-.217.36-.258.318-.28.27-.31.235-.332.205-.347.166-.363.135-.37.114-.37.083-.37.06-.36.038-.348.022-.34.008h-.467l-.425-.008-.385-.007-.354-.007-.322-.015-.29-.015-.272-.02-.24-.033-.227-.03-.21-.037-.2-.038-.196-.053-.178-.053-.184-.052-.18-.07-.19-.066.468-2.37.108.023.127.036.158.04.173.044.205.04.227.053.243.043.255.046.273.04.287.036.293.03.31.03.31.015.317.007h.317l.325-.015.303-.053.247-.082.19-.122.15-.135.114-.16.085-.165.066-.166.047-.167.023-.173-.008-.153-.037-.142-.06-.12-.084-.12-.105-.108-.127-.098-.143-.09-.16-.082-.173-.084-.19-.083-.195-.075-.195-.076-.213-.083-.21-.084-.22-.09-.212-.09-.213-.1-.21-.112-.204-.122-.196-.128-.18-.144-.175-.166-.16-.173-.144-.197-.128-.212-.106-.232-.09-.25-.06-.28-.037-.302-.008-.33.024-.357.02-.218.033-.212.03-.203.045-.197.044-.19.054-.187.068-.174.07-.173.08-.16.083-.156.1-.145.106-.143.113-.137.122-.128.127-.12.142-.114.15-.106.16-.097.174-.09.183-.092.19-.076.202-.075.21-.06.227-.06.243-.054.25-.044.256-.038.272-.03.288-.024.3-.014.31-.015h.726l.362.006.324.008.303.014.263.017.242.012.218.024.19.014.174.024.15.022.145.014.12.023.107.016.096.014.09.014.083.01"/><path fill="none" stroke="#FFF" stroke-width=".215" d="M74.26 38.023l-.15-.007-.152-.016-.136-.022-.136-.014-.135-.025-.134-.022-.144-.023-.15-.023-.16-.017-.166-.014-.19-.014-.203-.008h-.225l-.25.008-.28.015-.3.024-.218.03-.206.045-.19.06-.167.07-.15.08-.135.092-.113.106-.09.105-.07.12-.046.13-.023.127v.136l.034.143.05.143.083.143.108.144.217.197.256.16.304.134.324.114.34.114.355.113.363.13.347.15.325.182.308.22.272.278.227.332.173.407.117.484.037.572-.038.68-.084.506-.138.452-.174.41-.217.36-.258.318-.28.27-.31.235-.332.205-.347.166-.363.135-.37.114-.37.083-.37.06-.36.038-.348.022-.34.008h-.467l-.425-.008-.385-.007-.354-.007-.322-.015-.29-.015-.272-.02-.24-.033-.227-.03-.21-.037-.2-.038-.196-.053-.178-.053-.184-.052-.18-.07-.19-.066.468-2.37.108.023.127.036.158.04.173.044.205.04.227.053.243.043.255.046.273.04.287.036.293.03.31.03.31.015.317.007h.317l.325-.015.303-.053.247-.082.19-.122.15-.135.114-.16.085-.165.066-.166.047-.167.023-.173-.008-.153-.037-.142-.06-.12-.084-.12-.105-.108-.127-.098-.143-.09-.16-.082-.173-.084-.19-.083-.195-.075-.195-.076-.213-.083-.21-.084-.22-.09-.212-.09-.213-.1-.21-.112-.204-.122-.196-.128-.18-.144-.175-.166-.16-.173-.144-.197-.128-.212-.106-.232-.09-.25-.06-.28-.037-.302-.008-.33.024-.357.02-.218.033-.212.03-.203.045-.197.044-.19.054-.187.068-.174.07-.173.08-.16.083-.156.1-.145.106-.143.113-.137.122-.128.127-.12.142-.114.15-.106.16-.097.174-.09.183-.092.19-.076.202-.075.21-.06.227-.06.243-.054.25-.044.256-.038.272-.03.288-.024.3-.014.31-.015h.726l.362.006.324.008.303.014.263.017.242.012.218.024.19.014.174.024.15.022.145.014.12.023.107.016.096.014.09.014.083.01-.542 2.445"/><path fill="#FFF" d="M76.744 32.972h3.035l-.47 2.643h1.867l-.422 2.408-1.912-.04-1.002 6.02-.016.127v.113l.017.1.03.09.044.076.052.073.07.062.075.043.09.046.093.038.103.03.106.016.124.022.12.008.127.007h.37l.212-.015.195-.03.167-.038.128-.038.098-.038.06-.03.024-.007-.31 2.06-.077.046-.082.037-.084.038-.08.04-.083.03-.093.028-.088.03-.108.03-.105.03-.115.025-.127.02-.135.023-.144.024-.15.022-.173.024-.183.022h-.815l-.43-.03-.386-.044-.34-.06-.294-.085-.25-.09-.21-.114-.176-.128-.142-.145-.113-.158-.084-.175-.05-.188-.03-.21-.01-.22.01-.242.02-.25.04-.27"/><path fill="none" stroke="#FFF" stroke-width=".215" d="M76.744 32.972h3.035l-.47 2.643h1.867l-.422 2.408-1.912-.04-1.002 6.02-.016.127v.113l.017.1.03.09.044.076.052.073.07.062.075.043.09.046.093.038.103.03.106.016.124.022.12.008.127.007h.37l.212-.015.195-.03.167-.038.128-.038.098-.038.06-.03.024-.007-.31 2.06-.077.046-.082.037-.084.038-.08.04-.083.03-.093.028-.088.03-.108.03-.105.03-.115.025-.127.02-.135.023-.144.024-.15.022-.173.024-.183.022h-.815l-.43-.03-.386-.044-.34-.06-.294-.085-.25-.09-.21-.114-.176-.128-.142-.145-.113-.158-.084-.175-.05-.188-.03-.21-.01-.22.01-.242.02-.25.04-.27 2.014-11.808"/><path fill="#FFF" d="M58.294 42.137l-.038.19-.008.188.016.204.046.194.057.206.092.203.104.196.13.188.142.18.167.175.172.15.19.144.202.12.213.1.228.073.225.054.27.038.274.037.28.03.278.015.287.007h.28l.294-.014.287-.024.293-.044.303-.054.3-.075.303-.097.3-.114.32-.137.31-.165.316-.18-.47 2.678-.173.09-.174.084-.16.07-.164.06-.17.06-.162.045-.176.038-.187.037-.196.024-.212.02-.235.024-.25.008-.27.014h-.303l-.333.008h-.625l-.274-.015-.262-.015-.274-.03-.28-.038-.27-.046-.27-.06-.273-.06-.267-.083-.263-.083-.258-.098-.255-.113-.25-.13-.24-.136-.23-.148-.224-.167-.212-.18-.202-.198-.197-.21-.173-.23-.165-.248-.15-.255-.137-.28-.12-.297-.108-.314-.08-.333-.07-.346-.045-.378-.03-.393v-.407l.016-.438.036-.454.022-.157.024-.182.03-.183.038-.195.038-.203.052-.21.06-.22.062-.226.075-.236.084-.226.097-.235.105-.23.12-.235.13-.236.143-.233.15-.227.173-.218.18-.22.2-.212.217-.196.228-.197.25-.18.262-.167.287-.158.303-.136.325-.13.34-.11.36-.092.386-.075.41-.054.422-.03.452-.015h.21l.213.016.218.014.22.024.22.03.226.044.218.053.22.06.22.07.217.083.21.09.207.108.195.12.197.128.18.152.182.157.163.175.16.19.143.21.13.22.12.24.108.256.09.28.067.295.06.318.038.33.016.356v.378l-.023.4-.036.423-.068.446-.093.47-.122.662h-7.842l.468-2.1h4.704l.023-.286v-.266l-.017-.248-.045-.227-.06-.203-.075-.19-.098-.168-.114-.15-.127-.137-.143-.112-.15-.09-.16-.076-.174-.06-.18-.046-.19-.02-.195-.01h-.213l-.195.03-.195.037-.184.063-.173.082-.165.098-.157.113-.145.13-.134.15-.12.16-.115.172-.105.19-.09.195-.077.212-.06.226-.054.234"/><path fill="none" stroke="#FFF" stroke-width=".215" d="M58.294 42.137l-.038.19-.008.188.016.204.046.194.057.206.092.203.104.196.13.188.142.18.167.175.172.15.19.144.202.12.213.1.228.073.225.054.27.038.274.037.28.03.278.015.287.007h.28l.294-.014.287-.024.293-.044.303-.054.3-.075.303-.097.3-.114.32-.137.31-.165.316-.18-.47 2.678-.173.09-.174.084-.16.07-.164.06-.17.06-.162.045-.176.038-.187.037-.196.024-.212.02-.235.024-.25.008-.27.014h-.303l-.333.008h-.625l-.274-.015-.262-.015-.274-.03-.28-.038-.27-.046-.27-.06-.273-.06-.267-.083-.263-.083-.258-.098-.255-.113-.25-.13-.24-.136-.23-.148-.224-.167-.212-.18-.202-.198-.197-.21-.173-.23-.165-.248-.15-.255-.137-.28-.12-.297-.108-.314-.08-.333-.07-.346-.045-.378-.03-.393v-.407l.016-.438.036-.454.022-.157.024-.182.03-.183.038-.195.038-.203.052-.21.06-.22.062-.226.075-.236.084-.226.097-.235.105-.23.12-.235.13-.236.143-.233.15-.227.173-.218.18-.22.2-.212.217-.196.228-.197.25-.18.262-.167.287-.158.303-.136.325-.13.34-.11.36-.092.386-.075.41-.054.422-.03.452-.015h.21l.213.016.218.014.22.024.22.03.226.044.218.053.22.06.22.07.217.083.21.09.207.108.195.12.197.128.18.152.182.157.163.175.16.19.143.21.13.22.12.24.108.256.09.28.067.295.06.318.038.33.016.356v.378l-.023.4-.036.423-.068.446-.093.47-.122.662h-7.842l.468-2.1h4.704l.023-.286v-.266l-.017-.248-.045-.227-.06-.203-.075-.19-.098-.168-.114-.15-.127-.137-.143-.112-.15-.09-.16-.076-.174-.06-.18-.046-.19-.02-.195-.01h-.213l-.195.03-.195.037-.184.063-.173.082-.165.098-.157.113-.145.13-.134.15-.12.16-.115.172-.105.19-.09.195-.077.212-.06.226-.054.234-.42 2.257"/><path fill="#FFF" d="M54.096 44.78l-.43 2.408h-2.728l.03-.226.03-.228.032-.202.03-.19.03-.158.024-.136.03-.09.03-.053-.144.164-.182.166-.203.16-.234.15-.247.143-.272.135-.287.12-.294.115-.31.098-.317.083-.317.06-.32.047-.315.022-.31.007-.3-.022-.297-.046-.383-.092-.338-.122-.31-.144-.273-.157-.242-.173-.203-.196-.183-.205-.152-.224-.128-.227-.105-.237-.084-.24-.068-.25-.044-.24-.028-.25-.016-.24-.008-.237.03-.42.067-.4.1-.388.144-.36.172-.34.196-.317.234-.293.248-.28.28-.25.293-.218.32-.205.33-.175.35-.15.354-.122.36-.09.37-.068h.015l.055-.007.083-.01.112-.013.13-.015.148-.015.168-.023.182-.015.18-.015.18-.022.19-.016.183-.015.163-.016.16-.008.143-.007h.506l.135.007h.13l.12.007h.24l.107.007h.1l.08.008h.077l.06.007h.084l.023-.074.05-.182.04-.213v-.187l-.015-.137-.024-.13-.034-.12-.052-.112-.062-.107-.074-.097-.078-.09-.09-.09-.097-.076-.1-.06-.113-.06-.11-.054-.122-.037-.13-.032-.128-.02-.128-.017-.31-.008-.324.007-.34.007-.346.024-.348.022-.347.03-.35.04-.337.036-.326.052-.308.045-.28.054-.264.06-.234.06-.197.06-.157.062-.113.065.777-2.566.228-.105.24-.1.242-.083.257-.067.265-.053.27-.046.287-.038.295-.03.3-.014.31-.016.317-.008h1.028l.362.008.376.008.31.03.324.046.34.083.34.097.34.13.34.157.317.18.3.212.282.24.246.265.213.295.165.324.12.356.07.385.005.406-.06.446"/><path fill="none" stroke="#FFF" stroke-width=".215" d="M54.096 44.78l-.43 2.408h-2.728l.03-.226.03-.228.032-.202.03-.19.03-.158.024-.136.03-.09.03-.053-.144.164-.182.166-.203.16-.234.15-.247.143-.272.135-.287.12-.294.115-.31.098-.317.083-.317.06-.32.047-.315.022-.31.007-.3-.022-.297-.046-.383-.092-.338-.122-.31-.144-.273-.157-.242-.173-.203-.196-.183-.205-.152-.224-.128-.227-.105-.237-.084-.24-.068-.25-.044-.24-.028-.25-.016-.24-.008-.237.03-.42.067-.4.1-.388.144-.36.172-.34.196-.317.234-.293.248-.28.28-.25.293-.218.32-.205.33-.175.35-.15.354-.122.36-.09.37-.068h.015l.055-.007.083-.01.112-.013.13-.015.148-.015.168-.023.182-.015.18-.015.18-.022.19-.016.183-.015.163-.016.16-.008.143-.007h.506l.135.007h.13l.12.007h.24l.107.007h.1l.08.008h.077l.06.007h.084l.023-.074.05-.182.04-.213v-.187l-.015-.137-.024-.13-.034-.12-.052-.112-.062-.107-.074-.097-.078-.09-.09-.09-.097-.076-.1-.06-.113-.06-.11-.054-.122-.037-.13-.032-.128-.02-.128-.017-.31-.008-.324.007-.34.007-.346.024-.348.022-.347.03-.35.04-.337.036-.326.052-.308.045-.28.054-.264.06-.234.06-.197.06-.157.062-.113.065.777-2.566.228-.105.24-.1.242-.083.257-.067.265-.053.27-.046.287-.038.295-.03.3-.014.31-.016.317-.008h1.028l.362.008.376.008.31.03.324.046.34.083.34.097.34.13.34.157.317.18.3.212.282.24.246.265.213.295.165.324.12.356.07.385.005.406-.06.446-1.124 5.67"/><path fill="#0B84C4" d="M51.49 41.94l-.007-.06-.046-.046-.076-.037-.094-.022-.13-.014-.137-.007h-.324l-.174.015-.18.022-.175.022-.172.03-.168.03-.158.03-.138.037-.12.04-.07.014-.09.03-.11.038-.122.05-.128.056-.145.067-.144.083-.144.084-.142.105-.138.114-.127.12-.114.14-.107.14-.075.16-.06.173-.037.18-.014.37.052.287.09.227.137.166.165.113.174.076.19.038.18.008.334-.008.293-.03.28-.053.25-.068.226-.077.203-.09.18-.105.158-.115.144-.113.124-.128.103-.12.09-.13.076-.126.06-.123.044-.12.04-.113.038-.166.036-.175.037-.182.04-.188.03-.18.03-.167.03-.16"/><path fill="#FFF" d="M31.31 47.188h-2.952l2.484-14.216h5.135l.505 8.464 3.495-8.464h5.332l-2.494 14.216h-2.95l1.864-10.646h-.115l-4.393 10.646h-3.307l-.03-.446-.068-1.184-.1-1.677-.113-1.923-.11-1.942-.1-1.712-.07-1.24-.028-.52H33.144h.032"/><path fill="none" stroke="#FFF" stroke-width=".215" d="M31.31 47.188h-2.952l2.484-14.216h5.135l.505 8.464 3.495-8.464h5.332l-2.494 14.216h-2.95l1.864-10.646h-.115l-4.393 10.646h-3.307l-.03-.446-.068-1.184-.1-1.677-.113-1.923-.11-1.942-.1-1.712-.07-1.24-.028-.52H33.144h.032L31.31 47.187"/><path fill="#FFF" d="M80.633 47.188h3.07l1.052-6.137.046-.24.052-.236.062-.232.074-.22.083-.22.107-.204.128-.196.143-.188.174-.167.197-.15.232-.137.26-.12.302-.098.337-.077.38-.044.422-.03h.038l.046.01.06.006h.06l.052.008.046.007.03.007h.015l.007-.044.032-.13.035-.195.06-.248.075-.28.084-.302.098-.303.113-.286.084-.213.097-.204.098-.203.105-.187.092-.16.073-.128.054-.084.014-.028h-.015l-.038-.016-.054-.008-.076-.014-.076-.015-.09-.01-.08-.014h-.077l-.334.023-.303.036-.277.06-.26.07-.24.088-.22.1-.21.12-.188.128-.19.146-.173.157-.157.166-.168.18-.16.19-.15.204-.158.212-.158.22.355-1.94-3.074-.04-2.023 11.612"/><path fill="none" stroke="#FFF" stroke-width=".215" d="M80.633 47.188h3.07l1.052-6.137.046-.24.052-.236.062-.232.074-.22.083-.22.107-.204.128-.196.143-.188.174-.167.197-.15.232-.137.26-.12.302-.098.337-.077.38-.044.422-.03h.038l.046.01.06.006h.06l.052.008.046.007.03.007h.015l.007-.044.032-.13.035-.195.06-.248.075-.28.084-.302.098-.303.113-.286.084-.213.097-.204.098-.203.105-.187.092-.16.073-.128.054-.084.014-.028h-.015l-.038-.016-.054-.008-.076-.014-.076-.015-.09-.01-.08-.014h-.077l-.334.023-.303.036-.277.06-.26.07-.24.088-.22.1-.21.12-.188.128-.19.146-.173.157-.157.166-.168.18-.16.19-.15.204-.158.212-.158.22.355-1.94-3.074-.04-2.023 11.612"/><path fill="#FFF" d="M93.927 35.456l.34.008.334.022.324.03.316.045.304.06.293.077.278.084.28.1.265.11.25.122.248.13.228.143.226.157.21.166.197.175.188.188.18.198.168.21.15.212.143.228.133.232.117.25.113.25.09.263.084.266.067.277.062.287.044.294.03.293.013.313.01.316-.01.316-.02.386-.047.37-.052.355-.068.346-.075.333-.097.317-.108.31-.112.292-.135.28-.135.273-.16.256-.158.24-.175.237-.19.218-.194.205-.204.198-.21.18-.22.175-.233.157-.237.145-.25.135-.256.12-.255.115-.273.098-.272.09-.285.075-.29.06-.287.053-.3.038-.303.03-.31.017-.308.007-.31-.007-.31-.016-.293-.03-.295-.045-.287-.053-.288-.06-.272-.076-.263-.09-.265-.097-.25-.115-.24-.12-.236-.136-.224-.144-.212-.16-.21-.167-.2-.18-.18-.19-.18-.203-.16-.21-.158-.227-.136-.235-.136-.248-.113-.26-.106-.262-.088-.28-.086-.295-.066-.3-.053-.312-.04-.322-.02-.333-.01-.347.01-.354.02-.364.04-.348.053-.34.066-.324.078-.317.09-.31.097-.295.117-.287.12-.28.134-.262.15-.25.16-.25.168-.226.182-.226.187-.205.197-.205.21-.188.218-.173.23-.166.233-.15.25-.136.254-.136.265-.114.264-.107.28-.088.284-.085.297-.067.3-.06.31-.04.317-.036.325-.016"/><path fill="none" stroke="#FFF" stroke-width=".215" d="M93.927 35.456l.34.008.334.022.324.03.316.045.304.06.293.077.278.084.28.1.265.11.25.122.248.13.228.143.226.157.21.166.197.175.188.188.18.198.168.21.15.212.143.228.133.232.117.25.113.25.09.263.084.266.067.277.062.287.044.294.03.293.013.313.01.316-.01.316-.02.386-.047.37-.052.355-.068.346-.075.333-.097.317-.108.31-.112.292-.135.28-.135.273-.16.256-.158.24-.175.237-.19.218-.194.205-.204.198-.21.18-.22.175-.233.157-.237.145-.25.135-.256.12-.255.115-.273.098-.272.09-.285.075-.29.06-.287.053-.3.038-.303.03-.31.017-.308.007-.31-.007-.31-.016-.293-.03-.295-.045-.287-.053-.288-.06-.272-.076-.263-.09-.265-.097-.25-.115-.24-.12-.236-.136-.224-.144-.212-.16-.21-.167-.2-.18-.18-.19-.18-.203-.16-.21-.158-.227-.136-.235-.136-.248-.113-.26-.106-.262-.088-.28-.086-.295-.066-.3-.053-.312-.04-.322-.02-.333-.01-.347.01-.354.02-.364.04-.348.053-.34.066-.324.078-.317.09-.31.097-.295.117-.287.12-.28.134-.262.15-.25.16-.25.168-.226.182-.226.187-.205.197-.205.21-.188.218-.173.23-.166.233-.15.25-.136.254-.136.265-.114.264-.107.28-.088.284-.085.297-.067.3-.06.31-.04.317-.036.325-.016.325-.008"/><path fill="#FFF" d="M98.443 46.606h.89v.114h-.35v.74h-.193v-.74h-.347"/><path fill="none" stroke="#FFF" stroke-width=".215" d="M98.443 46.606h.89v.114h-.35v.74h-.193v-.74h-.347v-.114"/><path fill="#FFF" d="M99.446 46.606h.273l.314.658.31-.658h.274v.853h-.2v-.657l-.308.656h-.158l-.31-.657v.656h-.196"/><path fill="none" stroke="#FFF" stroke-width=".215" d="M99.446 46.606h.273l.314.658.31-.658h.274v.853h-.2v-.657l-.308.656h-.158l-.31-.657v.656h-.196v-.854"/><path fill="#EB2230" d="M91.52 41.004l-.046.424-.025.392v.355l.024.332.045.302.067.264.084.24.104.22.13.188.144.16.157.135.176.107.19.08.21.062.218.03.235.016.257-.008.25-.03.233-.054.225-.08.213-.108.204-.135.188-.16.18-.19.16-.21.152-.242.143-.27.12-.296.114-.325.1-.354.075-.384.07-.415.037-.325.02-.31v-.3l-.02-.288-.038-.265-.062-.256-.083-.235-.1-.216-.118-.197-.138-.168-.157-.15-.174-.12-.197-.1-.21-.06-.227-.037h-.252l-.308.022-.288.053-.265.09-.247.115-.228.15-.21.166-.19.187-.165.213-.157.225-.138.242-.122.24-.098.257-.09.257-.075.26-.052.256"/></svg>