<svg xmlns="http://www.w3.org/2000/svg" viewBox="0 0 128 80"><path fill="#3D6AAF" d="M0 0h128v79.996H0z"/><g fill="#FFF"><path d="M48.932 38.863h16.49c-.14-3.26-.98-6.624-3.5-8.78-2.986-2.556-8.252-3.518-12.943-3.518-4.9 0-10.308 1.046-13.323 3.807-2.597 2.362-3.157 6.2-3.157 9.618 0 3.607 1.103 7.79 3.928 10.197 3.006 2.57 7.865 3.248 12.55 3.248 4.558 0 9.487-.777 12.46-3.2 2.986-2.44 4.022-6.525 4.022-10.245v-.012H48.932v-1.115zM66.53 39.98v12.853H89.47v-.013c3.365-.174 6.027-2.94 6.027-6.332s-2.663-6.34-6.028-6.514v.004H66.53zM95.076 32.968c0-3.27-2.592-5.86-5.86-5.86-.23 0-.5-.05-.73-.03H66.53v11.786h23.13c3.027-.258 5.416-2.803 5.416-5.896z"/></g></svg>