<svg xmlns="http://www.w3.org/2000/svg" viewBox="0 0 128 80"><path fill-rule="evenodd" clip-rule="evenodd" fill="#283A97" d="M0 80h128V0H0v80"/><path fill-rule="evenodd" clip-rule="evenodd" fill="#EE4799" d="M97.366.43l-3.858 6.41L28.47 3.87l-.297-.475L97.366.43M93.093 7.67l-3.916 6.41-56.375-2.97-.297-.414L93.093 7.67M88.76 14.97l-3.856 6.407-47.532-3.026-.297-.415L88.76 14.97M84.43 22.21l-3.858 6.407-38.69-2.967-.298-.474L84.43 22.21M80.098 29.448l-3.858 6.41-29.848-2.968-.297-.474 34.003-2.968M75.766 36.748l-3.798 6.348-21.186-2.966-.297-.415 25.28-2.967M71.492 43.986l-3.917 6.41-12.46-2.968-.298-.474 16.675-2.968M66.982 51.464l-3.916 6.646-4.154-3.442-.118-.475 8.188-2.73M-.43 54.432h128-128"/><path fill="none" stroke="#EE4799" stroke-width="1.001" stroke-miterlimit="2.613" d="M-.43 54.432h128"/><path fill-rule="evenodd" clip-rule="evenodd" fill="#EE4799" d="M-.43 47.19h128-128"/><path fill="none" stroke="#EE4799" stroke-width="1.001" stroke-miterlimit="2.613" d="M-.43 47.19h128"/><path fill-rule="evenodd" clip-rule="evenodd" fill="#EE4799" d="M-.43 39.95h128-128"/><path fill="none" stroke="#EE4799" stroke-width="1.001" stroke-miterlimit="2.613" d="M-.43 39.95h128"/><path fill-rule="evenodd" clip-rule="evenodd" fill="#EE4799" d="M-.43 32.652h128-128"/><path fill="none" stroke="#EE4799" stroke-width="1.001" stroke-miterlimit="2.613" d="M-.43 32.652h128"/><path fill-rule="evenodd" clip-rule="evenodd" fill="#EE4799" d="M-.43 25.412h128-128"/><path fill="none" stroke="#EE4799" stroke-width="1.001" stroke-miterlimit="2.613" d="M-.43 25.412h128"/><path fill-rule="evenodd" clip-rule="evenodd" fill="#EE4799" d="M-.43 18.173h128-128"/><path fill="none" stroke="#EE4799" stroke-width="1.001" stroke-miterlimit="2.613" d="M-.43 18.173h128"/><path fill-rule="evenodd" clip-rule="evenodd" fill="#EE4799" d="M-.43 10.934h128-128"/><path fill="none" stroke="#EE4799" stroke-width="1.001" stroke-miterlimit="2.613" d="M-.43 10.934h128"/><path fill-rule="evenodd" clip-rule="evenodd" fill="#EE4799" d="M-.43 3.635h128-128"/><path fill="none" stroke="#EE4799" stroke-width="1.001" stroke-miterlimit="2.613" d="M-.43 3.635h128"/><path d="M76.537 62.264v14.063h9.554l1.188-2.67c-1.72.06-2.967.12-4.747.12h-2.017v-3.502h.237c1.01 0 2.137.06 3.323.12l1.187-2.73c-.594.058-.712.058-1.543.058-1.483.06-1.84.06-3.204.06v-2.907h.475c1.188 0 2.73.06 4.807.118l1.128-2.73H76.537zm-36.496 0l1.01 1.484-5.4 12.58h3.916l.89-2.137h5.58l.89 2.137h4.095L44.85 62.264H40.04zm4.867 9.376h-3.382l1.66-4.035 1.722 4.035zM22.773 61.373h-3.976v14.954h9.613l1.127-2.67c-1.246.06-2.85.12-4.57.12h-2.194V61.372zm44.506 1.603c-1.544-.712-2.91-1.01-4.273-1.01-3.026 0-5.104 1.663-5.104 4.036 0 1.484.653 2.493 2.374 3.62l2.018 1.366c.95.65 1.306 1.127 1.306 1.84 0 .89-.83 1.423-2.076 1.423-1.068 0-1.72-.296-2.908-1.244l-1.067 2.49c1.778.95 2.67 1.188 4.212 1.188 3.5 0 5.696-1.72 5.696-4.39 0-1.545-.712-2.554-2.492-3.8l-2.076-1.483c-.89-.593-1.128-.89-1.128-1.363 0-.77.593-1.247 1.602-1.247.89 0 1.662.297 2.85 1.07l1.065-2.494zm28.424-.712v14.063h3.976V64.875H100.51c1.78 0 2.73.712 2.73 2.018 0 1.365-1.127 2.255-2.907 2.255-.18 0-.297 0-.594-.06l4.806 7.24h4.392l-3.977-5.815c1.722-1.01 2.435-2.136 2.435-3.857 0-2.968-2.077-4.392-6.29-4.392h-5.4z" fill-rule="evenodd" clip-rule="evenodd" fill="#FFF"/></svg>