<svg xmlns="http://www.w3.org/2000/svg" viewBox="0 0 128 80"><path d="M128 75.732c0 2.356-1.91 4.268-4.268 4.268H4.266C1.91 80 0 78.09 0 75.732V4.266C0 1.91 1.91 0 4.266 0h119.467C126.09 0 128 1.91 128 4.266v71.466z" fill="#C93192"/><path d="M69.01 32.494c2.88 4.425 1.628 10.35-2.798 13.23-4.422 2.88-10.346 1.632-13.228-2.793l2.747-1.845c1.872 2.872 5.72 3.686 8.594 1.813 2.872-1.87 3.685-5.718 1.814-8.59l2.87-1.814z" fill="#FFF"/><path d="M75.4 28.435c-2.886-4.423-8.812-5.665-13.232-2.778-4.42 2.888-5.664 8.813-2.778 13.234l2.797-1.77c-1.874-2.87-1.066-6.718 1.804-8.593 2.873-1.876 6.72-1.066 8.596 1.804l2.814-1.895z"/><path d="M45.84 35.307C45.84 25.28 53.97 17.15 64 17.15c10.03 0 18.157 8.13 18.157 18.157 0 10.03-8.128 18.157-18.157 18.157-10.027 0-18.157-8.128-18.157-18.157zM64 52.194c9.328 0 16.888-7.562 16.888-16.888S73.326 18.42 63.998 18.42c-9.326 0-16.886 7.56-16.886 16.886 0 9.327 7.56 16.888 16.886 16.888zM66.087 57.327h1.162l-.96 4.3h3.125l-.22.97h-4.284l1.177-5.27zM53.002 60.99c.233.446 1.183.995 2.118.965.99-.03 1.344-.312 1.41-.785.027-.188.104-.616-.718-.714l-1.336-.147c-1.415-.19-1.643-.763-1.61-1.468.044-.97 1.256-1.718 2.558-1.734 1.147-.016 2.118.237 2.573.855l-.806.486c-.665-.53-1.265-.57-1.978-.525-.498.032-1.17.23-1.273.714-.072.34-.055.553.66.637l1.686.22c.777.09 1.428.822 1.365 1.448-.09.913-.888 1.993-2.795 1.9-1.46-.07-2.316-.64-2.71-1.355l.857-.5zM58.633 59.936c.227-1.586 1.7-2.876 3.286-2.876 1.59 0 2.692 1.29 2.467 2.876-.228 1.59-1.698 2.88-3.29 2.88-1.585 0-2.692-1.29-2.464-2.88zm2.608 1.872c1.036 0 1.992-.837 2.14-1.872.146-1.03-.57-1.87-1.604-1.87-1.032 0-1.987.84-2.135 1.87-.147 1.035.57 1.872 1.6 1.872zM70.1 59.936c.225-1.586 1.697-2.876 3.286-2.876 1.59 0 2.694 1.29 2.466 2.876-.226 1.59-1.696 2.88-3.287 2.88-1.59 0-2.693-1.29-2.466-2.88zm2.608 1.872c1.032 0 1.99-.837 2.137-1.872.15-1.03-.57-1.87-1.603-1.87-1.032 0-1.99.84-2.137 1.87-.147 1.035.57 1.872 1.603 1.872z" fill="#FFF"/></svg>