<svg xmlns="http://www.w3.org/2000/svg" viewBox="0 0 128 80"><path d="M128 75.732c0 2.356-1.91 4.268-4.266 4.268H4.268C1.91 80 0 78.09 0 75.732V4.266C0 1.91 1.91 0 4.268 0h119.467C126.09 0 128 1.91 128 4.266v71.466z" fill="#1D9F70"/><path d="M73.497 33.706c5.683 8.724 3.213 20.406-5.51 26.09-8.727 5.68-20.407 3.214-26.09-5.513l5.418-3.64c3.69 5.667 11.274 7.267 16.94 3.578 5.666-3.688 7.27-11.274 3.577-16.94l5.665-3.574z" fill="#FFF"/><path d="M86.104 25.695c-5.693-8.718-17.377-11.17-26.097-5.475-8.718 5.692-11.17 17.376-5.476 26.096l5.517-3.49c-3.697-5.662-2.108-13.248 3.556-16.945 5.662-3.696 13.248-2.105 16.945 3.557l5.556-3.742z"/></svg>