<svg xmlns="http://www.w3.org/2000/svg" viewBox="0 0 128 80"><path d="M128 75.732c0 2.358-1.91 4.268-4.266 4.268H4.268C1.91 80 0 78.09 0 75.732V4.267C0 1.907 1.91 0 4.268 0h119.467C126.09 0 128 1.908 128 4.267v71.465z" fill="#F9F9FA"/><path d="M88.65 35.678c-.81-.45-2.074-.68-3.807-.68-.856 0-1.716.068-2.58.203-.635.098-.7.113-1.093.198-.81.178-.937.987-.937.987l-.26 1.072c-.147.684.242.655.415.603.354-.107.546-.214 1.27-.377.69-.155 1.417-.274 1.998-.27.854 0 1.502.094 1.934.273.43.19.645.508.645.967.002.11.004.21-.034.302-.035.085-.103.165-.31.192-1.215.07-2.088.184-3.14.338-1.038.146-1.946.396-2.706.742-.81.36-1.415.84-1.833 1.448-.404.612-.608 1.353-.61 2.226 0 .825.296 1.498.87 2.02.58.517 1.335.77 2.248.77.57-.003 1.017-.044 1.335-.124.317-.08.663-.192 1.027-.35.272-.116.567-.28.877-.487.312-.208.527-.355.805-.537l.01.017-.08.345c0 .003-.004.005-.004.007l.003.007c-.09.41.16.755.57.798l.005.007h.035l.003.002c.27 0 1.203 0 1.64-.002h.303c.02 0 .023-.007.03-.013.417-.05.818-.39.913-.8l1.555-6.715c.035-.158.064-.34.08-.552.02-.212.044-.386.038-.513.002-.95-.407-1.653-1.212-2.104zm-3.77 8.003c-.265.167-.544.31-.837.433-.394.157-.766.24-1.11.24-.53 0-.938-.075-1.213-.234-.275-.153-.42-.417-.415-.795 0-.436.102-.775.31-1.04.21-.256.52-.462.908-.615.386-.13.86-.238 1.404-.314.487-.062 1.448-.173 1.57-.173.123 0 .204-.07.15.258-.024.144-.303 1.282-.43 1.8-.037.154-.243.38-.337.44z" fill="#34679A"/><path d="M61.88 35.146c-.455 0-1.055.37-1.338.814 0 0-3.055 5.236-3.354 5.76-.163.28-.33.103-.357-.002-.02-.128-.942-5.722-.942-5.722-.106-.45-.576-.837-1.165-.835l-1.902.004c-.46 0-.746.367-.644.812 0 0 1.456 8.25 1.74 10.188.14 1.072-.016 1.264-.016 1.264l-1.887 3.29c-.276.444-.125.812.332.812h2.207c.456 0 1.06-.365 1.335-.813l8.486-14.356s.81-1.226.062-1.215c-.507.01-2.556 0-2.556 0M35.084 38.065c-.644.47-1.532.705-2.69.705h-.522c-.46 0-.75-.365-.647-.814l.64-2.764c.098-.445.557-.815 1.02-.81l.696-.006c.814 0 1.434.14 1.854.417.41.27.62.695.61 1.27.012.863-.315 1.53-.96 2.002m4.6-4.26c-.264-.517-.66-.937-1.168-1.253-.525-.325-1.137-.548-1.85-.684-.718-.128-1.554-.19-2.516-.2l-4.447.004c-.463.006-.915.368-1.022.81l-2.998 13.042c-.104.444.185.813.646.813h2.133c.46 0 .918-.36 1.02-.813l.734-3.165c.098-.443.555-.81 1.017-.81h.61c2.605-.004 4.627-.537 6.08-1.604 1.45-1.063 2.174-2.475 2.172-4.223.002-.765-.13-1.406-.407-1.918" fill="#1C3665"/><path d="M73.772 38.118c-.64.464-1.535.697-2.688.697h-.53c-.46.004-.754-.366-.645-.812l.64-2.767c.095-.438.56-.812 1.01-.807l.7-.006c.82.005 1.432.142 1.855.412.414.276.615.703.618 1.27 0 .87-.32 1.537-.96 2.012m4.598-4.267c-.266-.515-.665-.93-1.173-1.255-.52-.322-1.137-.548-1.853-.68-.706-.124-1.55-.195-2.506-.197l-4.458.002c-.46.008-.91.37-1.017.813l-2.995 13.04c-.11.445.187.815.64.813l2.14-.003c.45.003.914-.364 1.02-.81l.724-3.162c.1-.443.562-.815 1.023-.808h.607c2.61 0 4.634-.536 6.082-1.604 1.445-1.072 2.172-2.477 2.172-4.227-.003-.763-.133-1.407-.405-1.92" fill="#34679A"/><path d="M49.955 35.666c-.81-.45-2.073-.68-3.806-.68-.857 0-1.717.07-2.582.204-.634.098-.697.113-1.093.2-.81.176-.935.986-.935.986l-.26 1.07c-.148.685.243.655.416.602.353-.106.546-.21 1.267-.375.688-.158 1.418-.273 2-.27.853 0 1.5.093 1.932.273.432.188.645.51.645.967.003.11.006.213-.034.3-.035.087-.104.166-.31.194-1.214.073-2.086.185-3.142.337-1.04.146-1.945.396-2.705.743-.81.36-1.414.84-1.832 1.45-.408.61-.612 1.35-.612 2.224 0 .826.297 1.497.87 2.02.58.515 1.335.77 2.247.77.57-.004 1.016-.046 1.338-.126.315-.08.662-.193 1.026-.35.273-.115.566-.28.878-.487.31-.206.528-.354.803-.535l.01.016-.078.343c0 .006-.005.008-.005.012l.003.006c-.09.413.158.756.568.796l.004.008h.036v.005l1.64-.005h.306c.02 0 .023-.007.03-.01.418-.055.818-.392.913-.8l1.556-6.718c.036-.157.065-.34.08-.55.02-.213.044-.387.037-.512.004-.95-.405-1.653-1.212-2.106zm-3.77 8.005c-.264.168-.542.31-.838.432-.392.157-.767.24-1.11.24-.527 0-.938-.074-1.212-.233-.275-.153-.42-.418-.416-.795 0-.437.1-.775.31-1.04.21-.258.52-.463.907-.615.386-.132.86-.237 1.405-.315.486-.062 1.447-.17 1.57-.172.122 0 .204-.07.15.257-.025.144-.302 1.282-.43 1.8-.037.155-.243.38-.336.44z" fill="#1C3665"/><path d="M95.997 31.825H94.09h-.002c-.44 0-.874.335-1 .76-.006.018-.02.033-.023.052l-.066.305-2.674 12.114c-.062.278-.104.46-.117.506l.005.008c-.088.41.16.744.562.788l.012.017h1.978c.432 0 .866-.334.992-.752.007-.02.022-.04.027-.06l2.858-12.928h-.004c.096-.443-.187-.81-.643-.81z" fill="#34679A"/><g fill="#34679A"><path d="M98.89 34.457c-.065.018-.135.03-.213.04-.078.014-.147.02-.207.02-.213 0-.374-.058-.482-.17-.11-.115-.166-.298-.166-.548v-1.105h-.236V32.4h.236v-.594h.35v.595h.72v.295h-.72v.945c0 .108.004.193.006.254.006.062.022.12.053.174.027.05.065.084.113.107.048.022.122.034.22.034.056 0 .115-.01.177-.026.062-.015.107-.03.134-.042h.018v.315zM102.34 34.477h-.35v-1.182c0-.088-.004-.175-.013-.26-.008-.08-.025-.147-.052-.197-.028-.054-.068-.094-.123-.12-.053-.027-.13-.04-.23-.04-.098 0-.194.022-.292.072-.1.048-.195.11-.293.186l.007.1c.004.038.006.075.006.112v1.33h-.35v-1.183c0-.09-.005-.18-.013-.26-.008-.083-.025-.15-.05-.198-.03-.054-.07-.094-.124-.12-.054-.026-.13-.04-.23-.04-.095 0-.19.022-.288.07-.095.047-.19.107-.287.18v1.55h-.348v-2.075h.348v.23c.11-.09.22-.16.33-.21.106-.052.22-.078.345-.078.14 0 .26.03.357.09.1.06.172.142.222.247.14-.118.27-.204.385-.256.117-.053.242-.08.373-.08.23 0 .396.07.506.207.107.14.163.334.163.58v1.347z"/></g></svg>