<svg width="128" height="80" viewBox="0 0 128 80" xmlns="http://www.w3.org/2000/svg"><title>card-mc 2</title><g fill="none" fill-rule="evenodd"><path d="M128 75.734A4.266 4.266 0 0 1 123.732 80H4.266A4.265 4.265 0 0 1 0 75.734V4.27C0 1.91 1.91 0 4.266 0h119.467A4.267 4.267 0 0 1 128 4.27v71.464z" fill="#006"/><path d="M101.88 46.878v-.857h-.221l-.255.59-.255-.59h-.222v.857h.157v-.646l.239.557h.162l.24-.559v.648h.156zm-1.404 0v-.71h.284v-.145h-.723v.144h.284v.711h.155zM101.925 34.141c0 13.257-10.632 24.004-23.747 24.004S54.431 47.398 54.431 34.141c0-13.257 10.632-24.004 23.747-24.004s23.747 10.747 23.747 24.004z" fill="#F79F1A"/><path d="M72.63 34.141c0 13.257-10.632 24.004-23.747 24.004S25.136 47.398 25.136 34.141c0-13.257 10.632-24.004 23.747-24.004S72.63 20.884 72.63 34.141z" fill="#EA001B"/><path d="M63.53 15.245a24.05 24.05 0 0 0-9.097 18.894 24.06 24.06 0 0 0 9.098 18.9 24.06 24.06 0 0 0 9.097-18.9 24.05 24.05 0 0 0-9.097-18.894z" fill="#FF5F01"/><g fill="#FFF"><path d="M100.968 69.15a.65.65 0 0 0-.461.187.634.634 0 0 0 0 .902.65.65 0 0 0 1.105-.45.645.645 0 0 0-.644-.64zm0 1.137a.492.492 0 0 1-.495-.498.493.493 0 1 1 .984 0 .502.502 0 0 1-.143.352.483.483 0 0 1-.346.146zm.037-.798h-.272v.594h.126v-.222h.058l.178.222h.15l-.192-.224a.234.234 0 0 0 .14-.059.164.164 0 0 0 .048-.121.171.171 0 0 0-.061-.138.271.271 0 0 0-.175-.052zm-.001.112c.033 0 .06.006.079.02.02.013.029.032.03.058-.001.027-.01.047-.03.06a.137.137 0 0 1-.08.02h-.144V69.6h.145zM30.419 70.02H29.07v-6.345h1.321v.774s1.16-.945 1.85-.934c1.34.023 2.14 1.173 2.14 1.173s.65-1.173 2.114-1.173c2.166 0 2.483 2 2.483 2v4.478h-1.294v-3.945s.004-1.2-1.4-1.2c-1.454 0-1.586 1.2-1.586 1.2v3.945h-1.347v-3.972s-.13-1.253-1.348-1.253c-1.582 0-1.612 1.28-1.612 1.28l.027 3.972zM71.398 63.515c-.689-.012-1.849.933-1.849.933v-.772h-1.322v6.343h1.348l-.026-3.971s.03-1.277 1.612-1.277c.294 0 .522.072.702.182v-.005l.44-1.235a2.402 2.402 0 0 0-.905-.198zM90.38 63.515c-.689-.012-1.849.933-1.849.933v-.772H87.21v6.343h1.348l-.026-3.971s.03-1.277 1.612-1.277c.294 0 .522.072.703.182v-.005l.439-1.235a2.402 2.402 0 0 0-.904-.198zM43.337 63.489c-2.017 0-3.084 1.828-3.09 3.356-.005 1.566 1.215 3.372 3.146 3.372 1.127 0 2.053-.839 2.053-.839l-.003.647h1.327v-6.351h-1.332v.8s-.869-.985-2.101-.985zm.258 1.292c1.083 0 1.963.951 1.963 2.122 0 1.17-.88 2.116-1.963 2.116-1.084 0-1.958-.946-1.958-2.116 0-1.17.874-2.122 1.958-2.122zM82.019 63.489c-2.017 0-3.084 1.828-3.09 3.356-.005 1.566 1.215 3.372 3.146 3.372 1.127 0 2.053-.839 2.053-.839l-.003.647h1.326v-6.351h-1.33v.8s-.87-.985-2.102-.985zm.258 1.292c1.083 0 1.963.951 1.963 2.122 0 1.17-.88 2.116-1.963 2.116-1.084 0-1.958-.946-1.958-2.116 0-1.17.874-2.122 1.958-2.122zM94.754 63.489c-2.017 0-3.084 1.828-3.09 3.356-.005 1.566 1.216 3.372 3.147 3.372 1.126 0 2.052-.839 2.052-.839l-.002.647h1.326v-8.858h-1.331v3.307s-.87-.985-2.102-.985zm.258 1.292c1.084 0 1.963.951 1.963 2.122 0 1.17-.88 2.116-1.963 2.116-1.083 0-1.958-.946-1.958-2.116 0-1.17.875-2.122 1.958-2.122zM50.817 70.233c-1.374 0-2.643-.853-2.643-.853l.582-.906s1.2.56 2.06.56c.56 0 1.495-.183 1.507-.747.012-.596-1.573-.773-1.573-.773s-2.364-.032-2.364-2c0-1.236 1.18-2.025 2.695-2.025.875 0 2.51.773 2.51.773l-.66 1.04s-1.263-.51-1.93-.534c-.562-.02-1.241.252-1.241.747 0 1.345 3.937-.105 3.937 2.612 0 1.783-1.604 2.106-2.88 2.106zM55.885 61.836v1.845h-1.173v1.335h1.173v3.19s-.104 2.157 2.195 2.157c.636 0 1.88-.474 1.88-.474l-.531-1.386s-.495.426-1.054.411c-1.063-.027-1.033-.714-1.033-.714v-3.184h2.19V63.68h-2.19v-1.845h-1.457zM63.866 63.567c-2.162 0-3.242 1.797-3.234 3.356.01 1.604.984 3.41 3.364 3.41 1.018 0 2.448-.903 2.448-.903l-.615-1.079s-.976.699-1.833.699c-1.718 0-1.83-1.694-1.83-1.694h4.599s.343-3.79-2.899-3.79zm-.196 1.245c.051-.002.106 0 .16 0 1.618 0 1.607 1.543 1.607 1.543h-3.27s-.078-1.452 1.503-1.543zM77.543 68.335l.616 1.244s-.977.641-2.074.641c-2.27 0-3.53-1.724-3.53-3.355 0-2.564 2.005-3.318 3.362-3.318 1.232 0 2.298.717 2.298.717l-.691 1.244s-.42-.66-1.644-.66c-1.223 0-1.869 1.064-1.869 2.073 0 1.132.752 2.093 1.887 2.093.891 0 1.645-.679 1.645-.679z"/></g></g></svg>