<svg width="128" height="80" viewBox="0 0 128 80" xmlns="http://www.w3.org/2000/svg"><title>Slice 1</title><g fill="none" fill-rule="evenodd"><g opacity=".5" transform="translate(10 7)"><path d="M3.663 68.892c-1.96 0-3.556-1.601-3.556-3.57V3.68C.107 1.711 1.702.108 3.663.108h102.665a3.573 3.573 0 0 1 3.565 3.573v61.64c0 1.97-1.599 3.571-3.565 3.571H3.663z" fill="#FFF"/><path d="M106.328.216a3.464 3.464 0 0 1 3.457 3.465v61.64a3.465 3.465 0 0 1-3.457 3.464H3.663a3.46 3.46 0 0 1-3.448-3.463V3.682C.215 1.77 1.762.215 3.663.215h102.665zm0-.216H3.663A3.67 3.67 0 0 0 0 3.681v61.64A3.67 3.67 0 0 0 3.663 69h102.665A3.676 3.676 0 0 0 110 65.32V3.682A3.677 3.677 0 0 0 106.328 0z" fill="#848484"/><ellipse fill="#F2706C" cx="74.998" cy="49.646" rx="11.5" ry="11.542"/><ellipse fill="#8FD7F1" cx="86.5" cy="49.646" rx="11.501" ry="11.543"/><path fill="#4A4A4A" d="M.002 12.79H110v12.835H.002z"/><path d="M9.69 38.104h38.557V42.3H9.689v-4.196zm0 9.441h38.557v4.2H9.689v-4.2zm0 9.446h38.557v4.197H9.689v-4.197z" fill="#C9C9C9"/></g><path d="M6 74L122 6" stroke="#F2706C" stroke-width="8" stroke-linecap="square"/></g></svg>