<svg xmlns="http://www.w3.org/2000/svg" viewBox="0 0 128 80"><path d="M128 75.732c0 2.357-1.91 4.268-4.267 4.268H4.267C1.91 80 0 78.09 0 75.732V4.267C0 1.907 1.91 0 4.267 0h119.467C126.09 0 128 1.908 128 4.267v71.465z" fill="#F9F9FA"/><linearGradient id="a" gradientUnits="userSpaceOnUse" x1="79.756" y1="38.765" x2="63.388" y2="46.052"><stop offset="0" stop-color="#FFCD05"/><stop offset="1" stop-color="#CA992C"/></linearGradient><path d="M78.68 66.42c-.1 0-.196-.002-.295-.01-3.07-.16-5.43-2.794-5.27-5.88 1.07-20.554-15.164-29.75-15.33-29.84-2.693-1.486-3.683-4.89-2.203-7.602 1.477-2.71 4.86-3.704 7.555-2.218.92.51 22.524 12.746 21.095 40.243-.155 2.99-2.614 5.306-5.553 5.306z" fill="url(#a)"/><linearGradient id="b" gradientUnits="userSpaceOnUse" x1="43.799" y1="29.114" x2="62.405" y2="54.549"><stop offset="0" stop-color="#6799CC"/><stop offset="1" stop-color="#4267B1"/></linearGradient><path d="M59.703 59.83h-.037c-2.972 0-5.364-2.193-5.345-5.165.08-11.91-12.252-18.644-12.378-18.71-2.608-1.424-3.572-4.63-2.15-7.24 1.424-2.607 4.69-3.54 7.302-2.117.74.402 18.11 9.846 17.99 28.123-.02 2.96-2.427 5.11-5.38 5.11z" fill="url(#b)"/><linearGradient id="c" gradientUnits="userSpaceOnUse" x1="80.913" y1="13.577" x2="80.913" y2="66.423"><stop offset="0" stop-color="#58B148"/><stop offset="1" stop-color="#3C823E"/></linearGradient><path d="M78.6 66.423c-.79 0-1.59-.168-2.353-.52-2.83-1.3-4.07-4.646-2.767-7.476 8.992-19.56.423-36.438.335-36.606-1.438-2.76-.365-6.166 2.396-7.605 2.763-1.44 6.168-.364 7.605 2.398.462.887 11.183 22.002-.092 46.522-.95 2.068-2.992 3.288-5.124 3.288z" fill="url(#c)"/><linearGradient id="d" gradientUnits="userSpaceOnUse" x1="61.712" y1="20.109" x2="61.712" y2="60.334"><stop offset="0" stop-color="#DD2227"/><stop offset="1" stop-color="#CB2026"/></linearGradient><path d="M59.698 60.334c-1.07 0-2.15-.317-3.09-.98-2.432-1.707-3.018-5.063-1.31-7.494 6.757-9.62.09-23.857.02-23.997-1.308-2.668-.207-5.893 2.46-7.202 2.67-1.31 5.894-.206 7.202 2.46.397.812 9.614 20-.875 34.927-1.046 1.49-2.714 2.287-4.407 2.287z" fill="url(#d)"/></svg>