<svg xmlns="http://www.w3.org/2000/svg" viewBox="0 0 128 80"><path d="M128 75.732c0 2.358-1.91 4.268-4.267 4.268H4.267C1.91 80 0 78.09 0 75.732V4.267C0 1.907 1.91 0 4.267 0h119.467C126.09 0 128 1.908 128 4.267v71.465z" fill="#F9F9FA"/><path d="M43.108 45.054c9.685-4.15 23.276-7.912 41.272-4.146l.19-4.565c-18.99-2.07-32.617 3.975-41.463 8.262v.45z" fill-rule="evenodd" clip-rule="evenodd" fill="#FBAA28"/><g fill-rule="evenodd" clip-rule="evenodd" fill="#075FA0"><path d="M25.62 48.41h9.13v2.75h-5.67l-.04 2.54h5.653v2.634H29.02l.022 2.54h5.594v2.75h-9.01L25.62 48.41M37.042 47.303h3.322l.012 14.32h-3.322l-.012-14.32M51.793 60.535c-1.125.955-2.845 1.432-4.373 1.432-3.493 0-5.078-2.48-5.078-4.943 0-2.904 2.176-5.368 5.174-5.368 3.667 0 4.813 2.6 4.813 5.9h-6.666c0 .745.478 2.005 2.312 2.005 1.164 0 1.813-.342 2.71-.952l1.107 1.927zM49.35 55.61c0-.995-.478-1.892-1.585-1.892-1.05 0-1.85.936-2.06 1.89h3.646zM62.41 60.975c-.917.573-2.425.992-3.53.992-3.057 0-5.25-1.756-5.25-4.926 0-3.246 2.174-5.385 5.46-5.385 1.143 0 2.52.363 3.263.84l-1.068 2.178c-.497-.21-1.032-.383-1.566-.383-1.662 0-2.77.995-2.77 2.58 0 1.375 1.07 2.46 2.483 2.46.63 0 1.26-.284 1.794-.552l1.183 2.197zM63.64 52h1.5l-.012-3.265h3.208L68.26 52h2.73l-.058 2.406h-2.73c0 1.336-.096 2.748-.096 3.57 0 .84.212 1.24.955 1.24.46 0 .842-.228 1.224-.458l.725 2.255c-.974.59-2.158.953-3.284.953-2.692 0-2.826-1.7-2.826-3.913 0-1.185.095-2.368.095-3.647h-1.432L63.64 52zM72.69 52h3.323v1.355h.038c.497-.82 1.145-1.623 2.445-1.623.362 0 .743.04 1.088.114l-.44 3.285c-.323-.096-.687-.19-1.183-.19-1.108 0-1.967.935-1.967 1.127l-.06 5.557h-3.32L72.69 52zM85.602 51.655c3.552 0 5.385 2.254 5.385 5.156 0 2.903-1.833 5.156-5.385 5.156-3.552 0-5.386-2.253-5.386-5.155 0-2.9 1.835-5.155 5.386-5.155zm0 7.79c1.585 0 2.063-1.374 2.063-2.634 0-1.26-.478-2.636-2.063-2.636-1.584 0-2.062 1.377-2.062 2.637s.48 2.636 2.062 2.636zM92.793 52h3.32v1.05c.766-.744 1.93-1.395 3.114-1.395 2.043 0 3.15 1.126 3.15 3.763 0 1.968-.02 4.085-.037 6.206h-3.323c.02-1.853.04-3.724.04-5.71 0-.782-.21-1.395-1.205-1.395-.534 0-1.3.46-1.738.876l-.017 6.228h-3.382L92.793 52z"/></g><g fill-rule="evenodd" clip-rule="evenodd" fill="#075FA0"><path d="M52.952 32.177l4.2-13.84h3.743l-4.198 13.84h-3.745M51.278 18.34l-3.368 5.866c-.858 1.537-1.36 2.314-1.602 3.285h-.05c.058-1.23-.113-2.742-.13-3.596l-.37-5.556H39.45l-.065.374c1.618 0 2.58.812 2.844 2.477l1.23 10.985h3.882l7.846-13.838h-3.91v.002zM80.404 32.177L80.3 30.12l-4.677-.005-.956 2.062H70.6l7.373-13.814h4.99l1.25 13.814h-3.81zm-.43-8.163c-.04-1.024-.075-2.412-.006-3.253h-.055c-.23.69-1.207 2.752-1.637 3.767l-1.394 3.034h3.283l-.19-3.546zM64.827 32.57c-2.642 0-4.398-.84-5.65-1.587l1.783-2.725c1.123.63 2.01 1.354 4.04 1.354.653 0 1.28-.17 1.64-.788.52-.9-.12-1.385-1.582-2.214l-.722-.47c-2.17-1.48-3.108-2.89-2.09-5.346.656-1.572 2.38-2.764 5.22-2.764 1.963 0 3.8.848 4.87 1.677l-2.05 2.406c-1.045-.847-1.912-1.273-2.904-1.273-.79 0-1.39.305-1.597.715-.39.773.126 1.3 1.266 2.01l.86.546c2.632 1.662 3.26 3.402 2.6 5.03-1.134 2.804-3.358 3.43-5.683 3.43z"/></g></svg>