<svg xmlns="http://www.w3.org/2000/svg" viewBox="0 0 128 80"><path d="M4.262 79.875c-2.28 0-4.137-1.857-4.137-4.14V4.267C.125 1.984 1.98.125 4.262.125h119.465c2.287 0 4.148 1.858 4.148 4.143v71.467c0 2.283-1.86 4.14-4.148 4.14H4.262z" fill="#FFF"/><path d="M123.727.25c2.22 0 4.023 1.803 4.023 4.018v71.467c0 2.214-1.805 4.016-4.023 4.016H4.262C2.05 79.75.25 77.95.25 75.736V4.268C.25 2.053 2.05.25 4.262.25h119.465m0-.25H4.262C1.906 0 0 1.91 0 4.268v71.467C0 78.09 1.906 80 4.262 80h119.465c2.36 0 4.273-1.91 4.273-4.266V4.268C128 1.91 126.086 0 123.727 0z" fill="#848484"/><path fill="#1D4264" d="M9.454 45.048h65.282v6.35H9.454zM9.454 63.866h51.85v6.342H9.453z"/><path fill="#E77D24" d="M9.454 56.645h108.548v1.668H9.454z"/><path d="M114.616 66.52c-1.684 1.727-2.126 3.234-4.798.847-.966-.862-1.714-2.13-2.584-3.098-.67-.746-2.376-.34-3.06.162-.333.242-.664.488-.993.736-1.065.876-1.533 2.327-2.054.81-.407-1.182-2.5-.486-3.202-.09-2.157.507-3.11-.01-2.858-1.548-.063-1.568-3.36-.052-3.81.467-.958 1.102-1.746 2.35-2.623 3.515-2.357 3.133-.695-.73-.533-1.994.136-1.066.325-2.074.338-3.152.022-1.758-3.223-.688-3.812.176-.577.845-1.15 1.69-1.735 2.53-.475.696-1.008 1.346-1.598 1.95.8-.88.97-1.862.514-2.945-.18-1.19-2.67-.464-3.202-.09-2.612 1.836-4.818 3.932-6.86 6.383-1.142 1.372 2.844 1.128 3.68.123.98-1.174 1.957-2.2 3.014-3.156 1.154 2.777 3.39 2.028 5.527.255-.08 2.118.39 3.98 2.84 3.68 2.67-.325 4.273-2.067 5.742-4.017 1.34.804 3.404.642 5.228.123 1.604 2.27 4.578.607 6.9-1.057 1.57 1.923 3.278 4.02 5.913 4.11 3.15.105 5.138-1.898 7.205-4.018 1.63-1.672-2.236-1.665-3.177-.7z" fill="#1D4264"/><g fill="#1D4264"><path d="M81.996 45.027h4.548c.052 0 .104.012.157.035.054.023.097.053.132.087.035.034.064.078.088.13.023.053.035.105.035.158v5.5c0 .06-.012.115-.035.167-.023.053-.053.097-.088.132-.035.034-.078.063-.13.087-.054.023-.106.035-.158.035h-4.548c-.06 0-.112-.013-.162-.036s-.093-.053-.13-.087c-.04-.035-.068-.08-.09-.132-.02-.052-.03-.107-.03-.166v-5.502c0-.053.01-.105.03-.157.022-.052.05-.096.09-.13.037-.035.08-.064.13-.088.05-.023.103-.035.162-.035zm.568.683c-.053 0-.098.017-.136.052-.038.035-.057.076-.057.123v4.557c0 .047.02.087.058.122.038.035.083.053.136.053h2.92c.054 0 .1-.018.137-.053.04-.035.058-.075.058-.122v-1.688c0-.052.006-.106.018-.16.012-.057.027-.113.048-.172.02-.06.045-.115.074-.17.03-.056.06-.11.088-.167l.083-.157c.025-.05.05-.097.07-.14.02-.044.036-.083.05-.118.016-.035.023-.064.023-.088v-1.696c0-.047-.02-.088-.057-.123-.038-.035-.083-.052-.136-.052h-3.376zM88.205 45.027h4.548c.052 0 .104.012.157.035.053.023.096.053.13.087.036.034.065.078.09.13.022.053.034.105.034.158v5.5c0 .06-.012.115-.035.167-.024.053-.054.097-.09.132-.034.034-.077.063-.13.087-.053.023-.105.035-.157.035h-4.548c-.06 0-.112-.013-.162-.036s-.093-.053-.13-.087c-.04-.035-.068-.08-.09-.132-.02-.052-.03-.107-.03-.166v-5.502c0-.053.01-.105.03-.157.022-.052.05-.096.09-.13.037-.035.08-.064.13-.088.05-.023.103-.035.162-.035zm.568.683c-.053 0-.098.017-.136.052-.038.035-.057.076-.057.123v4.557c0 .047.02.087.057.122.038.035.083.053.136.053h2.92c.054 0 .1-.018.137-.053.038-.035.057-.075.057-.122v-1.688c0-.052.006-.106.018-.16.012-.057.027-.113.048-.172.02-.06.045-.115.074-.17.03-.056.06-.11.088-.167l.083-.157c.026-.05.05-.097.07-.14l.052-.118c.015-.035.022-.064.022-.088v-1.696c0-.047-.02-.088-.057-.123-.038-.035-.083-.052-.136-.052h-3.377zM94.415 45.027h4.548c.052 0 .104.012.157.035.053.023.096.053.13.087.036.034.065.078.09.13.022.053.034.105.034.158v5.5c0 .06-.012.115-.035.167-.024.053-.054.097-.09.132-.034.034-.077.063-.13.087-.053.023-.105.035-.157.035h-4.548c-.06 0-.112-.013-.162-.036s-.093-.053-.13-.087c-.04-.035-.068-.08-.09-.132-.02-.052-.03-.107-.03-.166v-5.502c0-.053.01-.105.03-.157.022-.052.05-.096.09-.13.037-.035.08-.064.13-.088s.103-.035.162-.035zm.568.683c-.053 0-.098.017-.136.052-.038.035-.057.076-.057.123v4.557c0 .047.02.087.057.122.038.035.083.053.136.053h2.92c.054 0 .1-.018.137-.053.038-.035.057-.075.057-.122v-1.688c0-.052.006-.106.018-.16.012-.057.027-.113.048-.172.02-.06.045-.115.074-.17.03-.056.06-.11.088-.167l.083-.157c.026-.05.05-.097.07-.14l.052-.118c.015-.035.022-.064.022-.088v-1.696c0-.047-.02-.088-.057-.123-.038-.035-.083-.052-.136-.052h-3.377zM100.624 45.027h4.548c.052 0 .104.012.157.035.052.023.095.053.13.087.035.034.064.078.088.13.023.053.035.105.035.158v5.5c0 .06-.012.115-.035.167-.023.053-.053.097-.088.132-.035.034-.078.063-.13.087-.054.023-.106.035-.158.035h-4.548c-.06 0-.112-.013-.162-.036s-.093-.053-.13-.087c-.04-.035-.068-.08-.09-.132-.02-.052-.03-.107-.03-.166v-5.502c0-.053.01-.105.03-.157.022-.052.05-.096.09-.13.037-.035.08-.064.13-.088s.103-.035.162-.035zm.568.683c-.053 0-.098.017-.136.052-.038.035-.057.076-.057.123v4.557c0 .047.018.087.056.122.038.035.083.053.136.053h2.92c.054 0 .1-.018.137-.053.037-.035.056-.075.056-.122v-1.688c0-.052.006-.106.017-.16.012-.057.027-.113.048-.172.022-.06.046-.115.075-.17.03-.056.06-.11.088-.167l.083-.157c.026-.05.05-.097.07-.14l.052-.118c.015-.035.022-.064.022-.088v-1.696c0-.047-.02-.088-.057-.123-.038-.035-.083-.052-.136-.052h-3.375zM106.833 45.027h4.548c.053 0 .105.012.158.035.053.023.096.053.13.087.036.034.065.078.09.13.022.053.034.105.034.158v5.5c0 .06-.012.115-.035.167-.023.053-.053.097-.088.132-.036.034-.08.063-.132.087-.053.023-.105.035-.157.035h-4.547c-.06 0-.112-.013-.162-.036s-.092-.053-.13-.087c-.038-.035-.067-.08-.088-.132-.02-.052-.03-.107-.03-.166v-5.502c0-.053.01-.105.03-.157.02-.052.05-.096.088-.13.038-.035.08-.064.13-.088s.104-.035.163-.035zm.568.683c-.052 0-.097.017-.135.052-.038.035-.057.076-.057.123v4.557c0 .047.018.087.057.122.038.035.083.053.136.053h2.922c.053 0 .098-.018.136-.053.038-.035.057-.075.057-.122v-1.688c0-.052.006-.106.018-.16.012-.057.027-.113.048-.172.022-.06.046-.115.075-.17.03-.056.06-.11.088-.167l.083-.157c.026-.05.05-.097.07-.14l.052-.118c.015-.035.022-.064.022-.088v-1.696c0-.047-.02-.088-.057-.123-.038-.035-.083-.052-.136-.052H107.4zM113.043 45.027h4.548c.053 0 .105.012.158.035.053.023.096.053.13.087.036.034.065.078.09.13.022.053.034.105.034.158v5.5c0 .06-.012.115-.035.167-.023.053-.053.097-.088.132-.036.034-.08.063-.132.087-.053.023-.105.035-.157.035h-4.547c-.06 0-.112-.013-.162-.036s-.092-.053-.13-.087c-.038-.035-.067-.08-.088-.132-.02-.052-.03-.107-.03-.166v-5.502c0-.053.01-.105.03-.157.02-.052.05-.096.088-.13.038-.035.08-.064.13-.088.05-.023.104-.035.163-.035zm.568.683c-.052 0-.097.017-.135.052-.038.035-.057.076-.057.123v4.557c0 .047.02.087.057.122.038.035.083.053.136.053h2.922c.053 0 .098-.018.136-.053.038-.035.057-.075.057-.122v-1.688c0-.052.006-.106.018-.16.012-.057.027-.113.048-.172.02-.06.046-.115.075-.17.03-.056.06-.11.088-.167l.083-.157c.026-.05.05-.097.07-.14l.052-.118c.015-.035.022-.064.022-.088v-1.696c0-.047-.02-.088-.057-.123-.038-.035-.083-.052-.136-.052h-3.376z"/></g><g fill="#1D4264"><path d="M49.227 12.986h.315c.944 0 1.416.63 1.416 1.887v4.482h1.416c.943.185 1.415.656 1.415 1.416v1.574h4.403V14.4c.196-.943.616-1.414 1.26-1.414h3.302c.643 0 1.06.47 1.26 1.415v18.404c0 .996-.578 1.494-1.732 1.494h-2.36c-1.152 0-1.73-.498-1.73-1.494V24.86H53.79v8.023c0 .773-.498 1.246-1.494 1.416H49.7c-1.153 0-1.73-.5-1.73-1.495V14.48c.222-.996.64-1.494 1.257-1.494zM67.238 12.986h13.606c.707 0 1.1.576 1.18 1.73v2.752c0 1.31-.5 1.967-1.495 1.967h-2.91c-.944-.197-1.416-.617-1.416-1.26V15.66H68.89v3.695h1.416c.996 0 1.494.578 1.494 1.73v1.26h3.146c.838.144 1.258.51 1.258 1.1v.394c0 .55-.394.89-1.18 1.02H71.8v6.687h4.404v-2.36c0-.943.63-1.415 1.888-1.415h1.966c1.31 0 1.967.655 1.967 1.966v2.83c0 1.155-.55 1.73-1.652 1.73H67.395c-.943-.144-1.415-.59-1.415-1.336V14.166c0-.63.42-1.023 1.258-1.18zM85.17 12.986h13.685c.603 0 .995.445 1.18 1.336v3.46c-.092 1.103-.59 1.653-1.495 1.653h-2.674c-1.1 0-1.65-.55-1.65-1.652V15.66H86.98v3.695h1.416c.943.185 1.415.656 1.415 1.416v10.776h4.405v-2.28c0-.997.655-1.495 1.966-1.495h1.89c1.31 0 1.966.5 1.966 1.495v3.617c-.132.944-.604 1.416-1.416 1.416H85.405c-.943-.145-1.415-.615-1.415-1.416v-18.56c.183-.89.576-1.336 1.18-1.336zM103.337 12.986h.235c.892.184 1.337.603 1.337 1.258v5.11h1.415c.996 0 1.494.58 1.494 1.73v1.26h3.303l1.1-4.483v-3.538c.146-.89.59-1.336 1.338-1.336h3.068c.943 0 1.416.63 1.416 1.887v2.988c-.708 3.672-1.39 5.507-2.045 5.507 0 .105-.133.157-.395.157l-.078.08v.077c.956 0 1.69 1.443 2.2 4.327l.316 1.18v3.146c0 1.31-.577 1.966-1.73 1.966h-2.596c-.996-.224-1.494-.644-1.494-1.26v-3.617c0-.288-.367-1.81-1.1-4.562h-3.305v7.708c0 1.154-.577 1.73-1.73 1.73h-2.595c-.996-.17-1.494-.643-1.494-1.416V14.244c0-.655.445-1.074 1.337-1.258zM41.835 19.435h2.674c.904 0 1.402-.55 1.494-1.652v-3.46c-.185-.892-.577-1.337-1.18-1.337H31.14c-.604 0-.997.445-1.18 1.336v1.95c1.478 2.072 2.357 4.6 2.357 7.34s-.88 5.268-2.357 7.34v1.93c0 .802.472 1.272 1.415 1.417h13.213c.812 0 1.284-.473 1.416-1.417v-3.617c0-.996-.656-1.494-1.967-1.494H42.15c-1.31 0-1.967.498-1.967 1.494v2.28H35.78V20.772c0-.76-.473-1.23-1.416-1.415h-1.416V15.66h7.235v2.123c0 1.102.55 1.652 1.652 1.652z"/></g><path d="M23.413 27.367h6.084c-1.84 4.323-5.483 6.924-9.727 6.924-5.842 0-10.525-4.722-10.525-10.645 0-5.965 4.643-10.727 10.406-10.727 6.005 0 10.568 4.72 10.568 10.926 0 .68-.04.96-.162 1.642H15.048c.28 2.24 2.042 3.72 4.402 3.72 1.48 0 2.402-.358 3.684-1.56.04-.08.16-.16.28-.28zm.802-5.885C23.813 19.4 22.013 18 19.69 18c-2.32 0-4.003 1.28-4.482 3.482h9.007z" fill="#E77D24"/></svg>