<svg id="Capa_1" xmlns="http://www.w3.org/2000/svg" viewBox="0 0 47 47"><style>.st0{fill:#28a9e2}</style><path class="st0" d="M45.2 46.5H1.8c-.7 0-1.3-.6-1.3-1.3V1.8c0-.7.6-1.3 1.3-1.3h43.4c.7 0 1.3.6 1.3 1.3v43.4c0 .7-.6 1.3-1.3 1.3zM3.1 43.9h40.7V3.1H3.1v40.8z"/><path class="st0" d="M1.8 46.5c-.3 0-.6-.1-.9-.3-.5-.5-.6-1.3-.1-1.9L14 29.7c.2-.3.6-.4.9-.4.3 0 .7.1 1 .4l3.4 3.2 10.4-10.2c.5-.5 1.3-.5 1.8 0l14.6 13.2c.3.2.4.6.4 1v8.5c0 .7-.6 1.3-1.3 1.3H30.6c-.3 0-.7-.1-.9-.4L15 32.4 2.8 46.1c-.3.3-.6.4-1 .4zm29.3-2.6h12.8v-6.6l-13.3-12-9.4 9.3 9.9 9.3zM15.4 23.9c-3.5 0-6.3-2.8-6.3-6.3s2.8-6.3 6.3-6.3 6.3 2.8 6.3 6.3-2.9 6.3-6.3 6.3zm0-10c-2 0-3.7 1.6-3.7 3.7 0 2 1.7 3.7 3.7 3.7s3.7-1.7 3.7-3.7c-.1-2-1.7-3.7-3.7-3.7z"/></svg>