<svg width="18" height="18" viewBox="0 0 16 16" xmlns="http://www.w3.org/2000/svg"><path d="M8 0a8 8 0 110 16A8 8 0 018 0zm2.152 8.147a.102.102 0 00-.135 0l-4.395 4.045c-.03.027-.01.075.033.075h4.113a.2.2 0 00.135-.052l1.929-1.775a.499.499 0 000-.747zm0-4.4a.102.102 0 00-.135 0L5.123 8.251a.17.17 0 00-.056.124v3.35c0 .039.051.059.081.03l6.343-5.866c.224-.206.224-.699 0-.905zm-.893-.28H5.162c-.053 0-.095.04-.095.088v3.77c0 .039.051.059.081.03l4.144-3.813c.03-.028.01-.075-.033-.075z" fill="#FFF" fill-rule="evenodd"/></svg>

