<?xml version="1.0" encoding="UTF-8" standalone="no"?>
<svg xmlns:dc="http://purl.org/dc/elements/1.1/" xmlns:cc="http://creativecommons.org/ns#" xmlns:rdf="http://www.w3.org/1999/02/22-rdf-syntax-ns#" xmlns:svg="http://www.w3.org/2000/svg" xmlns="http://www.w3.org/2000/svg" xmlns:sodipodi="http://sodipodi.sourceforge.net/DTD/sodipodi-0.dtd" xmlns:inkscape="http://www.inkscape.org/namespaces/inkscape" version="1.1" width="1024.0159" height="205.05107" viewBox="0 0 1024.0159 205.05107" overflow="visible" enable-background="new 0 0 266 100" xml:space="preserve" id="svg2" inkscape:version="0.48.5 r10040" sodipodi:docname="Facebook Logo.svg" style="overflow:visible"><metadata id="metadata18"><rdf:RDF><cc:Work rdf:about=""><dc:format>image/svg+xml</dc:format><dc:type rdf:resource="http://purl.org/dc/dcmitype/StillImage" /><dc:title></dc:title></cc:Work></rdf:RDF></metadata><defs id="defs16">
		
		
	</defs><sodipodi:namedview pagecolor="#ffffff" bordercolor="#666666" borderopacity="1" objecttolerance="10" gridtolerance="10" guidetolerance="10" inkscape:pageopacity="0" inkscape:pageshadow="2" inkscape:window-width="1366" inkscape:window-height="706" id="namedview14" showgrid="false" inkscape:zoom="2" inkscape:cx="952.94991" inkscape:cy="-20.974662" inkscape:window-x="-8" inkscape:window-y="-8" inkscape:window-maximized="1" inkscape:current-layer="svg2" fit-margin-top="0" fit-margin-left="0" fit-margin-right="0" fit-margin-bottom="0" />
	
	<g id="g3452"><path d="m 533.68944,99.64858 c -8.56058,0 -14.73149,2.80666 -20.98681,5.66722 l 0,64.70575 c 5.99291,0.57164 9.42745,0.57164 15.11573,0.57164 20.54636,0 23.36243,-9.40868 23.36243,-22.54708 l 0,-30.90621 c 0,-9.69918 -3.21901,-17.49132 -17.49135,-17.49132 z M 397.24253,96.117982 c -14.25356,0 -17.51005,7.827288 -17.51005,17.517098 l 0,5.44466 34.99904,0 0,-5.44466 c 0,-9.68981 -3.25183,-17.517098 -17.48899,-17.517098 z M 132.91866,163.47108 c 0,7.66564 3.61728,11.6484 11.60154,11.6484 8.56527,0 13.63508,-2.79262 19.88568,-5.6602 l 0,-15.35002 -18.72833,0 c -8.86281,0 -12.75889,1.64933 -12.75889,9.36182 z m 533.49966,-63.8225 c -14.27699,0 -19.22498,7.79214 -19.22498,17.49132 l 0,35.40437 c 0,9.7273 4.94799,17.54288 19.22498,17.54288 14.23955,0 19.22501,-7.81558 19.22501,-17.54288 l 0,-35.40437 c 0,-9.69918 -4.98546,-17.49132 -19.22501,-17.49132 z m -603.472008,103.51888 -41.971231,0 0,-101.59545 -20.975081,0 0,-35.00843 20.975081,0 0,-21.019583 C 20.975081,16.982942 32.813238,-5.8349611e-7 66.455815,-5.8349611e-7 l 28.010498,0 0,35.01546458349611 -17.507732,0 c -13.098584,0 -13.960734,4.891758 -13.960734,14.023984 l -0.05156,17.524132 31.716809,0 -3.710995,35.00843 -28.005814,0 0,101.59545 z m 143.447178,0.2624 -34.98031,0 -1.51579,-8.8464 c -15.9732,8.8464 -30.22912,10.28021 -39.63313,10.28021 -25.65363,0 -39.312146,-17.13992 -39.312146,-40.83967 0,-27.96363 15.933376,-37.94396 44.440546,-37.94396 l 29.01322,0 0,-6.04442 c 0,-14.26998 -1.63529,-18.4636 -23.58497,-18.4636 l -35.88931,0 3.5095,-35.008427 39.23016,0 c 48.16325,0 58.72223,15.214127 58.72223,53.753167 l 0,83.1131 z m 118.95793,-99.29013 c -21.76928,-3.72975 -28.01986,-4.549716 -38.49451,-4.549716 -18.81503,0 -24.50099,4.151426 -24.50099,20.126966 l 0,30.22211 c 0,15.97788 5.68596,20.14806 24.50099,20.14806 10.47465,0 16.72523,-0.83403 38.49451,-4.58251 l 0,34.14862 c -19.06803,4.27327 -31.48955,5.39781 -41.98998,5.39781 -45.06371,0 -62.97675,-23.69975 -62.97675,-57.93271 l 0,-24.52442 c 0,-34.263425 17.91303,-58.002991 62.97675,-58.002991 10.50043,0 22.92195,1.129229 41.98998,5.421231 l 0,34.12755 z m 131.35134,42.97863 -76.97028,0 0,2.82073 c 0,15.97788 5.69063,20.14806 24.50095,20.14806 16.9103,0 27.23034,-0.83403 48.95979,-4.58251 l 0,34.14862 c -20.95629,4.27327 -31.87608,5.39781 -52.43885,5.39781 -45.06603,0 -62.98845,-23.69975 -62.98845,-57.93271 l 0,-28.03862 c 0,-29.952673 13.29772,-54.488791 59.47661,-54.488791 46.17889,0 59.46023,24.250304 59.46023,54.488791 l 0,28.03862 z m 136.44222,0.6466 c 0,33.08969 -9.45553,57.22051 -66.74632,57.22051 -20.68693,0 -32.82259,-1.81801 -55.65552,-5.33221 l 0,-189.141127 41.95949,-7.0026306 0,66.1606336 c 9.06663,-3.368951 20.80406,-5.079187 31.48721,-5.079187 41.96423,0 48.95514,18.812661 48.95514,49.044131 l 0,34.12988 z m 134.50472,0.72159 c 0,28.54465 -11.78427,56.22716 -61.09081,56.22716 -49.32995,0 -61.33444,-27.68251 -61.33444,-56.22716 l 0,-27.56068 c 0,-28.558702 12.00449,-56.245903 61.33444,-56.245903 49.30654,0 61.09081,27.687201 61.09081,56.245903 l 0,27.56068 z m 134.411,0 c 0,28.54465 -11.79831,56.22716 -61.09545,56.22716 -49.32995,0 -61.3345,-27.68251 -61.3345,-56.22716 l 0,-27.56068 c 0,-28.558702 12.00455,-56.245903 61.3345,-56.245903 49.29714,0 61.09545,27.687201 61.09545,56.245903 l 0,27.56068 z M 1000,203.16746 l -45.48306,0 -38.4641,-64.21141 0,64.21141 -41.97355,0 0,-192.655327 41.97355,-7.0026306 0,124.0230576 38.4641,-60.96898 45.48306,0 -41.99234,66.53547 L 1000,203.16746 z M 800.82466,99.64858 c -14.25356,0 -19.20155,7.79214 -19.20155,17.49132 l 0,35.40437 c 0,9.7273 4.94799,17.54288 19.20155,17.54288 14.23486,0 19.27185,-7.81558 19.27185,-17.54288 l 0,-35.40437 c 0,-9.69918 -5.03699,-17.49132 -19.27185,-17.49132 z" id="path10" inkscape:connector-curvature="0" style="fill:#ffffff;fill-opacity:1" /><path d="m 1014.0664,183.29956 c 5.5365,0 9.9495,4.51584 9.9495,10.15513 0,5.7274 -4.413,10.19184 -9.9899,10.19184 -5.5475,0 -10.0487,-4.46444 -10.0487,-10.19184 0,-5.63929 4.5012,-10.15513 10.0487,-10.15513 l 0.04,0 z m -0.04,1.57871 c -4.4608,0 -8.1138,3.8403 -8.1138,8.57642 0,4.82423 3.653,8.61313 8.1541,8.61313 4.5049,0.0441 8.1029,-3.7889 8.1029,-8.56908 0,-4.78018 -3.598,-8.62047 -8.1029,-8.62047 l -0.04,0 z m -1.8945,14.48739 -1.8063,0 0,-11.32998 c 0.9472,-0.13218 1.8504,-0.26433 3.2015,-0.26433 1.7145,0 2.8343,0.35979 3.5208,0.85177 0.6646,0.49931 1.0244,1.26296 1.0244,2.34236 0,1.49794 -0.984,2.39376 -2.1992,2.7609 l 0,0.0881 c 0.9876,0.18357 1.6631,1.07939 1.8908,2.74621 0.2643,1.76228 0.536,2.43782 0.7159,2.80496 l -1.8908,0 c -0.268,-0.36715 -0.5397,-1.40248 -0.7673,-2.89307 -0.2643,-1.43919 -0.9913,-1.98256 -2.4378,-1.98256 l -1.252,0 0,4.87563 z m 0,-6.27077 1.307,0 c 1.4796,0 2.7389,-0.54337 2.7389,-1.94585 0,-0.99128 -0.7159,-1.98256 -2.7389,-1.98256 -0.5911,0 -0.9986,0.0441 -1.307,0.0881 l 0,3.8403 z" id="path12" inkscape:connector-curvature="0" style="fill:#ffffff;fill-opacity:1" /></g>
</svg>