<?xml version="1.0" encoding="utf-8"?>
<!-- Generator: Adobe Illustrator 19.2.1, SVG Export Plug-In . SVG Version: 6.00 Build 0)  -->
<svg version="1.1" id="Layer_2" xmlns="http://www.w3.org/2000/svg" xmlns:xlink="http://www.w3.org/1999/xlink" x="0px" y="0px"
	 viewBox="0 0 543.9 465.7" style="enable-background:new 0 0 543.9 465.7;" xml:space="preserve">
<style type="text/css">
	.st0{fill:#FFFFFF;}
</style>
<g>
	<polygon class="st0" points="264.2,331.3 301.8,192 278.4,192 240.9,331.3 	"/>
	<polygon class="st0" points="317,324.3 414.9,275.9 414.9,249.4 317,201.4 317,232.5 385.4,262.5 317,293.1 	"/>
	<polygon class="st0" points="227,201.4 129.1,249.8 129.1,276.3 227,324.3 227,293.3 158.6,263.2 227,232.7 	"/>
	<path class="st0" d="M154.5,412c-1.1,7-2.9,13.7-5.5,20h329.7c17.8,0,32.5-14.6,32.5-32.5V52.8c0-11.5-9.4-21-21-21H53.7
		c-11.5,0-21,9.4-21,21v267.9c6.7-3.1,13.9-5.4,21.4-6.8V100.8h435.7v289c0,12.2-10,22.1-22.1,22.1H154.5z M101,67.9
		c0,10.1-8.2,18.4-18.4,18.4c-10.1,0-18.4-8.2-18.4-18.4c0-10.1,8.2-18.4,18.4-18.4C92.8,49.6,101,57.8,101,67.9z"/>
	<path class="st0" d="M0,401.3c0,35.6,28.8,64.4,64.4,64.4c35.6,0,64.4-28.8,64.4-64.4s-28.8-64.4-64.4-64.4
		C28.8,336.9,0,365.7,0,401.3z"/>
</g>
<path d="M68.3,366.6c-16.5,0-30.9,14.3-30.9,30.9c0,5.5,1.5,10.6,4.1,15.1l-11.9,12.8c-1.8,1.8-1.8,4.7,0,6.5l4.6,4.6
	c1.8,1.8,4.1,1.1,5.9-0.7l11.8-12.7c4.5,2.8,9.9,4.3,15.5,4.3c16.5,0,30.9-14.3,30.9-30.9C98.2,380,84.8,366.6,68.3,366.6z
	 M68.3,375.8c11.5,0,20.7,9.3,20.7,20.7c0,11.5-10.2,21.7-21.7,21.7c-11.5,0-20.7-9.3-20.7-20.7C46.6,386,56.8,375.8,68.3,375.8z"/>
</svg>
