<svg fill="none" xmlns="http://www.w3.org/2000/svg" viewBox="0 0 83 90"><path opacity=".5" d="M60.012 69.998H50.01V80h10.002V69.998z" fill="#0074BF"/><path opacity=".7" d="M50.01 69.998H40.008V80H50.01V69.998zm-10.002 0H30.006V80h10.002V69.998z" fill="#0074BF"/><path opacity=".5" d="M30.006 69.998H20.004V80h10.002V69.998z" fill="#0074BF"/><path opacity=".7" d="M70.014 60.013h-10v10.002h10.002V60.012z" fill="#0082BF"/><path opacity=".8" d="M60.012 60.013H50.01v10.002h10.002V60.012z" fill="#0082BF"/><path d="M50.01 60.013H40.008v10.002H50.01V60.012zm-10.002 0H30.006v10.002h10.002V60.012z" fill="#0082BF"/><path opacity=".8" d="M30.006 60.013H20.004v10.002h10.002V60.012z" fill="#0082BF"/><path opacity=".7" d="M20.004 60.013H10.002v10.002h10.002V60.012z" fill="#0082BF"/><path opacity=".5" d="M80 50.01H69.998v10.002H80V50.01z" fill="#008FBF"/><path opacity=".8" d="M70.014 50.01h-10v10.002h10.002V50.01z" fill="#008FBF"/><path d="M60.012 50.01H50.01v10.002h10.002V50.01zm-10.002 0H40.008v10.002H50.01V50.01zm-10.002 0H30.006v10.002h10.002V50.01zm-10.002 0H20.004v10.002h10.002V50.01z" fill="#008FBF"/><path opacity=".8" d="M20.004 50.01H10.002v10.002h10.002V50.01z" fill="#008FBF"/><path opacity=".5" d="M10.002 50.01H0v10.002h10.002V50.01z" fill="#008FBF"/><path opacity=".7" d="M80 40.008H69.998V50.01H80V40.008z" fill="#009DBF"/><path d="M70.014 40.008h-10V50.01h10.002V40.008zm-10.002 0H50.01V50.01h10.002V40.008zm-10.002 0H40.008V50.01H50.01V40.008zm-10.002 0H30.006V50.01h10.002V40.008zm-10.002 0H20.004V50.01h10.002V40.008zm-10.002 0H10.002V50.01h10.002V40.008z" fill="#009DBF"/><path opacity=".7" d="M10.002 40.008H0V50.01h10.002V40.008z" fill="#009DBF"/><path opacity=".7" d="M80 30.006H69.998v10.002H80V30.006z" fill="#00ABBF"/><path d="M70.014 30.006h-10v10.002h10.002V30.006zm-10.002 0H50.01v10.002h10.002V30.006zm-10.002 0H40.008v10.002H50.01V30.006zm-10.002 0H30.006v10.002h10.002V30.006zm-10.002 0H20.004v10.002h10.002V30.006zm-10.002 0H10.002v10.002h10.002V30.006z" fill="#00ABBF"/><path opacity=".7" d="M10.002 30.006H0v10.002h10.002V30.006z" fill="#00ABBF"/><path opacity=".5" d="M80 20.004H69.998v10.002H80V20.004z" fill="#00B9BF"/><path opacity=".8" d="M70.014 20.004h-10v10.002h10.002V20.004z" fill="#00B9BF"/><path d="M60.012 20.004H50.01v10.002h10.002V20.004zm-10.002 0H40.008v10.002H50.01V20.004zm-10.002 0H30.006v10.002h10.002V20.004zm-10.002 0H20.004v10.002h10.002V20.004z" fill="#00B9BF"/><path opacity=".8" d="M20.004 20.004H10.002v10.002h10.002V20.004z" fill="#00B9BF"/><path opacity=".5" d="M10.002 20.004H0v10.002h10.002V20.004z" fill="#00B9BF"/><path opacity=".7" d="M70.014 10.002h-10v10.002h10.002V10.002z" fill="#00C6BF"/><path opacity=".8" d="M60.012 10.002H50.01v10.002h10.002V10.002z" fill="#00C6BF"/><path d="M50.01 10.002H40.008v10.002H50.01V10.002zm-10.002 0H30.006v10.002h10.002V10.002z" fill="#00C6BF"/><path opacity=".8" d="M30.006 10.002H20.004v10.002h10.002V10.002z" fill="#00C6BF"/><path opacity=".7" d="M20.004 10.002H10.002v10.002h10.002V10.002z" fill="#00C6BF"/><path opacity=".5" d="M60.012 0H50.01v10.002h10.002V0z" fill="#00D4BF"/><path opacity=".7" d="M50.01 0H40.008v10.002H50.01V0zM40.008 0H30.006v10.002h10.002V0z" fill="#00D4BF"/><path opacity=".5" d="M30.006 0H20.004v10.002h10.002V0z" fill="#00D4BF"/><path d="M26.34 36.84l2.787-6.237c1.012-1.592.88-3.55-.232-4.66a3.6 3.6 0 00-.481-.399 3.053 3.053 0 00-2.571-.298 4.246 4.246 0 00-2.322 1.791s-3.816 8.907-5.242 12.905c-1.426 3.998-.863 11.346 4.611 16.836 5.806 5.806 14.215 7.132 19.573 3.102.232-.116.431-.25.63-.415l16.521-13.8c.797-.664 1.99-2.024.93-3.583-1.046-1.526-3.003-.481-3.816.033l-9.504 6.917a.421.421 0 01-.597-.05s0-.017-.017-.017c-.249-.298-.282-1.078.1-1.393l14.58-12.374c1.26-1.128 1.426-2.787.414-3.915-.995-1.11-2.57-1.078-3.848.067l-13.12 10.267a.578.578 0 01-.813-.083c0-.016-.017-.016-.017-.033-.265-.298-.365-.78-.066-1.078l14.862-14.414c1.178-1.095 1.244-2.936.15-4.097a2.824 2.824 0 00-2.024-.863 2.905 2.905 0 00-2.09.83L39.544 36.144c-.365.364-1.078 0-1.161-.432a.474.474 0 01.132-.431l11.628-13.237a2.86 2.86 0 00.15-4.047 2.86 2.86 0 00-4.048-.15c-.05.05-.1.084-.133.133L28.447 37.47c-.63.63-1.56.664-2.007.299a.657.657 0 01-.1-.929z" fill="#fff"/></svg>