<svg fill="none" xmlns="http://www.w3.org/2000/svg" viewBox="0 0 84 91"><g clip-path="url(#clip0)"><path d="M81.143 39.952V5.735l-8.984 8.984C64.799 5.735 53.617 0 41.096 0 28 0 16.436 6.213 9.172 15.77l14.72 14.911c1.433-2.676 3.536-4.97 5.925-6.69 2.58-2.008 6.213-3.633 11.279-3.633.573 0 1.051.096 1.433.192a19.196 19.196 0 0114.815 8.984L46.926 39.952c13.19-.095 28.1-.095 34.217 0z" fill="#1C3AA9"/><path d="M40.809 0H6.59l8.985 8.984C6.59 16.344.856 27.527.856 40.048c0 12.999 6.213 24.66 15.867 31.923l14.91-14.719c-2.676-1.434-4.97-3.536-6.69-5.926-2.008-2.58-3.632-6.212-3.632-11.278 0-.574.095-1.052.19-1.434A19.196 19.196 0 0130.487 23.8l10.418 10.418c-.095-13.19-.19-28.1-.095-34.217z" fill="#4285F4"/><path d="M.857 40.048v34.217l8.984-8.984C17.201 74.265 28.384 80 40.904 80c13 0 24.66-6.213 31.924-15.866l-14.72-14.815c-1.433 2.676-3.536 4.97-5.925 6.69-2.58 2.008-6.213 3.633-11.279 3.633a5.784 5.784 0 01-1.433-.192 19.196 19.196 0 01-14.815-8.984l10.418-10.418c-13.19.095-28.1.095-34.217 0z" fill="#ABABAB"/></g><defs><clipPath id="clip0"><path fill="#fff" transform="translate(.857)" d="M0 0h80.287v80H0z"/></clipPath></defs></svg>