<svg xmlns="http://www.w3.org/2000/svg" viewBox="0 0 351.2 121.5">
	<defs>
		<!-- SVG Gradients -->

		<linearGradient x1="-1.2" y1="36.1" x2="72.8" y2="84.1" id="bg-gradient-flame" gradientUnits="userSpaceOnUse"><stop offset="0" stop-color="#8700B7"/><stop offset="1" stop-color="#0064B4"/></linearGradient>
	</defs>
	<style>
	.svg-bg-gradient-flame {
		fill-rule:evenodd;
		clip-rule:evenodd;
		fill:url(#bg-gradient-flame);
	}
	.svg-bg-blue {
		fill: #0064B4;
	}
	</style>
	<path class="svg-bg-gradient-flame" d="M28.6 63.2c-4 10.8-1.1 35.9 13.6 42 10.6-2.8 15.2-15.4 10.8-29 -5-15.8-14.9-33-15.1-48.7C37.7 16.9 43.2 6.5 52.4 0c0.2 0.3 0.4 0.6 0.4 0.6C33.9 16.3 41.3 33.8 50.9 52c2.4 4.5 4.9 9.1 7.2 13.7 2.3 4.6 4.3 9.2 5.7 13.7 2.7 9.2 2.9 19.5-2.7 28.4 -4.3 6.8-12.1 11.3-19.6 13.7 -20.2-10-22.6-38.7-18.6-49.6 -7.4 8.8-8.9 31.9 0.9 49.6 -35.3-10.1-29-67.8 3.3-91.8 0.2 0.3 0.3 0.6 0.3 0.6C9.9 43.7-0.6 73.1 9.1 99.2 7.4 84.2 16.5 69.7 28.6 63.2z"/><path class="svg-bg-blue" d="M121.7 75.1h2.8l-12.8 29.5h-2.4L102.7 89l-6.6 15.6h-2.4L81 75.1h2.8L95 101.5l6.2-14.5 -5-11.8h2.4l4.1 9.8 4-9.8h2.5l-5 11.8 6.2 14.5L121.7 75.1z"/><path class="svg-bg-blue" d="M141.5 105.1c-2.1 0-4-0.4-5.8-1.2 -1.8-0.8-3.3-1.9-4.6-3.3 -1.3-1.4-2.3-3.1-3.1-4.9 -0.7-1.9-1.1-3.8-1.1-6 0-2.1 0.4-4 1.1-5.9 0.7-1.8 1.7-3.4 3-4.8 1.3-1.4 2.8-2.5 4.6-3.3 1.8-0.8 3.7-1.2 5.7-1.2 2.1 0 4 0.4 5.8 1.2 1.8 0.8 3.3 1.9 4.6 3.3 1.3 1.4 2.3 3 3 4.8 0.7 1.8 1.1 3.8 1.1 5.8 0 0.2 0 0.4 0 0.7 0 0.3 0 0.5-0.1 0.5h-25.9c0.1 1.7 0.5 3.3 1.2 4.7 0.7 1.5 1.5 2.7 2.6 3.8 1 1.1 2.2 1.9 3.6 2.5 1.4 0.6 2.8 0.9 4.4 0.9 1 0 2-0.1 3-0.4 1-0.3 1.9-0.7 2.8-1.2 0.9-0.5 1.6-1.1 2.3-1.8 0.7-0.7 1.2-1.5 1.6-2.3l2.5 0.7c-0.4 1.1-1 2-1.8 2.9 -0.8 0.9-1.8 1.7-2.8 2.3 -1.1 0.6-2.3 1.1-3.5 1.5C144.1 105 142.8 105.1 141.5 105.1zM153 88.7c-0.1-1.7-0.5-3.3-1.2-4.8 -0.7-1.4-1.5-2.7-2.6-3.7 -1-1-2.2-1.9-3.6-2.4 -1.4-0.6-2.8-0.9-4.4-0.9 -1.6 0-3 0.3-4.4 0.9 -1.4 0.6-2.6 1.4-3.6 2.4 -1 1-1.9 2.3-2.5 3.7 -0.6 1.5-1 3-1.1 4.7H153z"/><path class="svg-bg-blue" d="M175.8 105.1c-2.3 0-4.5-0.6-6.5-1.8 -2-1.2-3.6-2.8-4.7-4.7v5.9H162V63.2h2.8v18.3c1.4-2 3.1-3.7 5-5 1.9-1.3 4.1-1.9 6.6-1.9 2.1 0 4 0.4 5.6 1.3 1.7 0.9 3.1 2.1 4.3 3.5 1.2 1.5 2 3.1 2.7 4.9 0.6 1.8 0.9 3.7 0.9 5.6 0 2-0.4 4-1.1 5.8 -0.7 1.8-1.7 3.4-3 4.8 -1.3 1.4-2.8 2.5-4.5 3.3C179.6 104.7 177.8 105.1 175.8 105.1zM175.2 102.6c1.7 0 3.3-0.4 4.8-1.1 1.4-0.7 2.7-1.7 3.7-2.9 1-1.2 1.9-2.5 2.4-4.1 0.6-1.5 0.9-3.1 0.9-4.7 0-1.7-0.3-3.3-0.8-4.8 -0.5-1.5-1.3-2.9-2.3-4.1 -1-1.2-2.2-2.1-3.6-2.9 -1.4-0.7-2.9-1.1-4.6-1.1 -1.2 0-2.4 0.2-3.5 0.7 -1.1 0.4-2.1 1-3 1.7 -0.9 0.7-1.8 1.6-2.5 2.5 -0.7 0.9-1.4 1.9-1.8 2.9v9.8c0.1 1.1 0.5 2.1 1.2 3.1 0.7 1 1.6 1.8 2.6 2.5 1 0.7 2.1 1.3 3.3 1.7C173.1 102.4 174.2 102.6 175.2 102.6z"/><path class="svg-bg-blue" d="M208.8 105.1c-2 0-3.9-0.4-5.7-1.3 -1.7-0.9-3.2-2-4.5-3.4 -1.3-1.4-2.2-3-2.9-4.9 -0.7-1.8-1-3.7-1-5.7 0-2 0.3-4 1-5.8 0.7-1.9 1.6-3.5 2.8-4.9 1.2-1.4 2.6-2.5 4.3-3.3 1.6-0.8 3.4-1.2 5.4-1.2 1.3 0 2.5 0.2 3.6 0.6s2.2 0.9 3.2 1.5c1 0.6 1.9 1.4 2.7 2.2 0.8 0.8 1.5 1.7 2 2.7V63.2h2.8v37.4c0 0.9 0.4 1.4 1.2 1.4v2.6c-0.2 0-0.4 0.1-0.6 0.1 -0.2 0-0.3 0-0.5 0 -0.8 0-1.4-0.3-1.9-0.9 -0.5-0.6-0.8-1.2-0.8-1.8v-3.3c-1.2 2-2.8 3.5-4.8 4.7C213.1 104.6 211 105.1 208.8 105.1zM209.3 102.6c1 0 2.1-0.2 3.3-0.6 1.2-0.4 2.3-1 3.3-1.7 1-0.7 1.9-1.6 2.6-2.5 0.7-0.9 1.1-2 1.2-3.1V85c-0.4-1.1-1-2.1-1.8-3 -0.8-1-1.7-1.8-2.6-2.5 -1-0.7-2-1.3-3.2-1.7 -1.1-0.4-2.2-0.6-3.3-0.6 -1.7 0-3.3 0.4-4.7 1.1 -1.4 0.7-2.6 1.7-3.6 2.9 -1 1.2-1.7 2.6-2.3 4.1 -0.5 1.5-0.8 3.1-0.8 4.7 0 1.7 0.3 3.3 0.9 4.8 0.6 1.5 1.4 2.9 2.5 4 1.1 1.2 2.3 2.1 3.7 2.8C206.1 102.2 207.7 102.6 209.3 102.6z"/><path class="svg-bg-blue" d="M238.8 105.1c-1.4 0-2.6-0.2-3.8-0.7 -1.2-0.5-2.2-1.1-3.1-1.9 -0.9-0.8-1.6-1.8-2.1-2.9 -0.5-1.1-0.7-2.3-0.7-3.6 0-1.3 0.3-2.5 0.9-3.5 0.6-1.1 1.4-2 2.5-2.8 1.1-0.8 2.4-1.4 3.9-1.8 1.5-0.4 3.2-0.7 5-0.7 1.6 0 3.2 0.1 4.8 0.4 1.6 0.3 3.1 0.7 4.3 1.2V86c0-2.8-0.8-5-2.4-6.7 -1.6-1.6-3.7-2.5-6.5-2.5 -1.4 0-3 0.3-4.6 0.9 -1.6 0.6-3.2 1.5-4.9 2.6l-1.1-1.9c3.8-2.6 7.4-3.9 10.8-3.9 3.6 0 6.4 1 8.4 3.1 2 2.1 3.1 4.9 3.1 8.5v14.4c0 0.9 0.4 1.4 1.2 1.4v2.6c-0.2 0-0.4 0.1-0.6 0.1 -0.2 0-0.4 0-0.5 0 -0.8 0-1.4-0.3-1.8-0.8 -0.5-0.5-0.7-1.1-0.8-1.8v-2.4c-1.4 1.8-3.1 3.1-5.2 4.1C243.6 104.7 241.3 105.1 238.8 105.1zM239.4 102.9c2.2 0 4.2-0.4 6-1.2 1.8-0.8 3.2-1.9 4.2-3.3 0.6-0.8 0.9-1.6 0.9-2.3v-5.2c-1.4-0.5-2.8-0.9-4.3-1.2 -1.5-0.3-3-0.4-4.6-0.4 -1.5 0-2.8 0.2-4 0.5 -1.2 0.3-2.2 0.8-3.1 1.3 -0.9 0.6-1.5 1.3-2 2.1 -0.5 0.8-0.7 1.7-0.7 2.7 0 1 0.2 1.9 0.6 2.8 0.4 0.9 0.9 1.6 1.6 2.2 0.7 0.6 1.5 1.1 2.4 1.5C237.4 102.7 238.3 102.9 239.4 102.9z"/><path class="svg-bg-blue" d="M274.2 105.1c-2 0-3.9-0.4-5.7-1.3 -1.7-0.9-3.2-2-4.5-3.4 -1.3-1.4-2.2-3-2.9-4.9 -0.7-1.8-1-3.7-1-5.7 0-2 0.3-4 1-5.8 0.7-1.9 1.6-3.5 2.8-4.9 1.2-1.4 2.6-2.5 4.3-3.3 1.6-0.8 3.4-1.2 5.4-1.2 1.3 0 2.5 0.2 3.6 0.6 1.1 0.4 2.2 0.9 3.2 1.5 1 0.6 1.9 1.4 2.7 2.2 0.8 0.8 1.5 1.7 2 2.7V63.2h2.8v37.4c0 0.9 0.4 1.4 1.2 1.4v2.6c-0.2 0-0.4 0.1-0.6 0.1 -0.2 0-0.3 0-0.5 0 -0.8 0-1.4-0.3-1.9-0.9 -0.5-0.6-0.8-1.2-0.8-1.8v-3.3c-1.2 2-2.8 3.5-4.9 4.7C278.5 104.6 276.4 105.1 274.2 105.1zM274.7 102.6c1 0 2.1-0.2 3.3-0.6 1.2-0.4 2.3-1 3.3-1.7 1-0.7 1.9-1.6 2.6-2.5 0.7-0.9 1.1-2 1.2-3.1V85c-0.4-1.1-1-2.1-1.8-3 -0.8-1-1.7-1.8-2.6-2.5 -1-0.7-2-1.3-3.2-1.7 -1.1-0.4-2.2-0.6-3.3-0.6 -1.7 0-3.3 0.4-4.7 1.1 -1.4 0.7-2.6 1.7-3.6 2.9 -1 1.2-1.7 2.6-2.3 4.1 -0.5 1.5-0.8 3.1-0.8 4.7 0 1.7 0.3 3.3 0.9 4.8 0.6 1.5 1.4 2.9 2.5 4 1.1 1.2 2.3 2.1 3.7 2.8C271.5 102.2 273 102.6 274.7 102.6z"/><path class="svg-bg-blue" d="M309.3 105.1c-2.1 0-4-0.4-5.8-1.2 -1.8-0.8-3.3-1.9-4.6-3.3 -1.3-1.4-2.3-3-3-4.9 -0.7-1.9-1.1-3.8-1.1-5.8 0-2.1 0.4-4 1.1-5.9 0.7-1.9 1.7-3.5 3-4.9 1.3-1.4 2.8-2.5 4.6-3.3 1.8-0.8 3.7-1.2 5.7-1.2 2 0 3.9 0.4 5.7 1.2 1.7 0.8 3.3 1.9 4.6 3.3 1.3 1.4 2.3 3 3.1 4.9 0.7 1.9 1.1 3.8 1.1 5.9 0 2-0.4 4-1.1 5.8s-1.7 3.5-3 4.9c-1.3 1.4-2.8 2.5-4.6 3.3C313.2 104.7 311.3 105.1 309.3 105.1zM297.7 90c0 1.7 0.3 3.4 0.9 4.9 0.6 1.5 1.4 2.9 2.5 4 1 1.1 2.3 2 3.7 2.7 1.4 0.7 2.9 1 4.5 1 1.6 0 3.1-0.3 4.5-1 1.4-0.7 2.6-1.6 3.7-2.8 1.1-1.2 1.9-2.5 2.5-4.1 0.6-1.5 0.9-3.2 0.9-5 0-1.7-0.3-3.4-0.9-4.9 -0.6-1.5-1.4-2.9-2.5-4 -1.1-1.2-2.3-2.1-3.7-2.8 -1.4-0.7-2.9-1-4.5-1 -1.6 0-3.1 0.3-4.5 1 -1.4 0.7-2.6 1.6-3.7 2.8 -1 1.2-1.9 2.5-2.5 4.1C298 86.6 297.7 88.3 297.7 90z"/><path class="svg-bg-blue" d="M339.8 105.1c-2.3 0-4.4-0.4-6.5-1.1 -2.1-0.8-3.9-1.9-5.4-3.4l1.4-1.9c1.6 1.4 3.2 2.5 4.9 3.2 1.7 0.7 3.6 1 5.6 1 2.6 0 4.6-0.5 6.2-1.6 1.6-1.1 2.4-2.6 2.4-4.5 0-0.9-0.2-1.7-0.6-2.3 -0.4-0.6-1-1.2-1.8-1.6 -0.8-0.4-1.8-0.8-2.9-1.2 -1.2-0.3-2.5-0.7-4.1-1.1 -1.7-0.4-3.1-0.8-4.3-1.1 -1.2-0.4-2.2-0.8-3-1.4 -0.8-0.5-1.4-1.2-1.8-1.9 -0.4-0.8-0.6-1.7-0.6-2.9 0-1.5 0.3-2.8 0.9-3.9 0.6-1.1 1.4-2 2.4-2.7 1-0.7 2.2-1.3 3.5-1.6 1.3-0.4 2.7-0.5 4.2-0.5 2.3 0 4.3 0.4 6.1 1.2 1.8 0.8 3.2 1.8 4.1 3l-1.6 1.5c-1-1.1-2.3-2-3.8-2.6 -1.6-0.6-3.2-0.9-5-0.9 -1.1 0-2.1 0.1-3.1 0.3 -1 0.2-1.8 0.6-2.5 1.1 -0.7 0.5-1.3 1.1-1.7 1.9 -0.4 0.8-0.6 1.7-0.6 2.8 0 0.9 0.1 1.6 0.4 2.1 0.3 0.5 0.7 1 1.4 1.4 0.6 0.4 1.4 0.7 2.4 1 1 0.3 2.2 0.6 3.5 0.9 1.9 0.5 3.5 0.9 4.9 1.3 1.4 0.4 2.6 0.9 3.6 1.5 1 0.6 1.7 1.3 2.2 2.2 0.5 0.8 0.8 1.9 0.8 3.2 0 2.6-1 4.8-3.1 6.3C346 104.4 343.3 105.1 339.8 105.1z"/></svg>