<?xml version="1.0" encoding="UTF-8" standalone="no"?>
<svg width="32px" height="32px" viewBox="0 0 32 32" version="1.1" xmlns="http://www.w3.org/2000/svg" xmlns:xlink="http://www.w3.org/1999/xlink">
    <!-- Generator: Sketch 46 (44423) - http://www.bohemiancoding.com/sketch -->
    <title>Woo Commerce</title>
    <desc>Created with Sketch.</desc>
    <defs></defs>
    <g id="Page-1" stroke="none" stroke-width="1" fill="none" fill-rule="evenodd">
        <g id="Woo-Commerce">
            <rect id="Rectangle" fill="#9B5C8F" x="0" y="0" width="32" height="32" rx="5"></rect>
            <g id="Group-2" transform="translate(4.000000, 11.000000)" fill-rule="nonzero" fill="#FFFFFF">
                <path d="M0.247747748,0.903413089 C0.405405405,0.686136524 0.641891892,0.571780436 0.957207207,0.548909219 C1.53153153,0.503166784 1.85810811,0.777621393 1.93693694,1.37227305 C2.28603604,3.76231527 2.66891892,5.78641802 3.07432432,7.44458128 L5.54054054,2.67593244 C5.76576577,2.24137931 6.0472973,2.01266714 6.38513514,1.98979592 C6.88063063,1.95548909 7.18468468,2.27568614 7.30855856,2.95038705 C7.59009009,4.47132301 7.95045045,5.7635468 8.37837838,6.86136524 C8.67117117,3.95672062 9.16666667,1.86400422 9.86486486,0.571780436 C10.0337838,0.251583392 10.2815315,0.0914848698 10.6081081,0.0686136524 C10.8671171,0.0457424349 11.1036036,0.125791696 11.3175676,0.297325827 C11.5315315,0.468859958 11.6441441,0.686136524 11.6666667,0.949155524 C11.6779279,1.15499648 11.6441441,1.32653061 11.5540541,1.49806474 C11.1148649,2.32142857 10.7545045,3.70513723 10.4617117,5.62631949 C10.1801802,7.49032372 10.0788288,8.94264602 10.1463964,9.98328642 C10.1689189,10.2691766 10.1238739,10.52076 10.0112613,10.7380366 C9.87612613,10.98962 9.67342342,11.1268473 9.41441441,11.1497185 C9.12162162,11.1725897 8.81756757,11.0353624 8.52477477,10.726601 C7.47747748,9.64021816 6.64414414,8.01636172 6.03603604,5.85503167 C5.30405405,7.31878958 4.76351351,8.41660802 4.41441441,9.14848698 C3.75,10.4407108 3.18693694,11.1039761 2.71396396,11.1382829 C2.40990991,11.1611541 2.1509009,10.8981351 1.92567568,10.3492259 C1.35135135,8.85116115 0.731981982,5.95795215 0.0675675676,1.66959887 C0.0337837838,1.37227305 0.0900900901,1.10925405 0.247747748,0.903413089 Z" id="Shape"></path>
                <path d="M24.4594595,2.69880366 C24.0540541,1.97836031 23.4572072,1.54380718 22.6576577,1.37227305 C22.4436937,1.32653061 22.240991,1.30365939 22.0495495,1.30365939 C20.9684685,1.30365939 20.0900901,1.87543983 19.4031532,3.0190007 C18.8175676,3.99102745 18.5247748,5.06597467 18.5247748,6.24384236 C18.5247748,7.12438424 18.704955,7.87913441 19.0653153,8.50809289 C19.4707207,9.22853624 20.0675676,9.66308937 20.8671171,9.8346235 C21.0810811,9.88036594 21.2837838,9.90323716 21.4752252,9.90323716 C22.5675676,9.90323716 23.4459459,9.33145672 24.1216216,8.18789585 C24.7072072,7.2044335 25,6.12948628 25,4.95161858 C25,4.0596411 24.8198198,3.31632653 24.4594595,2.69880366 L24.4594595,2.69880366 Z M23.0405405,5.86646728 C22.8828829,6.62121745 22.6013514,7.18156228 22.1846847,7.55893737 C21.8581081,7.85626319 21.5540541,7.98205489 21.2725225,7.92487685 C21.0022523,7.8676988 20.777027,7.62755102 20.6081081,7.18156228 C20.472973,6.82705841 20.4054054,6.47255454 20.4054054,6.14092189 C20.4054054,5.85503167 20.4279279,5.56914145 20.4842342,5.30612245 C20.5855856,4.83726249 20.777027,4.37983814 21.0810811,3.94528501 C21.4527027,3.38494018 21.8468468,3.15622801 22.2522523,3.23627727 C22.5225225,3.29345531 22.7477477,3.5336031 22.9166667,3.97959184 C23.0518018,4.33409571 23.1193694,4.68859958 23.1193694,5.02023223 C23.1193694,5.31755806 23.0855856,5.60344828 23.0405405,5.86646728 L23.0405405,5.86646728 Z" id="Shape"></path>
                <path d="M17.3986486,2.69880366 C16.9932432,1.97836031 16.3851351,1.54380718 15.5968468,1.37227305 C15.3828829,1.32653061 15.1801802,1.30365939 14.9887387,1.30365939 C13.9076577,1.30365939 13.0292793,1.87543983 12.3423423,3.0190007 C11.7567568,3.99102745 11.463964,5.06597467 11.463964,6.24384236 C11.463964,7.12438424 11.6441441,7.87913441 12.0045045,8.50809289 C12.4099099,9.22853624 13.0067568,9.66308937 13.8063063,9.8346235 C14.0202703,9.88036594 14.222973,9.90323716 14.4144144,9.90323716 C15.5067568,9.90323716 16.3851351,9.33145672 17.0608108,8.18789585 C17.6463964,7.2044335 17.9391892,6.12948628 17.9391892,4.95161858 C17.9391892,4.0596411 17.759009,3.31632653 17.3986486,2.69880366 L17.3986486,2.69880366 Z M15.9797297,5.86646728 C15.8220721,6.62121745 15.5405405,7.18156228 15.1238739,7.55893737 C14.7972973,7.85626319 14.4932432,7.98205489 14.2117117,7.92487685 C13.9414414,7.8676988 13.7162162,7.62755102 13.5472973,7.18156228 C13.4121622,6.82705841 13.3445946,6.47255454 13.3445946,6.14092189 C13.3445946,5.85503167 13.3671171,5.56914145 13.4234234,5.30612245 C13.5247748,4.83726249 13.7162162,4.37983814 14.0202703,3.94528501 C14.3918919,3.38494018 14.786036,3.15622801 15.1914414,3.23627727 C15.4617117,3.29345531 15.6869369,3.5336031 15.8558559,3.97959184 C15.990991,4.33409571 16.0585586,4.68859958 16.0585586,5.02023223 C16.0585586,5.31755806 16.036036,5.60344828 15.9797297,5.86646728 L15.9797297,5.86646728 Z" id="Shape"></path>
            </g>
        </g>
    </g>
</svg>