<?xml version="1.0" encoding="UTF-8" standalone="no"?>
<svg width="32px" height="32px" viewBox="0 0 32 32" version="1.1" xmlns="http://www.w3.org/2000/svg" xmlns:xlink="http://www.w3.org/1999/xlink">
    <!-- Generator: Sketch 46 (44423) - http://www.bohemiancoding.com/sketch -->
    <title>Pie Chart</title>
    <desc>Created with Sketch.</desc>
    <defs></defs>
    <g id="Page-1" stroke="none" stroke-width="1" fill="none" fill-rule="evenodd">
        <g id="Pie-Chart" fill-rule="nonzero">
            <path d="M22.2278621,30.7426207 C20.3136552,31.5522759 18.2091034,32 16,32 C11.5817931,32 7.5817931,30.2091034 4.68634483,27.3136552 L9.7577931,22.2422069 C11.3555862,23.8394483 13.5624828,24.8275862 16,24.8275862 C17.2187586,24.8275862 18.3798621,24.5805517 19.436,24.1338621 C22.6045862,22.7938621 24.8275862,19.6566897 24.8275862,16 C24.8275862,11.1244138 20.8755862,7.17241379 16,7.17241379 L16,0 C24.8364138,0 32,7.16358621 32,16 C32,22.6273103 27.9704828,28.3136552 22.2278621,30.7426207 L22.2278621,30.7426207 Z M6,26 L4.68634483,27.3136552 C1.79089655,24.4182069 0,20.4182069 0,16 C0,7.16358621 7.16358621,0 16,0 L16,6 L26,6 L26,27 L6,27 L6,26 L6,26 Z" id="Combined-Shape" fill="#FFC90F"></path>
            <path d="M16,32 C18.2091034,32 20.3136552,31.5522759 22.2278621,30.7426207 C27.9704828,28.3136552 32,22.6273103 32,16 C32,7.16358621 24.8364138,0 16,0 L16,16.1421356 C16,16.1421356 11.5817931,32 16,32 Z" id="Combined-Shape" fill="#F06E6B"></path>
            <path d="M4.68634483,27.3136552 C7.5817931,30.2091034 11.5817931,32 16,32 C18.2091034,32 20.3136552,31.5522759 22.2278621,30.7426207 C24.01028,29.9887085 25.6276606,28.920986 27.0107386,27.6087183 L16,16.279541 L4.68634483,27.3136552 Z" id="Combined-Shape" fill="#56B6E0"></path>
        </g>
    </g>
</svg>