<?xml version="1.0" encoding="UTF-8" standalone="no"?>
<svg width="32px" height="32px" viewBox="0 0 32 32" version="1.1" xmlns="http://www.w3.org/2000/svg" xmlns:xlink="http://www.w3.org/1999/xlink">
    <!-- Generator: Sketch 46 (44423) - http://www.bohemiancoding.com/sketch -->
    <title>Twitter</title>
    <desc>Created with Sketch.</desc>
    <defs></defs>
    <g id="Page-1" stroke="none" stroke-width="1" fill="none" fill-rule="evenodd">
        <g id="Twitter">
            <rect id="Rectangle" fill="#009AE1" x="0" y="0" width="32" height="32" rx="5"></rect>
            <path d="M27,9.91855371 C26.2640639,10.2439541 25.4733624,10.463913 24.643364,10.5628107 C25.4904717,10.0564419 26.1410954,9.25462623 26.4475011,8.29914714 C25.6545729,8.76808366 24.7765278,9.10855829 23.8418421,9.29201963 C23.0934061,8.49682576 22.0269628,8 20.8467698,8 C18.5807196,8 16.7435747,9.83184778 16.7435747,12.0914215 C16.7435747,12.4121087 16.7798637,12.7243825 16.8498245,13.0238802 C13.4396749,12.853195 10.4162043,11.2243232 8.39245822,8.74884164 C8.03925578,9.35313445 7.83687337,10.0559744 7.83687337,10.8058288 C7.83687337,12.2253755 8.56124695,13.4777425 9.66226043,14.211471 C8.98964455,14.1902035 8.35695047,14.0061579 7.80378749,13.6996879 C7.80339687,13.7167486 7.80339687,13.7338873 7.80339687,13.7511428 C7.80339687,15.7335379 9.21780817,17.3871828 11.0948358,17.7631422 C10.7505786,17.8565868 10.3880403,17.9067562 10.0138222,17.9067562 C9.74940869,17.9067562 9.49237794,17.8810483 9.2417925,17.8332159 C9.76397898,19.4586599 11.2792885,20.6417713 13.0748319,20.6746853 C11.6705378,21.7721814 9.9012834,22.4262152 7.97882621,22.4262152 C7.64761592,22.4262152 7.321015,22.4068952 7,22.3689176 C8.81585583,23.5299435 10.9726876,24.2073092 13.2898705,24.2073092 C20.8371605,24.2073092 24.964379,17.9726621 24.964379,12.5658112 C24.964379,12.3884263 24.9603165,12.2119762 24.9524649,12.036461 C25.7542602,11.4596289 26.4499229,10.7390271 27,9.91855371 Z" id="Shape" fill="#FFFFFF" fill-rule="nonzero"></path>
        </g>
    </g>
</svg>