<?xml version="1.0" encoding="UTF-8" standalone="no"?>
<svg width="32px" height="32px" viewBox="0 0 32 32" version="1.1" xmlns="http://www.w3.org/2000/svg" xmlns:xlink="http://www.w3.org/1999/xlink">
    <!-- Generator: Sketch 46 (44423) - http://www.bohemiancoding.com/sketch -->
    <title>Category</title>
    <desc>Created with Sketch.</desc>
    <defs></defs>
    <g id="Page-1" stroke="none" stroke-width="1" fill="none" fill-rule="evenodd">
        <g id="Category">
            <rect id="Rectangle" fill="#ECECEC" x="0" y="0" width="32" height="32" rx="3"></rect>
            <path d="M7,9 L13,9 L13,15 L7,15 L7,9 Z M9,11 L9,13 L11,13 L11,11 L9,11 Z" id="Combined-Shape" fill="#979797"></path>
            <path d="M7,18 L13,18 L13,24 L7,24 L7,18 Z M9,20 L9,22 L11,22 L11,20 L9,20 Z" id="Combined-Shape" fill="#979797"></path>
            <path d="M16,12 C16,11.4477153 16.4556644,11 16.9953976,11 L25.0046024,11 C25.5543453,11 26,11.4438648 26,12 C26,12.5522847 25.5443356,13 25.0046024,13 L16.9953976,13 C16.4456547,13 16,12.5561352 16,12 Z M16,21 C16,20.4477153 16.4530363,20 16.9970301,20 L23.0029699,20 C23.5536144,20 24,20.4438648 24,21 C24,21.5522847 23.5469637,22 23.0029699,22 L16.9970301,22 C16.4463856,22 16,21.5561352 16,21 Z" id="Combined-Shape" fill="#979797"></path>
        </g>
    </g>
</svg>