<?xml version="1.0" encoding="UTF-8" standalone="no"?>
<svg width="32px" height="32px" viewBox="0 0 32 32" version="1.1" xmlns="http://www.w3.org/2000/svg" xmlns:xlink="http://www.w3.org/1999/xlink">
    <!-- Generator: Sketch 46 (44423) - http://www.bohemiancoding.com/sketch -->
    <title>Posts Slider</title>
    <desc>Created with Sketch.</desc>
    <defs></defs>
    <g id="Page-1" stroke="none" stroke-width="1" fill="none" fill-rule="evenodd">
        <g id="Posts-Slider">
            <path d="M2,2.99610022 C2,1.34139976 3.3504982,0 4.99649048,0 L27.0035095,0 C28.6584255,0 30,1.33425951 30,2.99610022 L30,29.0038998 C30,30.6586002 28.6495018,32 27.0035095,32 L4.99649048,32 C3.34157448,32 2,30.6657405 2,29.0038998 L2,2.99610022 Z" id="Rectangle" fill="#91BFF4"></path>
            <rect id="Rectangle" fill="#55779D" x="0" y="0" width="32" height="4" rx="2"></rect>
            <path d="M25.5954544,32 L4.99649048,32 C3.34157448,32 2,30.6657405 2,29.0038998 L2,23.1984848 L10.1984848,15 L26.3969696,31.1984848 L25.5954544,32 Z" id="Combined-Shape" fill="#40915A"></path>
            <path d="M30,17.8015152 L30,29.0038998 C30,30.6586002 28.6495018,32 27.0035095,32 L4.99649048,32 C4.21886281,32 3.51041974,31.7054006 2.97784024,31.2206446 L23.1984848,11 L30,17.8015152 Z" id="Combined-Shape" fill="#4CAD6B"></path>
            <rect id="Rectangle-10" fill="#FFC90F" x="6" y="7" width="5" height="5" rx="2.5"></rect>
        </g>
    </g>
</svg>