<?xml version="1.0" encoding="UTF-8" standalone="no"?>
<svg width="32px" height="32px" viewBox="0 0 32 32" version="1.1" xmlns="http://www.w3.org/2000/svg" xmlns:xlink="http://www.w3.org/1999/xlink">
    <!-- Generator: Sketch 46 (44423) - http://www.bohemiancoding.com/sketch -->
    <title>Misc</title>
    <desc>Created with Sketch.</desc>
    <defs></defs>
    <g id="Page-1" stroke="none" stroke-width="1" fill="none" fill-rule="evenodd">
        <g id="Misc">
            <rect id="Rectangle" fill="#3B93F9" x="0" y="0" width="32" height="32" rx="5"></rect>
            <path d="M24,16.2153181 L24,9.99406028 C24,8.89451376 23.1072288,8 22.0059397,8 L9.99406028,8 C8.89451376,8 8,8.8927712 8,9.99406028 L8,22.0059397 C8,23.1054862 8.8927712,24 9.99406028,24 L16.2124477,24 L15.4148641,22 L11.0024733,22 C10.4488226,22 10,21.544239 10,20.9975267 L10,11.0024733 C10,10.4488226 10.455761,10 11.0024733,10 L20.9975267,10 C21.5511774,10 22,10.455761 22,11.0024733 L22,15.4175135 L24,16.2153181 Z" id="Combined-Shape" fill="#FFFFFF"></path>
            <path d="M26.2345729,24.2409282 L23.4833242,21.4895864 L25.4461345,20.3558513 C25.5995118,20.2672695 25.6887452,20.0989036 25.6759909,19.9222521 C25.6632367,19.745554 25.5506824,19.5917113 25.38618,19.5261244 L16.6336204,16.0347082 C16.4620426,15.9661888 16.26612,16.0065463 16.1354584,16.1371614 C16.0047968,16.2678696 15.9644392,16.4637456 16.0329121,16.6353234 L19.5237697,25.3889071 C19.5894031,25.5534095 19.7432459,25.6660103 19.919944,25.6787646 C20.096642,25.691612 20.2650545,25.602332 20.3535897,25.4489081 L21.4872317,23.4860978 L24.2382942,26.2374396 C24.3249675,26.3241594 24.4426421,26.3728957 24.5652043,26.3728957 C24.6878595,26.3728957 24.805441,26.3241594 24.8921143,26.2374396 L26.2346194,24.8947483 C26.4151345,24.7141867 26.4151345,24.4214898 26.2345729,24.2409282 Z" id="Shape" fill="#FFFFFF" fill-rule="nonzero"></path>
        </g>
    </g>
</svg>