<?xml version="1.0" encoding="UTF-8" standalone="no"?>
<svg width="32px" height="32px" viewBox="0 0 32 32" version="1.1" xmlns="http://www.w3.org/2000/svg" xmlns:xlink="http://www.w3.org/1999/xlink">
    <!-- Generator: Sketch 46 (44423) - http://www.bohemiancoding.com/sketch -->
    <title>Message Box</title>
    <desc>Created with Sketch.</desc>
    <defs></defs>
    <g id="Page-1" stroke="none" stroke-width="1" fill="none" fill-rule="evenodd">
        <g id="Message-Box">
            <rect id="Rectangle" fill="#3B93F9" x="0" y="0" width="32" height="32" rx="16"></rect>
            <path d="M16,7 C17.104625,7 18,7.8955 18,9 C18,10.105 17.104625,11 16,11 C14.895375,11 14,10.105 14,9 C14,7.8955 14.895375,7 16,7 Z M19,23 L13,23 C12.44775,23 12,22.55275 12,22 C12,21.44775 12.44775,21 13,21 L14,21 L14,15 L13,15 C12.44775,15 12,14.55275 12,14 C12,13.44775 12.44775,13 13,13 L17,13 C17.55225,13 18,13.44775 18,14 L18,21 L19,21 C19.55225,21 20,21.44775 20,22 C20,22.55275 19.55225,23 19,23 Z" id="Combined-Shape" fill="#FFFFFF"></path>
        </g>
    </g>
</svg>