<?xml version="1.0" encoding="UTF-8" standalone="no"?>
<svg width="28px" height="32px" viewBox="0 0 28 32" version="1.1" xmlns="http://www.w3.org/2000/svg" xmlns:xlink="http://www.w3.org/1999/xlink">
    <!-- Generator: Sketch 46 (44423) - http://www.bohemiancoding.com/sketch -->
    <title>Gravity Forms</title>
    <desc>Created with Sketch.</desc>
    <defs></defs>
    <g id="Page-1" stroke="none" stroke-width="1" fill="none" fill-rule="evenodd">
        <g id="Gravity-Forms" transform="translate(-2.000000, 0.000000)">
            <path d="M13.3937159,1.50473881 C14.8331269,0.673694512 17.1575565,0.66831553 18.6062841,1.50473881 L27.2501224,6.49526119 C28.6895333,7.32630549 29.8564065,9.33663106 29.8564065,11.0094776 L29.8564065,20.9905224 C29.8564065,22.652611 28.69885,24.6683155 27.2501224,25.5047388 L18.6062841,30.4952612 C17.1668731,31.3263055 14.8424435,31.3316845 13.3937159,30.4952612 L4.74987761,25.5047388 C3.31046666,24.6736945 2.14359354,22.6633689 2.14359354,20.9905224 L2.14359354,11.0094776 C2.14359354,9.34738902 3.30114999,7.33168447 4.74987761,6.49526119 L13.3937159,1.50473881 Z" id="Polygon" fill="#355667"></path>
            <path d="M21.4325394,16.0225417 L24.5400009,16.0225417 L24.5400009,21.360104 C24.5400009,21.360104 11.6990988,21.360104 7,21.360104 C7,13.4435809 8.82389716,10 13.3569083,10 L24.5400009,10 L24.5400009,13.3313951 C24.5400009,13.3313951 18.3065689,13.4435809 14.5291632,13.4435809 C11.7898116,13.4435809 10.8493783,13.8384227 10.8204554,17.8503829 C15.7618933,17.8503829 21.4325394,17.8503829 21.4325394,17.8503829 L21.4325394,16.0225417 Z" id="Path-3" fill="#FFFFFF"></path>
        </g>
    </g>
</svg>