<?xml version="1.0" encoding="UTF-8" standalone="no"?>
<svg width="32px" height="32px" viewBox="0 0 32 32" version="1.1" xmlns="http://www.w3.org/2000/svg" xmlns:xlink="http://www.w3.org/1999/xlink">
    <!-- Generator: Sketch 46 (44423) - http://www.bohemiancoding.com/sketch -->
    <title>Post title</title>
    <desc>Created with Sketch.</desc>
    <defs></defs>
    <g id="Page-1" stroke="none" stroke-width="1" fill="none" fill-rule="evenodd">
        <g id="Post-title">
            <rect id="Rectangle" fill="#3B93F9" x="0" y="0" width="32" height="32" rx="3"></rect>
            <path d="M6,13.5 C6,12.6715729 6.66543579,12 7.5032506,12 L24.4967494,12 C25.3269718,12 26,12.6657972 26,13.5 C26,14.3284271 25.3345642,15 24.4967494,15 L7.5032506,15 C6.67302822,15 6,14.3342028 6,13.5 Z M11,19.5 C11,18.6715729 11.671656,18 12.497101,18 L19.502899,18 C20.329725,18 21,18.6657972 21,19.5 C21,20.3284271 20.328344,21 19.502899,21 L12.497101,21 C11.670275,21 11,20.3342028 11,19.5 Z" id="Combined-Shape" fill="#FFFFFF"></path>
        </g>
    </g>
</svg>