<?xml version="1.0" encoding="UTF-8" standalone="no"?>
<svg width="32px" height="32px" viewBox="0 0 32 32" version="1.1" xmlns="http://www.w3.org/2000/svg" xmlns:xlink="http://www.w3.org/1999/xlink">
    <!-- Generator: Sketch 46 (44423) - http://www.bohemiancoding.com/sketch -->
    <title>ACF</title>
    <desc>Created with Sketch.</desc>
    <defs></defs>
    <g id="Page-1" stroke="none" stroke-width="1" fill="none" fill-rule="evenodd">
        <g id="ACF">
            <rect id="Rectangle" fill="#00E796" x="0" y="0" width="32" height="32" rx="16"></rect>
            <path d="M10.8449521,11.7945034 L14.9702581,20.3201357 C15.1434199,20.6664594 15.2299995,20.9261983 15.2299995,21.0993601 C15.2299995,21.4660558 14.9346102,21.7970956 14.3438227,22.0924893 C13.997499,22.2656512 13.7250278,22.3522308 13.526401,22.3522308 C13.3277741,22.3522308 13.1648007,22.3063946 13.0374758,22.2147206 C12.9101509,22.1230467 12.8184784,22.0262812 12.7624554,21.9244213 C12.7064325,21.8225614 12.6274922,21.6697738 12.5256323,21.466054 L11.7311289,19.8159316 L7.49887061,19.8159316 L6.70436724,21.466054 C6.60250732,21.6697738 6.52356707,21.8174685 6.46754412,21.9091424 C6.41152116,22.0008163 6.31984861,22.0950353 6.19252372,22.1918023 C6.06519883,22.2885692 5.90222541,22.3369519 5.70359857,22.3369519 C5.50497173,22.3369519 5.23250055,22.2503723 4.88617683,22.0772104 C4.29538932,21.7920027 4,21.4660558 4,21.0993601 C4,20.9261983 4.08657963,20.6664594 4.25974149,20.3201357 L8.38504744,11.7792245 C8.49709335,11.5449467 8.66770615,11.3565086 8.89689096,11.2139048 C9.12607577,11.0713009 9.36798944,11 9.62263923,11 C10.1726828,11 10.5801163,11.2648318 10.8449521,11.7945034 Z M9.60736032,15.461442 L8.59895219,17.5546528 L10.6310473,17.5546528 L9.60736032,15.461442 Z" id="A" fill="#FFFFFF"></path>
            <path d="M19.0085212,19.119809 L19.2752303,18.9271857 C19.6110878,18.7296225 19.8481602,18.6308424 19.9864544,18.6308424 C20.2926775,18.6308424 20.6235909,18.9074268 20.9792048,19.4606039 C21.1965244,19.8063395 21.3051825,20.0829239 21.3051825,20.2903654 C21.3051825,20.4978068 21.2385059,20.670672 21.1051507,20.8089663 C20.9717955,20.9472606 20.8162168,21.0707357 20.6384099,21.1793955 C20.460603,21.2880553 20.2902072,21.3917745 20.1272175,21.4905561 C19.9642279,21.5893377 19.6308449,21.7177519 19.1270586,21.8758025 C18.6232723,22.0338531 18.1367801,22.1128772 17.6675674,22.1128772 C17.1983547,22.1128772 16.72421,22.0511396 16.2451191,21.9276626 C15.7660282,21.8041856 15.2721275,21.5967473 14.7634021,21.3053415 C14.2546768,21.0139357 13.7978186,20.6583272 13.3928139,20.2385053 C12.9878093,19.8186834 12.6544263,19.2803316 12.392655,18.6234338 C12.1308837,17.966536 12,17.2528494 12,16.4823528 C12,15.7118561 12.1284142,15.0129866 12.3852464,14.3857233 C12.6420786,13.7584599 12.9705226,13.2398642 13.3705882,12.8299204 C13.7706538,12.4199767 14.2275119,12.0767157 14.7411764,11.8001272 C15.7092363,11.2667064 16.6822207,11 17.6601588,11 C18.1244324,11 18.5961076,11.0716156 19.0751985,11.214849 C19.5542894,11.3580823 19.9173064,11.503783 20.1642605,11.6519555 L20.5198725,11.8593958 C20.6976795,11.9680556 20.8359717,12.0569578 20.9347533,12.1261049 C21.1915855,12.3335463 21.3199997,12.5681491 21.3199997,12.8299204 C21.3199997,13.0916918 21.2162805,13.3658067 21.0088391,13.6522734 C20.6235908,14.1856941 20.2778603,14.4524005 19.9716373,14.4524005 C19.7938303,14.4524005 19.541941,14.3437424 19.2159616,14.1264228 C18.8010788,13.7905653 18.24791,13.622639 17.5564386,13.622639 C16.914358,13.622639 16.2821651,13.8448943 15.6598409,14.2894117 C15.363496,14.5067312 15.1165457,14.8129497 14.9189824,15.2080762 C14.7214192,15.6032027 14.622639,16.0501828 14.622639,16.54903 C14.622639,17.0478772 14.7214192,17.4948574 14.9189824,17.8899839 C15.1165457,18.2851104 15.368435,18.5962678 15.6746581,18.8234656 C16.277226,19.2581047 16.9044799,19.475421 17.5564386,19.475421 C17.8626616,19.475421 18.1515936,19.435909 18.423243,19.3568837 C18.6948925,19.2778584 18.8899833,19.1988343 19.0085212,19.119809 Z" id="C" fill="#FFFFFF"></path>
            <path d="M27.0375876,11 C27.2600829,11 27.4269518,11.0072552 27.5381995,11.0217657 C27.6494471,11.0362763 27.7752034,11.0822257 27.9154722,11.1596154 C28.055741,11.2370051 28.154895,11.3675982 28.2129373,11.5513986 C28.2709795,11.7351991 28.3000002,11.9818749 28.3000002,12.2914336 C28.3000002,12.6009923 28.2709795,12.8476681 28.2129373,13.0314686 C28.154895,13.215269 28.0533226,13.3434437 27.908217,13.4159966 C27.7631113,13.4885494 27.6349366,13.5320804 27.523689,13.546591 C27.4124413,13.5611015 27.2407356,13.5683567 27.0085666,13.5683567 L22.5683567,13.5683567 L22.5683567,15.0339162 L25.4269232,15.0339162 C25.6590922,15.0339162 25.8307979,15.0411713 25.9420456,15.0556819 C26.0532932,15.0701925 26.1814679,15.1161419 26.3265736,15.1935316 C26.57809,15.3386372 26.7038463,15.7207429 26.7038463,16.3398603 C26.7038463,17.0170198 26.5200486,17.4184727 26.1524477,17.5442309 C25.9976684,17.5925995 25.7509925,17.6167834 25.4124127,17.6167834 L22.5683567,17.6167834 L22.5683567,20.3592659 C22.5683567,20.5914349 22.5611015,20.7607223 22.546591,20.8671331 C22.5320804,20.9735439 22.486131,21.0993002 22.4087413,21.2444058 C22.2733094,21.505596 21.8960404,21.6361891 21.2769231,21.6361891 C20.5997635,21.6361891 20.2031474,21.4523914 20.0870629,21.0847904 C20.0290207,20.9300111 20,20.6833352 20,20.3447555 L20,12.2769231 C20,11.783564 20.0918989,11.4474077 20.2756993,11.2684441 C20.4594998,11.0894805 20.807748,11 21.3204546,11 L27.0375876,11 Z" id="F" fill="#FFFFFF"></path>
        </g>
    </g>
</svg>