<?xml version="1.0" encoding="UTF-8" standalone="no"?>
<svg width="32px" height="32px" viewBox="0 0 32 32" version="1.1" xmlns="http://www.w3.org/2000/svg" xmlns:xlink="http://www.w3.org/1999/xlink">
    <!-- Generator: Sketch 46 (44423) - http://www.bohemiancoding.com/sketch -->
    <title>Google Maps</title>
    <desc>Created with Sketch.</desc>
    <defs></defs>
    <g id="Page-1" stroke="none" stroke-width="1" fill="none" fill-rule="evenodd">
        <g id="Google-Maps" fill-rule="nonzero">
            <circle id="Oval" fill="#58A93E" cx="15.982625" cy="16" r="15.9653125"></circle>
            <path d="M13.9001875,14.6116875 L20.560375,10.7896875 C20.560375,10.7896875 27.8459375,12.3415 29.5274375,9.27325 L30.05775,8.3055625 L30.5189375,9.3080625 C31.4765,11.3895625 31.9826875,13.703625 31.9826875,16 C31.9826875,21.2931875 29.3608125,26.2395625 24.969125,29.2314375 L24.516,29.5401875 L13.9001875,14.6116875 Z" id="Shape" fill="#A3A3A3"></path>
            <path d="M15.982625,32 C10.5166875,32 5.482,29.2449375 2.514875,24.6301875 L2.2319375,24.1901875 L11.123625,16.694125 L21.357375,31.07675 L20.70525,31.2883125 C19.179625,31.7605625 17.59075,32 15.982625,32 Z" id="Shape" fill="#009AE1"></path>
            <path d="M11.123625,16.694125 L13.9001875,14.6116875 L24.5755,29.5040625 L24.056625,29.8085625 C23.3235625,30.2388125 22.5520625,30.612375 21.7635,30.9189375 L21.3573125,31.076875 L11.123625,16.694125 Z" id="Shape" fill="#FFFFFF"></path>
            <path d="M1.960625,23.69925 C1.5225,22.904375 1.150375,22.0671875 0.854625,21.2109375 L0.722625,20.70725 L19.4533125,7.67025 L22.229875,9.7526875 L2.232,24.190125 L1.960625,23.69925 Z" id="Shape" fill="#FFD238"></path>
            <path d="M23.9111875,15.6385 C22.929125,14.612875 18.0303125,9.3414375 18.0303125,6.282 C18.0303125,2.8180625 20.8484375,0 24.3123125,0 C27.7761875,0 30.5943125,2.8180625 30.5943125,6.282 C30.5943125,9.339375 25.6954375,14.6124375 24.713375,15.6385 L24.713375,15.6385 C24.4948125,15.866875 24.1298125,15.8669375 23.9111875,15.6385 L23.9111875,15.6385 Z" id="Shape" fill="#F34A38"></path>
            <path d="M24.3123125,8.399125 C22.762125,8.399125 21.5010625,7.138 21.5010625,5.587875 C21.5010625,4.03775 22.7621875,2.776625 24.3123125,2.776625 C25.8625,2.776625 27.1235625,4.03775 27.1235625,5.587875 C27.1235625,7.138 25.8625,8.399125 24.3123125,8.399125 Z" id="Shape" fill="#FFFFFF"></path>
        </g>
    </g>
</svg>