<?xml version="1.0" encoding="UTF-8" standalone="no"?>
<svg width="32px" height="32px" viewBox="0 0 32 32" version="1.1" xmlns="http://www.w3.org/2000/svg" xmlns:xlink="http://www.w3.org/1999/xlink">
    <!-- Generator: Sketch 46 (44423) - http://www.bohemiancoding.com/sketch -->
    <title>My Shortcode</title>
    <desc>Created with Sketch.</desc>
    <defs></defs>
    <g id="Page-1" stroke="none" stroke-width="1" fill="none" fill-rule="evenodd">
        <g id="My-Shortcode">
            <rect id="Rectangle" fill="#3B93F9" x="0" y="0" width="32" height="32" rx="3"></rect>
            <path d="M11,16 C11,15.4477153 11.4556644,15 11.9953976,15 L20.0046024,15 C20.5543453,15 21,15.4438648 21,16 L21,16 C21,16.5522847 20.5443356,17 20.0046024,17 L11.9953976,17 C11.4456547,17 11,16.5561352 11,16 L11,16 Z" id="Combined-Shape" fill="#94BCEB"></path>
            <path d="M22.0029293,10 C21.4378814,10 21,10.4477153 21,11 C21,11.5561352 21.4490268,12 22.0029293,12 L25,12 L25,20 L22.0029293,20 C21.4378814,20 21,20.4477153 21,21 C21,21.5561352 21.4490268,22 22.0029293,22 L25.9970707,22 C26.5561352,22 27,21.5529553 27,21.0014977 L27,10.9985023 C27,10.4474894 26.5522847,10 26,10 L22.0029293,10 Z" id="Combined-Shape" fill="#FFFFFF"></path>
            <path d="M6.00292933,10 C5.43788135,10 5,10.4477153 5,11 C5,11.5561352 5.44902676,12 6.00292933,12 L9,12 L9,20 L6.00292933,20 C5.43788135,20 5,20.4477153 5,21 C5,21.5561352 5.44902676,22 6.00292933,22 L9.99707067,22 C10.5561352,22 11,21.5529553 11,21.0014977 L11,10.9985023 C11,10.4474894 10.5522847,10 10,10 L6.00292933,10 Z" id="Combined-Shape" fill="#FFFFFF" transform="translate(8.000000, 16.000000) scale(-1, 1) translate(-8.000000, -16.000000) "></path>
        </g>
    </g>
</svg>