<?xml version="1.0" encoding="UTF-8" standalone="no"?>
<svg width="32px" height="32px" viewBox="0 0 32 32" version="1.1" xmlns="http://www.w3.org/2000/svg" xmlns:xlink="http://www.w3.org/1999/xlink">
    <!-- Generator: Sketch 46 (44423) - http://www.bohemiancoding.com/sketch -->
    <title>Image Carousel</title>
    <desc>Created with Sketch.</desc>
    <defs></defs>
    <g id="Page-1" stroke="none" stroke-width="1" fill="none" fill-rule="evenodd">
        <g id="Image-Carousel">
            <path d="M0,4.99649048 C0,3.34157448 1.33425951,2 2.99610022,2 L29.0038998,2 C30.6586002,2 32,3.3504982 32,4.99649048 L32,27.0035095 C32,28.6584255 30.6657405,30 29.0038998,30 L2.99610022,30 C1.34139976,30 0,28.6495018 0,27.0035095 L0,4.99649048 Z" id="Rectangle" fill="#55779D"></path>
            <rect id="Rectangle" fill="#91BFF4" x="3" y="0" width="26" height="29" rx="3"></rect>
            <path d="M25.5954544,32 L6.00793008,32 C4.34669617,32 3,30.6526814 3,28.9999809 L3,22.1984848 L10.1984848,15 L26.3969696,31.1984848 L25.5954544,32 Z" id="Combined-Shape" fill="#40915A"></path>
            <path d="M29,16.8015152 L29,28.9999809 C29,30.6568457 27.6568766,32 25.9920699,32 L6.00793008,32 C4.97205942,32 4.05848758,31.4761345 3.51746254,30.6810223 L23.1984848,11 L29,16.8015152 Z" id="Combined-Shape" fill="#4CAD6B"></path>
            <rect id="Rectangle-10" fill="#FFC90F" x="6" y="4" width="5" height="5" rx="2.5"></rect>
            <rect id="Rectangle-10" fill-opacity="0.5" fill="#FFFFFF" x="15" y="25" width="3" height="3" rx="1.5"></rect>
            <rect id="Rectangle-10" fill="#FFFFFF" x="10" y="25" width="3" height="3" rx="1.5"></rect>
            <rect id="Rectangle-10" fill-opacity="0.5" fill="#FFFFFF" x="20" y="25" width="3" height="3" rx="1.5"></rect>
        </g>
    </g>
</svg>