<?xml version="1.0" encoding="UTF-8" standalone="no"?>
<svg width="32px" height="32px" viewBox="0 0 32 32" version="1.1" xmlns="http://www.w3.org/2000/svg" xmlns:xlink="http://www.w3.org/1999/xlink">
    <!-- Generator: Sketch 46 (44423) - http://www.bohemiancoding.com/sketch -->
    <title>Hover Box</title>
    <desc>Created with Sketch.</desc>
    <defs></defs>
    <g id="Page-1" stroke="none" stroke-width="1" fill="none" fill-rule="evenodd">
        <g id="Hover-Box">
            <rect id="Rectangle" fill="#91BFF4" x="0" y="0" width="32" height="32" rx="3"></rect>
            <path d="M25.5954544,32 L2.99610022,32 C1.34139976,32 0,30.6657405 0,29.0038998 L0,25.1984848 L10.1984848,15 L26.3969696,31.1984848 L25.5954544,32 Z" id="Combined-Shape" fill="#40915A"></path>
            <path d="M32,19.8015152 L32,29.0038998 C32,30.6586002 30.6657405,32 29.0038998,32 L2.99610022,32 C2.75050221,32 2.51180615,31.9706065 2.2833737,31.9151111 L23.1984848,11 L32,19.8015152 Z" id="Combined-Shape" fill="#4CAD6B"></path>
            <rect id="Rectangle-10" fill="#FFC90F" x="6" y="6" width="5" height="5" rx="2.5"></rect>
            <path d="M15,0 L29.0038998,0 C30.6586002,0 32,1.33425951 32,2.99610022 L32,29.0038998 C32,30.6586002 30.6657405,32 29.0038998,32 L15,32 L15,0 Z" id="Combined-Shape" fill="#BEB090"></path>
            <path d="M15,10 L25.9975267,10 C26.5511774,10 27,10.4438648 27,11 C27,11.5522847 26.544239,12 25.9975267,12 L15,12 L15,10 Z M15,15 L25.9975267,15 C26.5511774,15 27,15.4438648 27,16 C27,16.5522847 26.544239,17 25.9975267,17 L15,17 L15,15 Z M15,20 L25.9975267,20 C26.5511774,20 27,20.4438648 27,21 C27,21.5522847 26.544239,22 25.9975267,22 L15,22 L15,20 Z" id="Combined-Shape" fill="#EBE4D6"></path>
        </g>
    </g>
</svg>