<?xml version="1.0" encoding="UTF-8" standalone="no"?>
<svg width="32px" height="32px" viewBox="0 0 32 32" version="1.1" xmlns="http://www.w3.org/2000/svg" xmlns:xlink="http://www.w3.org/1999/xlink">
    <!-- Generator: Sketch 46 (44423) - http://www.bohemiancoding.com/sketch -->
    <title>Faq Toggle</title>
    <desc>Created with Sketch.</desc>
    <defs></defs>
    <g id="Page-1" stroke="none" stroke-width="1" fill="none" fill-rule="evenodd">
        <g id="Faq-Toggle">
            <rect id="Rectangle" fill="#ECECEC" x="0" y="0" width="32" height="32" rx="3"></rect>
            <path d="M13,14 C13,13.4477153 13.455761,13 14.0024733,13 L23.9975267,13 C24.5511774,13 25,13.4438648 25,14 C25,14.5522847 24.544239,15 23.9975267,15 L14.0024733,15 C13.4488226,15 13,14.5561352 13,14 Z M13,19 C13,18.4477153 13.4378814,18 14.0029293,18 L18.9970707,18 C19.5509732,18 20,18.4438648 20,19 C20,19.5522847 19.5621186,20 18.9970707,20 L14.0029293,20 C13.4490268,20 13,19.5561352 13,19 Z" id="Combined-Shape" fill="#979797"></path>
            <rect id="Rectangle" fill="#3B93F9" x="7" y="12" width="4" height="4" rx="2"></rect>
        </g>
    </g>
</svg>