<?xml version="1.0" encoding="UTF-8" standalone="no"?>
<svg width="32px" height="32px" viewBox="0 0 32 32" version="1.1" xmlns="http://www.w3.org/2000/svg" xmlns:xlink="http://www.w3.org/1999/xlink">
    <!-- Generator: Sketch 46 (44423) - http://www.bohemiancoding.com/sketch -->
    <title>Separator Zig Zag</title>
    <desc>Created with Sketch.</desc>
    <defs>
        <path d="M19.6923882,14.1923882 L19.6923882,14.6923882 L16.6923882,14.6923882 L16.6923882,17.6923882 L16.1923882,17.6923882 L13.6923882,17.6923882 L13.6923882,20.6923882 L13.1923882,20.6923882 L10.6923882,20.6923882 L10.6923882,23.6923882 L9.69238816,23.6923882 L9.69238816,19.6923882 L12.6923882,19.6923882 L12.6923882,16.6923882 L15.6923882,16.6923882 L15.6923882,13.6923882 L18.6923882,13.6923882 L18.6923882,10.6923882 L22.6923882,10.6923882 L22.6923882,11.6923882 L19.6923882,11.6923882 L19.6923882,14.1923882 Z" id="path-1"></path>
    </defs>
    <g id="Page-1" stroke="none" stroke-width="1" fill="none" fill-rule="evenodd">
        <g id="Separator-Zig-Zag">
            <rect id="Rectangle" fill="#ECECEC" x="0" y="0" width="32" height="32" rx="5"></rect>
            <g id="Combined-Shape" transform="translate(16.192388, 17.192388) rotate(-315.000000) translate(-16.192388, -17.192388) ">
                <use fill="#D8D8D8" fill-rule="evenodd" xlink:href="#path-1"></use>
                <path stroke="#979797" stroke-width="1" d="M16.1923882,17.1923882 L16.1923882,17.6923882 L16.6923882,17.1923882 L16.1923882,17.1923882 Z M13.1923882,20.1923882 L13.1923882,20.6923882 L13.6923882,20.1923882 L13.1923882,20.1923882 Z M10.1923882,20.1923882 L10.1923882,19.6923882 L9.69238816,20.1923882 L10.1923882,20.1923882 Z M13.1923882,17.1923882 L13.1923882,16.6923882 L12.6923882,17.1923882 L13.1923882,17.1923882 Z M16.1923882,14.1923882 L16.1923882,13.6923882 L15.6923882,14.1923882 L16.1923882,14.1923882 Z M19.1923882,11.1923882 L19.1923882,10.6923882 L18.6923882,11.1923882 L19.1923882,11.1923882 Z M19.1923882,14.1923882 L19.1923882,14.6923882 L19.6923882,14.1923882 L19.1923882,14.1923882 Z M10.1923882,23.1923882 L9.69238816,23.1923882 L10.1923882,23.6923882 L10.1923882,23.1923882 Z M22.1923882,11.1923882 L22.1923882,11.6923882 L22.6923882,11.1923882 L22.1923882,11.1923882 Z M10.1923882,23.1923882 L10.1923882,20.1923882 L12.6923882,20.1923882 L13.1923882,20.1923882 L13.1923882,17.1923882 L16.1923882,17.1923882 L16.1923882,14.1923882 L19.1923882,14.1923882 L19.1923882,11.1923882 L22.6923882,11.1923882 L22.1923882,10.6923882 L22.1923882,11.1923882 L19.1923882,11.1923882 L19.1923882,14.1923882 L16.1923882,14.1923882 L16.1923882,17.1923882 L13.1923882,17.1923882 L13.1923882,20.1923882 L10.1923882,20.1923882 L10.1923882,23.6923882 L10.6923882,23.1923882 L10.1923882,23.1923882 Z"></path>
            </g>
        </g>
    </g>
</svg>