<?xml version="1.0" encoding="UTF-8" standalone="no"?>
<svg width="32px" height="32px" viewBox="0 0 32 32" version="1.1" xmlns="http://www.w3.org/2000/svg" xmlns:xlink="http://www.w3.org/1999/xlink">
    <!-- Generator: Sketch 46 (44423) - http://www.bohemiancoding.com/sketch -->
    <title>Google Plus</title>
    <desc>Created with Sketch.</desc>
    <defs></defs>
    <g id="Page-1" stroke="none" stroke-width="1" fill="none" fill-rule="evenodd">
        <g id="Google-Plus">
            <rect id="Rectangle" fill="#F34A38" x="0" y="0" width="32" height="32" rx="5"></rect>
            <path d="M12.4204608,17.3724727 C12.1363338,17.3724727 11.905942,17.1393912 11.905942,16.8518287 L11.905942,14.9439842 C11.905942,14.6564217 12.1362814,14.4233402 12.4204608,14.4233402 L19.353476,14.4233402 C19.353476,14.4233402 19.3495479,16.1553401 19.3435773,16.2065884 C19.1194705,20.2942057 15.7737366,23.5391684 11.678169,23.5391684 C7.41940515,23.5391684 3.97044277,20.0306509 4.000191,15.7141918 C4.02967737,11.429902 7.5978422,7.91783377 11.8309953,8.00146328 C13.815695,8.04068117 15.6154634,8.84236909 16.9571193,10.128557 C17.1718513,10.3343979 17.1710657,10.6808403 16.9557052,10.8859923 L15.5784876,12.1976188 C15.3814055,12.3853347 15.0763813,12.3841688 14.8759997,12.2001097 C14.030008,11.4232244 12.9078501,10.9491119 11.678169,10.9491119 C8.98878176,10.9491119 6.81270872,13.2160121 6.91808452,15.9606816 C7.01638987,18.521186 9.1101839,20.5710098 11.6423978,20.5899298 C13.7293309,20.605511 15.5119207,19.2554615 16.1701004,17.3724727 L12.4204608,17.3724727 Z M25.7069766,14.5965879 L27.5491152,14.5965879 C27.7981519,14.5965879 28,14.8008389 28,15.0528404 L28,16.6217681 C28,16.8737695 27.7981519,17.0780205 27.5491152,17.0780205 L25.7069766,17.0780205 L25.7069766,18.9420894 C25.7069766,19.1940908 25.5051285,19.3983419 25.2560918,19.3983419 L23.7056221,19.3983419 C23.4565853,19.3983419 23.2547372,19.1940908 23.2547372,18.9420894 L23.2547372,17.0780205 L21.4125986,17.0780205 C21.1635619,17.0780205 20.9617138,16.8737695 20.9617138,16.6217681 L20.9617138,15.0528404 C20.9617138,14.8008389 21.1635619,14.5965879 21.4125986,14.5965879 L23.2547372,14.5965879 L23.2547372,12.7325191 C23.2547372,12.4805176 23.4565853,12.2762666 23.7056221,12.2762666 L25.2560918,12.2762666 C25.5051285,12.2762666 25.7069766,12.4805176 25.7069766,12.7325191 L25.7069766,14.5965879 Z" id="Combined-Shape" fill="#FFFFFF" fill-rule="nonzero"></path>
        </g>
    </g>
</svg>