<?xml version="1.0" encoding="UTF-8" standalone="no"?>
<svg width="32px" height="32px" viewBox="0 0 32 32" version="1.1" xmlns="http://www.w3.org/2000/svg" xmlns:xlink="http://www.w3.org/1999/xlink">
    <!-- Generator: Sketch 43.2 (39069) - http://www.bohemiancoding.com/sketch -->
    <title>Gutenberg</title>
    <desc>Created with Sketch.</desc>
    <defs></defs>
    <g id="Page-1" stroke="none" stroke-width="1" fill="none" fill-rule="evenodd">
        <g id="Gutenberg">
            <rect id="Rectangle" fill="#54586A" x="0" y="0" width="32" height="32" rx="3"></rect>
            <path d="M21.106,16.16 L24.174,16.16 L24.174,22.374 C22.4579914,24.2633428 20.0053493,25.208 16.816,25.208 C14.1293199,25.208 11.8803424,24.3240088 10.069,22.556 C8.25765761,20.7879912 7.352,18.5520135 7.352,15.848 C7.352,13.1439865 8.27499077,10.8906757 10.121,9.088 C11.9670092,7.28532432 14.1986536,6.384 16.816,6.384 C19.4333464,6.384 21.608658,7.14665904 23.342,8.672 L21.704,11.012 C20.9933298,10.4053303 20.2783369,9.98500117 19.559,9.751 C18.8396631,9.51699883 18.0033381,9.4 17.05,9.4 C15.2126575,9.4 13.6700062,9.99366073 12.422,11.181 C11.1739938,12.3683393 10.55,13.9283237 10.55,15.861 C10.55,17.7936763 11.1566606,19.3449942 12.37,20.515 C13.5833394,21.6850059 15.0523247,22.27 16.777,22.27 C18.5016753,22.27 19.9446609,21.8973371 21.106,21.152 L21.106,16.16 Z" id="G" fill="#FFFFFF"></path>
        </g>
    </g>
</svg>