<?xml version="1.0" encoding="UTF-8" standalone="no"?>
<svg width="32px" height="32px" viewBox="0 0 32 32" version="1.1" xmlns="http://www.w3.org/2000/svg" xmlns:xlink="http://www.w3.org/1999/xlink">
    <!-- Generator: Sketch 46 (44423) - http://www.bohemiancoding.com/sketch -->
    <title>WordPress</title>
    <desc>Created with Sketch.</desc>
    <defs></defs>
    <g id="Page-1" stroke="none" stroke-width="1" fill="none" fill-rule="evenodd">
        <g id="WordPress" fill-rule="nonzero" fill="#3B82B8">
            <path d="M0.00142465753,15.9606575 C0.00142465753,22.2759452 3.67287671,27.7391781 8.99736986,30.3210959 L1.38410959,9.46389041 C0.497205479,11.4501918 0.00142465753,13.6451507 0.00142465753,15.9606575 Z M26.7368767,15.1545205 C26.7368767,13.182137 26.0265205,11.8143562 25.4199452,10.7527671 C24.6118356,9.43780822 23.8545753,8.32547945 23.8545753,7.00953425 C23.8545753,5.54191781 24.9639452,4.17720548 26.5363288,4.17720548 L26.7408219,4.19112329 C23.9014795,1.59024658 20.1183562,0 15.9640548,0 C10.4828493,0 5.65019178,2.76449315 2.77786301,6.97271233 C3.97709589,6.99561644 7.90991781,7.00964384 7.90991781,7.00964384 C8.76789041,6.96175342 8.86969863,8.22279452 8.00964384,8.32657534 C8.00964384,8.32657534 7.14663014,8.42728767 6.18389041,8.47824658 L11.9972603,25.7648219 L15.4900822,15.2903014 L13.001863,8.47824658 C12.1429041,8.42641096 11.3287671,8.32657534 11.3287671,8.32657534 C10.467726,8.27473973 10.5695342,6.96175342 11.4315616,7.00964384 L19.8897534,7.00964384 C20.7467397,6.96175342 20.8495342,8.22279452 19.9894795,8.32657534 C19.9894795,8.32657534 19.1264658,8.42728767 18.163726,8.47824658 L23.932274,25.6321096 L25.525589,20.3164932 C26.3308493,18.2403288 26.7368767,16.5214247 26.7368767,15.1545205 Z M16.2433973,17.3573699 L11.4526027,31.2728767 C12.8823014,31.6939178 14.3927671,31.9213151 15.9630685,31.9213151 C17.819726,31.9213151 19.6035068,31.6001096 21.2626849,31.0154521 L21.1499178,30.7969315 L16.2433973,17.3573699 Z M29.9663562,8.30158904 C30.0361644,8.81238356 30.0760548,9.35715068 30.0760548,9.94575342 C30.0760548,11.5639452 29.771726,13.3836712 28.8599452,15.6613699 L23.9863014,29.754411 C28.7301918,26.9899178 31.9197808,21.8488767 31.9197808,15.9606575 C31.9207671,13.1852055 31.2123836,10.5763288 29.9663562,8.30158904 Z" id="Shape"></path>
        </g>
    </g>
</svg>