<?xml version="1.0" encoding="UTF-8" standalone="no"?>
<svg width="32px" height="32px" viewBox="0 0 32 32" version="1.1" xmlns="http://www.w3.org/2000/svg" xmlns:xlink="http://www.w3.org/1999/xlink">
    <!-- Generator: Sketch 46 (44423) - http://www.bohemiancoding.com/sketch -->
    <title>Accordion</title>
    <desc>Created with Sketch.</desc>
    <defs></defs>
    <g id="Page-1" stroke="none" stroke-width="1" fill="none" fill-rule="evenodd">
        <g id="Accordion">
            <path d="M0,2.99686968 C0,1.34174426 1.33425951,0 2.99610022,0 L29.0038998,0 C30.6586002,0 32,1.34739093 32,2.99686968 L32,9 L0,9 L0,2.99686968 Z" id="Rectangle" fill="#ECECEC"></path>
            <path d="M0,11 L32,11 L32,28.991212 C32,30.6529197 30.6657405,32 29.0038998,32 L2.99610022,32 C1.34139976,32 0,30.6544098 0,28.991212 L0,11 Z" id="Rectangle" fill="#ECECEC"></path>
            <path d="M4,15 L28,15 L28,28 L4,28 L4,15 Z M6,17 L6,26 L26,26 L26,17 L6,17 Z" id="Combined-Shape" fill="#D8D8D8"></path>
        </g>
    </g>
</svg>