<?xml version="1.0" encoding="UTF-8" standalone="no"?>
<svg width="32px" height="32px" viewBox="0 0 32 32" version="1.1" xmlns="http://www.w3.org/2000/svg" xmlns:xlink="http://www.w3.org/1999/xlink">
    <!-- Generator: Sketch 46 (44423) - http://www.bohemiancoding.com/sketch -->
    <title>Icon</title>
    <desc>Created with Sketch.</desc>
    <defs></defs>
    <g id="Page-1" stroke="none" stroke-width="1" fill="none" fill-rule="evenodd">
        <g id="Icon">
            <rect id="Rectangle" fill="#3B93F9" x="0" y="0" width="32" height="32" rx="5"></rect>
            <rect id="Rectangle" fill="#FFFFFF" x="11" y="11" width="10" height="10" rx="5"></rect>
            <rect id="Rectangle" fill="#3B93F9" x="13" y="13" width="6" height="6" rx="3"></rect>
            <path d="M21.6502294,8.935557 C22.0444125,8.54137392 22.6778209,8.53568523 23.0710678,8.92893219 C23.4615921,9.31945648 23.4646766,9.94953701 23.064443,10.3497706 L21.6634791,11.7507345 C21.269296,12.1449176 20.6358876,12.1506063 20.2426407,11.7573593 C19.8521164,11.366835 19.8490319,10.7367545 20.2492655,10.3365209 L21.6502294,8.935557 Z M10.3365209,20.2492655 C10.730704,19.8550824 11.3641124,19.8493937 11.7573593,20.2426407 C12.1478836,20.633165 12.1509681,21.2632455 11.7507345,21.6634791 L10.3497706,23.064443 C9.95558749,23.4586261 9.32217914,23.4643148 8.92893219,23.0710678 C8.5384079,22.6805435 8.53532344,22.050463 8.935557,21.6502294 L10.3365209,20.2492655 Z M23.064443,21.6502294 C23.4586261,22.0444125 23.4643148,22.6778209 23.0710678,23.0710678 C22.6805435,23.4615921 22.050463,23.4646766 21.6502294,23.064443 L20.2492655,21.6634791 C19.8550824,21.269296 19.8493937,20.6358876 20.2426407,20.2426407 C20.633165,19.8521164 21.2632455,19.8490319 21.6634791,20.2492655 L23.064443,21.6502294 Z M11.7507345,10.3365209 C12.1449176,10.730704 12.1506063,11.3641124 11.7573593,11.7573593 C11.366835,12.1478836 10.7367545,12.1509681 10.3365209,11.7507345 L8.935557,10.3497706 C8.54137392,9.95558749 8.53568523,9.32217914 8.92893219,8.92893219 C9.31945648,8.5384079 9.94953701,8.53532344 10.3497706,8.935557 L11.7507345,10.3365209 Z M24.9906311,15 C25.5480902,15 26,15.4438648 26,16 C26,16.5522847 25.5566468,17 24.9906311,17 L23.0093689,17 C22.4519098,17 22,16.5561352 22,16 C22,15.4477153 22.4433532,15 23.0093689,15 L24.9906311,15 Z M8.9906311,15 C9.54809015,15 10,15.4438648 10,16 C10,16.5522847 9.55664682,17 8.9906311,17 L7.0093689,17 C6.45190985,17 6,16.5561352 6,16 C6,15.4477153 6.44335318,15 7.0093689,15 L8.9906311,15 Z M17,24.9906311 C17,25.5480902 16.5561352,26 16,26 C15.4477153,26 15,25.5566468 15,24.9906311 L15,23.0093689 C15,22.4519098 15.4438648,22 16,22 C16.5522847,22 17,22.4433532 17,23.0093689 L17,24.9906311 Z M17,8.9906311 C17,9.54809015 16.5561352,10 16,10 C15.4477153,10 15,9.55664682 15,8.9906311 L15,7.0093689 C15,6.45190985 15.4438648,6 16,6 C16.5522847,6 17,6.44335318 17,7.0093689 L17,8.9906311 Z" id="Combined-Shape" fill="#FFFFFF"></path>
        </g>
    </g>
</svg>