<?xml version="1.0" encoding="UTF-8" standalone="no"?>
<svg width="32px" height="32px" viewBox="0 0 32 32" version="1.1" xmlns="http://www.w3.org/2000/svg" xmlns:xlink="http://www.w3.org/1999/xlink">
    <!-- Generator: Sketch 46 (44423) - http://www.bohemiancoding.com/sketch -->
    <title>Progress Bar</title>
    <desc>Created with Sketch.</desc>
    <defs></defs>
    <g id="Page-1" stroke="none" stroke-width="1" fill="none" fill-rule="evenodd">
        <g id="Progress-Bar" transform="translate(16.000000, 16.000000) rotate(-270.000000) translate(-16.000000, -16.000000) ">
            <path d="M0,2.00174332 C0,0.89621101 0.886706352,0 1.99810135,0 L6.00189865,0 C7.10541955,0 8,0.889261723 8,2.00174332 L8,29.9982567 C8,31.103789 7.11329365,32 6.00189865,32 L1.99810135,32 C0.894580447,32 0,31.1107383 0,29.9982567 L0,2.00174332 Z M24,2.00174332 C24,0.89621101 24.8867064,0 25.9981014,0 L30.0018986,0 C31.1054196,0 32,0.889261723 32,2.00174332 L32,29.9982567 C32,31.103789 31.1132936,32 30.0018986,32 L25.9981014,32 C24.8945804,32 24,31.1107383 24,29.9982567 L24,2.00174332 Z M12,2.00174332 C12,0.89621101 12.8867064,0 13.9981014,0 L18.0018986,0 C19.1054196,0 20,0.889261723 20,2.00174332 L20,29.9982567 C20,31.103789 19.1132936,32 18.0018986,32 L13.9981014,32 C12.8945804,32 12,31.1107383 12,29.9982567 L12,2.00174332 Z" id="Combined-Shape" fill="#ECECEC"></path>
            <rect id="Rectangle" fill="#57B7E1" x="0" y="0" width="8" height="32" rx="2"></rect>
            <rect id="Rectangle" fill="#FFC90F" x="12" y="10" width="8" height="22" rx="2"></rect>
            <path d="M24,22.0085302 C24,20.8992496 24.8867064,20 25.9981014,20 L30.0018986,20 C31.1054196,20 32,20.9019504 32,22.0085302 L32,29.9914698 C32,31.1007504 31.1132936,32 30.0018986,32 L25.9981014,32 C24.8945804,32 24,31.0980496 24,29.9914698 L24,22.0085302 Z" id="Rectangle" fill="#F06E6A"></path>
        </g>
    </g>
</svg>