<?xml version="1.0" encoding="UTF-8" standalone="no"?>
<svg width="32px" height="32px" viewBox="0 0 32 32" version="1.1" xmlns="http://www.w3.org/2000/svg" xmlns:xlink="http://www.w3.org/1999/xlink">
    <!-- Generator: Sketch 46 (44423) - http://www.bohemiancoding.com/sketch -->
    <title>Media Masonry Grid</title>
    <desc>Created with Sketch.</desc>
    <defs></defs>
    <g id="Page-1" stroke="none" stroke-width="1" fill="none" fill-rule="evenodd">
        <g id="Media-Masonry-Grid">
            <rect id="Rectangle" fill="#9CDB00" x="0" y="0" width="32" height="32" rx="5"></rect>
            <path d="M13,8 L19,8 L19,14 L13,14 L13,8 Z M15,10 L15,12 L17,12 L17,10 L15,10 Z" id="Combined-Shape" fill="#FFFFFF"></path>
            <path d="M5,8 L11,8 L11,16 L5,16 L5,8 Z M7,10 L7,14 L9,14 L9,10 L7,10 Z" id="Combined-Shape" fill="#FFFFFF"></path>
            <path d="M21,8 L27,8 L27,18 L21,18 L21,8 Z M23,10 L23,16 L25,16 L25,10 L23,10 Z" id="Combined-Shape" fill="#FFFFFF"></path>
            <path d="M13,16 L19,16 L19,22 L13,22 L13,16 Z M15,18 L15,20 L17,20 L17,18 L15,18 Z" id="Combined-Shape" fill="#FFFFFF"></path>
            <path d="M5,18 L11,18 L11,24 L5,24 L5,18 Z M7,20 L7,22 L9,22 L9,20 L7,20 Z" id="Combined-Shape" fill="#FFFFFF"></path>
        </g>
    </g>
</svg>