<?xml version="1.0" encoding="UTF-8" standalone="no"?>
<svg width="32px" height="32px" viewBox="0 0 32 32" version="1.1" xmlns="http://www.w3.org/2000/svg" xmlns:xlink="http://www.w3.org/1999/xlink">
    <!-- Generator: Sketch 46 (44423) - http://www.bohemiancoding.com/sketch -->
    <title>Button</title>
    <desc>Created with Sketch.</desc>
    <defs></defs>
    <g id="Page-1" stroke="none" stroke-width="1" fill="none" fill-rule="evenodd">
        <g id="Button">
            <rect id="Rectangle" fill="#CC4845" x="0" y="0" width="32" height="32" rx="5"></rect>
            <path d="M0,5.00583887 C0,2.2411904 2.23745928,0 5,0 L27,0 C29.7614237,0 32,2.24402624 32,5.00583887 L32,22.9941611 C32,25.7588096 29.7625407,28 27,28 L5,28 C2.23857625,28 0,25.7559738 0,22.9941611 L0,5.00583887 Z" id="Rectangle" fill="#F06E6B"></path>
            <path d="M12.451,14.372 L14.492,14.372 L14.492,17.596 C13.5906622,18.6013384 12.3426747,19.104 10.748,19.104 C9.41332667,19.104 8.29317121,18.6620044 7.38750001,17.778 C6.48182882,16.8939956 6.02900001,15.7781734 6.02900001,14.4305 C6.02900001,13.0828266 6.4904954,11.9583378 7.41350001,11.057 C8.33650463,10.1556622 9.45016016,9.705 10.7545,9.705 C12.0588399,9.705 13.1919952,10.1339957 14.154,10.992 L13.101,12.513 C12.6936646,12.1576649 12.3188351,11.912834 11.9765,11.7785 C11.634165,11.644166 11.2636687,11.577 10.865,11.577 C10.0936628,11.577 9.44366932,11.839164 8.91500001,12.3635 C8.3863307,12.887836 8.12200001,13.5789957 8.12200001,14.437 C8.12200001,15.2950043 8.37549748,15.9818308 8.88250001,16.4975 C9.38950255,17.0131692 9.9939965,17.271 10.696,17.271 C11.3980035,17.271 11.9829977,17.136668 12.451,16.868 L12.451,14.372 Z M22.799,12.331 C22.2789974,11.7589971 21.6398371,11.473 20.8815,11.473 C20.1231629,11.473 19.4840026,11.7589971 18.964,12.331 C18.4439974,12.9030029 18.184,13.5941626 18.184,14.4045 C18.184,15.2148374 18.4439974,15.9038305 18.964,16.4715 C19.4840026,17.0391695 20.1231629,17.323 20.8815,17.323 C21.6398371,17.323 22.2789974,17.0391695 22.799,16.4715 C23.3190026,15.9038305 23.579,15.2148374 23.579,14.4045 C23.579,13.5941626 23.3190026,12.9030029 22.799,12.331 Z M20.875,19.091 C19.5316599,19.091 18.4006713,18.6425045 17.482,17.7455 C16.5633287,16.8484955 16.104,15.7326733 16.104,14.398 C16.104,13.0633267 16.5633287,11.9475045 17.482,11.0505 C18.4006713,10.1534955 19.5316599,9.705 20.875,9.705 C22.21834,9.705 23.3493287,10.1534955 24.268,11.0505 C25.1866713,11.9475045 25.646,13.0633267 25.646,14.398 C25.646,15.7326733 25.1866713,16.8484955 24.268,17.7455 C23.3493287,18.6425045 22.21834,19.091 20.875,19.091 Z" id="GO" fill="#FFFFFF"></path>
        </g>
    </g>
</svg>