<?xml version="1.0" encoding="UTF-8" standalone="no"?>
<svg width="32px" height="25px" viewBox="0 0 32 25" version="1.1" xmlns="http://www.w3.org/2000/svg" xmlns:xlink="http://www.w3.org/1999/xlink">
    <!-- Generator: Sketch 46 (44423) - http://www.bohemiancoding.com/sketch -->
    <title>WPB Logo</title>
    <desc>Created with Sketch.</desc>
    <defs></defs>
    <g id="Page-1" stroke="none" stroke-width="1" fill="none" fill-rule="evenodd">
        <g id="WPB-Logo" fill="#424242">
            <path d="M25.0809153,4.41653514 C29.2652496,4.74967967 32.1507111,7.89501339 31.9939085,11.8458534 C31.8395482,15.7317254 28.4211532,18.7568927 24.3169299,18.69339 L22.7020094,24.330469 C21.1759925,23.4761144 19.2884992,23.0208495 17.4586467,22.9871443 C14.1701879,22.9265725 12.7443098,24.142892 11.5431332,23.2831642 C11.001407,22.8948212 10.3409798,22.3208552 10.1851541,21.0864619 C11.7390144,20.7064232 14.7241261,19.5072006 15.5227937,18.373923 C14.0021502,19.3113194 11.9832553,19.9228985 10.4508881,20.0127791 C10.374685,20.0127791 10.2975049,20.0137561 10.2203248,20.0098482 C4.36000972,19.7778194 -0.212667551,15.1152615 0.00763769905,9.59639518 C0.226965986,4.07752884 4.7317443,-0.223064125 10.5915709,0.0089646868 C15.2634099,0.196053181 16.3439315,2.72736539 17.8079112,4.05554716 C18.1781803,4.41848907 18.6725238,4.87277706 19.1429317,5.16049278 C20.949337,6.26397296 23.5661335,6.48037036 25.1781232,5.84729807 C23.4278932,5.94939074 21.9839413,5.47849438 20.9244245,4.92406764 C21.9687983,4.78143098 22.8905633,4.24117021 25.0809153,4.41653514 Z M5.70431138,5.56544412 C6.29586273,4.77214983 6.49760568,3.92072621 6.15371456,3.66280787 C5.81031191,3.40733193 5.05121134,3.84208065 4.45819455,4.63488647 C3.86615471,5.42866924 3.66343481,6.28106982 4.00732593,6.53654576 C4.35170553,6.7944641 5.11080611,6.35873842 5.70431138,5.56544412 Z" id="Combined-Shape"></path>
        </g>
    </g>
</svg>