<?xml version="1.0" encoding="UTF-8" standalone="no"?>
<svg width="32px" height="32px" viewBox="0 0 32 32" version="1.1" xmlns="http://www.w3.org/2000/svg" xmlns:xlink="http://www.w3.org/1999/xlink">
    <!-- Generator: Sketch 46 (44423) - http://www.bohemiancoding.com/sketch -->
    <title>Call to Action</title>
    <desc>Created with Sketch.</desc>
    <defs></defs>
    <g id="Page-1" stroke="none" stroke-width="1" fill="none" fill-rule="evenodd">
        <g id="Call-to-Action">
            <rect id="Rectangle" fill="#F06E6B" x="0" y="0" width="32" height="32" rx="3"></rect>
            <path d="M7,10 C7,9.44771525 7.44494629,9 7.99339768,9 L24.0066023,9 C24.5552407,9 25,9.44386482 25,10 C25,10.5522847 24.5550537,11 24.0066023,11 L7.99339768,11 C7.44475929,11 7,10.5561352 7,10 Z M7,15 C7,14.4477153 7.44494629,14 7.99339768,14 L24.0066023,14 C24.5552407,14 25,14.4438648 25,15 C25,15.5522847 24.5550537,16 24.0066023,16 L7.99339768,16 C7.44475929,16 7,15.5561352 7,15 Z M7,20.0093689 C7,19.4519098 7.4556644,19 7.99539757,19 L16.0046024,19 C16.5543453,19 17,19.4433532 17,20.0093689 L17,21.9906311 C17,22.5480902 16.5443356,23 16.0046024,23 L7.99539757,23 C7.44565467,23 7,22.5566468 7,21.9906311 L7,20.0093689 Z" id="Combined-Shape" fill="#FFFFFF"></path>
        </g>
    </g>
</svg>