<?xml version="1.0" encoding="UTF-8" standalone="no"?>
<svg width="32px" height="32px" viewBox="0 0 32 32" version="1.1" xmlns="http://www.w3.org/2000/svg" xmlns:xlink="http://www.w3.org/1999/xlink">
    <!-- Generator: Sketch 46 (44423) - http://www.bohemiancoding.com/sketch -->
    <title>Ninja Forms</title>
    <desc>Created with Sketch.</desc>
    <defs></defs>
    <g id="Page-1" stroke="none" stroke-width="1" fill="none" fill-rule="evenodd">
        <g id="Ninja-Forms">
            <path d="M30.8465691,21.9768504 C31.5905285,20.1302723 32,18.1129677 32,16 C32,7.16150109 24.836556,0 16,0 C7.16150109,0 0,7.163444 0,16 C0,18.9241439 0.784083529,21.66473 2.15343094,24.0231496 C4.52075373,18.1472291 10.2749334,14 17,14 C22.9130549,14 28.0769356,17.2067257 30.8465691,21.9768504 Z" id="Combined-Shape" fill="#F24444"></path>
            <path d="M4.40421184,27.0252115 C3.47953257,26.0529917 2.67586775,24.9645755 2.0173607,23.7840807 C2.3904528,16.1085114 8.73020997,12 16.5,12 C23.6870824,12 29.6528822,15.2275142 30.8006404,22.0896021 C30.0061176,24.0189176 28.8453616,25.7587613 27.4048727,27.2225409 C24.3723824,23.7375415 19.2470559,22.2275391 14.4082031,22.2275391 C9.91373524,22.2275391 6.50530318,24.0101018 4.40421184,27.0252115 Z" id="Combined-Shape" fill="#414342"></path>
            <path d="M16,32 C11.5203181,32 7.47062121,30.1595147 4.56621392,27.1930894 C5.61307183,23.6633434 10.3243653,20 15.9803557,20 C21.6516705,20 26.3749464,23.6782462 27.4035532,27.2238816 C24.5016117,30.1720542 20.4647714,32 16,32 Z" id="Combined-Shape" fill="#FFFFFF"></path>
            <rect id="Rectangle-8" fill="#414342" x="9" y="24" width="4" height="5" rx="2"></rect>
            <rect id="Rectangle-8" fill="#414342" x="19" y="24" width="4" height="5" rx="2"></rect>
            <path d="M22.419973,12.7236781 C22.419973,12.7236781 26.6442266,8.64390741 29.5864233,9.25176631 C30.4201156,9.42400745 27.7256036,11.6104939 27.7256036,12.1035157 C27.7256036,12.3231972 30.6278971,13.970986 29.9101381,13.970986 C26.1911506,13.970986 23.9012134,15.456383 23.9012134,15.456383 L22.419973,12.7236781 Z" id="Path-2" fill="#414342" transform="translate(26.222122, 12.323197) rotate(-30.000000) translate(-26.222122, -12.323197) "></path>
        </g>
    </g>
</svg>