<?xml version="1.0" encoding="UTF-8" standalone="no"?>
<svg width="32px" height="32px" viewBox="0 0 32 32" version="1.1" xmlns="http://www.w3.org/2000/svg" xmlns:xlink="http://www.w3.org/1999/xlink">
    <!-- Generator: Sketch 46 (44423) - http://www.bohemiancoding.com/sketch -->
    <title>Revolution Slider</title>
    <desc>Created with Sketch.</desc>
    <defs></defs>
    <g id="Page-1" stroke="none" stroke-width="1" fill="none" fill-rule="evenodd">
        <g id="Revolution-Slider">
            <rect id="Rectangle" fill="#FA5500" x="0" y="0" width="32" height="32" rx="5"></rect>
            <path d="M7.21698306,16.9449461 C7.07600043,15.743487 7.19348596,14.5836168 7.51304658,13.5115456 C8.57511572,9.9487571 11.9070052,7.32865196 15.8592182,7.282442 L15.8592182,4.95345965 C15.8592182,4.82407174 16.0236979,4.75475679 16.1317846,4.83331374 L21.0050841,8.35451324 C21.0849743,8.41458619 21.0849743,8.53473211 21.0050841,8.59018407 L16.136484,12.1113836 C16.0236979,12.1899405 15.8639176,12.1206256 15.8639176,11.9912377 L15.8639176,9.6668763 C13.2651378,9.70846527 11.0470111,11.2842252 10.0930287,13.5115456 C9.73117327,14.352567 9.54789585,15.2813873 9.59958948,16.2564176 C9.67008079,17.5965067 10.1823177,18.8303128 10.9906181,19.8284481 C11.4229648,20.3598627 11.3195775,21.1361902 10.7603465,21.5382169 C10.2293119,21.9217596 9.48680338,21.8154767 9.07795376,21.307167 C8.0769771,20.0779819 7.40965932,18.580779 7.21698306,16.9449461 Z M21.2870494,12.4718213 C22.1000492,13.4653356 22.6122861,14.7037627 22.678078,16.0438518 C22.7297716,17.0235031 22.5417948,17.9523234 22.1846388,18.7887238 C21.2306563,21.0160442 19.0125296,22.5964251 16.4137498,22.6333931 L16.4137498,20.3090317 C16.4137498,20.1796438 16.2492701,20.1103289 16.1411834,20.1888858 L11.2678839,23.7100853 C11.1879938,23.7701583 11.1879938,23.8903042 11.2678839,23.9457562 L16.136484,27.4669557 C16.2492701,27.5455126 16.4090504,27.4761976 16.4090504,27.3468097 L16.4090504,25.0178274 C20.3612634,24.9762384 23.6978523,22.3561333 24.755222,18.7887238 C25.0747826,17.7166526 25.1875687,16.5567824 25.0512855,15.3553233 C24.8633087,13.7194904 24.1959909,12.2222875 23.1950143,10.9931024 C22.7814652,10.4847927 22.0436561,10.3785098 21.5126216,10.7620525 C20.9580899,11.1640792 20.8547026,11.9404067 21.2870494,12.4718213 Z" id="Shape" fill="#FFFFFF" fill-rule="nonzero" transform="translate(16.133110, 16.150135) rotate(-315.000000) translate(-16.133110, -16.150135) "></path>
        </g>
    </g>
</svg>