<?xml version="1.0" encoding="UTF-8" standalone="no"?>
<svg width="32px" height="32px" viewBox="0 0 32 32" version="1.1" xmlns="http://www.w3.org/2000/svg" xmlns:xlink="http://www.w3.org/1999/xlink">
    <!-- Generator: Sketch 46 (44423) - http://www.bohemiancoding.com/sketch -->
    <title>Posts Slider</title>
    <desc>Created with Sketch.</desc>
    <defs></defs>
    <g id="Page-1" stroke="none" stroke-width="1" fill="none" fill-rule="evenodd">
        <g id="Posts-Slider">
            <path d="M0,4.99649048 C0,3.34157448 1.33425951,2 2.99610022,2 L29.0038998,2 C30.6586002,2 32,3.3504982 32,4.99649048 L32,27.0035095 C32,28.6584255 30.6657405,30 29.0038998,30 L2.99610022,30 C1.34139976,30 0,28.6495018 0,27.0035095 L0,4.99649048 Z" id="Rectangle" fill="#55779D"></path>
            <rect id="Rectangle" fill="#FA5500" x="3" y="0" width="26" height="32" rx="3"></rect>
            <rect id="Rectangle-10" fill-opacity="0.5" fill="#FFFFFF" x="15" y="25" width="3" height="3" rx="1.5"></rect>
            <rect id="Rectangle-10" fill="#FFFFFF" x="10" y="25" width="3" height="3" rx="1.5"></rect>
            <rect id="Rectangle-10" fill-opacity="0.5" fill="#FFFFFF" x="20" y="25" width="3" height="3" rx="1.5"></rect>
            <path d="M7,7 C7,6.44771525 7.44494629,6 7.99339768,6 L24.0066023,6 C24.5552407,6 25,6.44386482 25,7 C25,7.55228475 24.5550537,8 24.0066023,8 L7.99339768,8 C7.44475929,8 7,7.55613518 7,7 Z M7,12 C7,11.4477153 7.44494629,11 7.99339768,11 L24.0066023,11 C24.5552407,11 25,11.4438648 25,12 C25,12.5522847 24.5550537,13 24.0066023,13 L7.99339768,13 C7.44475929,13 7,12.5561352 7,12 Z M7,17 C7,16.4477153 7.4556644,16 7.99539757,16 L16.0046024,16 C16.5543453,16 17,16.4438648 17,17 C17,17.5522847 16.5443356,18 16.0046024,18 L7.99539757,18 C7.44565467,18 7,17.5561352 7,17 Z" id="Combined-Shape" fill="#FFFFFF"></path>
        </g>
    </g>
</svg>