<?xml version="1.0" encoding="UTF-8" standalone="no"?>
<svg width="32px" height="32px" viewBox="0 0 32 32" version="1.1" xmlns="http://www.w3.org/2000/svg" xmlns:xlink="http://www.w3.org/1999/xlink">
    <!-- Generator: Sketch 46 (44423) - http://www.bohemiancoding.com/sketch -->
    <title>Pinterest</title>
    <desc>Created with Sketch.</desc>
    <defs></defs>
    <g id="Page-1" stroke="none" stroke-width="1" fill="none" fill-rule="evenodd">
        <g id="Pinterest" fill-rule="nonzero">
            <circle id="Oval" fill="#CB2027" cx="15.8864425" cy="15.8867257" r="15.8861593"></circle>
            <path d="M17.168708,21.2734867 C15.9677168,21.1806018 15.4630796,20.5850619 14.5212035,20.0133097 C14.0035398,22.7293451 13.3709027,25.3329558 11.4970619,26.6930973 C10.9179469,22.5880354 12.3460531,19.504708 13.0092743,16.2319292 C11.8787965,14.3289204 13.1452035,10.4985487 15.5296283,11.4424071 C18.4642832,12.6029027 12.988885,18.5183717 16.6646372,19.2572035 C20.5020885,20.0286018 22.0686726,12.5986549 19.6887788,10.1819469 C16.2503363,6.69281416 9.68014159,10.1026549 10.4880708,15.0974867 C10.684885,16.3185841 11.9467611,16.6892743 10.9921416,18.3742301 C8.79150442,17.8868673 8.13507965,16.1512212 8.21946903,13.8373097 C8.35568142,10.0496991 11.6227965,7.39766372 14.899823,7.03065487 C19.0442478,6.56679646 22.9340885,8.55249558 23.4710088,12.4508319 C24.0750442,16.8506903 21.6,21.6155752 17.168708,21.2734867 L17.168708,21.2734867 Z" id="Shape" fill="#F1F2F2"></path>
        </g>
    </g>
</svg>