<?xml version="1.0" encoding="UTF-8" standalone="no"?>
<svg width="30px" height="32px" viewBox="0 0 30 32" version="1.1" xmlns="http://www.w3.org/2000/svg" xmlns:xlink="http://www.w3.org/1999/xlink">
    <!-- Generator: Sketch 46 (44423) - http://www.bohemiancoding.com/sketch -->
    <title>JS</title>
    <desc>Created with Sketch.</desc>
    <defs></defs>
    <g id="Page-1" stroke="none" stroke-width="1" fill="none" fill-rule="evenodd">
        <g id="JS">
            <path d="M30,7.9411255 L30,29.0038998 C30,30.6586002 28.6495018,32 27.0035095,32 L6.99649048,32 C5.34157448,32 4,30.6657405 4,29.0038998 L4,2.99610022 C4,1.34139976 5.3504982,0 6.99649048,0 L22.0588745,0 L30,7.9411255 Z" id="Combined-Shape" fill="#ECECEC"></path>
            <path d="M27.2156214,1.33226763e-15 C28.8711403,1.33226763e-15 29.9251709,1.31013577 29.9251709,2.98254395 L29.9251709,8.02294922 L22,0 L27.2156214,1.33226763e-15 Z" id="Combined-Shape" fill="#D8D8D8" transform="translate(25.962585, 4.011475) rotate(-180.000000) translate(-25.962585, -4.011475) "></path>
            <path d="M0,20.9981014 C0,19.8945804 0.891019158,19 1.99763213,19 L17.0043675,19 C18.1076293,19 19.0019997,19.8867064 19.0019997,20.9981014 L19.0019997,25.0018986 C19.0019997,26.1054196 18.1109805,27 17.0043675,27 L1.99763213,27 C0.894370367,27 0,26.1132936 0,25.0018986 L0,20.9981014 Z" id="Rectangle" fill="#FFC90F"></path>
            <rect id="Rectangle-11" fill="#FAE292" x="4" y="22" width="10" height="2"></rect>
        </g>
    </g>
</svg>