<?xml version="1.0" encoding="UTF-8" standalone="no"?>
<svg width="32px" height="32px" viewBox="0 0 32 32" version="1.1" xmlns="http://www.w3.org/2000/svg" xmlns:xlink="http://www.w3.org/1999/xlink">
    <!-- Generator: Sketch 46 (44423) - http://www.bohemiancoding.com/sketch -->
    <title>Excerpt</title>
    <desc>Created with Sketch.</desc>
    <defs></defs>
    <g id="Page-1" stroke="none" stroke-width="1" fill="none" fill-rule="evenodd">
        <g id="Excerpt">
            <rect id="Rectangle" fill="#ECECEC" x="0" y="0" width="32" height="32" rx="3"></rect>
            <path d="M7,11 C7,10.4477153 7.44494629,10 7.99339768,10 L24.0066023,10 C24.5552407,10 25,10.4438648 25,11 C25,11.5522847 24.5550537,12 24.0066023,12 L7.99339768,12 C7.44475929,12 7,11.5561352 7,11 Z M7,16 C7,15.4477153 7.44494629,15 7.99339768,15 L24.0066023,15 C24.5552407,15 25,15.4438648 25,16 C25,16.5522847 24.5550537,17 24.0066023,17 L7.99339768,17 C7.44475929,17 7,16.5561352 7,16 Z M7,21 C7,20.4477153 7.4556644,20 7.99539757,20 L16.0046024,20 C16.5543453,20 17,20.4438648 17,21 C17,21.5522847 16.5443356,22 16.0046024,22 L7.99539757,22 C7.44565467,22 7,21.5561352 7,21 Z" id="Combined-Shape" fill="#979797"></path>
        </g>
    </g>
</svg>