<?xml version="1.0" encoding="UTF-8" standalone="no"?>
<svg width="32px" height="32px" viewBox="0 0 32 32" version="1.1" xmlns="http://www.w3.org/2000/svg" xmlns:xlink="http://www.w3.org/1999/xlink">
    <!-- Generator: Sketch 46 (44423) - http://www.bohemiancoding.com/sketch -->
    <title>Video</title>
    <desc>Created with Sketch.</desc>
    <defs></defs>
    <g id="Page-1" stroke="none" stroke-width="1" fill="none" fill-rule="evenodd">
        <g id="Video" fill-rule="nonzero" fill="#C71B32">
            <path d="M16,0 C7.1635625,0 0,7.1634375 0,16 C0,24.8365625 7.1635625,32 16,32 C24.8364375,32 32,24.8365625 32,16 C32,7.1634375 24.8364375,0 16,0 Z M21.53,16.848125 L13.53,21.848125 C13.368125,21.9491875 13.1840625,22 13,22 C12.83325,22 12.66625,21.9585 12.515125,21.8745 C12.19725,21.69825 12,21.36375 12,21 L12,11 C12,10.63625 12.19725,10.30175 12.515125,10.1255 C12.833,9.94825 13.2216875,9.959 13.53,10.151875 L21.53,15.151875 C21.82225,15.335 22,15.6553125 22,16 C22,16.3446875 21.82225,16.6650625 21.53,16.848125 Z" id="Shape"></path>
        </g>
    </g>
</svg>