<?xml version="1.0" encoding="UTF-8" standalone="no"?>
<svg width="32px" height="32px" viewBox="0 0 32 32" version="1.1" xmlns="http://www.w3.org/2000/svg" xmlns:xlink="http://www.w3.org/1999/xlink">
    <!-- Generator: Sketch 46 (44423) - http://www.bohemiancoding.com/sketch -->
    <title>Google Fonts</title>
    <desc>Created with Sketch.</desc>
    <defs></defs>
    <g id="Page-1" stroke="none" stroke-width="1" fill="none" fill-rule="evenodd">
        <g id="Google-Fonts">
            <rect id="Rectangle" fill="#FFD238" x="0" y="0" width="32" height="32" rx="5"></rect>
            <path d="M22.8652344,10.1914062 L20.2128906,19.2832031 L19.9394531,20.390625 C19.9121092,20.5273444 19.8984375,20.6276038 19.8984375,20.6914062 C19.8984375,20.8007818 19.9371741,20.896484 20.0146484,20.9785156 C20.0921228,21.0605473 20.1718746,21.1015625 20.2539062,21.1015625 C20.4453135,21.1015625 20.7096337,20.9557306 21.046875,20.6640625 C21.1835944,20.5455723 21.5117162,20.1263057 22.03125,19.40625 L22.5097656,19.6523438 C21.862627,20.8372455 21.1722042,21.7008436 20.4384766,22.2431641 C19.7047489,22.7854845 18.9140667,23.0566406 18.0664062,23.0566406 C17.5468724,23.0566406 17.150392,22.9222019 16.8769531,22.6533203 C16.6035143,22.3844388 16.4667969,22.0449239 16.4667969,21.6347656 C16.4667969,21.2792951 16.6126287,20.6184944 16.9042969,19.6523438 L17.2324219,18.5449219 C16.1751249,20.358733 15.158859,21.6438764 14.1835938,22.4003906 C13.6184868,22.8378928 13.0169303,23.0566406 12.3789062,23.0566406 C11.5403604,23.0566406 10.9342467,22.7125685 10.5605469,22.0244141 C10.1868471,21.3362596 10,20.5592491 10,19.6933594 C10,18.4081967 10.3919232,16.9339276 11.1757812,15.2705078 C11.9596393,13.607088 12.989577,12.2695363 14.265625,11.2578125 C15.3138073,10.4192666 16.2981725,10 17.21875,10 C17.7291692,10 18.1393214,10.1481105 18.4492188,10.4443359 C18.7591161,10.7405614 18.9869784,11.280595 19.1328125,12.0644531 L19.625,10.3828125 L22.8652344,10.1914062 Z M18.4902344,12.7890625 C18.4902344,12.0507776 18.3763032,11.5175798 18.1484375,11.1894531 C17.9843742,10.9615874 17.7610691,10.8476562 17.4785156,10.8476562 C17.1959621,10.8476562 16.9042984,10.9843736 16.6035156,11.2578125 C15.9928355,11.8229195 15.3343134,12.9690669 14.6279297,14.6962891 C13.9215459,16.4235112 13.5683594,17.9160093 13.5683594,19.1738281 C13.5683594,19.6569035 13.6481112,20.0055328 13.8076172,20.2197266 C13.9671232,20.4339203 14.1425772,20.5410156 14.3339844,20.5410156 C14.7441427,20.5410156 15.1588521,20.3040388 15.578125,19.8300781 C16.1796905,19.1555956 16.7220028,18.330734 17.2050781,17.3554688 C18.0618532,15.6419185 18.4902344,14.1197983 18.4902344,12.7890625 Z" id="a" fill="#FFFFFF"></path>
        </g>
    </g>
</svg>