<?xml version="1.0" encoding="UTF-8" standalone="no"?>
<svg width="32px" height="32px" viewBox="0 0 32 32" version="1.1" xmlns="http://www.w3.org/2000/svg" xmlns:xlink="http://www.w3.org/1999/xlink">
    <!-- Generator: Sketch 46 (44423) - http://www.bohemiancoding.com/sketch -->
    <title>Facebook</title>
    <desc>Created with Sketch.</desc>
    <defs></defs>
    <g id="Page-1" stroke="none" stroke-width="1" fill="none" fill-rule="evenodd">
        <g id="Facebook">
            <rect id="Rectangle" fill="#5571B9" x="0" y="0" width="32" height="32" rx="5"></rect>
            <path d="M24.9506387,7.00394851 L22.4897312,7 C19.724986,7 17.9382862,8.83309477 17.9382862,11.6702951 L17.9382862,13.8236138 L15.4639538,13.8236138 C15.2501421,13.8236138 15.077,13.9969533 15.077,14.210765 L15.077,17.3306785 C15.077,17.5444902 15.2503395,17.7176323 15.4639538,17.7176323 L17.9382862,17.7176323 L17.9382862,25.5901672 C17.9382862,25.8039789 18.1114283,25.977121 18.32524,25.977121 L21.55354,25.977121 C21.7673517,25.977121 21.9404938,25.8037815 21.9404938,25.5901672 L21.9404938,17.7176323 L24.8335655,17.7176323 C25.0473772,17.7176323 25.2205192,17.5444902 25.2205192,17.3306785 L25.2217038,14.210765 C25.2217038,14.1081038 25.1808367,14.009786 25.1083816,13.9371334 C25.0359265,13.8644809 24.9372138,13.8236138 24.8345526,13.8236138 L21.9404938,13.8236138 L21.9404938,11.9982187 C21.9404938,11.1208602 22.1495673,10.6754685 23.2924629,10.6754685 L24.9502439,10.6748763 C25.1638582,10.6748763 25.3370002,10.5015368 25.3370002,10.2879225 L25.3370002,7.39090228 C25.3370002,7.17748543 25.1640556,7.00434336 24.9506387,7.00394851 Z" id="Shape" fill="#FFFFFF" fill-rule="nonzero"></path>
        </g>
    </g>
</svg>