<svg width="20px" height="19.344px" viewBox="0 0 92 89" version="1.1" xmlns="http://www.w3.org/2000/svg" xmlns:xlink="http://www.w3.org/1999/xlink">
    <!-- Generator: Sketch 48 (47235) - http://www.bohemiancoding.com/sketch -->
    <title>gs-logo-mark</title>
    <desc>Created with Sketch.</desc>
    <defs></defs>
    <g id="Page-1" stroke="none" stroke-width="1" fill="none" fill-rule="evenodd">
        <g id="gs-logo-full-horz">
            <g id="gs-logo-mark">
                <path d="M85.3467,4.2641 L54.1567,0.9171 L45.6747,0.0071 L45.6747,9.9611 C62.1747,9.9611 75.5507,23.3371 75.5507,39.8361 C75.5507,56.3361 62.1747,69.7121 45.6747,69.7121 L45.6747,88.4531 L45.6757,88.4531 C71.8797,82.1231 91.3497,58.5351 91.3497,30.3851 C91.3497,21.0171 89.1897,12.1561 85.3467,4.2641" id="right-side-shield" fill="#BBBBBB"></path>
                <path d="M45.645,0.0044 L45.639,0.0044 L37.187,0.9194 L5.988,4.2954 C2.154,12.1794 0,21.0304 0,30.3854 C0,58.5344 19.471,82.1234 45.675,88.4534 L45.675,69.7124 C29.176,69.7124 15.8,56.3364 15.8,39.8364 C15.8,38.2944 15.917,36.7794 16.142,35.3014 C17.43,26.8484 22.261,19.5624 29.071,14.9994 C33.82,11.8184 39.53,9.9614 45.675,9.9614 L45.675,0.0074 L45.645,0.0044 Z" id="left-side-shield" fill="#000000"></path>
                <path d="M45.6748,9.9614 C39.5298,9.9614 33.8198,11.8184 29.0708,14.9994 C29.3688,14.9824 29.6638,14.9544 29.9668,14.9544 C36.5088,14.9544 42.0528,19.1844 44.0448,25.0544 C44.5808,24.9954 45.1238,24.9614 45.6748,24.9614 C53.8908,24.9614 60.5508,31.6214 60.5508,39.8364 C60.5508,48.0524 53.8908,54.7124 45.6748,54.7124 C39.1318,54.7124 33.5888,50.4824 31.5968,44.6124 C31.0608,44.6714 30.5178,44.7064 29.9668,44.7064 C23.6838,44.7064 18.3228,40.8074 16.1418,35.3014 C15.9168,36.7794 15.7998,38.2944 15.7998,39.8364 C15.7998,56.3364 29.1758,69.7124 45.6748,69.7124 C62.1748,69.7124 75.5508,56.3364 75.5508,39.8364 C75.5508,23.3374 62.1748,9.9614 45.6748,9.9614" id="iris" fill="#DDDDDD"></path>
                <path d="M29.9663,44.7065 C30.5183,44.7065 31.0603,44.6715 31.5963,44.6125 C31.0873,43.1125 30.7993,41.5095 30.7993,39.8365 C30.7993,32.1725 36.5963,25.8665 44.0443,25.0545 C42.0533,19.1845 36.5093,14.9545 29.9663,14.9545 C29.6643,14.9545 29.3693,14.9815 29.0713,14.9995 C22.2603,19.5615 17.4293,26.8485 16.1423,35.3015 C18.3233,40.8075 23.6843,44.7065 29.9663,44.7065" id="outer-highlight" fill="#FEFEFE"></path>
                <path d="M44.8423,29.8305 C44.8423,37.4945 39.0443,43.8005 31.5963,44.6125 C33.5883,50.4825 39.1323,54.7125 45.6753,54.7125 C53.8903,54.7125 60.5503,48.0525 60.5503,39.8365 C60.5503,31.6215 53.8903,24.9605 45.6753,24.9605 C45.1233,24.9605 44.5803,24.9955 44.0443,25.0545 C44.5533,26.5555 44.8423,28.1575 44.8423,29.8305" id="pupil" fill="#000000"></path>
                <path d="M44.8423,29.8305 C44.8423,28.1575 44.5533,26.5555 44.0443,25.0545 C36.5963,25.8665 30.7993,32.1725 30.7993,39.8365 C30.7993,41.5095 31.0873,43.1125 31.5963,44.6125 C39.0443,43.8005 44.8423,37.4945 44.8423,29.8305" id="inner-highlight" fill="#AAAAAA"></path>
            </g>
        </g>
    </g>
</svg>
