<svg version="1.0" xmlns="http://www.w3.org/2000/svg"
 width="150.000000pt" height="126.000000pt" viewBox="0 0 150.000000 126.000000"
 preserveAspectRatio="xMidYMid meet">
<g transform="translate(0.000000,126.000000) scale(0.050000,-0.050000)"
fill="#ffffff" stroke="none">
<path d="M1172 2010 l-315 -491 -124 98 c-68 53 -256 202 -417 330 -162 128
-300 233 -305 233 -6 0 -11 -490 -11 -1090 l0 -1090 1500 0 1500 0 0 1090 c0
600 -5 1090 -11 1090 -5 0 -143 -105 -305 -233 -161 -128 -349 -277 -417 -330
l-124 -98 -315 491 c-173 269 -321 490 -328 490 -7 0 -155 -221 -328 -490z
m499 -400 c85 -132 200 -314 257 -405 57 -92 113 -161 126 -156 18 7 369 273
601 456 20 16 25 -101 25 -573 l0 -592 -1180 0 -1180 0 0 589 0 589 324 -248
325 -249 60 97 c34 53 151 242 261 420 110 177 206 320 213 317 8 -3 84 -113
168 -245z"/>
</g>
</svg>
