<?xml version="1.0" encoding="UTF-8" standalone="no"?>
<svg width="66px" height="50px" viewBox="0 0 66 50" version="1.1" xmlns="http://www.w3.org/2000/svg" xmlns:xlink="http://www.w3.org/1999/xlink">
    <!-- Generator: Sketch 43.2 (39069) - http://www.bohemiancoding.com/sketch -->
    <title>Fill 41</title>
    <desc>Created with Sketch.</desc>
    <defs></defs>
    <g id="Page-1" stroke="none" stroke-width="1" fill="#ffffff" fill-rule="evenodd">
        <path d="M51.3446356,9.04135214 C46.8606356,8.68235214 44.9736356,9.78835214 42.8356356,10.0803521 C45.0046356,11.2153521 47.9606356,12.1793521 51.5436356,11.9703521 C48.2436356,13.2663521 42.8866356,12.8233521 39.1886356,10.5643521 C38.2256356,9.97535214 37.2136356,9.04535214 36.4556356,8.30235214 C33.4586356,5.58335214 31.2466356,0.401352144 21.6826356,0.0183521443 C9.68663559,-0.456647856 0.464635589,8.34735214 0.0156355886,19.6453521 C-0.435364411,30.9433521 8.92563559,40.4883521 20.9226356,40.9633521 C21.0806356,40.9713521 21.2386356,40.9693521 21.3946356,40.9693521 C24.5316356,40.7853521 28.6646356,39.5333521 31.7776356,37.6143521 C30.1426356,39.9343521 24.0316356,42.3893521 20.8506356,43.1673521 C21.1696356,45.6943521 22.5216356,46.8693521 23.6306356,47.6643521 C26.0896356,49.4243521 29.0086356,46.9343521 35.7406356,47.0583521 C39.4866356,47.1273521 43.3506356,48.0593521 46.4746356,49.8083521 L49.7806356,38.2683521 C58.1826356,38.3983521 65.1806356,32.2053521 65.4966356,24.2503521 C65.8176356,16.1623521 59.9106356,9.72335214 51.3446356,9.04135214 L51.3446356,9.04135214 Z" id="Fill-41" fill="#ffffff"></path>
    </g>
</svg>