<svg width="256" height="256" viewBox="0 0 256 256" xmlns="http://www.w3.org/2000/svg"><defs><linearGradient x1="-12.284%" y1="39.14%" x2="60.11%" y2="103.141%" id="a"><stop stop-color="#37474F" stop-opacity=".2" offset="0%"/><stop stop-color="#37474F" stop-opacity=".02" offset="100%"/></linearGradient></defs><g fill="none" fill-rule="evenodd"><path d="M60.632 20.21v60.632l114.526 116.21h60.631c11.116 0 20.211-9.094 20.211-20.21V20.211C256 9.095 246.905 0 235.79 0H80.841c-11.116 0-20.21 9.095-20.21 20.21z" fill="#BDBDBD"/><path fill="url(#a)" d="M175.158 80.842v116.21H288z"/><path d="M80.842 197.053H235.79c11.116 0 20.211-9.095 20.211-20.21v-1.685c0 11.116-9.095 20.21-20.21 20.21H80.841c-11.116 0-20.21-9.094-20.21-20.21v1.684c0 11.116 9.094 20.21 20.21 20.21z" fill="#8D8D8D" opacity=".2"/><path d="M175.158 80.842H20.21C9.096 80.842 0 89.937 0 101.052V235.79C0 246.905 9.095 256 20.21 256h134.737c11.116 0 20.21-9.095 20.21-20.21V80.841z" fill="#D0D0D0"/><path d="M235.79 0H80.841c-11.116 0-20.21 9.095-20.21 20.21v1.685c0-11.116 9.094-20.21 20.21-20.21H235.79c11.116 0 20.211 9.094 20.211 20.21V20.21C256 9.095 246.905 0 235.79 0z" fill="#FFF" opacity=".2"/><path d="M20.21 256h134.737c11.116 0 20.21-9.095 20.21-20.21v-1.685c0 11.116-9.094 20.21-20.21 20.21H20.211C9.095 254.316 0 245.222 0 234.106v1.684C0 246.905 9.095 256 20.21 256z" fill="#B1B1B1" opacity=".2"/><path d="M175.158 82.526H20.21C9.095 82.526 0 91.621 0 102.736v-1.683c0-11.116 9.095-20.21 20.21-20.21h154.948v1.683z" fill="#FFF" opacity=".2"/></g></svg>