<svg height="40" viewBox="0 0 40 40" width="40" xmlns="http://www.w3.org/2000/svg"><g fill="none" transform="translate(.422 .422)"><path d="M16.091 30.725l14.461-14.543 6.817 6.856L22.908 37.58z" fill="#D6D6D6"/><path d="M22.91 8.496L16.09 1.64 1.63 16.182a4.867 4.867 0 000 6.854L16.09 37.58l6.817-6.855L11.856 19.61z" fill="#bcbcbc"/><ellipse cx="19.5" cy="34.153" fill="#a5a5a5" rx="4.82" ry="4.847"/><path d="M37.37 16.182L22.91 1.639a4.801 4.801 0 00-6.817 0 4.867 4.867 0 000 6.855l14.46 14.542a4.801 4.801 0 006.817 0 4.867 4.867 0 000-6.854z" fill="#D6D6D6"/></g></svg>