<?xml version="1.0" encoding="UTF-8" standalone="no"?>
<!DOCTYPE svg PUBLIC "-//W3C//DTD SVG 1.1//EN" "http://www.w3.org/Graphics/SVG/1.1/DTD/svg11.dtd">
<svg width="100%" height="100%" viewBox="0 0 32 32" version="1.1" xmlns="http://www.w3.org/2000/svg" xmlns:xlink="http://www.w3.org/1999/xlink" xml:space="preserve" style="fill-rule:evenodd;clip-rule:evenodd;stroke-linejoin:round;stroke-miterlimit:1.41421;">
    <g id="logo-affwp" transform="matrix(0.27361,0,0,0.27361,0.5,1.58076)">
        <path d="M91.4,61.6C90.4,61.6 89.4,61.7 88.4,61.8L73.9,35.9C77.1,32.1 79,27.2 79,21.9C79,9.8 69.2,0 57.2,0C45.2,0 35.3,9.8 35.3,21.9C35.3,27.1 37.1,31.9 40.2,35.7L25.2,61.9C24.1,61.7 23,61.6 21.9,61.6C9.8,61.6 0,71.4 0,83.5C0,95.6 9.8,105.4 21.9,105.4C34,105.4 43.8,95.6 43.8,83.5C43.8,78.3 42,73.5 38.9,69.7L53.9,43.5C55,43.7 56.1,43.8 57.2,43.8C58.2,43.8 59.2,43.7 60.2,43.6L74.6,69.5C71.4,73.3 69.5,78.2 69.5,83.5C69.5,95.6 79.3,105.4 91.4,105.4C103.5,105.4 113.3,95.6 113.3,83.5C113.3,71.4 103.5,61.6 91.4,61.6ZM57.2,14.4C61.3,14.4 64.7,17.8 64.7,21.9C64.7,26 61.3,29.4 57.2,29.4C53.1,29.4 49.7,26 49.7,21.9C49.7,17.7 53,14.4 57.2,14.4ZM21.9,90.9C17.8,90.9 14.4,87.5 14.4,83.4C14.4,79.3 17.8,75.9 21.9,75.9C26,75.9 29.4,79.3 29.4,83.4C29.4,87.6 26,90.9 21.9,90.9ZM91.4,90.9C87.3,90.9 83.9,87.5 83.9,83.4C83.9,79.3 87.3,75.9 91.4,75.9C95.5,75.9 98.9,79.3 98.9,83.4C98.9,87.6 95.5,90.9 91.4,90.9Z" style="fill:rgb(227,79,67);fill-rule:nonzero;"/>
    </g>
</svg>
