<?xml version="1.0" standalone="no"?>
<!DOCTYPE svg PUBLIC "-//W3C//DTD SVG 1.1//EN" "http://www.w3.org/Graphics/SVG/1.1/DTD/svg11.dtd" >
<svg>
<metadata>
Created by FontForge 20110222 at Mon Dec  9 11:03:07 2013
 By www-data
Copyright (c) 2013 by Renzler Design. All rights reserved.
</metadata>
<defs>
<font id="loveloblack" horiz-adv-x="1337" >
<font-face units-per-em="2048" ascent="1536" descent="-512" />
<missing-glyph horiz-adv-x="581" />
<glyph horiz-adv-x="2048" />
<glyph horiz-adv-x="2048" />
<glyph unicode="&#xd;" horiz-adv-x="2048" />
<glyph unicode=" "  horiz-adv-x="581" />
<glyph unicode="&#x09;" horiz-adv-x="581" />
<glyph unicode="&#xa0;" horiz-adv-x="581" />
<glyph unicode="!" horiz-adv-x="565" d="M121 150q0 45 18.5 80t48 53t65.5 26.5t72 0t65.5 -26.5t48 -53t18.5 -80t-18.5 -80t-48 -53t-65.5 -26.5t-72 0t-65.5 26.5t-48 53t-18.5 80zM131 922v542h315v-542q-28 -379 -40 -484h-232q-3 28 -43 484z" />
<glyph unicode="&#x22;" horiz-adv-x="798" d="M74 1012v450h266l-31 -450h-235zM483 1012v450h267l-31 -450h-236z" />
<glyph unicode="$" horiz-adv-x="1083" d="M96 94l37 307q59 -42 126.5 -69.5t120 -35.5t101.5 -12t70 1q66 5 111.5 47t39.5 100q-4 58 -42.5 91.5t-108.5 58.5q-96 35 -166 71.5t-135 89.5t-99 124.5t-34 160.5q0 155 83 271t222 157v197h260v-185q97 -14 213 -55l-37 -283q-167 68 -299 62q-74 -4 -112 -51.5 t-33 -112.5q5 -56 47 -88.5t117 -58.5q91 -34 162.5 -74t133 -94t94.5 -125.5t33 -155.5q0 -155 -85 -270t-234 -156v-199h-260v187q-170 19 -326 100z" />
<glyph unicode="'" horiz-adv-x="409" d="M74 1012v450h266l-31 -450h-235z" />
<glyph unicode="," horiz-adv-x="491" d="M31 -238l86 463h303l-160 -463h-229z" />
<glyph unicode="-" horiz-adv-x="929" d="M78 563v273h745v-273h-745z" />
<glyph unicode="." horiz-adv-x="499" d="M62.5 115q-8.5 35 0 70.5t27 64.5t54.5 47t81 18q54 0 93 -24.5t56 -61t17 -79t-18 -79t-57 -61t-91 -24.5q-45 0 -81 18t-54.5 47t-27 64z" />
<glyph unicode="/" horiz-adv-x="864" d="M0 0l575 1464h304l-576 -1464h-303z" />
<glyph unicode="0" horiz-adv-x="1222" d="M106 733q0 128 17.5 238.5t56 206t96 163t142.5 106t190 38.5q133 0 232 -58t157.5 -163t86.5 -237.5t28 -293.5t-28 -294t-86.5 -237.5t-157.5 -163t-232 -58.5q-131 0 -229.5 58.5t-157 163t-87 237.5t-28.5 294zM391 733q0 -140 19.5 -242.5t69.5 -168.5t128 -66 q60 0 104 36.5t69 103.5t36.5 150.5t11.5 186.5t-11.5 186t-36.5 150t-69 104t-104 37q-78 0 -128 -66.5t-69.5 -169t-19.5 -241.5z" />
<glyph unicode="1" horiz-adv-x="757" d="M61 1169v293h531v-1462h-291v1169h-240z" />
<glyph unicode="2" horiz-adv-x="1067" d="M12 0l547 868q35 49 53.5 91.5t19.5 60.5l1 18q0 61 -43.5 103t-108.5 45q-87 5 -190 -36t-148 -81l-71 283q86 62 207 99.5t227 33.5q105 -6 190.5 -39.5t141 -87t86 -125t31 -151t-30 -167.5t-90.5 -172l-289 -446h434v-297h-967z" />
<glyph unicode="3" horiz-adv-x="1024" d="M59 53l33 297q40 -20 105 -37.5t142 -25t143.5 -0.5t110.5 45t42 104q-2 63 -49.5 112.5t-112.5 49.5h-141l-6 299h141q67 0 109.5 37.5t41.5 99.5q-2 75 -60.5 116t-138.5 44.5t-157 -9t-123 -36.5l-45 276q74 30 177.5 47t207.5 13q197 -12 322.5 -137.5t130.5 -313.5 q2 -90 -34 -160t-122 -126q83 -48 125.5 -133.5t44.5 -178.5q5 -191 -109 -314.5t-323 -133.5q-106 -6 -245 14.5t-210 50.5z" />
<glyph unicode="4" horiz-adv-x="1105" d="M-8 369l416 1095h307l-299 -802h186v247l293 197v-444h160v-293h-160v-367h-293v367h-610z" />
<glyph unicode="5" horiz-adv-x="1075" d="M82 53l27 291q131 -45 235 -62t168 -9t106 33t58.5 58t15.5 72q0 89 -47 137.5t-163.5 76t-344.5 44.5v770h746v-280h-451v-256q143 -13 243.5 -44.5t172.5 -90t106.5 -148t34.5 -215.5q0 -186 -119 -309t-321 -133q-85 -4 -212.5 9t-254.5 56z" />
<glyph unicode="6" horiz-adv-x="1038" d="M82.5 455.5q5.5 95.5 44.5 189.5l340 817h317l-256 -618q195 2 310.5 -110t115.5 -314q0 -121 -51 -219.5t-153.5 -158.5t-239.5 -58q-103 2 -187.5 41t-137.5 104.5t-80.5 148t-22 178zM358 426q1 -56 31.5 -95t75 -49t89 -1.5t77 46.5t35.5 95q2 59 -29 100t-77 51 t-92 1.5t-78.5 -49t-31.5 -99.5z" />
<glyph unicode="7" horiz-adv-x="999" d="M33 1186v276h1005l-598 -1462h-315l498 1186h-590z" />
<glyph unicode="8" horiz-adv-x="1069" d="M78 432q0 198 139 301q-139 106 -139 301q0 106 37.5 193t100 141t140.5 83.5t162 29.5q67 0 131 -18t121 -55.5t100 -89.5t68 -125.5t25 -158.5q0 -196 -140 -301q142 -105 142 -301q0 -142 -59 -245t-157.5 -153t-224.5 -50t-225.5 49.5t-160 152.5t-60.5 246zM358 432 q0 -65 47 -111.5t115 -46.5t114 46.5t46 111.5q0 66 -46 112t-114 46q-69 0 -115.5 -46t-46.5 -112zM360 1032q0 -72 47.5 -112.5t112.5 -40.5t111.5 40.5t46.5 112.5q0 74 -46.5 114t-111.5 40t-112.5 -40t-47.5 -114z" />
<glyph unicode="9" horiz-adv-x="1048" d="M82 1040q0 188 119.5 314.5t324.5 122.5q103 -2 187.5 -40.5t137.5 -104t80.5 -149t21.5 -179t-44 -189.5l-342 -815h-315l254 616q-193 -2 -308.5 110.5t-115.5 313.5zM377 1038q-2 -56 27.5 -95t73 -49t87.5 -2t75 46t30 94q0 54 -29.5 91.5t-71.5 47t-85 1.5t-74 -44 t-33 -90z" />
<glyph unicode=":" horiz-adv-x="473" d="M62.5 115q-8.5 35 0 70.5t27 64.5t54.5 47t81 18q54 0 93 -24.5t56 -61t17 -79t-18 -79t-57 -61t-91 -24.5q-45 0 -81 18t-54.5 47t-27 64zM62.5 713q-8.5 35 0 70.5t27 64.5t54.5 47t81 18q46 0 82 -18t54.5 -47t27 -64.5t-0.5 -70.5t-28 -64t-54.5 -47t-80.5 -18 t-81 18t-54.5 47t-27 64z" />
<glyph unicode=";" horiz-adv-x="473" d="M8 -250l86 463h303l-159 -463h-230zM62.5 713q-8.5 35 0 70.5t27 64.5t54.5 47t81 18q46 0 82 -18t54.5 -47t27 -64.5t-0.5 -70.5t-28 -64t-54.5 -47t-80.5 -18t-81 18t-54.5 47t-27 64z" />
<glyph unicode="?" horiz-adv-x="983" d="M45 1044q-11 212 133 337q117 102 288 110q170 8 297 -82q148 -105 160 -297q1 -13 1 -27q1 -78 -27.5 -147t-71 -124.5t-85.5 -110t-78.5 -127.5t-43.5 -154h-290q5 89 54.5 194.5t105 182t101.5 147t46 98.5q11 104 -67 150t-160.5 2.5t-81.5 -152.5h-281zM305 141 q0 -45 19 -80t49 -53t66.5 -26.5t73 0t66.5 26.5t49 53t19 80t-19 81t-49 54.5t-66.5 27t-73 0t-66.5 -27t-49 -54.5t-19 -81z" />
<glyph unicode="A" d="M33 0l616 1518h31l616 -1518h-329l-60 158h-485l-57 -158h-332zM528 432h271l-133 381z" />
<glyph unicode="B" horiz-adv-x="1271" d="M164 0v1466h579q193 0 307 -124q109 -119 109 -304v-16q-3 -90 -36.5 -167t-98.5 -122q71 -49 111.5 -127.5t40.5 -165.5q0 -184 -127 -312t-306 -128h-579zM459 293h176h84q63 0 105 42.5t42 104.5t-42 104t-105 42h-260v-293zM459 879h176h84q61 0 98 42.5t37 104.5 q0 63 -37 105.5t-98 42.5h-260v-295z" />
<glyph unicode="C" horiz-adv-x="1232" d="M97 739.5q0 139.5 48.5 273t138 238t234.5 168.5t324 64q157 0 288 -58l-34 -301q-36 19 -63.5 30.5t-79.5 22.5t-111 11q-105 0 -190 -38.5t-137 -101t-80.5 -143t-28.5 -164t28.5 -164t80.5 -143t137 -101t190 -38.5q159 0 282 65l39 -303q-67 -28 -155.5 -44.5 t-165.5 -16.5q-180 0 -325 64t-234 168.5t-137.5 238t-48.5 273z" />
<glyph unicode="D" horiz-adv-x="1441" d="M164 0v1464h436q176 0 319 -63t230.5 -166t135 -234.5t47.5 -268.5t-47.5 -268.5t-135 -234.5t-230.5 -166t-319 -63h-436zM457 293h143q103 0 186 37.5t134.5 99.5t79 141t27.5 161t-27.5 161t-79 141t-134.5 99.5t-186 37.5h-143v-878z" />
<glyph unicode="E" horiz-adv-x="1032" d="M164 0v1464h733v-293h-440v-292h385v-293h-385v-293h465v-293h-758z" />
<glyph unicode="F" horiz-adv-x="972" d="M164 0v1464h731v-293h-438v-292h372v-293h-372v-586h-293z" />
<glyph unicode="G" horiz-adv-x="1378" d="M106 842q11 122 70 233.5t145 199t221.5 142t299.5 60.5h29l43 -1q36 -1 68 -5.5t59 -9.5t52.5 -11.5t40.5 -11t32 -10t18 -5.5l-35 -297q-124 54 -285 54h-22q-122 -4 -216 -55.5t-141.5 -131t-68.5 -173.5q-11 -45 -11 -90q0 -49 13 -99q24 -94 73 -171.5t142 -126 t209 -48.5q28 0 82 8v440h297v-643q-176 -98 -379 -98q-156 0 -288 49.5t-219 133.5t-148.5 193.5t-76.5 231.5q-9 69 -9 139q0 52 5 103z" />
<glyph unicode="H" horiz-adv-x="1353" d="M164 0v1464h293v-585h438v585h293v-1464h-293v586h-438v-586h-293z" />
<glyph unicode="I" horiz-adv-x="622" d="M164 0v1464h293v-1464h-293z" />
<glyph unicode="J" horiz-adv-x="952" d="M66 0v293h280q63 0 105.5 42.5t42.5 104.5v1024h297v-1024q0 -440 -437 -440h-288z" />
<glyph unicode="K" horiz-adv-x="1236" d="M164 0v1464h293v-583l368 583h342l-475 -723l516 -741h-362l-389 573v-573h-293z" />
<glyph unicode="L" horiz-adv-x="1009" d="M164 0v1464h293v-1171h465v-293h-758z" />
<glyph unicode="M" horiz-adv-x="1671" d="M164 0v1487h94l578 -643l577 643h92v-1487h-297l2 817l-374 -393l-375 393v-817h-297z" />
<glyph unicode="N" horiz-adv-x="1441" d="M164 0v1495h78l739 -860v827h295v-1493h-78l-741 828v-797h-293z" />
<glyph unicode="O" horiz-adv-x="1734" d="M111 734.5q0 141.5 49 277t140 241.5t238.5 171t329.5 65t329.5 -65t238.5 -171t140 -241.5t49 -277t-49 -277t-140 -241.5t-238.5 -171t-329.5 -65t-329.5 65t-238.5 171t-140 241.5t-49 277zM428 735.5q0 -84.5 28.5 -166t81.5 -145t138.5 -102.5t191.5 -39t191.5 39 t138.5 102.5t81.5 145t28.5 166t-28.5 166t-81.5 145t-138.5 102.5t-191.5 39t-191.5 -39t-138.5 -102.5t-81.5 -145t-28.5 -166z" />
<glyph unicode="P" horiz-adv-x="1234" d="M164 0v1462h575q103 0 186 -39t134 -102.5t79 -144.5q28 -80 28 -163q0 -86 -28 -168q-28 -81 -79 -144.5t-134 -102.5t-186 -39h-282v-559h-293zM457 844h258q47 0 81.5 24t50 60.5t15.5 79t-15.5 79t-50 60.5t-81.5 24h-258v-327z" />
<glyph unicode="Q" horiz-adv-x="1718" d="M113 734.5q0 112.5 28.5 218.5t89.5 200.5t146.5 165.5t207.5 112.5t265 41.5q133 0 248 -36t198.5 -98t146.5 -146.5t97 -180t44 -200.5q5 -42 5 -83q0 -62 -9 -121q-16 -101 -58 -197t-107 -173l193 -246h-324l-72 84q-157 -80 -362 -80q-143 0 -265 41.5t-207.5 112.5 t-146.5 165.5t-89.5 200.5t-28.5 218.5zM421 733.5q0 -82.5 28 -162t79.5 -142t135 -100.5t186.5 -38q93 0 166 28l-246 302h346l103 -132q37 65 52 142q10 51 10 102q0 25 -3 51q-7 75 -39 146.5t-83 125.5t-130.5 87t-175.5 33q-103 0 -186.5 -38t-135 -100.5t-79.5 -142 t-28 -162z" />
<glyph unicode="R" horiz-adv-x="1255" d="M164 0v1464h577q95 0 173.5 -32t130 -85t84.5 -122.5t41 -143.5q3 -29 4 -57q0 -46 -8 -93q-14 -76 -48.5 -140t-94.5 -114t-138 -73l340 -604h-332l-295 559h-141v-559h-293zM457 844h258q48 0 82.5 24t50.5 60.5t16 79t-16 79t-50.5 60.5t-82.5 24h-258v-327z" />
<glyph unicode="S" horiz-adv-x="1083" d="M96 94l37 307q59 -42 126.5 -69.5t120 -35.5t101.5 -12q22 -2 38 -1q20 0 32 2q65 5 111 47q40 37 41 87q0 7 -1 13q-4 58 -42.5 91.5t-108.5 58.5q-96 35 -166 71.5t-135 89.5t-99 124.5t-34 160.5q0 186 115.5 312t297.5 135q18 1 37 1q149 0 328 -63l-37 -283 q-153 62 -277 62h-22q-74 -4 -112 -52q-34 -42 -34 -97q0 -7 1 -15q5 -56 47 -88.5t117 -58.5q91 -34 162.5 -74t133 -94t94.5 -125.5t33 -155.5q0 -186 -120 -310t-322 -134q-18 -1 -38 -1q-73 0 -169 17q-124 22 -256 90z" />
<glyph unicode="T" horiz-adv-x="1120" d="M41 1171v291h1022v-291h-365v-1171h-292v1171h-365z" />
<glyph unicode="U" horiz-adv-x="1374" d="M156 510v954h293v-952q0 -56 20.5 -100.5t54 -72.5t76 -43t87 -15t87 15t76 43t54 72.5t20.5 100.5v952h290v-954q0 -126 -45.5 -228t-120 -164.5t-169.5 -96.5t-194 -34t-194 34t-169.5 96.5t-120 164.5t-45.5 228z" />
<glyph unicode="V" horiz-adv-x="1304" d="M12 1464h338l195 -487l106 -303l105 293l196 497h338l-606 -1495h-66z" />
<glyph unicode="W" horiz-adv-x="1863" d="M12 1464h330l295 -747l287 733h14l287 -733l295 747h329l-598 -1489h-53l-268 650l-266 -656h-52z" />
<glyph unicode="X" horiz-adv-x="1292" d="M12 0l461 780l-397 686h354l221 -407l219 407h347l-400 -686l461 -780h-346l-281 502l-282 -502h-357z" />
<glyph unicode="Y" horiz-adv-x="1329" d="M12 1464h357l299 -503l299 503h358l-512 -805v-659h-291v659z" />
<glyph unicode="Z" horiz-adv-x="1095" d="M45 0q44 98 234.5 525t293.5 655h-450v284h887q-78 -173 -167 -369.5t-195.5 -431t-166.5 -368.5h545v-295h-981z" />
<glyph unicode="`" horiz-adv-x="718" d="M123 1462h381l108 -288h-282z" />
<glyph unicode="a" d="M33 0l616 1518h31l616 -1518h-329l-60 158h-485l-57 -158h-332zM528 432h271l-133 381z" />
<glyph unicode="b" horiz-adv-x="1271" d="M164 0v1466h579q193 0 307 -124q109 -119 109 -304v-16q-3 -90 -36.5 -167t-98.5 -122q71 -49 111.5 -127.5t40.5 -165.5q0 -184 -127 -312t-306 -128h-579zM459 293h176h84q63 0 105 42.5t42 104.5t-42 104t-105 42h-260v-293zM459 879h176h84q61 0 98 42.5t37 104.5 q0 63 -37 105.5t-98 42.5h-260v-295z" />
<glyph unicode="c" horiz-adv-x="1232" d="M97 739.5q0 139.5 48.5 273t138 238t234.5 168.5t324 64q157 0 288 -58l-34 -301q-36 19 -63.5 30.5t-79.5 22.5t-111 11q-105 0 -190 -38.5t-137 -101t-80.5 -143t-28.5 -164t28.5 -164t80.5 -143t137 -101t190 -38.5q159 0 282 65l39 -303q-67 -28 -155.5 -44.5 t-165.5 -16.5q-180 0 -325 64t-234 168.5t-137.5 238t-48.5 273z" />
<glyph unicode="d" horiz-adv-x="1441" d="M164 0v1464h436q176 0 319 -63t230.5 -166t135 -234.5t47.5 -268.5t-47.5 -268.5t-135 -234.5t-230.5 -166t-319 -63h-436zM457 293h143q103 0 186 37.5t134.5 99.5t79 141t27.5 161t-27.5 161t-79 141t-134.5 99.5t-186 37.5h-143v-878z" />
<glyph unicode="e" horiz-adv-x="1032" d="M164 0v1464h733v-293h-440v-292h385v-293h-385v-293h465v-293h-758z" />
<glyph unicode="f" horiz-adv-x="972" d="M164 0v1464h731v-293h-438v-292h372v-293h-372v-586h-293z" />
<glyph unicode="g" horiz-adv-x="1378" d="M106 842q11 122 70 233.5t145 199t221.5 142t299.5 60.5h29l43 -1q36 -1 68 -5.5t59 -9.5t52.5 -11.5t40.5 -11t32 -10t18 -5.5l-35 -297q-124 54 -285 54h-22q-122 -4 -216 -55.5t-141.5 -131t-68.5 -173.5q-11 -45 -11 -90q0 -49 13 -99q24 -94 73 -171.5t142 -126 t209 -48.5q28 0 82 8v440h297v-643q-176 -98 -379 -98q-156 0 -288 49.5t-219 133.5t-148.5 193.5t-76.5 231.5q-9 69 -9 139q0 52 5 103z" />
<glyph unicode="h" horiz-adv-x="1353" d="M164 0v1464h293v-585h438v585h293v-1464h-293v586h-438v-586h-293z" />
<glyph unicode="i" horiz-adv-x="622" d="M164 0v1464h293v-1464h-293z" />
<glyph unicode="j" horiz-adv-x="952" d="M66 0v293h280q63 0 106.5 42.5t43.5 104.5v1024h290v-1024q0 -183 -126 -311.5t-306 -128.5h-288z" />
<glyph unicode="k" horiz-adv-x="1236" d="M164 0v1464h293v-583l368 583h342l-475 -723l516 -741h-362l-389 573v-573h-293z" />
<glyph unicode="l" horiz-adv-x="1009" d="M164 0v1464h293v-1171h465v-293h-758z" />
<glyph unicode="m" horiz-adv-x="1671" d="M164 0v1487h94l578 -643l577 643h92v-1487h-297l2 817l-374 -393l-375 393v-817h-297z" />
<glyph unicode="n" horiz-adv-x="1441" d="M164 0v1495h78l739 -860v827h295v-1493h-78l-741 828v-797h-293z" />
<glyph unicode="o" horiz-adv-x="1734" d="M111 734.5q0 141.5 49 277t140 241.5t238.5 171t329.5 65t329.5 -65t238.5 -171t140 -241.5t49 -277t-49 -277t-140 -241.5t-238.5 -171t-329.5 -65t-329.5 65t-238.5 171t-140 241.5t-49 277zM428 735.5q0 -84.5 28.5 -166t81.5 -145t138.5 -102.5t191.5 -39t191.5 39 t138.5 102.5t81.5 145t28.5 166t-28.5 166t-81.5 145t-138.5 102.5t-191.5 39t-191.5 -39t-138.5 -102.5t-81.5 -145t-28.5 -166z" />
<glyph unicode="p" horiz-adv-x="1234" d="M164 0v1462h575q103 0 186 -39t134 -102.5t79 -144.5q28 -80 28 -163q0 -86 -28 -168q-28 -81 -79 -144.5t-134 -102.5t-186 -39h-282v-559h-293zM457 844h258q47 0 81.5 24t50 60.5t15.5 79t-15.5 79t-50 60.5t-81.5 24h-258v-327z" />
<glyph unicode="q" horiz-adv-x="1718" d="M113 734.5q0 112.5 28.5 218.5t89.5 200.5t146.5 165.5t207.5 112.5t265 41.5q133 0 248 -36t198.5 -98t146.5 -146.5t97 -180t44 -200.5q5 -42 5 -83q0 -62 -9 -121q-16 -101 -58 -197t-107 -173l193 -246h-324l-72 84q-157 -80 -362 -80q-143 0 -265 41.5t-207.5 112.5 t-146.5 165.5t-89.5 200.5t-28.5 218.5zM421 733.5q0 -82.5 28 -162t79.5 -142t135 -100.5t186.5 -38q93 0 166 28l-246 302h346l103 -132q37 65 52 142q10 51 10 102q0 25 -3 51q-7 75 -39 146.5t-83 125.5t-130.5 87t-175.5 33q-103 0 -186.5 -38t-135 -100.5t-79.5 -142 t-28 -162z" />
<glyph unicode="r" horiz-adv-x="1255" d="M164 0v1464h577q95 0 173.5 -32t130 -85t84.5 -122.5t41 -143.5q3 -29 4 -57q0 -46 -8 -93q-14 -76 -48.5 -140t-94.5 -114t-138 -73l340 -604h-332l-295 559h-141v-559h-293zM457 844h258q48 0 82.5 24t50.5 60.5t16 79t-16 79t-50.5 60.5t-82.5 24h-258v-327z" />
<glyph unicode="s" horiz-adv-x="1083" d="M96 94l37 307q59 -42 126.5 -69.5t120 -35.5t101.5 -12q22 -2 38 -1q20 0 32 2q65 5 111 47q40 37 41 87q0 7 -1 13q-4 58 -42.5 91.5t-108.5 58.5q-96 35 -166 71.5t-135 89.5t-99 124.5t-34 160.5q0 186 115.5 312t297.5 135q18 1 37 1q149 0 328 -63l-37 -283 q-153 62 -277 62h-22q-74 -4 -112 -52q-34 -42 -34 -97q0 -7 1 -15q5 -56 47 -88.5t117 -58.5q91 -34 162.5 -74t133 -94t94.5 -125.5t33 -155.5q0 -186 -120 -310t-322 -134q-18 -1 -38 -1q-73 0 -169 17q-124 22 -256 90z" />
<glyph unicode="t" horiz-adv-x="1120" d="M41 1171v291h1022v-291h-365v-1171h-292v1171h-365z" />
<glyph unicode="u" horiz-adv-x="1374" d="M156 510v954h293v-952q0 -56 20.5 -100.5t54 -72.5t76 -43t87 -15t87 15t76 43t54 72.5t20.5 100.5v952h290v-954q0 -126 -45.5 -228t-120 -164.5t-169.5 -96.5t-194 -34t-194 34t-169.5 96.5t-120 164.5t-45.5 228z" />
<glyph unicode="v" horiz-adv-x="1304" d="M12 1464h338l195 -487l106 -303l105 293l196 497h338l-606 -1495h-66z" />
<glyph unicode="w" horiz-adv-x="1863" d="M12 1464h330l295 -747l287 733h14l287 -733l295 747h329l-598 -1489h-53l-268 650l-266 -656h-52z" />
<glyph unicode="x" horiz-adv-x="1292" d="M12 0l461 780l-397 686h354l221 -407l219 407h347l-400 -686l461 -780h-346l-281 502l-282 -502h-357z" />
<glyph unicode="y" horiz-adv-x="1329" d="M12 1464h357l299 -503l299 503h358l-512 -805v-659h-291v659z" />
<glyph unicode="z" horiz-adv-x="1095" d="M45 0q44 98 234.5 525t293.5 655h-450v284h887q-78 -173 -167 -369.5t-195.5 -431t-166.5 -368.5h545v-295h-981z" />
<glyph unicode="&#xa1;" horiz-adv-x="565" d="M106 874q0 45 18.5 80t48 53t65.5 26.5t72 0t65.5 -26.5t48 -53t18.5 -80t-18.5 -80t-48 -53t-65.5 -26.5t-72 0t-65.5 26.5t-48 53t-18.5 80zM117 102q26 351 41 484h231q3 -28 43 -484v-542h-315v542z" />
<glyph unicode="&#xa5;" horiz-adv-x="1329" d="M12 1464h357l299 -503l299 503h358l-399 -626h149v-207h-262v-92h262v-207h-262v-332h-291v332h-282v207h282v92h-282v207h170z" />
<glyph unicode="&#xa8;" horiz-adv-x="1044" d="M109 1298q0 71 48.5 119.5t116.5 48.5q71 0 119.5 -48t48.5 -120q0 -70 -48.5 -117.5t-119.5 -47.5q-69 2 -117 49t-48 116zM614 1298q0 71 49.5 119.5t116.5 48.5q71 0 119.5 -48t48.5 -120q0 -70 -48.5 -116.5t-119.5 -48.5q-67 0 -116.5 48t-49.5 117z" />
<glyph unicode="&#xad;" horiz-adv-x="929" d="M78 563v273h745v-273h-745z" />
<glyph unicode="&#xaf;" horiz-adv-x="751" d="M102 1194v268h541v-268h-541z" />
<glyph unicode="&#xb4;" horiz-adv-x="653" d="M96 1184l109 289h375l-207 -289h-277z" />
<glyph unicode="&#xb7;" horiz-adv-x="499" d="M62.5 668.5q-8.5 35.5 0 70.5t27 64t54.5 47t81 18q46 0 82 -18t54.5 -47t27 -64t-0.5 -70.5t-28 -64.5t-54.5 -47t-80.5 -18t-81 18t-54.5 47t-27 64.5z" />
<glyph unicode="&#xb8;" horiz-adv-x="806" d="M57 -504l113 170q42 -30 92 -46.5t96 -6.5q30 3 53 20t23 43q-2 40 -39 63t-83.5 23.5t-88.5 -6.5l49 267h195l-16 -121q73 -5 127 -45.5t77 -98t12.5 -128t-57.5 -130.5q-52 -72 -142 -101t-200.5 -5t-210.5 102z" />
<glyph unicode="&#xbf;" horiz-adv-x="983" d="M14 -31q0 57 14.5 109t39.5 94t55.5 82.5t62 82t59 84.5t48 97.5t26.5 114.5h291q-4 -73 -37.5 -156t-78 -152.5t-88 -131.5t-73.5 -111t-30 -72q-11 -104 67 -150t160.5 -2.5t81.5 152.5h281q11 -212 -133 -337q-117 -102 -288 -110q-170 -8 -297 82q-148 105 -160 297 q-1 13 -1 27zM291 913q0 45 19 80t49 53t66.5 26.5t73 0t66.5 -26.5t49 -53t19 -80t-19 -81t-49 -54.5t-66.5 -27t-73 0t-66.5 27t-49 54.5t-19 81z" />
<glyph unicode="&#xc0;" d="M33 0l590 1483h84l589 -1483h-329l-60 158h-485l-57 -158h-332zM330 1855h381l108 -288h-282zM528 432h271l-133 391z" />
<glyph unicode="&#xc1;" d="M33 0l590 1483h84l589 -1483h-329l-60 158h-485l-57 -158h-332zM498 1567l108 288h381l-207 -288h-282zM528 432h271l-133 391z" />
<glyph unicode="&#xc2;" d="M33 0l590 1483h84l589 -1483h-329l-60 158h-485l-57 -158h-332zM276 1554l289 287h189l293 -287h-312l-76 97l-73 -97h-310zM528 432h271l-133 391z" />
<glyph unicode="&#xc3;" d="M33 0l590 1483h84l589 -1483h-329l-60 158h-485l-57 -158h-332zM313 1651q30 102 90 160t144 55q41 -1 89.5 -23.5t79 -40t64 -10t58.5 56.5l176 -80q-28 -102 -89.5 -159t-146.5 -54q-34 1 -72 17t-65.5 31.5t-55 24.5t-51 -3.5t-42.5 -52.5zM528 432h271l-133 391z" />
<glyph unicode="&#xc4;" d="M33 0l590 1483h84l589 -1483h-329l-60 158h-485l-57 -158h-332zM246 1692q0 71 49 119.5t117 48.5q71 0 119.5 -48t48.5 -120q0 -70 -48.5 -118t-119.5 -48q-69 2 -117.5 49.5t-48.5 116.5zM528 432h271l-133 391zM752 1692q0 71 49.5 119.5t116.5 48.5q71 0 119 -48 t48 -120q0 -70 -48 -117t-119 -49q-67 0 -116.5 48.5t-49.5 117.5z" />
<glyph unicode="&#xc5;" d="M33 0l491 1208q-56 29 -92.5 81t-48 110.5t1 120.5t46 111t94.5 80.5t139 31.5q68 0 123.5 -23t89 -61.5t53.5 -87t19.5 -101t-14.5 -101.5t-48 -91.5t-82 -67.5l491 -1210h-329l-60 158h-485l-57 -158h-332zM528 432h271l-133 381zM558 1458.5q0 -39.5 28.5 -73 t79.5 -33.5q41 0 69 22t35 53t0.5 62.5t-34.5 53.5t-70 22q-51 0 -79.5 -33.5t-28.5 -73z" />
<glyph unicode="&#xc6;" horiz-adv-x="1628" d="M37 0l713 1464h747v-286h-377v-295h320v-299h-320v-291h398v-293h-691v225h-338l-94 -225h-358zM606 498h221v526z" />
<glyph unicode="&#xc7;" horiz-adv-x="1232" d="M102.5 818.5q10.5 104.5 45 201t97.5 181.5t147 147.5t200 98.5t250 36q157 0 288 -58l-34 -301q-36 19 -63.5 30.5t-79.5 22.5t-111 11q-105 0 -190 -38.5t-137 -101t-80.5 -143t-28.5 -164t28.5 -164t80.5 -143t137 -101t190 -38.5q159 0 282 65l39 -303 q-67 -28 -155.5 -44.5t-165.5 -16.5h-6l-11 -74q73 -5 127 -43t77 -92t13 -119.5t-57 -122.5q-52 -69 -142 -96.5t-200.5 -4.5t-210.5 97l113 160q100 -67 188 -51q30 3 53 19.5t23 39.5q-3 56 -72.5 74t-138.5 2l45 231q-115 27 -210.5 86t-160.5 137.5t-107 174.5 t-57.5 198t-5 206.5z" />
<glyph unicode="&#xc8;" horiz-adv-x="1032" d="M164 0v1464h733v-293h-440v-292h385v-293h-385v-293h465v-293h-758zM236 1798h360l100 -235h-264z" />
<glyph unicode="&#xc9;" horiz-adv-x="1032" d="M164 0v1464h733v-293h-440v-292h385v-293h-385v-293h465v-293h-758zM385 1565l100 235h361l-197 -235h-264z" />
<glyph unicode="&#xca;" horiz-adv-x="1032" d="M160 1575l284 274h187l289 -274h-308l-75 92l-72 -92h-305zM164 0v1464h733v-293h-440v-292h385v-293h-385v-293h465v-293h-758z" />
<glyph unicode="&#xcb;" horiz-adv-x="1032" d="M152 1706q0 64 47 108t114 44q68 0 116 -44t48 -108t-47.5 -105.5t-116.5 -41.5q-68 2 -114.5 43t-46.5 104zM164 0v1464h733v-293h-440v-292h385v-293h-385v-293h465v-293h-758zM590 1706q0 64 48.5 108t115.5 44q69 0 116.5 -44t47.5 -108t-47 -104.5t-117 -42.5 q-67 0 -115.5 42t-48.5 105z" />
<glyph unicode="&#xcc;" horiz-adv-x="622" d="M6 1845h348l101 -264h-258zM164 0v1464h293v-1464h-293z" />
<glyph unicode="&#xcd;" horiz-adv-x="622" d="M164 0v1464h293v-1464h-293zM172 1581l100 264h349l-191 -264h-258z" />
<glyph unicode="&#xce;" horiz-adv-x="622" d="M-55 1577l270 293h176l275 -293h-291l-72 98l-67 -98h-291zM164 0v1464h293v-1464h-293z" />
<glyph unicode="&#xcf;" horiz-adv-x="622" d="M-61 1739q0 70 46 117t111 47q68 0 114 -47t46 -117q0 -68 -46.5 -115t-113.5 -47q-65 2 -111 48.5t-46 113.5zM164 0v1464h293v-1464h-293zM369 1739q0 69 46.5 116.5t110.5 47.5q68 0 115 -47t47 -117q0 -67 -47 -113.5t-115 -48.5q-64 0 -110.5 47.5t-46.5 114.5z" />
<glyph unicode="&#xd0;" horiz-adv-x="1441" d="M6 584v272h158v608h436q176 0 319 -63t230.5 -166t135 -234.5t47.5 -268.5t-47.5 -268.5t-135 -234.5t-230.5 -166t-319 -63h-436v584h-158zM457 293h143q103 0 186 37.5t134.5 99.5t79 141t27.5 161t-27.5 161t-79 141t-134.5 99.5t-186 37.5h-143v-315h262v-272h-262 v-291z" />
<glyph unicode="&#xd1;" horiz-adv-x="1441" d="M164 0v1495h78l739 -860v827h295v-1493h-78l-741 828v-797h-293zM358 1667q30 102 90 160t144 55q34 -1 72.5 -17t66.5 -31t55.5 -24.5t52 3.5t44.5 53l176 -80q-28 -102 -89.5 -159t-146.5 -54q-34 1 -72 17t-65.5 31t-55 24.5t-51 -3.5t-42.5 -53z" />
<glyph unicode="&#xd2;" horiz-adv-x="1734" d="M111 734.5q0 -141.5 49 -277t140 -241.5t238.5 -171t329.5 -65t329.5 65t238.5 171t140 241.5t49 277t-49 277t-140 241.5t-238.5 171t-329.5 65t-329.5 -65t-238.5 -171t-140 -241.5t-49 -277zM428 735.5q0 84.5 28.5 166t81.5 145t138.5 102.5t191.5 39t191.5 -39 t138.5 -102.5t81.5 -145t28.5 -166t-28.5 -166t-81.5 -145t-138.5 -102.5t-191.5 -39t-191.5 39t-138.5 102.5t-81.5 145t-28.5 166zM561 1894h381l109 -288h-283z" />
<glyph unicode="&#xd3;" horiz-adv-x="1734" d="M111 734.5q0 141.5 49 277t140 241.5t238.5 171t329.5 65t329.5 -65t238.5 -171t140 -241.5t49 -277t-49 -277t-140 -241.5t-238.5 -171t-329.5 -65t-329.5 65t-238.5 171t-140 241.5t-49 277zM428 735.5q0 -84.5 28.5 -166t81.5 -145t138.5 -102.5t191.5 -39t191.5 39 t138.5 102.5t81.5 145t28.5 166t-28.5 166t-81.5 145t-138.5 102.5t-191.5 39t-191.5 -39t-138.5 -102.5t-81.5 -145t-28.5 -166zM739 1612l109 289h375l-207 -289h-277z" />
<glyph unicode="&#xd4;" horiz-adv-x="1734" d="M111 734.5q0 -141.5 49 -277t140 -241.5t238.5 -171t329.5 -65t329.5 65t238.5 171t140 241.5t49 277t-49 277t-140 241.5t-238.5 171t-329.5 65t-329.5 -65t-238.5 -171t-140 -241.5t-49 -277zM428 735.5q0 84.5 28.5 166t81.5 145t138.5 102.5t191.5 39t191.5 -39 t138.5 -102.5t81.5 -145t28.5 -166t-28.5 -166t-81.5 -145t-138.5 -102.5t-191.5 -39t-191.5 39t-138.5 102.5t-81.5 145t-28.5 166zM477 1597l301 281h197l305 -281h-324l-79 95l-76 -95h-324z" />
<glyph unicode="&#xd5;" horiz-adv-x="1734" d="M111 734.5q0 141.5 49 277t140 241.5t238.5 171t329.5 65t329.5 -65t238.5 -171t140 -241.5t49 -277t-49 -277t-140 -241.5t-238.5 -171t-329.5 -65t-329.5 65t-238.5 171t-140 241.5t-49 277zM428 735.5q0 -84.5 28.5 -166t81.5 -145t138.5 -102.5t191.5 -39t191.5 39 t138.5 102.5t81.5 145t28.5 166t-28.5 166t-81.5 145t-138.5 102.5t-191.5 39t-191.5 -39t-138.5 -102.5t-81.5 -145t-28.5 -166zM526 1686q30 102 90 160t144 55q41 -1 89.5 -23.5t79 -40t64 -10t58.5 56.5l176 -80q-28 -102 -89.5 -159t-146.5 -54q-34 1 -72 17 t-65.5 31.5t-55 24.5t-51 -3.5t-42.5 -52.5z" />
<glyph unicode="&#xd6;" horiz-adv-x="1734" d="M111 734.5q0 141.5 49 277t140 241.5t238.5 171t329.5 65t329.5 -65t238.5 -171t140 -241.5t49 -277t-49 -277t-140 -241.5t-238.5 -171t-329.5 -65t-329.5 65t-238.5 171t-140 241.5t-49 277zM428 735.5q0 -84.5 28.5 -166t81.5 -145t138.5 -102.5t191.5 -39t191.5 39 t138.5 102.5t81.5 145t28.5 166t-28.5 166t-81.5 145t-138.5 102.5t-191.5 39t-191.5 -39t-138.5 -102.5t-81.5 -145t-28.5 -166zM442 1747q0 68 51 114t123 46q74 0 125.5 -46t51.5 -114q0 -67 -51.5 -113.5t-125.5 -46.5q-72 2 -123 47.5t-51 112.5zM973 1747q0 68 52 114 t122 46q74 0 124 -45.5t50 -114.5q0 -67 -50 -112.5t-124 -47.5q-70 0 -122 46.5t-52 113.5z" />
<glyph unicode="&#xd8;" horiz-adv-x="1687" d="M94 741.5q2 112.5 31 217t90.5 199t147.5 164t207.5 110.5t263.5 41q146 0 256 -39l98 170h301l-170 -295q85 -71 143.5 -167t86 -201t26 -217.5t-30.5 -217.5t-91 -199t-147.5 -163.5t-207 -110.5t-264.5 -41q-138 0 -254 35l-99 -168h-301l170 295q-85 71 -144 167.5 t-86.5 202t-25.5 218zM400.5 729q-0.5 -83 26.5 -164.5t79 -142.5l432 749q-19 5 -104 5q-103 0 -187 -38.5t-136 -101t-81 -143.5t-29.5 -164zM731 291q14 -3 30.5 -3.5t40 0.5t32.5 1q104 0 188 38t136 100.5t80.5 142.5t29 162.5t-26 163.5t-78.5 142z" />
<glyph unicode="&#xd9;" horiz-adv-x="1374" d="M156 510v954h293v-952q0 -56 20.5 -100.5t54 -72.5t76 -43t87 -15t87 15t76 43t54 72.5t20.5 100.5v952h290v-954q0 -126 -45.5 -228t-120 -164.5t-169.5 -96.5t-194 -34t-194 34t-169.5 96.5t-120 164.5t-45.5 228zM399 1862h342l99 -285h-254z" />
<glyph unicode="&#xda;" horiz-adv-x="1374" d="M156 510v954h293v-952q0 -56 20.5 -100.5t54 -72.5t76 -43t87 -15t87 15t76 43t54 72.5t20.5 100.5v952h290v-954q0 -126 -45.5 -228t-120 -164.5t-169.5 -96.5t-194 -34t-194 34t-169.5 96.5t-120 164.5t-45.5 228zM543 1577l98 285h342l-186 -285h-254z" />
<glyph unicode="&#xdb;" horiz-adv-x="1374" d="M156 510v954h293v-952q0 -56 20.5 -100.5t54 -72.5t76 -43t87 -15t87 15t76 43t54 72.5t20.5 100.5v952h290v-954q0 -126 -45.5 -228t-120 -164.5t-169.5 -96.5t-194 -34t-194 34t-169.5 96.5t-120 164.5t-45.5 228zM299 1599l289 287h188l293 -287h-311l-76 97l-74 -97 h-309z" />
<glyph unicode="&#xdc;" horiz-adv-x="1374" d="M156 510v954h293v-952q0 -56 20.5 -100.5t54 -72.5t76 -43t87 -15t87 15t76 43t54 72.5t20.5 100.5v952h290v-954q0 -126 -45.5 -228t-120 -164.5t-169.5 -96.5t-194 -34t-194 34t-169.5 96.5t-120 164.5t-45.5 228zM293 1724q0 67 46.5 111.5t111.5 44.5 q66 0 111.5 -44.5t45.5 -111.5q0 -64 -45.5 -107.5t-111.5 -43.5q-66 2 -112 44.5t-46 106.5zM772 1724q0 66 47 111t111 45q66 0 111.5 -44.5t45.5 -111.5q0 -64 -45 -106.5t-112 -44.5q-64 0 -111 43.5t-47 107.5z" />
<glyph unicode="&#xdd;" horiz-adv-x="1329" d="M12 1464h357l299 -503l299 503h358l-512 -805v-659h-291v659zM504 1581l108 289h375l-207 -289h-276z" />
<glyph unicode="&#xde;" horiz-adv-x="1234" d="M164 0v1464h293v-256h282q103 0 186 -39t134 -102.5t79 -144.5t27.5 -165.5t-28 -165.5t-78.5 -144.5t-134 -102.5t-186 -39h-282v-305h-293zM457 590h258q70 0 109.5 51t39.5 113t-39.5 113t-109.5 51h-258v-328z" />
<glyph unicode="&#xe0;" d="M33 0l590 1483h84l589 -1483h-329l-60 158h-485l-57 -158h-332zM330 1855h381l108 -288h-282zM528 432h271l-133 391z" />
<glyph unicode="&#xe1;" d="M33 0l590 1483h84l589 -1483h-329l-60 158h-485l-57 -158h-332zM498 1567l108 288h381l-207 -288h-282zM528 432h271l-133 391z" />
<glyph unicode="&#xe2;" d="M33 0l590 1483h84l589 -1483h-329l-60 158h-485l-57 -158h-332zM276 1554l289 287h189l293 -287h-312l-76 97l-73 -97h-310zM528 432h271l-133 391z" />
<glyph unicode="&#xe3;" d="M33 0l590 1483h84l589 -1483h-329l-60 158h-485l-57 -158h-332zM313 1651q30 102 90 160t144 55q41 -1 89.5 -23.5t79 -40t64 -10t58.5 56.5l176 -80q-28 -102 -89.5 -159t-146.5 -54q-34 1 -72 17t-65.5 31.5t-55 24.5t-51 -3.5t-42.5 -52.5zM528 432h271l-133 391z" />
<glyph unicode="&#xe4;" d="M33 0l590 1483h84l589 -1483h-329l-60 158h-485l-57 -158h-332zM246 1692q0 71 49 119.5t117 48.5q71 0 119.5 -48t48.5 -120q0 -70 -48.5 -118t-119.5 -48q-69 2 -117.5 49.5t-48.5 116.5zM528 432h271l-133 391zM752 1692q0 71 49.5 119.5t116.5 48.5q71 0 119 -48 t48 -120q0 -70 -48 -117t-119 -49q-67 0 -116.5 48.5t-49.5 117.5z" />
<glyph unicode="&#xe5;" d="M33 0l491 1208q-56 29 -92.5 81t-48 110.5t1 120.5t46 111t94.5 80.5t139 31.5q68 0 123.5 -23t89 -61.5t53.5 -87t19.5 -101t-14.5 -101.5t-48 -91.5t-82 -67.5l491 -1210h-329l-60 158h-485l-57 -158h-332zM528 432h271l-133 381zM558 1458.5q0 -39.5 28.5 -73 t79.5 -33.5q41 0 69 22t35 53t0.5 62.5t-34.5 53.5t-70 22q-51 0 -79.5 -33.5t-28.5 -73z" />
<glyph unicode="&#xe6;" horiz-adv-x="1628" d="M37 0l713 1464h747v-286h-377v-295h320v-299h-320v-291h398v-293h-691v225h-338l-94 -225h-358zM606 498h221v526z" />
<glyph unicode="&#xe7;" horiz-adv-x="1232" d="M102.5 818.5q10.5 104.5 45 201t97.5 181.5t147 147.5t200 98.5t250 36q157 0 288 -58l-34 -301q-36 19 -63.5 30.5t-79.5 22.5t-111 11q-105 0 -190 -38.5t-137 -101t-80.5 -143t-28.5 -164t28.5 -164t80.5 -143t137 -101t190 -38.5q159 0 282 65l39 -303 q-67 -28 -155.5 -44.5t-165.5 -16.5h-6l-11 -74q73 -5 127 -43t77 -92t13 -119.5t-57 -122.5q-52 -69 -142 -96.5t-200.5 -4.5t-210.5 97l113 160q100 -67 188 -51q30 3 53 19.5t23 39.5q-3 56 -72.5 74t-138.5 2l45 231q-115 27 -210.5 86t-160.5 137.5t-107 174.5 t-57.5 198t-5 206.5z" />
<glyph unicode="&#xe8;" horiz-adv-x="1032" d="M164 0v1464h733v-293h-440v-292h385v-293h-385v-293h465v-293h-758zM236 1798h360l100 -235h-264z" />
<glyph unicode="&#xe9;" horiz-adv-x="1032" d="M164 0v1464h733v-293h-440v-292h385v-293h-385v-293h465v-293h-758zM385 1565l100 235h361l-197 -235h-264z" />
<glyph unicode="&#xea;" horiz-adv-x="1032" d="M160 1575l284 274h187l289 -274h-308l-75 92l-72 -92h-305zM164 0v1464h733v-293h-440v-292h385v-293h-385v-293h465v-293h-758z" />
<glyph unicode="&#xeb;" horiz-adv-x="1032" d="M152 1706q0 64 47 108t114 44q68 0 116 -44t48 -108t-47.5 -105.5t-116.5 -41.5q-68 2 -114.5 43t-46.5 104zM164 0v1464h733v-293h-440v-292h385v-293h-385v-293h465v-293h-758zM590 1706q0 64 48.5 108t115.5 44q69 0 116.5 -44t47.5 -108t-47 -104.5t-117 -42.5 q-67 0 -115.5 42t-48.5 105z" />
<glyph unicode="&#xec;" horiz-adv-x="622" d="M6 1845h348l101 -264h-258zM164 0v1464h293v-1464h-293z" />
<glyph unicode="&#xed;" horiz-adv-x="622" d="M164 0v1464h293v-1464h-293zM172 1581l100 264h349l-191 -264h-258z" />
<glyph unicode="&#xee;" horiz-adv-x="622" d="M-55 1577l270 293h176l275 -293h-291l-72 98l-67 -98h-291zM164 0v1464h293v-1464h-293z" />
<glyph unicode="&#xef;" horiz-adv-x="622" d="M-61 1739q0 70 46 117t111 47q68 0 114 -47t46 -117q0 -68 -46.5 -115t-113.5 -47q-65 2 -111 48.5t-46 113.5zM164 0v1464h293v-1464h-293zM369 1739q0 69 46.5 116.5t110.5 47.5q68 0 115 -47t47 -117q0 -67 -47 -113.5t-115 -48.5q-64 0 -110.5 47.5t-46.5 114.5z" />
<glyph unicode="&#xf0;" horiz-adv-x="1441" d="M6 584v272h158v608h436q176 0 319 -63t230.5 -166t135 -234.5t47.5 -268.5t-47.5 -268.5t-135 -234.5t-230.5 -166t-319 -63h-436v584h-158zM457 293h143q103 0 186 37.5t134.5 99.5t79 141t27.5 161t-27.5 161t-79 141t-134.5 99.5t-186 37.5h-143v-315h262v-272h-262 v-291z" />
<glyph unicode="&#xf1;" horiz-adv-x="1441" d="M164 0v1495h78l739 -860v827h295v-1493h-78l-741 828v-797h-293zM358 1667q30 102 90 160t144 55q34 -1 72.5 -17t66.5 -31t55.5 -24.5t52 3.5t44.5 53l176 -80q-28 -102 -89.5 -159t-146.5 -54q-34 1 -72 17t-65.5 31t-55 24.5t-51 -3.5t-42.5 -53z" />
<glyph unicode="&#xf2;" horiz-adv-x="1734" d="M111 734.5q0 -141.5 49 -277t140 -241.5t238.5 -171t329.5 -65t329.5 65t238.5 171t140 241.5t49 277t-49 277t-140 241.5t-238.5 171t-329.5 65t-329.5 -65t-238.5 -171t-140 -241.5t-49 -277zM428 735.5q0 84.5 28.5 166t81.5 145t138.5 102.5t191.5 39t191.5 -39 t138.5 -102.5t81.5 -145t28.5 -166t-28.5 -166t-81.5 -145t-138.5 -102.5t-191.5 -39t-191.5 39t-138.5 102.5t-81.5 145t-28.5 166zM561 1894h381l109 -288h-283z" />
<glyph unicode="&#xf3;" horiz-adv-x="1734" d="M111 734.5q0 141.5 49 277t140 241.5t238.5 171t329.5 65t329.5 -65t238.5 -171t140 -241.5t49 -277t-49 -277t-140 -241.5t-238.5 -171t-329.5 -65t-329.5 65t-238.5 171t-140 241.5t-49 277zM428 735.5q0 -84.5 28.5 -166t81.5 -145t138.5 -102.5t191.5 -39t191.5 39 t138.5 102.5t81.5 145t28.5 166t-28.5 166t-81.5 145t-138.5 102.5t-191.5 39t-191.5 -39t-138.5 -102.5t-81.5 -145t-28.5 -166zM739 1612l109 289h375l-207 -289h-277z" />
<glyph unicode="&#xf4;" horiz-adv-x="1734" d="M111 734.5q0 -141.5 49 -277t140 -241.5t238.5 -171t329.5 -65t329.5 65t238.5 171t140 241.5t49 277t-49 277t-140 241.5t-238.5 171t-329.5 65t-329.5 -65t-238.5 -171t-140 -241.5t-49 -277zM428 735.5q0 84.5 28.5 166t81.5 145t138.5 102.5t191.5 39t191.5 -39 t138.5 -102.5t81.5 -145t28.5 -166t-28.5 -166t-81.5 -145t-138.5 -102.5t-191.5 -39t-191.5 39t-138.5 102.5t-81.5 145t-28.5 166zM477 1597l301 281h197l305 -281h-324l-79 95l-76 -95h-324z" />
<glyph unicode="&#xf5;" horiz-adv-x="1734" d="M111 734.5q0 141.5 49 277t140 241.5t238.5 171t329.5 65t329.5 -65t238.5 -171t140 -241.5t49 -277t-49 -277t-140 -241.5t-238.5 -171t-329.5 -65t-329.5 65t-238.5 171t-140 241.5t-49 277zM428 735.5q0 -84.5 28.5 -166t81.5 -145t138.5 -102.5t191.5 -39t191.5 39 t138.5 102.5t81.5 145t28.5 166t-28.5 166t-81.5 145t-138.5 102.5t-191.5 39t-191.5 -39t-138.5 -102.5t-81.5 -145t-28.5 -166zM526 1686q30 102 90 160t144 55q41 -1 89.5 -23.5t79 -40t64 -10t58.5 56.5l176 -80q-28 -102 -89.5 -159t-146.5 -54q-34 1 -72 17 t-65.5 31.5t-55 24.5t-51 -3.5t-42.5 -52.5z" />
<glyph unicode="&#xf6;" horiz-adv-x="1734" d="M111 734.5q0 141.5 49 277t140 241.5t238.5 171t329.5 65t329.5 -65t238.5 -171t140 -241.5t49 -277t-49 -277t-140 -241.5t-238.5 -171t-329.5 -65t-329.5 65t-238.5 171t-140 241.5t-49 277zM428 735.5q0 -84.5 28.5 -166t81.5 -145t138.5 -102.5t191.5 -39t191.5 39 t138.5 102.5t81.5 145t28.5 166t-28.5 166t-81.5 145t-138.5 102.5t-191.5 39t-191.5 -39t-138.5 -102.5t-81.5 -145t-28.5 -166zM442 1747q0 68 51 114t123 46q74 0 125.5 -46t51.5 -114q0 -67 -51.5 -113.5t-125.5 -46.5q-72 2 -123 47.5t-51 112.5zM973 1747q0 68 52 114 t122 46q74 0 124 -45.5t50 -114.5q0 -67 -50 -112.5t-124 -47.5q-70 0 -122 46.5t-52 113.5z" />
<glyph unicode="&#xf8;" horiz-adv-x="1687" d="M94 741.5q2 112.5 31 217t90.5 199t147.5 164t207.5 110.5t263.5 41q146 0 256 -39l98 170h301l-170 -295q85 -71 143.5 -167t86 -201t26 -217.5t-30.5 -217.5t-91 -199t-147.5 -163.5t-207 -110.5t-264.5 -41q-138 0 -254 35l-99 -168h-301l170 295q-85 71 -144 167.5 t-86.5 202t-25.5 218zM400.5 729q-0.5 -83 26.5 -164.5t79 -142.5l432 749q-19 5 -104 5q-103 0 -187 -38.5t-136 -101t-81 -143.5t-29.5 -164zM731 291q14 -3 30.5 -3.5t40 0.5t32.5 1q104 0 188 38t136 100.5t80.5 142.5t29 162.5t-26 163.5t-78.5 142z" />
<glyph unicode="&#xf9;" horiz-adv-x="1374" d="M156 510v954h293v-952q0 -56 20.5 -100.5t54 -72.5t76 -43t87 -15t87 15t76 43t54 72.5t20.5 100.5v952h290v-954q0 -126 -45.5 -228t-120 -164.5t-169.5 -96.5t-194 -34t-194 34t-169.5 96.5t-120 164.5t-45.5 228zM399 1862h342l99 -285h-254z" />
<glyph unicode="&#xfa;" horiz-adv-x="1374" d="M156 510v954h293v-952q0 -56 20.5 -100.5t54 -72.5t76 -43t87 -15t87 15t76 43t54 72.5t20.5 100.5v952h290v-954q0 -126 -45.5 -228t-120 -164.5t-169.5 -96.5t-194 -34t-194 34t-169.5 96.5t-120 164.5t-45.5 228zM543 1577l98 285h342l-186 -285h-254z" />
<glyph unicode="&#xfb;" horiz-adv-x="1374" d="M156 510v954h293v-952q0 -56 20.5 -100.5t54 -72.5t76 -43t87 -15t87 15t76 43t54 72.5t20.5 100.5v952h290v-954q0 -126 -45.5 -228t-120 -164.5t-169.5 -96.5t-194 -34t-194 34t-169.5 96.5t-120 164.5t-45.5 228zM299 1599l289 287h188l293 -287h-311l-76 97l-74 -97 h-309z" />
<glyph unicode="&#xfc;" horiz-adv-x="1374" d="M156 510v954h293v-952q0 -56 20.5 -100.5t54 -72.5t76 -43t87 -15t87 15t76 43t54 72.5t20.5 100.5v952h290v-954q0 -126 -45.5 -228t-120 -164.5t-169.5 -96.5t-194 -34t-194 34t-169.5 96.5t-120 164.5t-45.5 228zM293 1724q0 67 46.5 111.5t111.5 44.5 q66 0 111.5 -44.5t45.5 -111.5q0 -64 -45.5 -107.5t-111.5 -43.5q-66 2 -112 44.5t-46 106.5zM772 1724q0 66 47 111t111 45q66 0 111.5 -44.5t45.5 -111.5q0 -64 -45 -106.5t-112 -44.5q-64 0 -111 43.5t-47 107.5z" />
<glyph unicode="&#xfd;" horiz-adv-x="1329" d="M12 1464h357l299 -503l299 503h358l-512 -805v-659h-291v659zM504 1581l108 289h375l-207 -289h-276z" />
<glyph unicode="&#xfe;" horiz-adv-x="1234" d="M164 0v1464h293v-256h282q103 0 186 -39t134 -102.5t79 -144.5t27.5 -165.5t-28 -165.5t-78.5 -144.5t-134 -102.5t-186 -39h-282v-305h-293zM457 590h258q70 0 109.5 51t39.5 113t-39.5 113t-109.5 51h-258v-328z" />
<glyph unicode="&#xff;" horiz-adv-x="1329" d="M12 1464h357l299 -503l299 503h358l-512 -805v-659h-291v659zM244 1726q0 71 49 119.5t117 48.5q71 0 119.5 -48t48.5 -120q0 -70 -48.5 -117.5t-119.5 -47.5q-69 2 -117.5 49t-48.5 116zM750 1726q0 71 49 119.5t116 48.5q71 0 119.5 -48t48.5 -120q0 -70 -48.5 -116.5 t-119.5 -48.5q-67 0 -116 48t-49 117z" />
<glyph unicode="&#x152;" horiz-adv-x="1751" d="M74 731.5q0 139.5 48.5 272.5t137.5 237.5t233.5 168t323.5 63.5q40 0 137 -9h660v-293h-414v-290h356v-287h-356v-303h434v-291h-680q-43 -10 -137 -10q-179 0 -323.5 63.5t-233.5 168t-137.5 237.5t-48.5 272.5zM387 737q0 -86 27.5 -170.5t78.5 -156t135.5 -116 t188.5 -44.5q76 0 109 4v958q-36 5 -109 5q-82 0 -152.5 -29t-120 -77.5t-85.5 -111t-53.5 -129.5t-18.5 -133z" />
<glyph unicode="&#x153;" horiz-adv-x="1751" d="M74 731.5q0 139.5 48.5 272.5t137.5 237.5t233.5 168t323.5 63.5q40 0 137 -9h660v-293h-414v-290h356v-287h-356v-303h434v-291h-680q-43 -10 -137 -10q-179 0 -323.5 63.5t-233.5 168t-137.5 237.5t-48.5 272.5zM387 737q0 -86 27.5 -170.5t78.5 -156t135.5 -116 t188.5 -44.5q76 0 109 4v958q-36 5 -109 5q-82 0 -152.5 -29t-120 -77.5t-85.5 -111t-53.5 -129.5t-18.5 -133z" />
<glyph unicode="&#x178;" horiz-adv-x="1329" d="M12 1464h357l299 -503l299 503h358l-512 -805v-659h-291v659zM244 1726q0 71 49 119.5t117 48.5q71 0 119.5 -48t48.5 -120q0 -70 -48.5 -117.5t-119.5 -47.5q-69 2 -117.5 49t-48.5 116zM750 1726q0 71 49 119.5t116 48.5q71 0 119.5 -48t48.5 -120q0 -70 -48.5 -116.5 t-119.5 -48.5q-67 0 -116 48t-49 117z" />
<glyph unicode="&#x2c6;" horiz-adv-x="897" d="M59 1202l289 287h189l292 -287h-311l-76 96l-73 -96h-310z" />
<glyph unicode="&#x2dc;" horiz-adv-x="907" d="M98 1278q30 102 90 160t144 55q34 -1 72.5 -17t66.5 -31t55.5 -24.5t52 3.5t44.5 53l176 -80q-28 -102 -89.5 -159t-146.5 -54q-34 1 -72 17t-65.5 31t-55.5 24.5t-51.5 -3.5t-42.5 -53z" />
<glyph unicode="&#x2000;" horiz-adv-x="953" />
<glyph unicode="&#x2001;" horiz-adv-x="1907" />
<glyph unicode="&#x2002;" horiz-adv-x="953" />
<glyph unicode="&#x2003;" horiz-adv-x="1907" />
<glyph unicode="&#x2004;" horiz-adv-x="635" />
<glyph unicode="&#x2005;" horiz-adv-x="476" />
<glyph unicode="&#x2006;" horiz-adv-x="317" />
<glyph unicode="&#x2007;" horiz-adv-x="317" />
<glyph unicode="&#x2008;" horiz-adv-x="238" />
<glyph unicode="&#x2009;" horiz-adv-x="381" />
<glyph unicode="&#x200a;" horiz-adv-x="105" />
<glyph unicode="&#x2010;" horiz-adv-x="929" d="M78 563v273h745v-273h-745z" />
<glyph unicode="&#x2011;" horiz-adv-x="929" d="M78 563v273h745v-273h-745z" />
<glyph unicode="&#x2012;" horiz-adv-x="929" d="M78 563v273h745v-273h-745z" />
<glyph unicode="&#x2013;" horiz-adv-x="1101" d="M78 563v273h926v-273h-926z" />
<glyph unicode="&#x2014;" horiz-adv-x="1265" d="M78 563v273h1108v-273h-1108z" />
<glyph unicode="&#x2018;" horiz-adv-x="458" d="M31 1028l155 436h224l-84 -436h-295z" />
<glyph unicode="&#x2019;" horiz-adv-x="428" d="M31 1030l84 436h295l-156 -436h-223z" />
<glyph unicode="&#x201a;" horiz-adv-x="491" d="M31 -238l86 463h303l-160 -463h-229z" />
<glyph unicode="&#x201c;" horiz-adv-x="806" d="M31 1028l155 436h224l-97 -436h-282zM414 1028l137 436h223l-84 -436h-276z" />
<glyph unicode="&#x201d;" horiz-adv-x="806" d="M23 1026l83 436h277l-137 -436h-223zM387 1026l96 436h283l-156 -436h-223z" />
<glyph unicode="&#x201e;" horiz-adv-x="931" d="M31 -238l86 463h303l-160 -463h-229zM485 -238l86 463h303l-159 -463h-230z" />
<glyph unicode="&#x2022;" horiz-adv-x="600" d="M40 704.5q0 65.5 26.5 121t85.5 93t139 37.5q82 0 142 -37.5t86.5 -93t26 -121t-28 -121t-87 -93t-139.5 -37.5t-139 37.5t-85.5 93t-26.5 121z" />
<glyph unicode="&#x2026;" horiz-adv-x="1499" d="M62.5 115q-8.5 35 0 70.5t27 64.5t54.5 47t81 18q54 0 93 -24.5t56 -61t17 -79t-18 -79t-57 -61t-91 -24.5q-45 0 -81 18t-54.5 47t-27 64zM562.5 115q-8.5 35 0 70.5t27 64.5t54.5 47t81 18q54 0 93 -24.5t56 -61t17 -79t-18 -79t-57 -61t-91 -24.5q-45 0 -81 18 t-54.5 47t-27 64zM1062.5 115q-8.5 35 0 70.5t27 64.5t54.5 47t81 18q54 0 93 -24.5t56 -61t17 -79t-18 -79t-57 -61t-91 -24.5q-45 0 -81 18t-54.5 47t-27 64z" />
<glyph unicode="&#x202f;" horiz-adv-x="381" />
<glyph unicode="&#x205f;" horiz-adv-x="476" />
<glyph unicode="&#x20ac;" horiz-adv-x="1046" d="M-10 494v186h127q-2 31 -2 94h-125v187h147q31 110 90.5 202.5t146.5 165t209.5 113.5t266.5 41q64 0 113 -8l-17 -295q-58 8 -96 8q-138 0 -235.5 -62t-147.5 -165h272v-187h-319q-3 -43 4 -94h315v-186h-254q55 -92 149 -145.5t222 -53.5q57 0 115 10l18 -299 q-75 -10 -133 -10q-140 0 -260 39t-207.5 108t-148 157.5t-93.5 193.5h-157z" />
<glyph unicode="&#xe000;" horiz-adv-x="1464" d="M0 0v1464h1464v-1464h-1464z" />
</font>
</defs>
</svg>
