<?xml version="1.0" encoding="utf-8"?>
<!-- Generator: Adobe Illustrator 20.1.0, SVG Export Plug-In . SVG Version: 6.00 Build 0)  -->
<svg version="1.1" id="Layer_1" xmlns="http://www.w3.org/2000/svg" xmlns:xlink="http://www.w3.org/1999/xlink" x="0px" y="0px"
	 viewBox="0 0 512 512" style="enable-background:new 0 0 512 512;" xml:space="preserve">
<style type="text/css">
	.st0{fill:#F3F6F8;}
	.st1{fill:#FFFFFF;}
	.st2{fill:#DCE7EE;}
	.st3{fill:#3297D3;}
</style>
<circle class="st0" cx="256" cy="256" r="256"/>
<g>
	<path class="st1" d="M151.6,133.5h208.7c10,0,18.1,8.1,18.1,18.1v208.7c0,10-8.1,18.1-18.1,18.1H151.6c-10,0-18.1-8.1-18.1-18.1
		V151.6C133.5,141.6,141.6,133.5,151.6,133.5z"/>
	<rect x="319.5" y="165.3" class="st2" width="9.1" height="181.5"/>
	<rect x="274.1" y="165.3" class="st2" width="9.1" height="181.5"/>
	<rect x="228.8" y="165.3" class="st2" width="9.1" height="181.5"/>
	<rect x="183.4" y="165.3" class="st2" width="9.1" height="181.5"/>
	<circle class="st3" cx="233.3" cy="305.9" r="18.1"/>
	<circle class="st3" cx="278.7" cy="206.1" r="18.1"/>
	<circle class="st3" cx="324.1" cy="269.6" r="18.1"/>
	<circle class="st3" cx="187.9" cy="233.3" r="18.1"/>
</g>
</svg>
