<?xml version="1.0" standalone="no"?>
<!DOCTYPE svg PUBLIC "-//W3C//DTD SVG 1.1//EN" "http://www.w3.org/Graphics/SVG/1.1/DTD/svg11.dtd" >
<svg xmlns="http://www.w3.org/2000/svg">
<metadata>Generated by IcoMoon</metadata>
<defs>
<font id="icomoon" horiz-adv-x="1024">
<font-face units-per-em="1024" ascent="960" descent="-64" />
<missing-glyph horiz-adv-x="1024" />
<glyph unicode="&#x20;" horiz-adv-x="512" d="" />
<glyph unicode="&#xe900;" glyph-name="Add" d="M512-42.667c-270.549 0-490.667 220.117-490.667 490.667s220.117 490.667 490.667 490.667 490.667-220.117 490.667-490.667-220.117-490.667-490.667-490.667zM512 896c-247.040 0-448-200.96-448-448s200.96-448 448-448 448 200.96 448 448-200.96 448-448 448zM704 426.667h-384c-11.776 0-21.333 9.557-21.333 21.333s9.557 21.333 21.333 21.333h384c11.733 0 21.333-9.557 21.333-21.333s-9.6-21.333-21.333-21.333zM512 234.667c-11.776 0-21.333 9.6-21.333 21.333v384c0 11.776 9.557 21.333 21.333 21.333s21.333-9.557 21.333-21.333v-384c0-11.733-9.557-21.333-21.333-21.333z" />
<glyph unicode="&#xe901;" glyph-name="Align-Center" d="M981.333 682.667h-938.667c-11.776 0-21.333 9.6-21.333 21.333s9.557 21.333 21.333 21.333h938.667c11.733 0 21.333-9.6 21.333-21.333s-9.6-21.333-21.333-21.333zM853.333 554.667h-725.333c-11.776 0-21.333 9.6-21.333 21.333s9.557 21.333 21.333 21.333h725.333c11.733 0 21.333-9.6 21.333-21.333s-9.6-21.333-21.333-21.333zM682.667 426.667h-341.333c-11.776 0-21.333 9.6-21.333 21.333s9.557 21.333 21.333 21.333h341.333c11.733 0 21.333-9.6 21.333-21.333s-9.6-21.333-21.333-21.333zM810.667 298.667h-640c-11.776 0-21.333 9.6-21.333 21.333s9.557 21.333 21.333 21.333h640c11.733 0 21.333-9.6 21.333-21.333s-9.6-21.333-21.333-21.333zM981.333 170.667h-938.667c-11.776 0-21.333 9.6-21.333 21.333s9.557 21.333 21.333 21.333h938.667c11.733 0 21.333-9.6 21.333-21.333s-9.6-21.333-21.333-21.333z" />
<glyph unicode="&#xe902;" glyph-name="Align-Right" d="M1002.667 682.667h-981.333c-11.776 0-21.333 9.6-21.333 21.333s9.557 21.333 21.333 21.333h981.333c11.733 0 21.333-9.6 21.333-21.333s-9.6-21.333-21.333-21.333zM789.333 554.667h-768c-11.776 0-21.333 9.6-21.333 21.333s9.557 21.333 21.333 21.333h768c11.733 0 21.333-9.6 21.333-21.333s-9.6-21.333-21.333-21.333zM405.333 426.667h-384c-11.776 0-21.333 9.6-21.333 21.333s9.557 21.333 21.333 21.333h384c11.776 0 21.333-9.6 21.333-21.333s-9.557-21.333-21.333-21.333zM704 298.667h-682.667c-11.776 0-21.333 9.6-21.333 21.333s9.557 21.333 21.333 21.333h682.667c11.733 0 21.333-9.6 21.333-21.333s-9.6-21.333-21.333-21.333zM576 170.667h-554.667c-11.776 0-21.333 9.6-21.333 21.333s9.557 21.333 21.333 21.333h554.667c11.733 0 21.333-9.6 21.333-21.333s-9.6-21.333-21.333-21.333z" />
<glyph unicode="&#xe903;" glyph-name="Bar-Chart2" d="M128-64h-85.333c-11.733 0-21.333 9.6-21.333 21.333v213.333c0 11.733 9.6 21.333 21.333 21.333h85.333c11.733 0 21.333-9.6 21.333-21.333v-213.333c0-11.733-9.6-21.333-21.333-21.333zM64-21.333h42.667v170.667h-42.667v-170.667zM554.667-64h-85.333c-11.733 0-21.333 9.6-21.333 21.333v554.667c0 11.776 9.6 21.333 21.333 21.333h85.333c11.733 0 21.333-9.557 21.333-21.333v-554.667c0-11.733-9.6-21.333-21.333-21.333zM490.667-21.333h42.667v512h-42.667v-512zM768-64h-85.333c-11.733 0-21.333 9.6-21.333 21.333v981.333c0 11.776 9.6 21.333 21.333 21.333h85.333c11.733 0 21.333-9.557 21.333-21.333v-981.333c0-11.733-9.6-21.333-21.333-21.333zM704-21.333h42.667v938.667h-42.667v-938.667zM981.333-64h-85.333c-11.733 0-21.333 9.6-21.333 21.333v554.667c0 11.776 9.6 21.333 21.333 21.333h85.333c11.733 0 21.333-9.557 21.333-21.333v-554.667c0-11.733-9.6-21.333-21.333-21.333zM917.333-21.333h42.667v512h-42.667v-512zM341.333-64h-85.333c-11.733 0-21.333 9.6-21.333 21.333v640c0 11.776 9.6 21.333 21.333 21.333h85.333c11.733 0 21.333-9.557 21.333-21.333v-640c0-11.733-9.6-21.333-21.333-21.333zM277.333-21.333h42.667v597.333h-42.667v-597.333z" />
<glyph unicode="&#xe904;" glyph-name="Book" d="M874.667-64h-618.667c-70.571 0-128 57.429-128 128v768c0 72.064 80.256 128 149.333 128h576c11.733 0 21.333-9.557 21.333-21.333s-9.6-21.333-21.333-21.333h-576c-48 0-106.667-39.381-106.667-85.333v-42.667c0-45.952 58.667-85.333 106.667-85.333h597.333c11.733 0 21.333-9.557 21.333-21.333v-725.333c0-11.733-9.6-21.333-21.333-21.333zM170.667 703.445v-639.445c0-47.104 38.272-85.333 85.333-85.333h597.333v682.667h-576c-37.035 0-77.312 16.085-106.667 42.112zM810.667 789.333h-554.667c-11.776 0-21.333 9.557-21.333 21.333s9.557 21.333 21.333 21.333h554.667c11.733 0 21.333-9.557 21.333-21.333s-9.6-21.333-21.333-21.333z" />
<glyph unicode="&#xe905;" glyph-name="Books" d="M874.667-64h-490.667c-70.571 0-128 57.429-128 128v640c0 72.064 80.256 128 149.333 128h448c11.733 0 21.333-9.557 21.333-21.333s-9.6-21.333-21.333-21.333h-448c-48 0-106.667-39.381-106.667-85.333v-42.667c0-45.952 58.667-85.333 106.667-85.333h469.333c11.733 0 21.333-9.557 21.333-21.333v-597.333c0-11.733-9.6-21.333-21.333-21.333zM298.667 575.445v-511.445c0-47.104 38.272-85.333 85.333-85.333h469.333v554.667h-448c-37.035 0-77.312 16.085-106.667 42.112zM277.333 661.333c-69.077 0-149.333 55.936-149.333 128v42.667c0 72.064 80.256 128 149.333 128h448c11.733 0 21.333-9.557 21.333-21.333s-9.6-21.333-21.333-21.333h-448c-48 0-106.667-39.381-106.667-85.333v-42.667c0-45.952 58.667-85.333 106.667-85.333 11.776 0 21.333-9.557 21.333-21.333s-9.557-21.333-21.333-21.333zM256 64c-70.571 0-128 57.429-128 128v597.333c0 11.776 9.557 21.333 21.333 21.333s21.333-9.557 21.333-21.333v-597.333c0-47.104 38.272-85.333 85.333-85.333 11.776 0 21.333-9.6 21.333-21.333s-9.557-21.333-21.333-21.333zM853.333 661.333h-469.333c-11.776 0-21.333 9.557-21.333 21.333s9.557 21.333 21.333 21.333h469.333c11.733 0 21.333-9.557 21.333-21.333s-9.6-21.333-21.333-21.333z" />
<glyph unicode="&#xe906;" glyph-name="Bulleted-List" d="M149.333 659.541c-44.117 0-80 35.883-80 80s35.883 80 80 80 80-35.883 80-80-35.883-80-80-80zM149.333 776.875c-20.565 0-37.333-16.768-37.333-37.333s16.768-37.333 37.333-37.333 37.333 16.768 37.333 37.333-16.768 37.333-37.333 37.333zM933.333 716.459h-640c-11.776 0-21.333 9.6-21.333 21.333s9.557 21.333 21.333 21.333h640c11.733 0 21.333-9.6 21.333-21.333s-9.6-21.333-21.333-21.333zM149.333 446.208c-44.117 0-80 35.883-80 80s35.883 80 80 80 80-35.883 80-80-35.883-80-80-80zM149.333 563.541c-20.565 0-37.333-16.768-37.333-37.333s16.768-37.333 37.333-37.333 37.333 16.768 37.333 37.333-16.768 37.333-37.333 37.333zM933.333 503.125h-640c-11.776 0-21.333 9.6-21.333 21.333s9.557 21.333 21.333 21.333h640c11.733 0 21.333-9.6 21.333-21.333s-9.6-21.333-21.333-21.333zM149.333 232.875c-44.117 0-80 35.883-80 80s35.883 80 80 80 80-35.883 80-80-35.883-80-80-80zM149.333 350.208c-20.565 0-37.333-16.768-37.333-37.333s16.768-37.333 37.333-37.333 37.333 16.768 37.333 37.333-16.768 37.333-37.333 37.333zM933.333 289.792h-640c-11.776 0-21.333 9.6-21.333 21.333s9.557 21.333 21.333 21.333h640c11.733 0 21.333-9.6 21.333-21.333s-9.6-21.333-21.333-21.333zM933.333 76.459h-640c-11.776 0-21.333 9.6-21.333 21.333s9.557 21.333 21.333 21.333h640c11.733 0 21.333-9.6 21.333-21.333s-9.6-21.333-21.333-21.333z" />
<glyph unicode="&#xe907;" glyph-name="Code-Window" d="M1002.667 21.333h-981.333c-11.776 0-21.333 9.6-21.333 21.333v810.667c0 11.733 9.557 21.333 21.333 21.333h981.333c11.733 0 21.333-9.6 21.333-21.333v-810.667c0-11.733-9.6-21.333-21.333-21.333zM42.667 64h938.667v768h-938.667v-768zM981.333 661.333h-938.667c-11.776 0-21.333 9.6-21.333 21.333s9.557 21.333 21.333 21.333h938.667c11.733 0 21.333-9.6 21.333-21.333s-9.6-21.333-21.333-21.333zM343.125 129.749c-7.083 0-14.037 3.499-18.091 9.899l-129.792 206.251c-4.651 7.509-4.309 16.896 0.896 24.021l129.792 176c6.997 9.6 20.309 11.563 29.824 4.395 9.472-6.997 11.52-20.352 4.48-29.824l-121.131-164.309 122.027-193.92c6.272-9.941 3.285-23.168-6.699-29.355-3.456-2.176-7.424-3.157-11.307-3.157zM682.667 129.749c-3.883 0-7.851 0.981-11.349 3.285-9.984 6.229-13.013 19.413-6.699 29.355l122.027 193.92-121.173 164.352c-6.997 9.515-4.992 22.827 4.48 29.824 9.472 7.040 22.827 4.992 29.824-4.48l129.749-176c5.248-7.083 5.589-16.597 0.896-24.021l-129.792-206.251c-3.968-6.485-10.88-9.984-17.963-9.984zM426.667 168.832c-3.541 0-7.083 0.896-10.411 2.688-10.283 5.76-13.952 18.731-8.192 29.184l168.875 302.251c5.76 10.325 18.688 14.037 29.099 8.064 10.24-5.76 13.909-18.688 8.149-29.056l-168.875-302.251c-3.925-6.955-11.179-10.88-18.645-10.88zM128 768c0-11.776-9.557-21.333-21.333-21.333s-21.333 9.557-21.333 21.333c0 11.776 9.557 21.333 21.333 21.333s21.333-9.557 21.333-21.333zM213.333 768c0-11.776-9.557-21.333-21.333-21.333s-21.333 9.557-21.333 21.333c0 11.776 9.557 21.333 21.333 21.333s21.333-9.557 21.333-21.333zM298.667 768c0-11.776-9.557-21.333-21.333-21.333s-21.333 9.557-21.333 21.333c0 11.776 9.557 21.333 21.333 21.333s21.333-9.557 21.333-21.333z" />
<glyph unicode="&#xe908;" glyph-name="Edit-Map" d="M1002.667-38.997c-1.707 0-3.456 0.256-5.163 0.683l-341.333 85.333c-11.52 2.816-18.389 14.421-15.488 25.813 2.773 11.52 14.251 18.347 25.813 15.488l314.837-78.635v466.176l-130.987 18.688c-11.563 1.664-19.797 12.459-18.133 24.064 1.664 11.648 12.672 19.499 24.107 18.176l149.333-21.333c10.496-1.493 18.347-10.496 18.347-21.12v-512c0-6.571-2.987-12.843-8.149-16.896-3.84-2.859-8.533-4.437-13.184-4.437zM320-38.997c-4.651 0-9.344 1.579-13.184 4.48-5.163 4.096-8.149 10.283-8.149 16.853v512c0 9.173 5.931 17.323 14.592 20.267l64 21.333c11.264 3.669 23.253-2.347 27.008-13.397 3.755-11.264-2.347-23.253-13.397-27.093l-49.536-16.427v-469.333l298.667 74.667v303.317c0 11.733 9.6 21.333 21.333 21.333s21.333-9.6 21.333-21.333v-320c0-9.771-6.656-18.347-16.171-20.651l-341.333-85.333c-1.707-0.427-3.456-0.683-5.163-0.683zM320-38.997c-1.963 0-3.925 0.256-5.931 0.853l-298.667 85.333c-9.088 2.645-15.403 10.88-15.403 20.48v512c0 6.699 3.115 13.013 8.491 16.981 5.333 4.096 12.16 5.419 18.688 3.499l298.667-85.333c9.173-2.603 15.488-10.88 15.488-20.48v-512c0-6.656-3.115-13.013-8.491-16.981-3.755-2.859-8.277-4.352-12.843-4.352zM42.667 83.755l256-73.088v467.584l-256 73.131v-467.627zM454.315 436.693c-5.589 0-11.093 2.219-15.104 6.229-5.163 5.163-7.339 12.672-5.717 19.84l51.797 227.499c0.896 3.968 2.859 7.552 5.717 10.325l199.211 199.168c38.784 38.827 103.040 47.531 134.272 16.299l87.893-87.893c16.384-16.299 23.083-41.216 18.56-68.224-4.096-24.021-16.811-48-34.731-66.133l-199.211-199.253c-2.773-2.773-6.357-4.779-10.325-5.717l-227.456-51.755c-1.707-0.213-3.285-0.384-4.907-0.384zM525.483 674.773l-42.837-188.416 188.416 42.837 194.773 194.901c11.904 11.904 20.309 27.605 22.869 43.008 2.261 13.312-0.128 24.491-6.571 31.019l-87.893 87.936c-6.229 6.187-15.104 7.424-21.632 7.424-17.664 0-37.76-9.088-52.437-23.765l-194.688-194.944zM695.253 869.632l170.752-170.645-30.165-30.187-170.752 170.645 30.165 30.187zM695.424 502.101c-97.579 0-196.992 99.499-196.992 196.992h42.667c0-73.557 80.853-154.325 154.325-154.325v-42.667zM752.96 786.709l30.187-30.229-178.283-178.027-30.187 30.229 178.283 178.027z" />
<glyph unicode="&#xe909;" glyph-name="Eye-Visible" d="M512 150.656c-209.323 0-400.085 106.923-510.251 286.165-4.224 6.827-4.224 15.488 0 22.315 110.123 179.2 300.885 286.208 510.251 286.208s400.128-106.965 510.251-286.208c4.267-6.827 4.267-15.488 0-22.315-110.165-179.2-300.928-286.165-510.251-286.165zM45.184 448c103.253-159.744 276.821-254.677 466.816-254.677s363.563 94.933 466.859 254.677c-103.253 159.744-276.821 254.677-466.859 254.677s-363.563-94.933-466.816-254.677zM512 275.584c-95.061 0-172.416 77.355-172.416 172.416 0 95.104 77.355 172.459 172.416 172.459 95.104 0 172.416-77.355 172.416-172.459s-77.312-172.416-172.416-172.416zM512 577.792c-71.552 0-129.749-58.197-129.749-129.792 0-71.552 58.197-129.749 129.749-129.749s129.749 58.155 129.749 129.749c0 71.552-58.24 129.792-129.749 129.792zM727.211 192.171c-5.76 0-11.52 2.347-15.701 6.912-7.979 8.661-7.381 22.187 1.28 30.165 61.056 56.064 96.043 135.936 96.043 218.795 0 82.987-35.072 162.731-96.256 218.88-8.704 7.979-9.259 21.461-1.323 30.165 8.021 8.704 21.504 9.259 30.165 1.323 70.016-64.213 110.080-155.477 110.080-250.325s-40.021-186.027-109.867-250.24c-4.053-3.84-9.216-5.675-14.421-5.675zM296.96 192.085c-5.163 0-10.325 1.835-14.421 5.547-69.973 64.171-110.080 155.392-110.080 250.325 0 94.848 40.064 186.027 109.952 250.197 8.661 7.979 22.187 7.424 30.165-1.237 8.021-8.704 7.381-22.187-1.28-30.165-61.099-56.107-96.128-135.851-96.128-218.752 0-82.987 35.072-162.731 96.256-218.837 8.704-8.021 9.301-21.461 1.323-30.165-4.267-4.565-10.027-6.912-15.787-6.912z" />
<glyph unicode="&#xe90a;" glyph-name="Flag" d="M216.021-41.984c-11.776 0-21.333 9.557-21.333 21.333v853.333c0 11.776 9.557 21.333 21.333 21.333s21.333-9.557 21.333-21.333v-853.333c0-11.819-9.557-21.333-21.333-21.333zM216.021 831.317c-35.285 0-64 28.715-64 64s28.715 64 64 64 64-28.715 64-64-28.715-64-64-64zM216.021 916.651c-11.776 0-21.333-9.6-21.333-21.333 0-11.648 9.557-21.333 21.333-21.333s21.333 9.685 21.333 21.333c0 11.776-9.557 21.333-21.333 21.333zM280.021-63.317h-128c-11.776 0-21.333 9.557-21.333 21.333s9.557 21.333 21.333 21.333h128c11.776 0 21.333-9.557 21.333-21.333s-9.557-21.333-21.333-21.333zM216.021 406.229c-4.352 0-8.661 1.323-12.288 3.883-5.675 4.053-9.045 10.496-9.045 17.451v383.573c0 6.485 2.944 12.629 8.021 16.683 5.077 4.011 11.776 5.589 18.048 4.224l655.957-149.12c9.301-2.091 16-10.027 16.555-19.499 0.597-9.6-5.163-18.261-14.080-21.376l-656-234.453c-2.304-0.939-4.736-1.365-7.168-1.365zM237.355 784.469v-326.571l558.464 199.595-558.464 126.976z" />
<glyph unicode="&#xe90b;" glyph-name="Font-Color" d="M794.667 120.747c-8.917 0-17.237 5.675-20.267 14.592l-241.067 723.285-241.109-723.285c-3.712-11.179-15.701-17.152-26.965-13.483-11.179 3.755-17.195 15.829-13.483 27.008l261.333 784c5.803 17.408 34.688 17.408 40.491 0l261.333-784.043c3.669-11.179-2.432-23.253-13.483-27.008-2.304-0.725-4.523-1.067-6.784-1.067zM320 334.080h426.667v-42.667h-426.667v42.667zM298.667-49.92h-170.667c-11.776 0-21.333 9.6-21.333 21.333v170.667c0 11.733 9.557 21.333 21.333 21.333h170.667c11.776 0 21.333-9.6 21.333-21.333v-170.667c0-11.733-9.557-21.333-21.333-21.333zM149.333-7.253h128v128h-128v-128zM597.333-49.92h-170.667c-11.776 0-21.333 9.6-21.333 21.333v170.667c0 11.733 9.557 21.333 21.333 21.333h170.667c11.733 0 21.333-9.6 21.333-21.333v-170.667c0-11.733-9.6-21.333-21.333-21.333zM448-7.253h128v128h-128v-128zM896-49.92h-170.667c-11.733 0-21.333 9.6-21.333 21.333v170.667c0 11.733 9.6 21.333 21.333 21.333h170.667c11.733 0 21.333-9.6 21.333-21.333v-170.667c0-11.733-9.6-21.333-21.333-21.333zM746.667-7.253h128v128h-128v-128z" />
<glyph unicode="&#xe90c;" glyph-name="Function" d="M702.592-64c-8.917 0-17.237 5.675-20.267 14.677l-234.795 707.029-234.795-707.029c-3.712-11.264-15.787-17.323-26.965-13.568s-17.237 15.829-13.525 27.008l255.061 768c5.803 17.493 34.688 17.493 40.491 0l255.061-768c3.755-11.179-2.347-23.253-13.483-27.008-2.304-0.768-4.565-1.109-6.784-1.109zM255.531 192h384v-42.667h-384v42.667zM703.488 704c-58.752 0-106.667 47.829-106.667 106.667s47.915 106.667 106.667 106.667c58.837 0 106.667-47.829 106.667-106.667s-47.829-106.667-106.667-106.667zM703.488 874.667c-35.243 0-64-28.715-64-64s28.757-64 64-64c35.328 0 64 28.715 64 64s-28.672 64-64 64zM682.155 960h42.667v-85.333h-42.667v85.333zM682.155 746.667h42.667v-85.333h-42.667v85.333zM554.155 832h85.333v-42.667h-85.333v42.667zM767.488 832h85.333v-42.667h-85.333v42.667zM597.461 927.403l60.288-60.331-30.187-30.165-60.288 60.331 30.187 30.165zM768.085 775.957l60.331-60.331-30.165-30.165-60.331 60.331 30.165 30.165zM643.179 780.523l30.165-30.165-60.331-60.331-30.165 30.165 60.331 60.331zM794.005 931.392l30.165-30.165-60.331-60.331-30.165 30.165 60.331 60.331z" />
<glyph unicode="&#xe90d;" glyph-name="Gear" d="M512-42.624c-62.208 0-113.067 49.579-115.157 111.317-24.832 7.509-48.853 17.408-71.723 29.611-43.648-40.96-117.504-39.979-160.085 2.688-21.76 21.76-33.749 50.645-33.749 81.408 0 29.397 10.965 57.259 31.019 78.72-12.245 22.912-22.187 46.891-29.653 71.723-61.739 2.133-111.317 52.907-111.317 115.2 0 62.165 49.579 113.024 111.317 115.072 7.509 24.832 17.451 48.939 29.696 71.765-20.053 21.419-31.061 49.152-31.061 78.805 0 30.805 11.989 59.605 33.792 81.28 42.496 42.667 116.352 43.648 160.043 2.688 22.869 12.245 46.891 22.229 71.723 29.696 2.048 61.696 52.907 111.275 115.157 111.275s113.067-49.579 115.157-111.232c24.832-7.509 48.811-17.493 71.68-29.696 43.648 40.96 117.547 39.893 160.085-2.688 21.76-21.675 33.749-50.645 33.749-81.408 0-29.397-10.965-57.259-31.019-78.72 12.245-22.827 22.187-46.891 29.653-71.723 61.739-2.005 111.317-52.907 111.317-115.072 0-62.251-49.579-113.067-111.317-115.157-7.509-24.832-17.408-48.853-29.611-71.765 20.011-21.419 31.019-49.067 31.019-78.72 0-30.805-11.947-59.605-33.749-81.408-42.496-42.581-116.309-43.605-160.085-2.688-22.869-12.245-46.848-22.229-71.68-29.611-2.133-61.781-52.992-111.36-115.2-111.36zM319.488 147.456c3.755 0 7.509-0.981 10.923-2.987 29.355-17.579 61.013-30.805 94.165-39.168 10.496-2.688 17.323-12.757 15.915-23.509-0.683-4.693-1.024-6.912-1.024-9.173 0-40.021 32.555-72.576 72.533-72.576 40.021 0 72.533 32.64 72.533 72.576 0 2.304-0.384 4.437-0.725 6.528-1.493 10.752 4.992 23.424 15.531 26.027 33.152 8.363 64.811 21.589 94.165 39.168 9.301 5.504 21.12 3.328 27.733-5.077 1.749-2.347 3.115-4.565 4.437-6.997 28.203-29.355 75.605-28.501 102.955-0.981 13.696 13.653 21.248 31.872 21.248 51.243 0 19.413-7.552 37.632-21.248 51.328-3.371 1.664-5.803 3.115-8.021 4.907-8.405 6.656-10.624 18.517-5.12 27.648 17.579 29.355 30.763 61.099 39.168 94.165 2.688 10.411 12.459 17.195 23.339 15.915 5.077-0.768 7.168-1.024 9.344-1.024 40.021 0 72.533 32.555 72.533 72.533 0 42.069-37.717 76.501-78.976 71.936-10.752-1.749-23.595 4.992-26.24 15.488-8.448 33.067-21.589 64.853-39.168 94.123-5.547 9.259-3.328 21.12 5.205 27.776 2.261 1.749 4.608 3.157 7.083 4.437 14.592 13.995 22.144 32.213 22.144 51.627 0 19.371-7.552 37.589-21.205 51.243-27.435 27.435-75.179 27.435-102.613 0-1.749-3.413-3.115-5.76-4.864-8.021-6.613-8.491-18.475-10.667-27.733-5.077-29.355 17.579-61.013 30.763-94.165 39.168-10.453 2.688-17.28 12.672-15.872 23.424 0.683 4.736 0.981 6.997 0.981 9.259 0 40.021-32.597 72.491-72.533 72.491-39.979 0-72.533-32.597-72.533-72.491 0-2.347 0.384-4.437 0.683-6.571 1.536-10.752-4.992-23.424-15.531-26.069-33.152-8.32-64.853-21.589-94.165-39.168-9.216-5.504-21.12-3.328-27.733 5.163-1.707 2.347-3.115 4.608-4.437 7.040-28.203 29.397-75.605 28.416-102.955 0.981-13.696-13.611-21.248-31.829-21.291-51.2 0-19.413 7.552-37.675 21.248-51.371 3.328-1.707 5.717-3.072 7.979-4.821 8.533-6.613 10.709-18.603 5.205-27.733-17.579-29.355-30.763-61.099-39.168-94.123-2.645-10.411-12.757-17.579-23.339-15.915-5.077 0.683-7.168 0.939-9.344 0.939-40.021 0-72.533-32.555-72.533-72.491 0-42.155 38.101-76.757 78.933-71.979 10.709 1.536 23.595-4.949 26.283-15.445 8.405-33.024 21.589-64.811 39.168-94.165 5.504-9.173 3.328-20.992-5.12-27.605-2.261-1.792-4.651-3.243-7.125-4.523-14.592-13.995-22.187-32.256-22.144-51.669 0-19.413 7.552-37.589 21.248-51.243 27.435-27.477 75.179-27.477 102.571 0 1.749 3.413 3.157 5.76 4.907 8.021 4.139 5.205 10.411 8.021 16.768 8.021zM512 301.525c-80.768 0-146.475 65.664-146.475 146.517s65.707 146.517 146.475 146.517c80.768 0 146.517-65.664 146.517-146.517s-65.749-146.517-146.517-146.517zM512 551.893c-57.259 0-103.808-46.592-103.808-103.851s46.549-103.851 103.808-103.851 103.851 46.592 103.851 103.851-46.592 103.851-103.851 103.851zM512 170.709c-152.917 0-277.333 124.416-277.333 277.333s124.416 277.333 277.333 277.333 277.333-124.416 277.333-277.333-124.416-277.333-277.333-277.333zM512 682.709c-129.408 0-234.667-105.301-234.667-234.667s105.259-234.667 234.667-234.667 234.667 105.301 234.667 234.667-105.259 234.667-234.667 234.667z" />
<glyph unicode="&#xe90e;" glyph-name="Hand-Touch" d="M357.376 341.419c-11.776 0-21.333 9.6-21.333 21.333v402.475c0 45.184 39.083 83.243 85.333 83.243 47.061 0 85.333-36.907 85.333-82.347v-275.413c0-11.733-9.6-21.333-21.333-21.333-11.776 0-21.333 9.6-21.333 21.333v275.456c0 21.504-19.541 39.68-42.667 39.68s-42.667-18.645-42.667-40.576v-402.475c0-11.776-9.6-21.376-21.333-21.376zM613.376 384.085c-11.776 0-21.333 9.6-21.333 21.333v103.808c0 22.059-19.541 40.576-42.667 40.576s-42.667-18.176-42.667-39.68v-104.747c0-11.733-9.6-21.333-21.333-21.333-11.776 0-21.333 9.6-21.333 21.333v104.747c0 45.355 38.229 82.347 85.333 82.347 46.251 0 85.333-38.187 85.333-83.243v-103.808c0-11.733-9.6-21.333-21.333-21.333zM741.376 341.419c-11.776 0-21.333 9.6-21.333 21.333v103.808c0 22.059-19.541 40.576-42.667 40.576s-42.667-18.176-42.667-39.68v-104.747c0-11.733-9.6-21.333-21.333-21.333-11.776 0-21.333 9.6-21.333 21.333v104.747c0 45.355 38.229 82.347 85.333 82.347 46.251 0 85.333-38.187 85.333-83.243v-103.808c0-11.733-9.6-21.333-21.333-21.333zM696.021-63.915h-241.024c-101.291 0-173.141 156.331-236.459 294.229-24.021 52.181-46.635 101.419-65.451 128-27.648 38.912-26.027 86.997 3.925 116.992 33.28 33.195 86.528 34.176 118.741 2.005l97.792-100.48c8.149-8.32 8.021-21.931-0.427-30.165-8.448-8.064-22.016-8.021-30.165 0.427l-97.621 100.224c-15.104 15.104-41.856 14.251-58.197-2.176-17.451-17.408-11.861-44.459 0.683-62.165 21.163-29.824 43.563-78.507 69.419-134.827 52.267-113.749 123.776-269.397 197.717-269.397h236.715c24.32 10.752 156.373 75.563 156.373 214.315v230.827c0 21.973-19.541 40.491-42.667 40.491s-42.667-18.176-42.667-39.637v-104.661c0-11.733-9.6-21.333-21.333-21.333-11.776 0-21.333 9.6-21.333 21.333v104.747c0 45.312 38.229 82.304 85.333 82.304 46.251 0 85.333-38.187 85.333-83.243v-230.827c0-178.731-179.115-252.416-186.752-255.403-2.56-1.067-5.205-1.579-7.936-1.579zM349.525 562.219c-2.645 0-5.291 0.512-7.851 1.493-26.112 10.368-49.579 25.685-69.589 45.355-39.509 38.912-61.355 90.581-61.355 145.493s21.803 106.581 61.355 145.493c81.365 79.829 213.717 79.915 295.040 0 39.552-38.912 61.312-90.581 61.312-145.493s-21.76-106.581-61.312-145.493c-19.541-19.157-42.325-34.176-67.755-44.501-10.923-4.437-23.339 0.853-27.819 11.605-4.437 10.923 0.768 23.381 11.691 27.776 20.267 8.235 38.357 20.267 53.973 35.499 31.275 30.763 48.512 71.595 48.512 114.987s-17.237 84.395-48.555 115.029c-64.896 63.659-170.411 63.659-235.221 0-31.275-30.848-48.555-71.68-48.555-114.987 0-43.563 17.237-84.437 48.597-114.987 15.957-15.744 34.603-27.861 55.424-36.181 10.965-4.437 16.299-16.853 11.989-27.563-3.285-8.405-11.307-13.525-19.883-13.525z" />
<glyph unicode="&#xe90f;" glyph-name="ID-Card" d="M1002.667 149.333h-981.333c-11.733 0-21.333 9.557-21.333 21.333v554.667c0 11.776 9.6 21.333 21.333 21.333h981.333c11.733 0 21.333-9.557 21.333-21.333v-554.667c0-11.776-9.6-21.333-21.333-21.333zM42.667 192h938.667v512h-938.667v-512zM320 277.333h-170.667c-35.285 0-64 28.715-64 64v213.333c0 35.285 28.715 64 64 64h170.667c35.285 0 64-28.715 64-64v-213.333c0-35.285-28.715-64-64-64zM149.333 576c-11.733 0-21.333-9.6-21.333-21.333v-213.333c0-11.733 9.6-21.333 21.333-21.333h170.667c11.733 0 21.333 9.6 21.333 21.333v213.333c0 11.733-9.6 21.333-21.333 21.333h-170.667zM853.333 490.667h-384c-11.733 0-21.333 9.557-21.333 21.333s9.6 21.333 21.333 21.333h384c11.733 0 21.333-9.557 21.333-21.333s-9.6-21.333-21.333-21.333zM853.333 362.667h-384c-11.733 0-21.333 9.557-21.333 21.333s9.6 21.333 21.333 21.333h384c11.733 0 21.333-9.557 21.333-21.333s-9.6-21.333-21.333-21.333z" />
<glyph unicode="&#xe910;" glyph-name="Idea" d="M614.4 102.4h-204.8c-9.421 0-17.067 7.68-17.067 17.067v187.733c0 9.421 7.646 17.067 17.067 17.067s17.067-7.646 17.067-17.067v-170.667h170.667v170.667c0 9.421 7.68 17.067 17.067 17.067s17.067-7.646 17.067-17.067v-187.733c0-9.387-7.68-17.067-17.067-17.067zM513.946 4.267c-70.349 0-121.412 48.469-121.412 115.2 0 9.421 7.646 17.067 17.067 17.067s17.067-7.646 17.067-17.067c0-47.684 35.874-81.067 87.279-81.067 49.869 0 83.388 32.597 83.388 81.067 0 9.421 7.68 17.067 17.067 17.067s17.067-7.646 17.067-17.067c0-67.789-48.333-115.2-117.521-115.2zM306.825 814.933c-4.369 0-8.738 1.673-12.083 4.983l-42.667 42.667c-6.656 6.656-6.656 17.476 0 24.132s17.442 6.656 24.132 0l42.667-42.667c6.656-6.656 6.656-17.476 0-24.132-3.311-3.311-7.68-4.983-12.049-4.983zM733.491 814.933c-4.369 0-8.772 1.673-12.083 4.983-6.656 6.656-6.656 17.476 0 24.132l42.667 42.667c6.656 6.656 17.476 6.656 24.132 0s6.656-17.476 0-24.132l-42.667-42.667c-3.311-3.311-7.68-4.983-12.049-4.983zM264.158 302.933c-4.369 0-8.738 1.673-12.083 4.983-6.656 6.656-6.656 17.476 0 24.132l42.667 42.667c6.656 6.656 17.442 6.656 24.132 0 6.656-6.656 6.656-17.476 0-24.132l-42.667-42.667c-3.311-3.311-7.68-4.983-12.049-4.983zM776.158 302.933c-4.369 0-8.772 1.673-12.083 4.983l-42.667 42.667c-6.656 6.656-6.656 17.476 0 24.132s17.476 6.656 24.132 0l42.667-42.667c6.656-6.656 6.656-17.476 0-24.132-3.311-3.311-7.68-4.983-12.049-4.983zM187.733 580.267h-68.267c-9.421 0-17.067 7.646-17.067 17.067s7.646 17.067 17.067 17.067h68.267c9.421 0 17.067-7.646 17.067-17.067s-7.646-17.067-17.067-17.067zM904.533 580.267h-34.133c-9.387 0-17.067 7.646-17.067 17.067s7.68 17.067 17.067 17.067h34.133c9.387 0 17.067-7.646 17.067-17.067s-7.68-17.067-17.067-17.067zM614.4 273.067h-204.8c-9.421 0-17.067 7.68-17.067 17.067v63.795c-29.901 12.868-46.353 29.286-66.628 49.596-52.292 52.224-80.35 120.9-79.804 193.98 0.58 72.772 29.286 141.312 80.964 192.922 51.575 51.575 120.183 79.974 193.092 79.974s141.517-28.399 193.058-79.974c51.337-51.302 78.643-120.013 76.902-193.468-1.741-72.397-31.232-140.8-83.149-192.683-22.528-22.562-46.217-38.434-75.537-50.483v-63.659c0.034-9.387-7.646-17.067-17.033-17.067zM426.667 307.2h170.667v58.334c0 7.202 4.506 13.551 11.264 16.043 29.73 10.684 52.634 25.156 74.274 46.865 45.636 45.636 71.612 105.779 73.148 169.335 1.502 64.034-22.255 123.87-66.901 168.55-45.090 45.124-105.097 69.973-168.926 69.973s-123.802-24.849-168.96-69.973c-45.329-45.261-70.485-105.301-70.997-169.028-0.478-63.898 24.064-123.87 69.018-168.823 21.982-22.016 35.977-35.942 66.15-46.865 6.758-2.458 11.264-8.841 11.264-16.077v-58.334zM399.497 459.605c-4.369 0-8.738 1.673-12.083 4.983-35.499 35.465-54.989 82.603-54.989 132.745s19.524 97.28 54.989 132.745c6.656 6.656 17.476 6.656 24.132 0s6.656-17.442 0-24.132c-29.013-29.047-44.988-67.584-44.988-108.612s15.974-79.565 44.988-108.612c6.656-6.656 6.656-17.476 0-24.132-3.345-3.277-7.68-4.983-12.049-4.983zM614.4 183.671c-2.492 0-5.052 0.546-7.475 1.673l-200.909 97.997c-8.465 4.13-11.981 14.336-7.851 22.801s14.302 12.049 22.801 7.817l200.909-97.929c8.465-4.13 12.015-14.37 7.851-22.835-2.935-6.042-8.977-9.523-15.326-9.523zM588.527 110.933c-2.492 0-5.052 0.58-7.475 1.741l-175.036 85.333c-8.465 4.13-11.981 14.336-7.851 22.801s14.302 12.083 22.801 7.851l175.036-85.333c8.465-4.13 12.015-14.336 7.851-22.801-2.97-6.042-9.011-9.591-15.326-9.591z" />
<glyph unicode="&#xe911;" glyph-name="Landscape" d="M828.629-64h-633.259c-107.733 0-195.371 87.637-195.371 195.328v633.344c0 107.648 87.637 195.328 195.371 195.328h633.259c107.691 0 195.371-87.68 195.371-195.328v-633.344c0-107.691-87.637-195.328-195.371-195.328zM195.371 917.333c-84.224 0-152.704-68.48-152.704-152.661v-633.344c0-84.181 68.48-152.661 152.704-152.661h633.259c84.224 0 152.704 68.48 152.704 152.661v633.344c0 84.181-68.48 152.661-152.704 152.661h-633.259zM743.296 149.333h-462.592c-107.733 0-195.371 87.637-195.371 195.328v334.677c0 107.648 87.637 195.328 195.371 195.328h462.592c107.691 0 195.371-87.68 195.371-195.328v-334.677c0-107.691-87.637-195.328-195.371-195.328zM280.704 832c-84.224 0-152.704-68.48-152.704-152.661v-334.677c0-84.181 68.48-152.661 152.704-152.661h462.592c84.224 0 152.704 68.48 152.704 152.661v334.677c0 84.181-68.48 152.661-152.704 152.661h-462.592zM777.259 277.333h-530.901c-8.533 0-16.213 5.077-19.584 12.928-3.371 7.936-1.749 16.896 4.139 23.125l184.832 194.688c7.211 7.68 18.944 8.832 27.648 2.688l94.677-65.792 95.061 165.248c4.053 7.083 11.392 11.307 19.84 10.667 8.107-0.512 15.189-5.589 18.389-13.099l125.611-300.928c2.731-6.571 2.048-14.080-1.92-20.053-4.011-5.888-10.667-9.472-17.792-9.472zM296.021 320h449.195l-96.683 231.509-85.12-147.968c-2.987-5.205-8.021-8.875-13.824-10.197-5.845-1.152-11.904-0.085-16.853 3.328l-98.688 68.565-138.027-145.237zM316.459 640.512c-35.285 0-64 28.757-64 64 0 35.285 28.715 64 64 64s64-28.715 64-64c0-35.243-28.715-64-64-64zM316.459 725.845c-11.776 0-21.333-9.6-21.333-21.333 0-11.648 9.557-21.333 21.333-21.333s21.333 9.685 21.333 21.333c0 11.733-9.557 21.333-21.333 21.333z" />
<glyph unicode="&#xe912;" glyph-name="Male" d="M64-69.163c-11.776 0-21.333 9.557-21.333 21.333v42.667c0 123.563 98.688 213.333 234.667 213.333h52.608l61.141 91.264c6.571 9.771 19.84 12.416 29.611 5.931 9.771-6.528 12.416-19.84 5.845-29.568l-67.499-100.693c-3.968-5.931-10.624-9.472-17.749-9.472h-64c-113.024 0-192-70.229-192-170.667v-42.667c0.043-11.904-9.515-21.461-21.291-21.461zM960-69.163c-11.733 0-21.333 9.557-21.333 21.333v42.667c0 100.48-77.483 170.667-188.501 170.667h-64c-7.040 0-13.568 3.456-17.579 9.259l-69.248 100.693c-6.656 9.728-4.224 22.997 5.504 29.611 9.771 6.613 22.997 4.224 29.653-5.547l62.933-91.477h52.736c136.064 0 231.168-87.765 231.168-213.333v-42.667c0-11.648-9.6-21.205-21.333-21.205zM512 229.504c-125.355 0-224.043 134.187-233.856 257.408-44.544 6.571-64.811 34.688-64.811 62.592v85.333c0 26.667 25.813 45.909 42.667 55.637v72.363c0 76.587 25.216 147.499 206.293 149.291 61.056 43.691 119.808 53.035 158.891 53.035 75.563 0 140.416-34.261 165.333-87.253 18.432-39.509 11.861-82.731-18.517-122.539v-64.896c16.853-9.728 42.667-28.971 42.667-55.637v-85.333c0-27.819-20.267-56.021-64.853-62.592-9.771-123.264-108.459-257.408-233.813-257.408zM621.184 922.496c-33.749 0-85.333-8.448-139.051-48.853-3.669-2.688-8.149-4.267-12.8-4.267-170.667 0-170.667-59.136-170.667-106.667v-85.333c0-8.363-4.949-16-12.587-19.456-15.189-6.827-29.269-18.688-30.123-23.339v-85.163c0-15.744 22.997-21.333 42.667-21.333 11.776 0 21.333-9.6 21.333-21.333 0-106.283 85.632-234.667 192-234.667s192 128.384 192 234.667c0 11.733 9.557 21.333 21.333 21.333 19.669 0 42.667 5.589 42.667 21.333v85.333c-0.896 5.035-16.384 17.067-30.037 23.211-7.68 3.413-12.629 11.051-12.629 19.456v85.333c0 4.992 1.749 9.771 4.949 13.653 23.723 28.416 29.739 57.259 17.579 83.243-17.536 37.675-68.48 62.848-126.635 62.848z" />
<glyph unicode="&#xe913;" glyph-name="MaleFemale" horiz-adv-x="1259" d="M1237.333-21.76c-11.733 0-21.333 9.472-21.333 21.12 0 103.040-170.368 190.080-277.333 190.080-9.173 0-17.323 5.845-20.267 14.421l-42.667 126.72c-3.669 11.093 2.347 23.040 13.44 26.752 11.392 3.797 23.253-2.347 27.051-13.269l37.973-112.811c125.611-7.723 304.469-104.704 304.469-231.808 0-11.733-9.6-21.205-21.333-21.205zM810.667 316.16c-11.733 0-21.333 9.515-21.333 21.12s9.6 21.12 21.333 21.12c207.915 0 290.688 102.571 316.843 147.328-19.072 32.171-71.765 123.307-81.579 164.565-16.939 71.296-73.984 237.184-235.264 237.184-11.733 0-21.333 9.472-21.333 21.12s9.6 21.12 21.333 21.12c135.040 0 235.904-98.304 276.736-269.696 8.405-35.072 62.677-129.536 82.901-162.987 3.669-6.144 4.011-13.867 0.768-20.224-21.419-42.411-110.635-180.651-360.405-180.651zM469.333 231.68c-125.355 0-224.043 132.821-233.856 254.848-44.544 6.485-64.811 34.347-64.811 61.952v84.48c0 26.411 25.813 45.44 42.667 55.125v71.595c0 75.819 25.216 146.005 206.293 147.797 61.056 43.264 119.808 52.523 158.848 52.523 75.563 0 140.459-33.92 165.333-86.357 18.475-39.125 11.819-81.877-18.56-121.301v-64.256c16.896-9.643 42.667-28.672 42.667-55.125v-84.48c0-27.52-20.309-55.467-64.896-61.952-9.643-122.027-108.331-254.848-233.685-254.848zM578.517 917.76c-33.792 0-85.333-8.363-139.051-48.341-3.669-2.688-8.149-4.224-12.8-4.224-170.667 0-170.667-58.539-170.667-105.6v-84.48c0-8.277-4.949-15.829-12.587-19.285-15.189-6.784-29.269-18.517-30.123-23.083v-84.352c0-15.573 22.997-21.12 42.667-21.12 11.776 0 21.333-9.515 21.333-21.12 0-105.259 85.632-232.32 192-232.32s192 127.104 192 232.32c0 11.605 9.557 21.12 21.333 21.12 19.669 0 42.667 5.504 42.667 21.12v84.48c-0.896 4.992-16.384 16.896-30.037 22.997-7.68 3.413-12.629 10.965-12.629 19.285v84.48c0 4.949 1.749 9.685 4.949 13.525 23.723 28.117 29.739 56.704 17.579 82.432-17.536 37.248-68.48 62.165-126.635 62.165zM21.333-64c-11.776 0-21.333 9.515-21.333 21.12v42.24c0 122.325 98.688 211.2 234.667 211.2h52.608l61.141 90.325c6.528 9.685 19.84 12.288 29.611 5.888 9.771-6.443 12.416-19.669 5.845-29.312l-67.499-99.712c-3.968-5.845-10.624-9.344-17.749-9.344h-64c-113.024 0-192-69.504-192-168.96v-42.24c0.043-11.691-9.515-21.205-21.291-21.205zM917.333-64c-11.733 0-21.333 9.515-21.333 21.12v42.24c0 99.499-77.483 168.96-188.501 168.96h-64c-7.040 0-13.611 3.413-17.579 9.173l-69.248 99.669c-6.656 9.643-4.224 22.784 5.504 29.355 9.728 6.528 22.997 4.181 29.653-5.504l62.933-90.539h52.736c136.064 0 231.168-86.912 231.168-211.2v-42.24c0-11.52-9.6-21.035-21.333-21.035z" />
<glyph unicode="&#xe914;" glyph-name="On-off" d="M724.352 170.667h-425.344c-152.917 0-277.333 124.416-277.333 277.333s124.416 277.333 277.333 277.333h426.667c152.576 0 276.651-125.099 276.651-278.869 0-152.149-124.672-275.797-277.973-275.797zM299.008 682.667c-129.408 0-234.667-105.301-234.667-234.667s105.259-234.667 234.667-234.667h425.344c129.792 0 235.392 104.576 235.392 233.131 0 130.304-104.96 236.203-233.984 236.203h-426.752zM297.216 276.437c-94.123 0-170.667 76.587-170.667 170.667s76.544 170.667 170.667 170.667 170.667-76.587 170.667-170.667-76.544-170.667-170.667-170.667zM297.216 575.104c-70.571 0-128-57.429-128-127.915 0-70.528 57.429-128 128-128s128 57.472 128 128c0 70.485-57.429 127.915-128 127.915z" />
<glyph unicode="&#xe915;" glyph-name="Pen-5" d="M49.28-35.413c-5.589 0-11.051 2.261-15.104 6.229-5.205 5.163-7.339 12.672-5.717 19.84l71.083 312.405c0.896 3.883 2.859 7.509 5.717 10.325l575.317 575.445c49.067 48.981 127.531 57.173 167.808 16.896l120.661-120.704c20.864-20.821 30.123-50.389 26.069-83.072-3.797-30.72-19.029-60.757-42.923-84.651l-575.36-575.36c-2.816-2.859-6.443-4.779-10.368-5.717l-312.448-71.083c-1.536-0.384-3.115-0.555-4.736-0.555zM139.819 287.573l-62.208-273.323 273.365 62.208 571.051 571.008c17.152 17.195 28.075 38.315 30.763 59.648 2.389 19.413-2.517 36.437-13.909 47.659l-120.661 120.747c-11.904 11.947-27.435 14.464-38.272 14.464-23.68 0-49.493-11.648-69.163-31.36l-570.965-571.051zM646.016 806.315l223.701-223.637-30.165-30.165-223.701 223.637 30.165 30.165zM555.563 715.883l223.701-223.637-30.187-30.208-223.701 223.637 30.187 30.208zM380.416 54.315c-130.133 0-262.699 132.565-262.699 262.656h42.667c0-106.923 113.109-219.989 220.032-219.989v-42.667z" />
<glyph unicode="&#xe916;" glyph-name="Photo-Album" d="M1001.984 149.291h-148.651v42.667h148.651c57.173 0 107.349 53.888 107.349 115.328v269.355c0 57.771-47.872 127.275-107.349 127.275h-148.651v42.667h148.651c85.845 0 150.016-89.771 150.016-169.941v-269.355c0-85.632-68.651-157.995-150.016-157.995zM170.667 149.291h-127.317c-86.443 0-171.349 78.251-171.349 157.995v269.355c0 82.688 88.064 169.941 171.349 169.941h127.317v-42.667h-127.317c-60.117 0-128.683-67.797-128.683-127.275v-269.355c0-56.021 66.133-115.328 128.683-115.328h127.317v-42.667zM745.984 63.957h-467.968c-82.688 0-150.016 67.285-150.016 149.973v468.096c0 82.688 67.285 150.016 150.016 150.016h467.968c82.688 0 150.059-67.285 150.059-150.016v-468.139c-0.043-82.645-67.328-149.931-150.059-149.931zM278.016 789.291c-59.179 0-107.349-48.128-107.349-107.307v-468.139c0-59.221 48.128-107.349 107.349-107.349h467.968c59.221 0 107.392 48.128 107.392 107.349v468.139c0 59.179-48.171 107.307-107.392 107.307h-467.968zM660.651 234.624h-297.301c-82.688 0-150.016 67.243-150.016 149.931v212.139c0 82.688 67.285 150.016 150.016 150.016h297.301c82.688 0 150.059-67.243 150.059-150.016v-212.181c-0.043-82.645-67.328-149.888-150.059-149.888zM363.349 703.957c-59.179 0-107.349-48.128-107.349-107.264v-212.181c0-59.221 48.128-107.349 107.349-107.349h297.301c59.221 0 107.392 48.128 107.392 107.349v212.181c0 59.136-48.128 107.264-107.392 107.264h-297.301zM704.896 319.957h-364.245c-7.595 0-14.635 4.053-18.475 10.624s-3.84 14.72-0.043 21.333l86.016 150.144c5.76 10.112 18.688 13.696 28.928 8.021l77.696-43.563 96.939 118.997c4.907 6.144 12.629 8.619 20.395 7.595 7.68-1.408 13.995-6.869 16.427-14.293l76.672-230.741c2.176-6.485 0.981-13.611-2.944-19.2-4.053-5.632-10.496-8.917-17.365-8.917zM377.472 362.624h297.856l-55.125 165.845-83.712-102.741c-6.528-8.021-17.877-10.24-26.965-5.163l-74.923 41.899-57.131-99.84z" />
<glyph unicode="&#xe917;" glyph-name="Photo-Album2" d="M759.765 106.667h-388.864c-69.248 0-125.483 56.32-125.483 125.483v388.907c0 69.205 56.235 125.525 125.483 125.525h388.821c69.248 0 125.568-56.32 125.568-125.525v-388.864c0.043-69.205-56.277-125.525-125.525-125.525zM370.901 704c-45.696 0-82.901-37.163-82.901-82.816v-388.864c0-45.696 37.205-82.859 82.901-82.859h388.821c45.611 0 82.816 37.163 82.816 82.859v388.864c0 45.653-37.205 82.816-82.816 82.816h-388.821zM674.432 234.667h-218.155c-69.248 0-125.483 56.32-125.483 125.483v175.573c0 69.205 56.235 125.525 125.483 125.525h218.155c69.248 0 125.568-56.32 125.568-125.525v-175.531c0-69.205-56.32-125.525-125.568-125.525zM456.235 618.667c-45.696 0-82.901-37.163-82.901-82.816v-175.531c0-45.696 37.205-82.859 82.901-82.859h218.155c45.611 0 82.816 37.163 82.816 82.859v175.531c0 45.653-37.205 82.816-82.816 82.816h-218.155zM702.848 320h-275.243c-7.509 0-14.507 4.011-18.389 10.496-3.84 6.485-3.968 14.549-0.299 21.163l68.011 123.008c2.773 5.035 7.595 8.747 13.184 10.24 5.76 1.451 11.563 0.64 16.597-2.304l49.792-29.909 52.907 88.405c4.181 6.955 12.032 10.581 20.011 10.283 8.021-0.725 15.104-5.931 18.133-13.355l75.349-188.843c2.603-6.571 1.749-14.037-2.176-19.883-4.181-5.803-10.795-9.301-17.877-9.301zM463.744 362.667h207.573l-47.573 119.552-41.771-69.76c-2.859-4.864-7.723-8.363-13.227-9.771-5.504-1.152-11.392-0.512-16.171 2.517l-49.109 29.44-39.723-71.979zM864-64h-660.011c-47.787 0-86.656 38.869-86.656 86.656v850.688c0 47.787 38.869 86.656 86.656 86.656h660.011c82.347 0 149.333-66.987 149.333-149.333v-725.333c0-82.347-66.987-149.333-149.333-149.333zM203.989 917.333c-24.235 0-43.989-19.755-43.989-43.989v-850.688c0-24.235 19.755-43.989 43.989-43.989h660.011c58.837 0 106.667 47.829 106.667 106.667v725.333c0 58.837-47.829 106.667-106.667 106.667h-660.011zM202.667 661.333h-170.667c-11.733 0-21.333 9.6-21.333 21.333s9.6 21.333 21.333 21.333h170.667c11.733 0 21.333-9.6 21.333-21.333s-9.6-21.333-21.333-21.333zM202.667 533.333h-170.667c-11.733 0-21.333 9.6-21.333 21.333s9.6 21.333 21.333 21.333h170.667c11.733 0 21.333-9.6 21.333-21.333s-9.6-21.333-21.333-21.333zM202.667 405.333h-170.667c-11.733 0-21.333 9.6-21.333 21.333s9.6 21.333 21.333 21.333h170.667c11.733 0 21.333-9.6 21.333-21.333s-9.6-21.333-21.333-21.333zM202.667 277.333h-170.667c-11.733 0-21.333 9.6-21.333 21.333s9.6 21.333 21.333 21.333h170.667c11.733 0 21.333-9.6 21.333-21.333s-9.6-21.333-21.333-21.333zM202.667 149.333h-170.667c-11.733 0-21.333 9.6-21.333 21.333s9.6 21.333 21.333 21.333h170.667c11.733 0 21.333-9.6 21.333-21.333s-9.6-21.333-21.333-21.333z" />
<glyph unicode="&#xe918;" glyph-name="Photos" d="M739.584-63.915h-540.459c-98.048 0-177.792 79.744-177.792 177.749v583.125c0 98.005 79.744 177.749 177.792 177.749h540.459c98.005 0 177.749-79.744 177.749-177.749v-583.125c0-98.005-79.744-177.749-177.749-177.749zM199.125 832.043c-74.496 0-135.125-60.587-135.125-135.083v-583.125c0-74.496 60.629-135.083 135.125-135.083h540.459c74.496 0 135.083 60.587 135.083 135.083v583.125c0 74.496-60.587 135.083-135.083 135.083h-540.459zM884.309 41.173l-14.336 40.149c53.888 19.157 90.027 70.229 90.027 127.232v573.653c0 74.539-60.587 135.125-135.083 135.125h-521.515c-50.816 0-96.896-28.288-120.277-73.771l-37.973 19.499c30.72 59.733 91.349 96.896 158.208 96.896h521.557c98.005 0 177.749-79.744 177.749-177.749v-573.696c0-74.837-47.573-142.165-118.357-167.339zM64 149.419h810.667v-42.667h-810.667v42.667zM798.891 277.419h-677.973c-8.021 0-15.317 4.437-18.944 11.563-3.669 7.083-3.029 15.488 1.621 22.101l208.597 292.181c5.931 8.32 16.853 11.264 26.155 7.083l88.832-39.936 146.219 191.616c4.523 5.931 11.861 9.045 19.285 8.149 7.424-0.853 13.909-5.461 16.981-12.245l208.597-450.389c3.072-6.571 2.603-14.251-1.323-20.437-4.011-6.016-10.795-9.685-18.048-9.685zM162.389 320.085h603.051l-179.669 387.968-135.040-176.896c-6.059-7.979-16.683-10.496-25.728-6.485l-88.235 39.723-174.379-244.309zM225.152 630.571c-40.491 0-73.472 32.896-73.472 73.515s32.939 73.515 73.472 73.515c40.576-0.043 73.515-32.896 73.515-73.557s-32.939-73.472-73.515-73.472zM225.152 734.891c-16.981 0-30.805-13.739-30.805-30.848s13.824-30.848 30.805-30.848 30.848 13.781 30.848 30.848-13.824 30.848-30.848 30.848z" />
<glyph unicode="&#xe919;" glyph-name="Pie-Chart" d="M512 917.333c258.731 0 469.333-210.56 469.333-469.333 0-258.816-210.603-469.333-469.333-469.333-258.773 0-469.333 210.517-469.333 469.333 0 258.773 210.56 469.333 469.333 469.333zM512 960c-282.752 0-512-229.248-512-512s229.248-512 512-512 512 229.248 512 512-229.248 512-512 512v0zM512 426.667c-3.2 0-6.443 0.725-9.515 2.261l-426.667 213.333c-10.539 5.291-14.805 18.091-9.557 28.629s18.091 14.805 28.629 9.557l426.667-213.333c10.539-5.291 14.763-18.133 9.557-28.629-3.797-7.509-11.307-11.819-19.115-11.819zM298.667 0c-3.2 0-6.443 0.768-9.515 2.261-10.539 5.333-14.805 18.091-9.557 28.672l213.333 426.667c2.048 4.139 5.419 7.467 9.557 9.557l426.667 213.333c10.496 5.291 23.339 0.981 28.629-9.557s0.939-23.339-9.557-28.629l-420.352-210.133-210.133-420.309c-3.755-7.509-11.264-11.861-19.072-11.861z" />
<glyph unicode="&#xe91a;" glyph-name="Pricing" d="M789.376-59.477h-554.667c-11.733 0-21.333 9.6-21.333 21.333v738.773c0 5.675 2.261 11.093 6.229 15.104l200.021 200.021c52.907 52.992 138.581 52.992 191.488 0l193.408-200.235c3.925-4.096 6.101-9.301 6.101-14.933v-738.688c0.085-11.776-9.515-21.376-21.248-21.376zM256.043-16.811h512v708.864l-187.264 193.835c-36.437 36.437-94.080 36.565-130.901-0.256l-193.835-193.835v-708.608zM512.128 130.56c-59.648 0-99.84 34.816-99.84 86.699 0 11.776 9.6 21.333 21.333 21.333s21.333-9.557 21.333-21.333c0-40.875 43.733-44.032 57.173-44.032s57.173 3.157 57.173 44.032c0 24.704-7.509 30.208-54.144 53.205l-24.789 12.245c-45.355 22.229-78.080 38.4-78.080 91.52 0 52.352 40.064 87.339 99.84 87.339 59.051 0 98.688-34.987 98.688-87.339 0-11.691-9.557-21.333-21.333-21.333-11.691 0-21.333 9.643-21.333 21.333 0 41.557-42.837 44.672-56.021 44.672-13.397 0-57.173-3.157-57.173-44.672 0-24.747 7.509-30.165 54.229-53.248l24.747-12.245c45.312-22.229 77.909-38.315 77.909-91.477 0.128-51.883-40.064-86.699-99.712-86.699zM509.44 480.299c-6.059 0-11.093 2.091-15.317 6.315-3.84 3.84-6.016 9.429-6.016 15.019 0 5.973 2.176 11.52 6.315 15.275 7.765 7.723 21.845 7.723 29.867 0 3.84-4.395 6.059-9.771 6.059-15.275 0-5.589-2.219-10.667-6.059-15.019-3.712-3.797-9.344-6.315-14.848-6.315zM487.979 501.717h42.667v-49.152h-42.667v49.152zM509.44 68.523c-6.059 0-11.904 2.176-15.829 6.4-3.328 3.84-5.931 9.387-5.931 14.933s2.603 11.179 6.315 15.019c6.827 7.723 22.229 8.021 30.293 0 3.84-3.84 6.272-9.472 6.272-15.019s-2.56-11.093-6.272-15.317c-4.181-3.84-9.344-6.016-14.848-6.016zM487.979 153.856h42.667v-64.128h-42.667v64.128zM518.869 648.533c-43.093 0-78.165 35.072-78.165 78.165 0 43.179 35.072 78.165 78.165 78.165s78.165-34.987 78.165-78.165c0-43.093-35.072-78.165-78.165-78.165zM518.869 762.197c-19.584 0-35.499-15.915-35.499-35.499s15.915-35.499 35.499-35.499 35.499 15.915 35.499 35.499-15.915 35.499-35.499 35.499z" />
<glyph unicode="&#xe91b;" glyph-name="Quill-3" d="M88.107 13.141c-2.176 0-4.437 0.341-6.571 0.981-11.221 3.627-17.323 15.659-13.696 26.88 17.28 53.333 37.675 105.003 60.928 154.752-58.325 108.8-53.163 222.848 15.232 330.496 142.293 223.957 530.987 374.485 769.664 354.901 10.112-0.896 18.261-8.704 19.456-18.773 1.195-10.027-4.907-19.584-14.549-22.741-320.939-104.661-578.133-324.565-729.045-616.917 271.659 41.771 394.752 200.875 513.963 354.859 67.627 87.467 131.499 169.941 220.032 232.533 9.643 6.784 22.955 4.48 29.696-5.12 6.827-9.6 4.523-22.955-5.077-29.739-83.328-58.923-145.323-139.008-210.901-223.787-128.64-166.229-261.547-338.048-570.368-374.997-22.229-47.829-41.771-97.408-58.453-148.651-2.901-9.045-11.307-14.677-20.309-14.677zM786.005 834.987c-219.733-27.136-493.995-155.435-606.037-331.563-54.443-85.717-63.573-172.629-27.349-258.944 136.96 264.107 357.888 470.827 633.387 590.507zM632.96 509.056c-0.597 0-1.152 0-1.792 0.085-27.605 2.304-41.685 2.987-70.016 3.413-11.776 0.171-21.205 9.813-21.035 21.675 0.128 11.648 8.235 20.992 21.632 20.992 29.525-0.469 44.16-1.152 72.96-3.584 11.733-0.981 20.437-11.349 19.456-23.040-0.896-11.179-10.24-19.541-21.205-19.541zM443.008 398.421c-10.581 0-19.755 7.936-21.12 18.688-1.493 11.605 6.699 22.272 18.432 23.893 57.813 7.509 87.552 9.344 143.829 8.704 11.733-0.128 21.248-9.771 21.12-21.547-0.128-11.691-9.856-19.84-21.547-21.12-54.827 0.597-81.749-0.981-137.941-8.32-0.939-0.256-1.877-0.299-2.773-0.299z" />
<glyph unicode="&#xe91c;" glyph-name="Quotes-2" d="M192 478.165c-1.408 0-2.816 0.128-4.224 0.427-141.909 28.587-187.776 146.475-187.776 198.997v32.981c0 72.576 63.061 133.931 137.643 133.931 76.032 0 140.288-61.355 140.288-133.931 0-38.571-20.224-90.88-64.597-103.68v-107.477c0-6.272-2.859-12.459-7.808-16.512-3.84-3.072-8.661-4.736-13.525-4.736zM137.643 801.835c-51.499 0-94.976-41.771-94.976-91.264v-32.896c0-36.437 32.853-119.68 128-150.485v98.133c0 11.776 9.557 21.333 21.333 21.333 32.341 0 43.264 43.947 43.264 64 0 48.597-45.611 91.179-97.621 91.179zM490.667 478.165c-1.408 0-2.816 0.128-4.224 0.427-141.909 28.587-187.776 146.475-187.776 198.997v32.981c0 71.339 67.285 133.931 144 133.931 78.123 0 146.688-62.592 146.688-133.931 0-39.509-26.752-92.416-77.355-104.235v-106.837c0-6.272-2.859-12.459-7.808-16.512-3.84-3.157-8.661-4.821-13.525-4.821zM442.667 801.835c-53.035 0-101.333-43.52-101.333-91.264v-32.896c0-36.437 32.853-119.68 128-150.485v98.133c0 11.776 9.557 21.333 21.333 21.333 39.083 0 56.021 42.368 56.021 64 0 51.285-55.936 91.179-104.021 91.179zM884.352 51.499c-75.691 0-142.251 62.592-142.251 133.931 0 37.973 24.192 90.496 68.565 103.68v107.52c0 6.357 2.816 12.459 7.851 16.597 4.949 4.096 11.52 5.76 17.749 4.437 141.824-28.544 187.733-146.432 187.733-198.997v-32.981c0-72.832-63.957-134.187-139.648-134.187zM853.333 368.896v-98.261c0-11.733-9.6-21.333-21.333-21.333-27.435 0-47.232-38.229-47.232-63.915 0-48.725 46.592-91.349 99.584-91.349 51.669 0 96.981 42.624 96.981 91.349v32.896c0 36.608-32.896 119.808-128 150.613zM579.328 51.499c-70.187 0-148.651 57.259-148.651 133.931 0 40.747 36.309 91.008 81.323 103.723v107.477c0 6.357 2.859 12.459 7.808 16.597 4.949 4.096 11.52 5.76 17.792 4.437 141.867-28.544 187.733-146.432 187.733-198.997v-32.981c0-71.595-68.267-134.187-146.005-134.187zM554.667 368.896v-98.261c0-11.733-9.6-21.333-21.333-21.333-30.336 0-59.989-40.405-59.989-63.915 0-51.413 56.96-91.349 105.984-91.349 48.853 0 103.339 39.040 103.339 91.349v32.896c0 36.608-32.853 119.808-128 150.613z" />
<glyph unicode="&#xe91d;" glyph-name="Receipt-4" d="M21.333 42.667c-11.733 0-21.333 9.6-21.333 21.333v768c0 11.733 9.6 21.333 21.333 21.333s21.333-9.6 21.333-21.333v-768c0-11.733-9.6-21.333-21.333-21.333zM896 917.333h-768c-11.733 0-21.333 9.6-21.333 21.333s9.6 21.333 21.333 21.333h768c11.733 0 21.333-9.6 21.333-21.333s-9.6-21.333-21.333-21.333zM896-64h-768c-11.733 0-21.333 9.6-21.333 21.333s9.6 21.333 21.333 21.333h768c11.733 0 21.333-9.6 21.333-21.333s-9.6-21.333-21.333-21.333zM21.333 810.667c-11.733 0-21.333 9.6-21.333 21.333 0 70.571 57.429 128 128 128 11.733 0 21.333-9.6 21.333-21.333s-9.6-21.333-21.333-21.333c-47.104 0-85.333-38.229-85.333-85.333 0-11.733-9.6-21.333-21.333-21.333zM1002.667 810.667c-11.733 0-21.333 9.6-21.333 21.333 0 47.104-38.229 85.333-85.333 85.333-11.733 0-21.333 9.6-21.333 21.333s9.6 21.333 21.333 21.333c70.571 0 128-57.429 128-128 0-11.733-9.6-21.333-21.333-21.333zM128-64c-70.571 0-128 57.429-128 128 0 11.733 9.6 21.333 21.333 21.333s21.333-9.6 21.333-21.333c0-47.104 38.229-85.333 85.333-85.333 11.733 0 21.333-9.6 21.333-21.333s-9.6-21.333-21.333-21.333zM896-64c-11.733 0-21.333 9.6-21.333 21.333s9.6 21.333 21.333 21.333c47.104 0 85.333 38.229 85.333 85.333 0 11.733 9.6 21.333 21.333 21.333s21.333-9.6 21.333-21.333c0-70.571-57.429-128-128-128zM896 746.667h-768c-11.733 0-21.333 9.6-21.333 21.333s9.6 21.333 21.333 21.333h768c11.733 0 21.333-9.6 21.333-21.333s-9.6-21.333-21.333-21.333zM426.667 576h-298.667c-11.733 0-21.333 9.6-21.333 21.333s9.6 21.333 21.333 21.333h298.667c11.733 0 21.333-9.6 21.333-21.333s-9.6-21.333-21.333-21.333zM896 576h-298.667c-11.733 0-21.333 9.6-21.333 21.333s9.6 21.333 21.333 21.333h298.667c11.733 0 21.333-9.6 21.333-21.333s-9.6-21.333-21.333-21.333zM426.667 405.333h-298.667c-11.733 0-21.333 9.6-21.333 21.333s9.6 21.333 21.333 21.333h298.667c11.733 0 21.333-9.6 21.333-21.333s-9.6-21.333-21.333-21.333zM896 405.333h-298.667c-11.733 0-21.333 9.6-21.333 21.333s9.6 21.333 21.333 21.333h298.667c11.733 0 21.333-9.6 21.333-21.333s-9.6-21.333-21.333-21.333zM426.667 234.667h-298.667c-11.733 0-21.333 9.6-21.333 21.333s9.6 21.333 21.333 21.333h298.667c11.733 0 21.333-9.6 21.333-21.333s-9.6-21.333-21.333-21.333zM896 234.667h-298.667c-11.733 0-21.333 9.6-21.333 21.333s9.6 21.333 21.333 21.333h298.667c11.733 0 21.333-9.6 21.333-21.333s-9.6-21.333-21.333-21.333zM1002.667 42.667c-11.733 0-21.333 9.6-21.333 21.333v768c0 11.733 9.6 21.333 21.333 21.333s21.333-9.6 21.333-21.333v-768c0-11.733-9.6-21.333-21.333-21.333z" />
<glyph unicode="&#xe91e;" glyph-name="Retouching" d="M506.069 446.805c-5.504 0-10.965 2.176-15.104 6.229-6.571 6.571-8.149 16.683-3.84 24.96l61.739 118.315c0.896 1.92 2.304 3.669 3.84 5.205l235.563 235.563c8.277 8.32 21.845 8.32 30.165 0l56.661-56.661c4.011-4.011 6.229-9.429 6.229-15.104 0-5.76-2.261-11.179-6.229-15.104l-235.563-235.563c-1.536-1.493-3.285-2.773-5.205-3.883l-118.4-61.696c-3.072-1.493-6.485-2.261-9.856-2.261zM585.216 573.781l-28.843-55.424 55.339 28.928 218.155 218.069-26.539 26.539-218.112-218.112zM875.093 750.293l-30.165 30.165 34.731 34.731c12.373 12.331 13.995 27.819 7.68 34.219-6.229 6.229-21.845 4.523-34.219-7.723l-34.688-34.731-30.165 30.165 34.688 34.731c28.203 28.117 70.613 31.573 94.549 7.723 23.936-24.021 20.48-66.389-7.723-94.549l-34.688-34.731zM605.845 624.533l56.661-56.661-30.165-30.165-56.661 56.661 30.165 30.165zM727.723 759.403l56.704-56.661-30.165-30.187-56.704 56.661 30.165 30.187zM831.403-64.043h-638.848c-106.197 0-192.555 86.315-192.555 192.512v639.061c0 106.069 86.357 192.512 192.555 192.512h638.848c106.197 0 192.597-86.315 192.597-192.512v-639.104c0-106.155-86.4-192.469-192.597-192.469zM192.555 917.291c-82.645 0-149.888-67.2-149.888-149.845v-639.104c0-82.645 67.243-149.845 149.888-149.845h638.848c82.688 0 149.931 67.2 149.931 149.845v639.104c0 82.645-67.285 149.845-149.931 149.845h-638.848zM703.403 149.291h-382.805c-106.197 0-192.597 86.315-192.597 192.555v297.643c0 106.112 86.4 192.555 192.597 192.555h382.805c23.168 0 45.824-4.096 67.328-12.075 11.051-4.139 16.64-16.427 12.501-27.477-4.139-11.136-16.427-16.811-27.477-12.544-16.725 6.229-34.347 9.429-52.437 9.429h-382.763c-82.688 0-149.931-67.243-149.931-149.888v-297.685c0-82.645 67.285-149.888 149.931-149.888h382.805c82.688 0 149.973 67.243 149.973 149.888v297.685c0 31.104-9.472 61.056-27.392 86.315-6.827 9.728-4.48 22.912 5.077 29.696 9.728 6.827 22.955 4.48 29.739-5.12 23.040-32.64 35.2-70.997 35.2-111.061v-297.643c0.043-106.069-86.357-192.384-192.555-192.384zM738.731 277.291c-0.299 0.043-0.597 0.043-0.853 0h-452.181c-7.083 0-13.653 3.499-17.621 9.344-3.968 5.803-4.821 13.312-2.219 19.84l123.605 314.752c2.944 7.637 9.941 12.885 18.048 13.44 8.021 0.896 15.829-3.243 20.053-10.197l94.165-155.307 93.952 53.504c4.992 2.773 10.837 3.584 16.427 1.963 5.504-1.536 10.112-5.291 12.885-10.325l109.227-200.917c3.669-3.84 5.931-9.045 5.931-14.763-0.085-11.733-9.643-21.333-21.419-21.333zM316.971 319.957h385.024l-84.181 154.837-93.013-52.992c-10.112-5.632-22.827-2.432-28.8 7.509l-82.603 136.192-96.427-245.547z" />
<glyph unicode="&#xe91f;" glyph-name="Scroller" d="M728.576 512c-0.256-0.085-0.597-0.085-0.853 0h-424.405c-7.595 0-14.677 4.096-18.517 10.667s-3.84 14.763 0 21.333l212.267 367.488c3.84 6.485 10.837 10.667 18.517 10.667v0c7.68 0 14.677-4.181 18.517-10.667l209.579-363.093c3.925-3.84 6.229-9.173 6.229-15.104 0-11.691-9.472-21.291-21.333-21.291zM340.352 554.667h350.507l-175.147 303.488-175.36-303.488zM515.584-26.155c-7.68 0-14.677 4.181-18.517 10.667l-212.224 367.488c-3.84 6.571-3.84 14.763 0 21.333s10.923 10.667 18.517 10.667h424.405c7.595 0 14.677-4.096 18.432-10.667 3.883-6.571 3.883-14.763 0-21.333l-212.181-367.488c-3.755-6.613-10.752-10.667-18.432-10.667zM340.352 341.333l175.232-303.488 175.147 303.488h-350.379zM853.333 426.667h-682.667c-11.733 0-21.333 9.6-21.333 21.333s9.6 21.333 21.333 21.333h682.667c11.733 0 21.333-9.6 21.333-21.333s-9.6-21.333-21.333-21.333z" />
<glyph unicode="&#xe920;" glyph-name="Settings-Window" d="M1002.667 21.333h-981.333c-11.776 0-21.333 9.6-21.333 21.333v810.667c0 11.733 9.557 21.333 21.333 21.333h981.333c11.733 0 21.333-9.6 21.333-21.333v-810.667c0-11.733-9.6-21.333-21.333-21.333zM42.667 64h938.667v768h-938.667v-768zM981.333 661.333h-938.667c-11.776 0-21.333 9.6-21.333 21.333s9.557 21.333 21.333 21.333h938.667c11.733 0 21.333-9.6 21.333-21.333s-9.6-21.333-21.333-21.333zM628.352 89.216c-11.733 0-21.333 9.557-21.333 21.333v34.859c0 11.691 9.6 21.333 21.333 21.333 11.776 0 21.333-9.643 21.333-21.333v-34.859c0-11.819-9.557-21.333-21.333-21.333zM628.352 333.568c-11.733 0-21.333 9.515-21.333 21.333v34.773c0 11.691 9.6 21.333 21.333 21.333 11.776 0 21.333-9.643 21.333-21.333v-34.773c0-11.819-9.557-21.333-21.333-21.333zM768 228.821h-34.901c-11.733 0-21.333 9.557-21.333 21.333 0 11.648 9.6 21.333 21.333 21.333h34.901c11.733 0 21.333-9.685 21.333-21.333 0-11.776-9.6-21.333-21.333-21.333zM523.648 228.821h-34.901c-11.776 0-21.333 9.557-21.333 21.333 0 11.648 9.557 21.333 21.333 21.333h34.901c11.776 0 21.333-9.685 21.333-21.333 0-11.776-9.515-21.333-21.333-21.333zM727.083 130.133c-5.461 0-10.923 2.091-15.104 6.229l-24.747 24.747c-8.32 8.32-8.32 21.973 0 30.165 8.277 8.32 21.845 8.32 30.165 0l24.747-24.747c8.277-8.235 8.277-21.845 0-30.165-4.139-4.096-9.6-6.229-15.061-6.229zM554.411 302.848c-5.419 0-10.88 2.091-15.104 6.229l-24.832 24.747c-8.32 8.32-8.363 21.845-0.043 30.165s21.76 8.235 30.208 0.085l24.832-24.747c8.277-8.32 8.32-21.845 0-30.165-4.139-4.267-9.557-6.315-15.061-6.315zM702.336 302.933c-5.461 0-10.923 2.091-15.104 6.272-8.32 8.277-8.277 21.888 0 30.165l24.747 24.661c8.363 8.277 21.888 8.277 30.165-0.085 8.32-8.363 8.277-21.888 0-30.165l-24.747-24.661c-4.181-4.139-9.643-6.187-15.061-6.187zM529.579 130.133c-5.461 0-10.923 2.091-15.104 6.229-8.32 8.32-8.32 22.016 0.043 30.165l24.747 24.747c8.277 8.277 21.845 8.277 30.165 0 8.32-8.235 8.32-21.931 0-30.165l-24.747-24.747c-4.181-4.096-9.643-6.229-15.104-6.229zM628.352 124.117c-69.419 0-125.995 56.533-125.995 126.037 0 69.547 56.576 126.080 125.995 126.080 69.504 0 126.080-56.533 126.080-126.080 0-69.504-56.619-126.037-126.080-126.037zM628.352 333.568c-45.909 0-83.328-37.419-83.328-83.413s37.419-83.413 83.328-83.413c45.995 0 83.413 37.419 83.413 83.413s-37.419 83.413-83.413 83.413zM349.099 89.216c-11.776 0-21.333 9.557-21.333 21.333v23.296c0 11.733 9.557 21.333 21.333 21.333s21.333-9.6 21.333-21.333v-23.296c0-11.819-9.557-21.333-21.333-21.333zM349.099 252.117c-11.776 0-21.333 9.557-21.333 21.333v23.296c0 11.733 9.557 21.333 21.333 21.333s21.333-9.6 21.333-21.333v-23.296c0-11.776-9.557-21.333-21.333-21.333zM442.155 182.315h-23.253c-11.776 0-21.333 9.557-21.333 21.333 0 11.648 9.557 21.333 21.333 21.333h23.253c11.776 0 21.333-9.685 21.333-21.333 0-11.776-9.515-21.333-21.333-21.333zM279.253 182.315h-23.253c-11.776 0-21.333 9.557-21.333 21.333 0 11.648 9.557 21.333 21.333 21.333h23.253c11.776 0 21.333-9.685 21.333-21.333 0-11.776-9.557-21.333-21.333-21.333zM414.933 116.48c-5.461 0-10.923 2.091-15.104 6.229l-16.512 16.555c-8.32 8.277-8.32 21.931 0 30.165 8.32 8.277 21.845 8.277 30.165 0l16.512-16.555c8.32-8.277 8.32-21.888 0-30.165-4.181-4.139-9.6-6.229-15.061-6.229zM299.776 231.595c-5.461 0-10.923 2.091-15.104 6.229l-16.555 16.597c-8.32 8.277-8.32 21.931 0 30.165 8.32 8.277 21.845 8.277 30.165 0l16.555-16.597c8.32-8.32 8.32-21.845 0-30.165-4.139-4.139-9.6-6.229-15.061-6.229zM398.421 231.68c-5.461 0-10.923 2.091-15.104 6.229-8.32 8.32-8.32 21.931 0.043 30.165l16.512 16.512c8.363 8.277 21.845 8.277 30.165 0s8.32-21.931-0.043-30.165l-16.512-16.512c-4.181-4.139-9.6-6.229-15.061-6.229zM283.264 116.48c-5.461 0-10.923 2.091-15.104 6.229-8.32 8.363-8.32 21.888 0.043 30.165l16.512 16.469c8.363 8.277 21.845 8.277 30.165 0 8.32-8.235 8.32-21.888-0.043-30.165l-16.512-16.469c-4.181-4.139-9.6-6.229-15.061-6.229zM349.099 112.512c-50.261 0-91.179 40.917-91.179 91.307s40.875 91.221 91.179 91.221c50.304 0 91.179-40.832 91.179-91.221s-40.917-91.307-91.179-91.307zM349.099 252.117c-26.752 0-48.512-21.76-48.512-48.469 0-26.752 21.76-48.64 48.512-48.64s48.512 21.76 48.512 48.64c-0.043 26.667-21.76 48.469-48.512 48.469zM488.747 368.512c-11.776 0-21.333 9.685-21.333 21.333v23.253c0 11.733 9.557 21.333 21.333 21.333s21.333-9.6 21.333-21.333v-23.253c0-11.861-9.557-21.333-21.333-21.333zM488.747 531.413c-11.776 0-21.333 9.6-21.333 21.333v23.253c0 11.733 9.557 21.333 21.333 21.333s21.333-9.6 21.333-21.333v-23.253c0-11.733-9.557-21.333-21.333-21.333zM581.845 461.568h-23.296c-11.776 0-21.333 9.515-21.333 21.333 0 11.648 9.557 21.333 21.333 21.333h23.296c11.776 0 21.333-9.685 21.333-21.333 0-11.819-9.557-21.333-21.333-21.333zM418.901 461.568h-23.253c-11.776 0-21.333 9.515-21.333 21.333 0 11.648 9.557 21.333 21.333 21.333h23.253c11.776 0 21.333-9.685 21.333-21.333 0-11.819-9.515-21.333-21.333-21.333zM554.539 395.733c-5.461 0-10.923 2.091-15.104 6.229l-16.512 16.555c-8.32 8.277-8.32 21.931 0 30.165 8.32 8.277 21.845 8.277 30.165 0l16.512-16.555c8.32-8.277 8.32-21.888 0-30.165-4.139-4.139-9.6-6.229-15.061-6.229zM439.424 510.933c-5.461 0-10.923 2.091-15.104 6.229l-16.512 16.597c-8.32 8.32-8.32 21.931 0.043 30.165 8.32 8.277 21.845 8.277 30.165 0l16.512-16.597c8.32-8.32 8.32-21.931-0.043-30.165-4.181-4.267-9.6-6.229-15.061-6.229zM538.069 510.933c-5.461 0-10.88 2.091-15.104 6.229-8.363 8.235-8.363 21.845-0.043 30.165l16.469 16.512c8.32 8.32 21.845 8.32 30.165 0 8.363-8.149 8.363-21.803 0.085-30.165l-16.512-16.512c-4.096-4.181-9.6-6.229-15.061-6.229zM422.912 395.733c-5.419 0-10.88 2.091-15.061 6.229-8.363 8.277-8.405 21.888-0.085 30.165l16.427 16.555c8.32 8.277 21.845 8.277 30.165 0.085 8.363-8.192 8.405-21.888 0.085-30.165l-16.427-16.555c-4.139-4.224-9.6-6.315-15.104-6.315zM488.747 391.765c-50.261 0-91.179 40.917-91.179 91.307s40.875 91.307 91.179 91.307c50.261 0 91.136-40.917 91.136-91.307s-40.875-91.307-91.136-91.307zM488.747 531.413c-26.752 0-48.512-21.76-48.512-48.512 0-26.837 21.76-48.64 48.512-48.64 26.709 0 48.469 21.76 48.469 48.64 0 26.752-21.717 48.512-48.469 48.512zM128 768c0-11.776-9.557-21.333-21.333-21.333s-21.333 9.557-21.333 21.333c0 11.776 9.557 21.333 21.333 21.333s21.333-9.557 21.333-21.333zM213.333 768c0-11.776-9.557-21.333-21.333-21.333s-21.333 9.557-21.333 21.333c0 11.776 9.557 21.333 21.333 21.333s21.333-9.557 21.333-21.333zM298.667 768c0-11.776-9.557-21.333-21.333-21.333s-21.333 9.557-21.333 21.333c0 11.776 9.557 21.333 21.333 21.333s21.333-9.557 21.333-21.333z" />
<glyph unicode="&#xe921;" glyph-name="Sharethis" d="M789.333-42.667c-105.813 0-192 86.187-192 192 0 2.731 0.171 5.504 0.427 8.149l-254.379 140.16c-32.469-22.656-69.76-34.688-108.715-34.688-105.813 0-192 86.229-192 192s86.187 192 192 192c40.405 0 78.763-12.757 111.787-36.779l251.051 131.968c-0.128 1.493-0.171 2.944-0.171 4.523 0 105.771 86.187 192 192 192s192-86.229 192-192c0-105.856-86.187-192-192-192-40.32 0-78.763 12.672-111.787 36.779l-251.051-132.011c0.128-1.408 0.171-2.901 0.171-4.395 0-2.731-0.171-5.461-0.427-8.149l254.379-140.245c32.427 22.656 69.717 34.688 108.715 34.688 105.813 0 192-86.229 192-192s-86.187-192-192-192zM341.589 344.405c3.541 0 7.083-0.896 10.283-2.688l279.083-153.771c7.595-4.267 11.861-12.501 10.923-21.035l-0.811-6.229c-0.469-3.755-1.067-7.509-1.067-11.349 0-82.347 66.987-149.333 149.333-149.333s149.333 66.987 149.333 149.333-66.987 149.333-149.333 149.333c-33.877 0-66.176-11.733-93.397-33.92-6.741-5.504-16.171-6.315-23.808-2.091l-279.083 153.771c-7.595 4.267-11.861 12.501-10.923 21.12l0.811 6.187c0.469 3.712 1.067 7.467 1.067 11.349 0 2.688-0.427 5.376-0.853 8.021l-0.853 6.357c-0.896 8.619 3.627 16.896 11.435 20.949l276.181 145.067c7.68 4.181 16.981 3.029 23.68-2.603 27.648-23.424 60.843-35.755 95.744-35.755 82.347 0 149.333 66.987 149.333 149.333s-66.987 149.333-149.333 149.333-149.333-66.987-149.333-149.333c0-2.731 0.427-5.376 0.853-8.021l0.896-6.315c0.896-8.619-3.627-16.896-11.477-20.949l-276.181-145.152c-7.723-4.096-17.024-2.987-23.68 2.688-27.648 23.339-60.843 35.712-95.744 35.712-82.347 0-149.333-66.987-149.333-149.333 0-82.432 66.987-149.333 149.333-149.333 33.792 0 66.133 11.563 93.397 33.92 3.968 3.157 8.789 4.736 13.525 4.736z" />
<glyph unicode="&#xe922;" glyph-name="Sidebar-Window" d="M1002.667 21.333h-981.333c-11.776 0-21.333 9.6-21.333 21.333v810.667c0 11.733 9.557 21.333 21.333 21.333h981.333c11.733 0 21.333-9.6 21.333-21.333v-810.667c0-11.733-9.6-21.333-21.333-21.333zM42.667 64h938.667v768h-938.667v-768zM981.333 661.333h-938.667c-11.776 0-21.333 9.6-21.333 21.333s9.557 21.333 21.333 21.333h938.667c11.733 0 21.333-9.6 21.333-21.333s-9.6-21.333-21.333-21.333zM704 42.667c-11.733 0-21.333 9.6-21.333 21.333v597.333c0 11.733 9.6 21.333 21.333 21.333s21.333-9.6 21.333-21.333v-597.333c0-11.733-9.6-21.333-21.333-21.333zM896 490.667h-85.333c-11.733 0-21.333 9.6-21.333 21.333s9.6 21.333 21.333 21.333h85.333c11.733 0 21.333-9.6 21.333-21.333s-9.6-21.333-21.333-21.333zM896 405.333h-85.333c-11.733 0-21.333 9.6-21.333 21.333s9.6 21.333 21.333 21.333h85.333c11.733 0 21.333-9.6 21.333-21.333s-9.6-21.333-21.333-21.333zM896 320h-85.333c-11.733 0-21.333 9.6-21.333 21.333s9.6 21.333 21.333 21.333h85.333c11.733 0 21.333-9.6 21.333-21.333s-9.6-21.333-21.333-21.333zM896 234.667h-85.333c-11.733 0-21.333 9.6-21.333 21.333s9.6 21.333 21.333 21.333h85.333c11.733 0 21.333-9.6 21.333-21.333s-9.6-21.333-21.333-21.333zM896 149.333h-85.333c-11.733 0-21.333 9.6-21.333 21.333s9.6 21.333 21.333 21.333h85.333c11.733 0 21.333-9.6 21.333-21.333s-9.6-21.333-21.333-21.333zM128 768c0-11.776-9.557-21.333-21.333-21.333s-21.333 9.557-21.333 21.333c0 11.776 9.557 21.333 21.333 21.333s21.333-9.557 21.333-21.333zM213.333 768c0-11.776-9.557-21.333-21.333-21.333s-21.333 9.557-21.333 21.333c0 11.776 9.557 21.333 21.333 21.333s21.333-9.557 21.333-21.333zM298.667 768c0-11.776-9.557-21.333-21.333-21.333s-21.333 9.557-21.333 21.333c0 11.776 9.557 21.333 21.333 21.333s21.333-9.557 21.333-21.333z" />
<glyph unicode="&#xe923;" glyph-name="Speach-Bubble" d="M170.709 42.624c-8.619 0-16.384 5.205-19.712 13.184-3.328 8.021-1.493 17.109 4.608 23.253 23.595 23.68 66.219 81.707 94.72 144.213-141.824 62.080-228.992 171.264-228.992 288.768 0 188.16 220.117 341.333 490.667 341.333s490.667-153.173 490.667-341.333c0-188.203-220.117-341.333-490.667-341.333-17.536 0-34.731 0.853-51.755 2.176-80.299-86.485-177.664-130.261-289.536-130.261zM512.043 810.624c-247.040 0-448-134.101-448-298.667 0-105.003 85.163-203.605 222.208-257.408 5.291-2.091 9.557-6.229 11.776-11.435 2.219-5.248 2.347-11.221 0.213-16.469-19.883-49.621-50.731-100.523-78.891-138.112 82.304 11.307 154.88 51.669 216.277 120.491 4.437 4.992 10.965 7.68 17.792 7.040 19.2-1.707 38.699-2.773 58.581-2.773 247.040 0 448 134.016 448 298.667 0 164.608-200.917 298.667-447.957 298.667z" />
<glyph unicode="&#xe924;" glyph-name="Synchronize-2" d="M512-64c-282.325 0-512 229.675-512 512s229.675 512 512 512 512-229.675 512-512-229.675-512-512-512zM512 917.333c-258.731 0-469.333-210.56-469.333-469.333 0-258.731 210.603-469.333 469.333-469.333s469.333 210.603 469.333 469.333c0 258.773-210.603 469.333-469.333 469.333zM597.333 426.667c-4.821 0-9.685 1.621-13.653 4.949l-128 106.667c-4.864 4.053-7.68 10.069-7.68 16.384s2.731 12.331 7.68 16.384l128 106.667c9.003 7.509 22.443 6.357 30.037-2.731 7.552-9.045 6.315-22.528-2.688-30.080l-108.245-90.283 108.245-90.283c9.131-7.552 10.24-20.992 2.688-30.080-4.224-4.992-10.283-7.595-16.384-7.595zM769.792 323.584c-11.776 0-21.333 9.6-21.333 21.333s9.557 21.333 21.333 21.333c46.080 0 83.541 37.461 83.541 83.541s-37.461 83.541-83.541 83.541h-300.459c-11.733 0-21.333 9.557-21.333 21.333s9.6 21.333 21.333 21.333h300.459c69.589 0 126.208-56.619 126.208-126.208s-56.619-126.208-126.208-126.208zM426.667 213.333c-6.101 0-12.16 2.603-16.384 7.68-7.552 9.088-6.315 22.528 2.688 30.080l108.245 90.283-108.203 90.283c-9.131 7.552-10.24 20.992-2.688 30.080 7.595 9.045 21.035 10.197 30.037 2.731l128-106.667c4.821-4.053 7.68-10.027 7.68-16.384s-2.731-12.331-7.68-16.384l-128-106.667c-4.011-3.413-8.875-5.035-13.696-5.035zM554.667 320h-279.125c-70.144 0-131.541 59.819-131.541 128 0 71.765 53.077 128 120.875 128 11.776 0 21.333-9.557 21.333-21.333s-9.557-21.333-21.333-21.333c-43.861 0-78.208-37.461-78.208-85.333 0-45.397 41.6-85.333 88.875-85.333h279.125c11.733 0 21.333-9.6 21.333-21.333s-9.6-21.333-21.333-21.333z" />
<glyph unicode="&#xe925;" glyph-name="Text-Box" d="M336.256 168.917c-2.261 0-4.48 0.341-6.741 1.067-11.179 3.755-17.152 15.829-13.397 27.008l185.984 558.165c5.845 17.408 34.688 17.408 40.491 0l186.027-558.165c3.712-11.264-2.389-23.253-13.483-27.008-11.179-3.669-23.253 2.347-27.008 13.397l-165.803 497.493-165.845-497.451c-2.987-8.832-11.307-14.507-20.224-14.507zM640 320h-170.667c-11.733 0-21.333 9.6-21.333 21.333s9.6 21.333 21.333 21.333h170.667c11.733 0 21.333-9.6 21.333-21.333s-9.6-21.333-21.333-21.333zM384 362.667h170.667v-42.667h-170.667v42.667zM1002.667 746.667h-170.667c-11.733 0-21.333 9.6-21.333 21.333v170.667c0 11.733 9.6 21.333 21.333 21.333h170.667c11.733 0 21.333-9.6 21.333-21.333v-170.667c0-11.733-9.6-21.333-21.333-21.333zM853.333 789.333h128v128h-128v-128zM1002.667-64h-170.667c-11.733 0-21.333 9.6-21.333 21.333v170.667c0 11.733 9.6 21.333 21.333 21.333h170.667c11.733 0 21.333-9.6 21.333-21.333v-170.667c0-11.733-9.6-21.333-21.333-21.333zM853.333-21.333h128v128h-128v-128zM192 746.667h-170.667c-11.733 0-21.333 9.6-21.333 21.333v170.667c0 11.733 9.6 21.333 21.333 21.333h170.667c11.733 0 21.333-9.6 21.333-21.333v-170.667c0-11.733-9.6-21.333-21.333-21.333zM42.667 789.333h128v128h-128v-128zM192-64h-170.667c-11.733 0-21.333 9.6-21.333 21.333v170.667c0 11.733 9.6 21.333 21.333 21.333h170.667c11.733 0 21.333-9.6 21.333-21.333v-170.667c0-11.733-9.6-21.333-21.333-21.333zM42.667-21.333h128v128h-128v-128zM810.667 874.667h-597.333c-11.733 0-21.333 9.6-21.333 21.333s9.6 21.333 21.333 21.333h597.333c11.733 0 21.333-9.6 21.333-21.333s-9.6-21.333-21.333-21.333zM810.667-21.333h-597.333c-11.733 0-21.333 9.6-21.333 21.333s9.6 21.333 21.333 21.333h597.333c11.733 0 21.333-9.6 21.333-21.333s-9.6-21.333-21.333-21.333zM64 128c-11.733 0-21.333 9.6-21.333 21.333v597.333c0 11.733 9.6 21.333 21.333 21.333s21.333-9.6 21.333-21.333v-597.333c0-11.733-9.6-21.333-21.333-21.333zM960 128c-11.733 0-21.333 9.6-21.333 21.333v597.333c0 11.733 9.6 21.333 21.333 21.333s21.333-9.6 21.333-21.333v-597.333c0-11.733-9.6-21.333-21.333-21.333z" />
<glyph unicode="&#xe926;" glyph-name="Transform" d="M597.333 725.333h-170.667c-11.776 0-21.333 9.557-21.333 21.333v170.667c0 11.776 9.557 21.333 21.333 21.333h170.667c11.733 0 21.333-9.557 21.333-21.333v-170.667c0-11.776-9.6-21.333-21.333-21.333zM448 768h128v128h-128v-128zM213.333 341.333h-170.667c-11.776 0-21.333 9.6-21.333 21.333v170.667c0 11.776 9.557 21.333 21.333 21.333h170.667c11.776 0 21.333-9.557 21.333-21.333v-170.667c0-11.733-9.557-21.333-21.333-21.333zM64 384h128v128h-128v-128zM149.333 512h-42.667c0 188.203 153.131 341.333 341.333 341.333v-42.667c-164.693 0-298.667-133.973-298.667-298.667zM597.333-42.667h-170.667c-11.776 0-21.333 9.6-21.333 21.333v170.667c0 11.733 9.557 21.333 21.333 21.333h170.667c11.733 0 21.333-9.6 21.333-21.333v-170.667c0-11.733-9.6-21.333-21.333-21.333zM448 0h128v128h-128v-128zM448 42.667c-188.203 0-341.333 153.131-341.333 341.333h42.667c0-164.651 133.973-298.667 298.667-298.667v-42.667zM981.333 341.333h-170.667c-11.733 0-21.333 9.6-21.333 21.333v170.667c0 11.776 9.6 21.333 21.333 21.333h170.667c11.733 0 21.333-9.557 21.333-21.333v-170.667c0-11.733-9.6-21.333-21.333-21.333zM832 384h128v128h-128v-128zM917.333 512h-42.667c0 164.693-134.016 298.667-298.667 298.667v42.667c188.203 0 341.333-153.131 341.333-341.333zM576 42.667v42.667c164.651 0 298.667 134.016 298.667 298.667h42.667c0-188.203-153.131-341.333-341.333-341.333z" />
<glyph unicode="&#xe927;" glyph-name="Video" d="M1002.667-64h-981.333c-11.776 0-21.333 9.6-21.333 21.333v981.333c0 11.733 9.557 21.333 21.333 21.333h981.333c11.733 0 21.333-9.6 21.333-21.333v-981.333c0-11.733-9.6-21.333-21.333-21.333zM42.667-21.333h938.667v938.667h-938.667v-938.667zM981.333 149.333h-938.667c-11.776 0-21.333 9.6-21.333 21.333s9.557 21.333 21.333 21.333h938.667c11.733 0 21.333-9.6 21.333-21.333s-9.6-21.333-21.333-21.333zM362.667 314.923c-3.669 0-7.381 0.896-10.667 2.816-6.613 3.84-10.667 10.837-10.667 18.517v394.155c0 7.637 4.053 14.677 10.667 18.475 6.571 3.84 14.763 3.84 21.333 0l341.333-197.077c6.613-3.797 10.667-10.837 10.667-18.475 0-7.723-4.053-14.763-10.667-18.56l-341.333-197.077c-3.285-1.877-6.997-2.773-10.667-2.773zM384 693.461v-320.256l277.333 160.128-277.333 160.128z" />
<glyph unicode="&#xe928;" glyph-name="Video-5" d="M405.333 229.589c-3.499 0-6.955 0.853-10.112 2.603-6.912 3.627-11.221 10.88-11.221 18.731v394.155c0 7.851 4.309 15.104 11.221 18.688 6.869 3.755 15.275 3.413 21.845-0.939l298.667-197.077c5.973-3.925 9.6-10.581 9.6-17.749s-3.584-13.909-9.6-17.835l-298.667-197.077c-3.541-2.347-7.637-3.499-11.733-3.499zM426.667 605.397v-314.923l238.592 157.397-238.592 157.525zM512 917.333c258.731 0 469.333-210.603 469.333-469.333s-210.603-469.333-469.333-469.333c-258.773 0-469.333 210.603-469.333 469.333s210.56 469.333 469.333 469.333zM512 960c-282.752 0-512-229.248-512-512s229.248-512 512-512 512 229.248 512 512-229.248 512-512 512v0z" />
<glyph unicode="&#xe929;" glyph-name="View-Height" d="M512 85.333c-11.776 0-21.333 9.515-21.333 21.333v682.667c0 11.819 9.557 21.333 21.333 21.333s21.333-9.515 21.333-21.333v-682.667c0-11.819-9.557-21.333-21.333-21.333zM618.667 704c-4.651 0-9.429 1.493-13.355 4.651l-93.312 74.667-93.355-74.667c-9.259-7.381-22.613-5.845-29.995 3.328-7.339 9.216-5.845 22.613 3.328 29.995l106.667 85.333c7.808 6.229 18.859 6.229 26.667 0l106.667-85.333c9.173-7.381 10.667-20.779 3.328-29.995-4.181-5.248-10.411-7.979-16.64-7.979zM512 64c-4.693 0-9.429 1.579-13.355 4.651l-106.667 85.333c-9.173 7.339-10.667 20.736-3.328 29.995 7.381 9.173 20.779 10.667 29.995 3.328l93.355-74.709 93.355 74.752c9.259 7.339 22.613 5.888 29.995-3.328 7.339-9.259 5.845-22.613-3.328-29.995l-106.667-85.333c-3.925-3.115-8.661-4.693-13.355-4.693zM618.667 917.333h-213.333c-11.776 0-21.333 9.557-21.333 21.333s9.557 21.333 21.333 21.333h213.333c11.733 0 21.333-9.557 21.333-21.333s-9.6-21.333-21.333-21.333zM618.667-64h-213.333c-11.776 0-21.333 9.6-21.333 21.333s9.557 21.333 21.333 21.333h213.333c11.733 0 21.333-9.6 21.333-21.333s-9.6-21.333-21.333-21.333z" />
<glyph unicode="&#xe92a;" glyph-name="Window-2" d="M1002.667 64h-981.333c-11.776 0-21.333 9.6-21.333 21.333v725.333c0 11.733 9.557 21.333 21.333 21.333h981.333c11.733 0 21.333-9.6 21.333-21.333v-725.333c0-11.733-9.6-21.333-21.333-21.333zM42.667 106.667h938.667v682.667h-938.667v-682.667zM981.333 618.667h-938.667c-11.776 0-21.333 9.6-21.333 21.333s9.557 21.333 21.333 21.333h938.667c11.733 0 21.333-9.6 21.333-21.333s-9.6-21.333-21.333-21.333zM170.667 725.333c0-11.776-9.557-21.333-21.333-21.333s-21.333 9.557-21.333 21.333c0 11.776 9.557 21.333 21.333 21.333s21.333-9.557 21.333-21.333zM256 725.333c0-11.776-9.557-21.333-21.333-21.333s-21.333 9.557-21.333 21.333c0 11.776 9.557 21.333 21.333 21.333s21.333-9.557 21.333-21.333zM341.333 725.333c0-11.776-9.557-21.333-21.333-21.333s-21.333 9.557-21.333 21.333c0 11.776 9.557 21.333 21.333 21.333s21.333-9.557 21.333-21.333z" />
<glyph unicode="&#xe92b;" glyph-name="Windows-2" d="M832 0h-810.667c-11.776 0-21.333 9.6-21.333 21.333v682.667c0 11.733 9.557 21.333 21.333 21.333h810.667c11.733 0 21.333-9.6 21.333-21.333v-682.667c0-11.733-9.6-21.333-21.333-21.333zM42.667 42.667h768v640h-768v-640zM917.333 85.333h-64c-11.733 0-21.333 9.6-21.333 21.333s9.6 21.333 21.333 21.333h42.667v640h-768v-42.667c0-11.733-9.557-21.333-21.333-21.333s-21.333 9.6-21.333 21.333v64c0 11.733 9.557 21.333 21.333 21.333h810.667c11.733 0 21.333-9.6 21.333-21.333v-682.667c0-11.733-9.6-21.333-21.333-21.333zM1002.667 170.667h-64c-11.733 0-21.333 9.6-21.333 21.333s9.6 21.333 21.333 21.333h42.667v640h-768v-42.667c0-11.733-9.557-21.333-21.333-21.333s-21.333 9.6-21.333 21.333v64c0 11.733 9.557 21.333 21.333 21.333h810.667c11.733 0 21.333-9.6 21.333-21.333v-682.667c0-11.733-9.6-21.333-21.333-21.333zM810.667 512h-768c-11.776 0-21.333 9.6-21.333 21.333s9.557 21.333 21.333 21.333h768c11.733 0 21.333-9.6 21.333-21.333s-9.6-21.333-21.333-21.333z" />
</font>
</defs>
</svg>
