<?xml version="1.0" encoding="utf-8"?>
<!-- Generator: Adobe Illustrator 23.0.4, SVG Export Plug-In . SVG Version: 6.00 Build 0)  -->
<svg version="1.1" id="Layer_1" xmlns="http://www.w3.org/2000/svg" xmlns:xlink="http://www.w3.org/1999/xlink" x="0px" y="0px"
	 viewBox="0 0 100 70" style="enable-background:new 0 0 100 70;" xml:space="preserve">
<style type="text/css">
	.st0{fill:#FFFFFF;}
	.st1{fill:#6E747A;}
	.st2{fill:#EDEFF0;}
	.st3{fill:#565D66;}
	.st4{fill:#4F5459;}
</style>
<path class="st0" d="M13,73.5c-1.4,0-2.5-1.1-2.5-2.5V13c0-1.4,1.1-2.5,2.5-2.5h74c1.4,0,2.5,1.1,2.5,2.5v58c0,1.4-1.1,2.5-2.5,2.5
	H13z"/>
<g>
	<rect x="10.4" y="57.2" class="st1" width="79.1" height="13"/>
	<path class="st0" d="M32.3,66.5h-17c-0.3,0-0.5-0.2-0.5-0.5s0.2-0.5,0.5-0.5h17c0.3,0,0.5,0.2,0.5,0.5S32.6,66.5,32.3,66.5z"/>
	<path class="st0" d="M43.9,66.5h-9.2c-0.3,0-0.5-0.2-0.5-0.5s0.2-0.5,0.5-0.5h9.2c0.3,0,0.5,0.2,0.5,0.5S44.2,66.5,43.9,66.5z"/>
	<path class="st0" d="M84.2,66.1h-7.3c-1.1,0-2.1-0.9-2.1-2.1l0,0c0-1.1,0.9-2.1,2.1-2.1h7.3c1.1,0,2.1,0.9,2.1,2.1l0,0
		C86.3,65.2,85.4,66.1,84.2,66.1z"/>
	<path class="st0" d="M51.9,66.5h-5.8c-0.3,0-0.5-0.2-0.5-0.5s0.2-0.5,0.5-0.5h5.8c0.3,0,0.5,0.2,0.5,0.5S52.2,66.5,51.9,66.5z"/>
	<path class="st0" d="M35.1,63H15.9c-0.6,0-1-0.5-1-1l0,0c0-0.6,0.5-1,1-1h19.2c0.6,0,1,0.5,1,1l0,0C36.1,62.6,35.7,63,35.1,63z"/>
</g>
<path class="st2" d="M11,11h78v14H11V11z"/>
<path class="st3" d="M87,11c1.1,0,2,0.9,2,2v58c0,1.1-0.9,2-2,2H13c-1.1,0-2-0.9-2-2V13c0-1.1,0.9-2,2-2H87 M87,10H13
	c-1.7,0-3,1.3-3,3v58c0,1.7,1.3,3,3,3h74c1.6,0,3-1.3,3-3V13C90,11.3,88.6,10,87,10z"/>
<path class="st4" d="M77.5,18.5h-4c-0.3,0-0.5-0.2-0.5-0.5s0.2-0.5,0.5-0.5h4c0.3,0,0.5,0.2,0.5,0.5S77.8,18.5,77.5,18.5z
	 M70.5,18.5h-4c-0.3,0-0.5-0.2-0.5-0.5s0.2-0.5,0.5-0.5h4c0.3,0,0.5,0.2,0.5,0.5S70.8,18.5,70.5,18.5z M63.5,18.5h-4
	c-0.3,0-0.5-0.2-0.5-0.5s0.2-0.5,0.5-0.5h4c0.3,0,0.5,0.2,0.5,0.5S63.8,18.5,63.5,18.5z M22.4,16.5c0.5-0.9,1.4-1.4,2.4-1.4
	c0.7,0,1.3,0.3,1.8,0.7c-0.1,0-0.3,0-0.4,0.1c-0.4,0.2-0.5,0.8,0,1.1c0.3,0.2,0.4,0.6,0.4,0.9s-0.7,1.5-0.7,1.5l-0.6-2.2V17
	c0-0.1,0-0.1,0.1-0.2l0.1-0.1h0.3v-0.2H24v0.2h0.1c0.1,0,0.1,0.1,0.2,0.1c0.1,0.1,0.1,0.3,0.2,0.5l0.2,0.8l-0.5,1.2L23.6,17
	c0,0,0-0.2,0.1-0.2l0.1-0.1v-0.2C23.8,16.5,22.4,16.5,22.4,16.5z M22.7,16.9c0,0-0.1-0.2-0.3-0.2h-0.1c-0.1,0.3-0.2,0.7-0.2,1.1
	c0,1.1,0.7,2.1,1.7,2.5L22.7,16.9z M27.2,16.5c0.1,0.2,0,0.5-0.1,0.9c-0.3,0.9-0.9,2.4-1.2,3c1-0.4,1.6-1.4,1.6-2.5
	C27.6,17.4,27.4,16.9,27.2,16.5 M24.9,18.8l-0.7,1.7c0.2,0,0.4,0.1,0.6,0.1s0.5,0,0.7-0.1L24.9,18.8z"/>
</svg>
