<svg width="100" height="100" xmlns="http://www.w3.org/2000/svg"><g fill="#565D66" fill-rule="nonzero"><path d="M12.957 12.4l.511-.189.83-.31C18.812 10.212 21.635 9.58 26.5 9.58c4.827 0 7.22.574 11.575 2.316.45.18.879.348 1.293.504h2.926c-1.18-.343-2.415-.795-3.87-1.376C33.968 9.24 31.465 8.64 26.5 8.64c-4.994 0-7.922.657-12.53 2.38l-.83.31c-1.164.434-2.191.788-3.16 1.07h2.977zm0-9.4C9.23 4.36 6.797 4.88 3 4.88v-.94c2.7 0 4.677-.27 6.98-.94h2.977zm26.411 0C43.062 4.394 45.536 4.88 50 4.88v-.94c-3.216 0-5.351-.255-7.706-.94h-2.926zM3 9.58c3.967 0 6.448-.569 10.468-2.069l.83-.31C18.812 5.512 21.635 4.88 26.5 4.88c4.827 0 7.22.574 11.575 2.316C42.533 8.98 45.035 9.58 50 9.58v-.94c-4.827 0-7.22-.574-11.575-2.316C33.967 4.54 31.465 3.94 26.5 3.94c-4.994 0-7.922.657-12.53 2.38l-.83.31C9.214 8.096 6.836 8.64 3 8.64v.94zM12.957 31.2l.511-.189.83-.31c4.513-1.688 7.336-2.321 12.202-2.321 4.827 0 7.22.574 11.575 2.316.45.18.879.348 1.293.504h2.926c-1.18-.343-2.415-.795-3.87-1.376-4.457-1.783-6.96-2.384-11.924-2.384-4.994 0-7.922.657-12.53 2.38l-.83.31c-1.164.434-2.191.788-3.16 1.07h2.977zm0-9.4C9.23 23.16 6.797 23.68 3 23.68v-.94c2.7 0 4.677-.27 6.98-.94h2.977zm26.411 0c3.694 1.394 6.168 1.88 10.632 1.88v-.94c-3.216 0-5.351-.255-7.706-.94h-2.926zM3 28.38c3.967 0 6.448-.569 10.468-2.069l.83-.31c4.513-1.688 7.336-2.321 12.202-2.321 4.827 0 7.22.574 11.575 2.316C42.533 27.78 45.035 28.38 50 28.38v-.94c-4.827 0-7.22-.574-11.575-2.316-4.458-1.783-6.96-2.384-11.925-2.384-4.994 0-7.922.657-12.53 2.38l-.83.31C9.214 26.896 6.836 27.44 3 27.44v.94zM12.957 50l.511-.189.83-.31c4.513-1.688 7.336-2.321 12.202-2.321 4.827 0 7.22.574 11.575 2.316.45.18.879.348 1.293.504h2.926c-1.18-.343-2.415-.795-3.87-1.376-4.457-1.783-6.96-2.384-11.924-2.384-4.994 0-7.922.657-12.53 2.38l-.83.31c-1.164.434-2.191.788-3.16 1.07h2.977zm0-9.4C9.23 41.96 6.797 42.48 3 42.48v-.94c2.7 0 4.677-.27 6.98-.94h2.977zm26.411 0c3.694 1.394 6.168 1.88 10.632 1.88v-.94c-3.216 0-5.351-.255-7.706-.94h-2.926zM3 47.18c3.967 0 6.448-.569 10.468-2.069l.83-.31c4.513-1.688 7.336-2.321 12.202-2.321 4.827 0 7.22.574 11.575 2.316C42.533 46.58 45.035 47.18 50 47.18v-.94c-4.827 0-7.22-.574-11.575-2.316-4.458-1.783-6.96-2.384-11.925-2.384-4.994 0-7.922.657-12.53 2.38l-.83.31C9.214 45.696 6.836 46.24 3 46.24v.94zM12.957 68.8l.511-.189.83-.31c4.513-1.688 7.336-2.321 12.202-2.321 4.827 0 7.22.574 11.575 2.316.45.18.879.348 1.293.504h2.926c-1.18-.343-2.415-.795-3.87-1.376-4.457-1.783-6.96-2.384-11.924-2.384-4.994 0-7.922.657-12.53 2.38l-.83.31c-1.164.434-2.191.788-3.16 1.07h2.977zm0-9.4C9.23 60.76 6.797 61.28 3 61.28v-.94c2.7 0 4.677-.27 6.98-.94h2.977zm26.411 0c3.694 1.394 6.168 1.88 10.632 1.88v-.94c-3.216 0-5.351-.255-7.706-.94h-2.926zM3 65.98c3.967 0 6.448-.569 10.468-2.069l.83-.31c4.513-1.688 7.336-2.321 12.202-2.321 4.827 0 7.22.574 11.575 2.316C42.533 65.38 45.035 65.98 50 65.98v-.94c-4.827 0-7.22-.574-11.575-2.316-4.458-1.783-6.96-2.384-11.925-2.384-4.994 0-7.922.657-12.53 2.38l-.83.31C9.214 64.496 6.836 65.04 3 65.04v.94zM12.957 87.6l.511-.189.83-.31c4.513-1.688 7.336-2.321 12.202-2.321 4.827 0 7.22.574 11.575 2.316.45.18.879.348 1.293.504h2.926c-1.18-.343-2.415-.795-3.87-1.376-4.457-1.783-6.96-2.384-11.924-2.384-4.994 0-7.922.657-12.53 2.38l-.83.31c-1.164.434-2.191.788-3.16 1.07h2.977zm0-9.4C9.23 79.56 6.797 80.08 3 80.08v-.94c2.7 0 4.677-.27 6.98-.94h2.977zm26.411 0c3.694 1.394 6.168 1.88 10.632 1.88v-.94c-3.216 0-5.351-.255-7.706-.94h-2.926zM3 84.78c3.967 0 6.448-.569 10.468-2.069l.83-.31c4.513-1.688 7.336-2.321 12.202-2.321 4.827 0 7.22.574 11.575 2.316C42.533 84.18 45.035 84.78 50 84.78v-.94c-4.827 0-7.22-.574-11.575-2.316-4.458-1.783-6.96-2.384-11.925-2.384-4.994 0-7.922.657-12.53 2.38l-.83.31C9.214 83.296 6.836 83.84 3 83.84v.94z"/><path d="M12.957 21.8l.511-.189.83-.31c4.513-1.688 7.336-2.321 12.202-2.321 4.827 0 7.22.574 11.575 2.316.45.18.879.348 1.293.504h2.926c-1.18-.343-2.415-.795-3.87-1.376-4.457-1.783-6.96-2.384-11.924-2.384-4.994 0-7.922.657-12.53 2.38l-.83.31c-1.164.434-2.191.788-3.16 1.07h2.977zm0-9.4C9.23 13.76 6.797 14.28 3 14.28v-.94c2.7 0 4.677-.27 6.98-.94h2.977zm26.411 0c3.694 1.394 6.168 1.88 10.632 1.88v-.94c-3.216 0-5.351-.255-7.706-.94h-2.926zM3 18.98c3.967 0 6.448-.569 10.468-2.069l.83-.31c4.513-1.688 7.336-2.321 12.202-2.321 4.827 0 7.22.574 11.575 2.316C42.533 18.38 45.035 18.98 50 18.98v-.94c-4.827 0-7.22-.574-11.575-2.316-4.458-1.783-6.96-2.384-11.925-2.384-4.994 0-7.922.657-12.53 2.38l-.83.31C9.214 17.496 6.836 18.04 3 18.04v.94zM12.957 40.6l.511-.189.83-.31c4.513-1.688 7.336-2.321 12.202-2.321 4.827 0 7.22.574 11.575 2.316.45.18.879.348 1.293.504h2.926c-1.18-.343-2.415-.795-3.87-1.376-4.457-1.783-6.96-2.384-11.924-2.384-4.994 0-7.922.657-12.53 2.38l-.83.31c-1.164.434-2.191.788-3.16 1.07h2.977zm0-9.4C9.23 32.56 6.797 33.08 3 33.08v-.94c2.7 0 4.677-.27 6.98-.94h2.977zm26.411 0c3.694 1.394 6.168 1.88 10.632 1.88v-.94c-3.216 0-5.351-.255-7.706-.94h-2.926zM3 37.78c3.967 0 6.448-.569 10.468-2.069l.83-.31c4.513-1.688 7.336-2.321 12.202-2.321 4.827 0 7.22.574 11.575 2.316C42.533 37.18 45.035 37.78 50 37.78v-.94c-4.827 0-7.22-.574-11.575-2.316-4.458-1.783-6.96-2.384-11.925-2.384-4.994 0-7.922.657-12.53 2.38l-.83.31C9.214 36.296 6.836 36.84 3 36.84v.94zM12.957 59.4l.511-.189.83-.31c4.513-1.688 7.336-2.321 12.202-2.321 4.827 0 7.22.574 11.575 2.316.45.18.879.348 1.293.504h2.926c-1.18-.343-2.415-.795-3.87-1.376-4.457-1.783-6.96-2.384-11.924-2.384-4.994 0-7.922.657-12.53 2.38l-.83.31c-1.164.434-2.191.788-3.16 1.07h2.977zm0-9.4C9.23 51.36 6.797 51.88 3 51.88v-.94c2.7 0 4.677-.27 6.98-.94h2.977zm26.411 0c3.694 1.394 6.168 1.88 10.632 1.88v-.94c-3.216 0-5.351-.255-7.706-.94h-2.926zM3 56.58c3.967 0 6.448-.569 10.468-2.069l.83-.31c4.513-1.688 7.336-2.321 12.202-2.321 4.827 0 7.22.574 11.575 2.316C42.533 55.98 45.035 56.58 50 56.58v-.94c-4.827 0-7.22-.574-11.575-2.316-4.458-1.783-6.96-2.384-11.925-2.384-4.994 0-7.922.657-12.53 2.38l-.83.31C9.214 55.096 6.836 55.64 3 55.64v.94zM12.957 78.2l.511-.189.83-.31c4.513-1.688 7.336-2.321 12.202-2.321 4.827 0 7.22.574 11.575 2.316.45.18.879.348 1.293.504h2.926c-1.18-.343-2.415-.795-3.87-1.376-4.457-1.783-6.96-2.384-11.924-2.384-4.994 0-7.922.657-12.53 2.38l-.83.31c-1.164.434-2.191.788-3.16 1.07h2.977zm0-9.4C9.23 70.16 6.797 70.68 3 70.68v-.94c2.7 0 4.677-.27 6.98-.94h2.977zm26.411 0c3.694 1.394 6.168 1.88 10.632 1.88v-.94c-3.216 0-5.351-.255-7.706-.94h-2.926zM3 75.38c3.967 0 6.448-.569 10.468-2.069l.83-.31c4.513-1.688 7.336-2.321 12.202-2.321 4.827 0 7.22.574 11.575 2.316C42.533 74.78 45.035 75.38 50 75.38v-.94c-4.827 0-7.22-.574-11.575-2.316-4.458-1.783-6.96-2.384-11.925-2.384-4.994 0-7.922.657-12.53 2.38l-.83.31C9.214 73.896 6.836 74.44 3 74.44v.94zM12.957 97l.511-.189.83-.31c4.513-1.688 7.336-2.321 12.202-2.321 4.827 0 7.22.574 11.575 2.316.45.18.879.348 1.293.504h2.926c-1.18-.343-2.415-.795-3.87-1.376-4.457-1.783-6.96-2.384-11.924-2.384-4.994 0-7.922.657-12.53 2.38l-.83.31c-1.164.434-2.191.788-3.16 1.07h2.977zm0-9.4C9.23 88.96 6.797 89.48 3 89.48v-.94c2.7 0 4.677-.27 6.98-.94h2.977zm26.411 0c3.694 1.394 6.168 1.88 10.632 1.88v-.94c-3.216 0-5.351-.255-7.706-.94h-2.926zM3 94.18c3.967 0 6.448-.569 10.468-2.069l.83-.31c4.513-1.688 7.336-2.321 12.202-2.321 4.827 0 7.22.574 11.575 2.316C42.533 93.58 45.035 94.18 50 94.18v-.94c-4.827 0-7.22-.574-11.575-2.316-4.458-1.783-6.96-2.384-11.925-2.384-4.994 0-7.922.657-12.53 2.38l-.83.31C9.214 92.696 6.836 93.24 3 93.24v.94zM59.957 12.4l.511-.189.83-.31C65.812 10.212 68.635 9.58 73.5 9.58c4.827 0 7.22.574 11.575 2.316.45.18.879.348 1.293.504h2.926c-1.18-.343-2.415-.795-3.87-1.376C80.968 9.24 78.465 8.64 73.5 8.64c-4.994 0-7.922.657-12.53 2.38l-.83.31c-1.164.434-2.191.788-3.16 1.07h2.977zm0-9.4C56.23 4.36 53.797 4.88 50 4.88v-.94c2.7 0 4.677-.27 6.98-.94h2.977zm26.411 0C90.062 4.394 92.536 4.88 97 4.88v-.94c-3.216 0-5.351-.255-7.706-.94h-2.926zM50 9.58c3.967 0 6.448-.569 10.468-2.069l.83-.31C65.812 5.512 68.635 4.88 73.5 4.88c4.827 0 7.22.574 11.575 2.316C89.533 8.98 92.035 9.58 97 9.58v-.94c-4.827 0-7.22-.574-11.575-2.316C80.967 4.54 78.465 3.94 73.5 3.94c-4.994 0-7.922.657-12.53 2.38l-.83.31C56.214 8.096 53.836 8.64 50 8.64v.94zM59.957 31.2l.511-.189.83-.31c4.513-1.688 7.336-2.321 12.202-2.321 4.827 0 7.22.574 11.575 2.316.45.18.879.348 1.293.504h2.926c-1.18-.343-2.415-.795-3.87-1.376-4.457-1.783-6.96-2.384-11.924-2.384-4.994 0-7.922.657-12.53 2.38l-.83.31c-1.164.434-2.191.788-3.16 1.07h2.977zm0-9.4c-3.726 1.36-6.16 1.88-9.957 1.88v-.94c2.7 0 4.677-.27 6.98-.94h2.977zm26.411 0c3.694 1.394 6.168 1.88 10.632 1.88v-.94c-3.216 0-5.351-.255-7.706-.94h-2.926zM50 28.38c3.967 0 6.448-.569 10.468-2.069l.83-.31c4.513-1.688 7.336-2.321 12.202-2.321 4.827 0 7.22.574 11.575 2.316C89.533 27.78 92.035 28.38 97 28.38v-.94c-4.827 0-7.22-.574-11.575-2.316-4.458-1.783-6.96-2.384-11.925-2.384-4.994 0-7.922.657-12.53 2.38l-.83.31c-3.925 1.465-6.303 2.01-10.14 2.01v.94zM59.957 50l.511-.189.83-.31c4.513-1.688 7.336-2.321 12.202-2.321 4.827 0 7.22.574 11.575 2.316.45.18.879.348 1.293.504h2.926c-1.18-.343-2.415-.795-3.87-1.376-4.457-1.783-6.96-2.384-11.924-2.384-4.994 0-7.922.657-12.53 2.38l-.83.31c-1.164.434-2.191.788-3.16 1.07h2.977zm0-9.4c-3.726 1.36-6.16 1.88-9.957 1.88v-.94c2.7 0 4.677-.27 6.98-.94h2.977zm26.411 0c3.694 1.394 6.168 1.88 10.632 1.88v-.94c-3.216 0-5.351-.255-7.706-.94h-2.926zM50 47.18c3.967 0 6.448-.569 10.468-2.069l.83-.31c4.513-1.688 7.336-2.321 12.202-2.321 4.827 0 7.22.574 11.575 2.316C89.533 46.58 92.035 47.18 97 47.18v-.94c-4.827 0-7.22-.574-11.575-2.316-4.458-1.783-6.96-2.384-11.925-2.384-4.994 0-7.922.657-12.53 2.38l-.83.31c-3.925 1.465-6.303 2.01-10.14 2.01v.94zM59.957 68.8l.511-.189.83-.31c4.513-1.688 7.336-2.321 12.202-2.321 4.827 0 7.22.574 11.575 2.316.45.18.879.348 1.293.504h2.926c-1.18-.343-2.415-.795-3.87-1.376-4.457-1.783-6.96-2.384-11.924-2.384-4.994 0-7.922.657-12.53 2.38l-.83.31c-1.164.434-2.191.788-3.16 1.07h2.977zm0-9.4c-3.726 1.36-6.16 1.88-9.957 1.88v-.94c2.7 0 4.677-.27 6.98-.94h2.977zm26.411 0c3.694 1.394 6.168 1.88 10.632 1.88v-.94c-3.216 0-5.351-.255-7.706-.94h-2.926zM50 65.98c3.967 0 6.448-.569 10.468-2.069l.83-.31c4.513-1.688 7.336-2.321 12.202-2.321 4.827 0 7.22.574 11.575 2.316C89.533 65.38 92.035 65.98 97 65.98v-.94c-4.827 0-7.22-.574-11.575-2.316-4.458-1.783-6.96-2.384-11.925-2.384-4.994 0-7.922.657-12.53 2.38l-.83.31c-3.925 1.465-6.303 2.01-10.14 2.01v.94zM59.957 87.6l.511-.189.83-.31c4.513-1.688 7.336-2.321 12.202-2.321 4.827 0 7.22.574 11.575 2.316.45.18.879.348 1.293.504h2.926c-1.18-.343-2.415-.795-3.87-1.376-4.457-1.783-6.96-2.384-11.924-2.384-4.994 0-7.922.657-12.53 2.38l-.83.31c-1.164.434-2.191.788-3.16 1.07h2.977zm0-9.4c-3.726 1.36-6.16 1.88-9.957 1.88v-.94c2.7 0 4.677-.27 6.98-.94h2.977zm26.411 0c3.694 1.394 6.168 1.88 10.632 1.88v-.94c-3.216 0-5.351-.255-7.706-.94h-2.926zM50 84.78c3.967 0 6.448-.569 10.468-2.069l.83-.31c4.513-1.688 7.336-2.321 12.202-2.321 4.827 0 7.22.574 11.575 2.316C89.533 84.18 92.035 84.78 97 84.78v-.94c-4.827 0-7.22-.574-11.575-2.316-4.458-1.783-6.96-2.384-11.925-2.384-4.994 0-7.922.657-12.53 2.38l-.83.31c-3.925 1.465-6.303 2.01-10.14 2.01v.94z"/><path d="M59.957 21.8l.511-.189.83-.31c4.513-1.688 7.336-2.321 12.202-2.321 4.827 0 7.22.574 11.575 2.316.45.18.879.348 1.293.504h2.926c-1.18-.343-2.415-.795-3.87-1.376-4.457-1.783-6.96-2.384-11.924-2.384-4.994 0-7.922.657-12.53 2.38l-.83.31c-1.164.434-2.191.788-3.16 1.07h2.977zm0-9.4c-3.726 1.36-6.16 1.88-9.957 1.88v-.94c2.7 0 4.677-.27 6.98-.94h2.977zm26.411 0c3.694 1.394 6.168 1.88 10.632 1.88v-.94c-3.216 0-5.351-.255-7.706-.94h-2.926zM50 18.98c3.967 0 6.448-.569 10.468-2.069l.83-.31c4.513-1.688 7.336-2.321 12.202-2.321 4.827 0 7.22.574 11.575 2.316C89.533 18.38 92.035 18.98 97 18.98v-.94c-4.827 0-7.22-.574-11.575-2.316-4.458-1.783-6.96-2.384-11.925-2.384-4.994 0-7.922.657-12.53 2.38l-.83.31c-3.925 1.465-6.303 2.01-10.14 2.01v.94zM59.957 40.6l.511-.189.83-.31c4.513-1.688 7.336-2.321 12.202-2.321 4.827 0 7.22.574 11.575 2.316.45.18.879.348 1.293.504h2.926c-1.18-.343-2.415-.795-3.87-1.376-4.457-1.783-6.96-2.384-11.924-2.384-4.994 0-7.922.657-12.53 2.38l-.83.31c-1.164.434-2.191.788-3.16 1.07h2.977zm0-9.4c-3.726 1.36-6.16 1.88-9.957 1.88v-.94c2.7 0 4.677-.27 6.98-.94h2.977zm26.411 0c3.694 1.394 6.168 1.88 10.632 1.88v-.94c-3.216 0-5.351-.255-7.706-.94h-2.926zM50 37.78c3.967 0 6.448-.569 10.468-2.069l.83-.31c4.513-1.688 7.336-2.321 12.202-2.321 4.827 0 7.22.574 11.575 2.316C89.533 37.18 92.035 37.78 97 37.78v-.94c-4.827 0-7.22-.574-11.575-2.316-4.458-1.783-6.96-2.384-11.925-2.384-4.994 0-7.922.657-12.53 2.38l-.83.31c-3.925 1.465-6.303 2.01-10.14 2.01v.94zM59.957 59.4l.511-.189.83-.31c4.513-1.688 7.336-2.321 12.202-2.321 4.827 0 7.22.574 11.575 2.316.45.18.879.348 1.293.504h2.926c-1.18-.343-2.415-.795-3.87-1.376-4.457-1.783-6.96-2.384-11.924-2.384-4.994 0-7.922.657-12.53 2.38l-.83.31c-1.164.434-2.191.788-3.16 1.07h2.977zm0-9.4c-3.726 1.36-6.16 1.88-9.957 1.88v-.94c2.7 0 4.677-.27 6.98-.94h2.977zm26.411 0c3.694 1.394 6.168 1.88 10.632 1.88v-.94c-3.216 0-5.351-.255-7.706-.94h-2.926zM50 56.58c3.967 0 6.448-.569 10.468-2.069l.83-.31c4.513-1.688 7.336-2.321 12.202-2.321 4.827 0 7.22.574 11.575 2.316C89.533 55.98 92.035 56.58 97 56.58v-.94c-4.827 0-7.22-.574-11.575-2.316-4.458-1.783-6.96-2.384-11.925-2.384-4.994 0-7.922.657-12.53 2.38l-.83.31c-3.925 1.465-6.303 2.01-10.14 2.01v.94zM59.957 78.2l.511-.189.83-.31c4.513-1.688 7.336-2.321 12.202-2.321 4.827 0 7.22.574 11.575 2.316.45.18.879.348 1.293.504h2.926c-1.18-.343-2.415-.795-3.87-1.376-4.457-1.783-6.96-2.384-11.924-2.384-4.994 0-7.922.657-12.53 2.38l-.83.31c-1.164.434-2.191.788-3.16 1.07h2.977zm0-9.4c-3.726 1.36-6.16 1.88-9.957 1.88v-.94c2.7 0 4.677-.27 6.98-.94h2.977zm26.411 0c3.694 1.394 6.168 1.88 10.632 1.88v-.94c-3.216 0-5.351-.255-7.706-.94h-2.926zM50 75.38c3.967 0 6.448-.569 10.468-2.069l.83-.31c4.513-1.688 7.336-2.321 12.202-2.321 4.827 0 7.22.574 11.575 2.316C89.533 74.78 92.035 75.38 97 75.38v-.94c-4.827 0-7.22-.574-11.575-2.316-4.458-1.783-6.96-2.384-11.925-2.384-4.994 0-7.922.657-12.53 2.38l-.83.31c-3.925 1.465-6.303 2.01-10.14 2.01v.94zM59.957 97l.511-.189.83-.31c4.513-1.688 7.336-2.321 12.202-2.321 4.827 0 7.22.574 11.575 2.316.45.18.879.348 1.293.504h2.926c-1.18-.343-2.415-.795-3.87-1.376-4.457-1.783-6.96-2.384-11.924-2.384-4.994 0-7.922.657-12.53 2.38l-.83.31c-1.164.434-2.191.788-3.16 1.07h2.977zm0-9.4c-3.726 1.36-6.16 1.88-9.957 1.88v-.94c2.7 0 4.677-.27 6.98-.94h2.977zm26.411 0c3.694 1.394 6.168 1.88 10.632 1.88v-.94c-3.216 0-5.351-.255-7.706-.94h-2.926zM50 94.18c3.967 0 6.448-.569 10.468-2.069l.83-.31c4.513-1.688 7.336-2.321 12.202-2.321 4.827 0 7.22.574 11.575 2.316C89.533 93.58 92.035 94.18 97 94.18v-.94c-4.827 0-7.22-.574-11.575-2.316-4.458-1.783-6.96-2.384-11.925-2.384-4.994 0-7.922.657-12.53 2.38l-.83.31c-3.925 1.465-6.303 2.01-10.14 2.01v.94z"/></g></svg>