<svg width="100" height="100" xmlns="http://www.w3.org/2000/svg"><g fill="#565D66" fill-rule="nonzero"><path d="M9.889 13.978a3.885 3.885 0 0 0 3.889-3.88 3.885 3.885 0 0 0-3.89-3.88A3.885 3.885 0 0 0 6 10.097a3.885 3.885 0 0 0 3.889 3.88zm26.667 13.859a3.885 3.885 0 0 0 3.888-3.88 3.885 3.885 0 0 0-3.888-3.88 3.885 3.885 0 0 0-3.89 3.88 3.885 3.885 0 0 0 3.89 3.88zm-23.89-3.88c.921 0 1.667-.745 1.667-1.664 0-.918-.746-1.663-1.666-1.663-.92 0-1.667.745-1.667 1.663 0 .919.746 1.664 1.667 1.664zm35 17.184c.921 0 1.667-.744 1.667-1.663 0-.918-.746-1.663-1.666-1.663-.92 0-1.667.745-1.667 1.663 0 .919.746 1.663 1.667 1.663zm-25 12.75c.921 0 1.667-.744 1.667-1.663 0-.918-.746-1.663-1.666-1.663-.92 0-1.667.745-1.667 1.663 0 .919.746 1.663 1.667 1.663zm31.112-42.13c.92 0 1.666-.745 1.666-1.663 0-.919-.746-1.663-1.666-1.663-.92 0-1.667.744-1.667 1.663 0 .918.746 1.663 1.667 1.663zM10.444 51.674a2.22 2.22 0 0 0 2.223-2.217 2.22 2.22 0 0 0-2.223-2.218 2.22 2.22 0 0 0-2.222 2.218 2.22 2.22 0 0 0 2.222 2.217zM26 15.64a2.22 2.22 0 0 0 2.222-2.217A2.22 2.22 0 0 0 26 11.207a2.22 2.22 0 0 0-2.222 2.217A2.22 2.22 0 0 0 26 15.64zm12.778-6.098a2.775 2.775 0 0 0 2.778-2.771A2.775 2.775 0 0 0 38.778 4 2.775 2.775 0 0 0 36 6.772a2.775 2.775 0 0 0 2.778 2.771zm-3.334 33.261a2.22 2.22 0 0 0 2.223-2.217 2.22 2.22 0 0 0-2.223-2.217 2.22 2.22 0 0 0-2.222 2.217 2.22 2.22 0 0 0 2.222 2.217zM51.556 55a2.775 2.775 0 0 0 2.777-2.772 2.775 2.775 0 0 0-2.777-2.771 2.775 2.775 0 0 0-2.778 2.771A2.775 2.775 0 0 0 51.556 55zm-30-16.076a2.775 2.775 0 0 0 2.777-2.772 2.775 2.775 0 0 0-2.777-2.772 2.775 2.775 0 0 0-2.778 2.772 2.775 2.775 0 0 0 2.778 2.772zm31.666-7.207A2.775 2.775 0 0 0 56 28.946a2.775 2.775 0 0 0-2.778-2.772 2.775 2.775 0 0 0-2.778 2.772 2.775 2.775 0 0 0 2.778 2.771zm-5-11.64a1.11 1.11 0 1 0-1.11-1.11 1.11 1.11 0 0 0 1.11 1.11zm-11.11 34.369A1.11 1.11 0 1 0 36 53.337a1.11 1.11 0 0 0 1.111 1.109zm-13.89-27.718a1.11 1.11 0 1 0-1.11-1.108 1.11 1.11 0 0 0 1.11 1.108zM10.444 37.261a1.11 1.11 0 1 0-1.11-1.109 1.11 1.11 0 0 0 1.11 1.109zM9.889 67.978a3.885 3.885 0 0 0 3.889-3.88 3.885 3.885 0 0 0-3.89-3.88A3.885 3.885 0 0 0 6 64.097a3.885 3.885 0 0 0 3.889 3.88zm26.667 13.859a3.885 3.885 0 0 0 3.888-3.88 3.885 3.885 0 0 0-3.888-3.88 3.885 3.885 0 0 0-3.89 3.88 3.885 3.885 0 0 0 3.89 3.88zm-23.89-3.88c.921 0 1.667-.745 1.667-1.664 0-.918-.746-1.663-1.666-1.663-.92 0-1.667.745-1.667 1.663 0 .919.746 1.664 1.667 1.664zm35 17.184c.921 0 1.667-.744 1.667-1.663 0-.918-.746-1.663-1.666-1.663-.92 0-1.667.745-1.667 1.663 0 .919.746 1.663 1.667 1.663zm-25 12.75c.921 0 1.667-.744 1.667-1.663 0-.918-.746-1.663-1.666-1.663-.92 0-1.667.745-1.667 1.663 0 .919.746 1.663 1.667 1.663zm31.112-42.13c.92 0 1.666-.745 1.666-1.663 0-.919-.746-1.663-1.666-1.663-.92 0-1.667.744-1.667 1.663 0 .918.746 1.663 1.667 1.663zm-43.334 39.913a2.22 2.22 0 0 0 2.223-2.217 2.22 2.22 0 0 0-2.223-2.218 2.22 2.22 0 0 0-2.222 2.218 2.22 2.22 0 0 0 2.222 2.217zM26 69.64a2.22 2.22 0 0 0 2.222-2.217A2.22 2.22 0 0 0 26 65.207a2.22 2.22 0 0 0-2.222 2.217A2.22 2.22 0 0 0 26 69.64zm12.778-6.098a2.775 2.775 0 0 0 2.778-2.771A2.775 2.775 0 0 0 38.778 58 2.775 2.775 0 0 0 36 60.772a2.775 2.775 0 0 0 2.778 2.771zm-3.334 33.261a2.22 2.22 0 0 0 2.223-2.217 2.22 2.22 0 0 0-2.223-2.217 2.22 2.22 0 0 0-2.222 2.217 2.22 2.22 0 0 0 2.222 2.217zM51.556 109a2.775 2.775 0 0 0 2.777-2.772 2.775 2.775 0 0 0-2.777-2.771 2.775 2.775 0 0 0-2.778 2.771A2.775 2.775 0 0 0 51.556 109zm-30-16.076a2.775 2.775 0 0 0 2.777-2.772 2.775 2.775 0 0 0-2.777-2.772 2.775 2.775 0 0 0-2.778 2.772 2.775 2.775 0 0 0 2.778 2.772zm31.666-7.207A2.775 2.775 0 0 0 56 82.946a2.775 2.775 0 0 0-2.778-2.772 2.775 2.775 0 0 0-2.778 2.772 2.775 2.775 0 0 0 2.778 2.771zm-5-11.64a1.11 1.11 0 1 0-1.11-1.11 1.11 1.11 0 0 0 1.11 1.11zm-11.11 34.369A1.11 1.11 0 1 0 36 107.337a1.11 1.11 0 0 0 1.111 1.109zm-13.89-27.718a1.11 1.11 0 1 0-1.11-1.108 1.11 1.11 0 0 0 1.11 1.108zM10.444 91.261a1.11 1.11 0 1 0-1.11-1.109 1.11 1.11 0 0 0 1.11 1.109zM62.889 67.978a3.885 3.885 0 0 0 3.889-3.88 3.885 3.885 0 0 0-3.89-3.88A3.885 3.885 0 0 0 59 64.097a3.885 3.885 0 0 0 3.889 3.88zm26.667 13.859a3.885 3.885 0 0 0 3.888-3.88 3.885 3.885 0 0 0-3.888-3.88 3.885 3.885 0 0 0-3.89 3.88 3.885 3.885 0 0 0 3.89 3.88zm-23.89-3.88c.921 0 1.667-.745 1.667-1.664 0-.918-.746-1.663-1.666-1.663-.92 0-1.667.745-1.667 1.663 0 .919.746 1.664 1.667 1.664zm10 29.934c.921 0 1.667-.744 1.667-1.663 0-.918-.746-1.663-1.666-1.663-.92 0-1.667.745-1.667 1.663 0 .919.746 1.663 1.667 1.663zm31.112-42.13c.92 0 1.666-.745 1.666-1.663 0-.919-.746-1.663-1.666-1.663-.92 0-1.667.744-1.667 1.663 0 .918.746 1.663 1.667 1.663zm-43.334 39.913a2.22 2.22 0 0 0 2.223-2.217 2.22 2.22 0 0 0-2.223-2.218 2.22 2.22 0 0 0-2.222 2.218 2.22 2.22 0 0 0 2.222 2.217zM79 69.64a2.22 2.22 0 0 0 2.222-2.217A2.22 2.22 0 0 0 79 65.207a2.22 2.22 0 0 0-2.222 2.217A2.22 2.22 0 0 0 79 69.64zm12.778-6.098a2.775 2.775 0 0 0 2.778-2.771A2.775 2.775 0 0 0 91.778 58 2.775 2.775 0 0 0 89 60.772a2.775 2.775 0 0 0 2.778 2.771zm-3.334 33.261a2.22 2.22 0 0 0 2.223-2.217 2.22 2.22 0 0 0-2.223-2.217 2.22 2.22 0 0 0-2.222 2.217 2.22 2.22 0 0 0 2.222 2.217zM104.556 109a2.775 2.775 0 0 0 2.777-2.772 2.775 2.775 0 0 0-2.777-2.771 2.775 2.775 0 0 0-2.778 2.771 2.775 2.775 0 0 0 2.778 2.772zm-30-16.076a2.775 2.775 0 0 0 2.777-2.772 2.775 2.775 0 0 0-2.777-2.772 2.775 2.775 0 0 0-2.778 2.772 2.775 2.775 0 0 0 2.778 2.772zm31.666-7.207A2.775 2.775 0 0 0 109 82.946a2.775 2.775 0 0 0-2.778-2.772 2.775 2.775 0 0 0-2.778 2.772 2.775 2.775 0 0 0 2.778 2.771zm-5-11.64a1.11 1.11 0 1 0-1.11-1.11 1.11 1.11 0 0 0 1.11 1.11zm-11.11 34.369A1.11 1.11 0 1 0 89 107.337a1.11 1.11 0 0 0 1.111 1.109zm-13.89-27.718a1.11 1.11 0 1 0-1.11-1.108 1.11 1.11 0 0 0 1.11 1.108zM63.444 91.261a1.11 1.11 0 1 0-1.11-1.109 1.11 1.11 0 0 0 1.11 1.109zM62.889 13.978a3.885 3.885 0 0 0 3.889-3.88 3.885 3.885 0 0 0-3.89-3.88A3.885 3.885 0 0 0 59 10.097a3.885 3.885 0 0 0 3.889 3.88zm26.667 13.859a3.885 3.885 0 0 0 3.888-3.88 3.885 3.885 0 0 0-3.888-3.88 3.885 3.885 0 0 0-3.89 3.88 3.885 3.885 0 0 0 3.89 3.88zm-23.89-3.88c.921 0 1.667-.745 1.667-1.664 0-.918-.746-1.663-1.666-1.663-.92 0-1.667.745-1.667 1.663 0 .919.746 1.664 1.667 1.664zm10 29.934c.921 0 1.667-.744 1.667-1.663 0-.918-.746-1.663-1.666-1.663-.92 0-1.667.745-1.667 1.663 0 .919.746 1.663 1.667 1.663zm31.112-42.13c.92 0 1.666-.745 1.666-1.663 0-.919-.746-1.663-1.666-1.663-.92 0-1.667.744-1.667 1.663 0 .918.746 1.663 1.667 1.663zM63.444 51.674a2.22 2.22 0 0 0 2.223-2.217 2.22 2.22 0 0 0-2.223-2.218 2.22 2.22 0 0 0-2.222 2.218 2.22 2.22 0 0 0 2.222 2.217zM79 15.64a2.22 2.22 0 0 0 2.222-2.217A2.22 2.22 0 0 0 79 11.207a2.22 2.22 0 0 0-2.222 2.217A2.22 2.22 0 0 0 79 15.64zm12.778-6.098a2.775 2.775 0 0 0 2.778-2.771A2.775 2.775 0 0 0 91.778 4 2.775 2.775 0 0 0 89 6.772a2.775 2.775 0 0 0 2.778 2.771zm-3.334 33.261a2.22 2.22 0 0 0 2.223-2.217 2.22 2.22 0 0 0-2.223-2.217 2.22 2.22 0 0 0-2.222 2.217 2.22 2.22 0 0 0 2.222 2.217zM104.556 55a2.775 2.775 0 0 0 2.777-2.772 2.775 2.775 0 0 0-2.777-2.771 2.775 2.775 0 0 0-2.778 2.771A2.775 2.775 0 0 0 104.556 55zm-30-16.076a2.775 2.775 0 0 0 2.777-2.772 2.775 2.775 0 0 0-2.777-2.772 2.775 2.775 0 0 0-2.778 2.772 2.775 2.775 0 0 0 2.778 2.772zm31.666-7.207A2.775 2.775 0 0 0 109 28.946a2.775 2.775 0 0 0-2.778-2.772 2.775 2.775 0 0 0-2.778 2.772 2.775 2.775 0 0 0 2.778 2.771zm-5-11.64a1.11 1.11 0 1 0-1.11-1.11 1.11 1.11 0 0 0 1.11 1.11zm-11.11 34.369A1.11 1.11 0 1 0 89 53.337a1.11 1.11 0 0 0 1.111 1.109zm-13.89-27.718a1.11 1.11 0 1 0-1.11-1.108 1.11 1.11 0 0 0 1.11 1.108zM63.444 37.261a1.11 1.11 0 1 0-1.11-1.109 1.11 1.11 0 0 0 1.11 1.109z"/></g></svg>