<svg width="100" height="100" xmlns="http://www.w3.org/2000/svg"><path d="M98 98l-3.994-3.994L98 98l3.994-3.994L98 98zm0 0l3.994 3.994L98 98l-3.994 3.994L98 98zm-8 0l-3.994-3.994L90 98l3.994-3.994L90 98zm0 0l3.994 3.994L90 98l-3.994 3.994L90 98zm-8 0l-3.994-3.994L82 98l3.994-3.994L82 98zm0 0l3.994 3.994L82 98l-3.994 3.994L82 98zm-8 0l3.994-3.994L74 98l-3.994-3.994L74 98zm0 0l-3.994 3.994L74 98l3.994 3.994L74 98zm-8 0l-3.994-3.994L66 98l3.994-3.994L66 98zm0 0l3.994 3.994L66 98l-3.994 3.994L66 98zm-8 0l-3.994-3.994L58 98l3.994-3.994L58 98zm0 0l3.994 3.994L58 98l-3.994 3.994L58 98zm-8 0l-3.994-3.994L50 98l3.994-3.994L50 98zm0 0l3.994 3.994L50 98l-3.994 3.994L50 98zm-8 0l-3.994-3.994L42 98l3.994-3.994L42 98zm0 0l3.994 3.994L42 98l-3.994 3.994L42 98zm-8 0l3.994-3.994L34 98l-3.994-3.994L34 98zm0 0l-3.994 3.994L34 98l3.994 3.994L34 98zm-8 0l3.994-3.994L26 98l-3.994-3.994L26 98zm0 0l-3.994 3.994L26 98l3.994 3.994L26 98zm-8 0l-3.994-3.994L18 98l3.994-3.994L18 98zm0 0l3.994 3.994L18 98l-3.994 3.994L18 98zm-8 0l-3.994-3.994L10 98l3.994-3.994L10 98zm0 0l3.994 3.994L10 98l-3.994 3.994L10 98zm-8 0l-3.994-3.994L2 98l3.994-3.994L2 98zm0 0l3.994 3.994L2 98l-3.994 3.994L2 98zm96-8l-3.994-3.994L98 90l3.994-3.994L98 90zm0 0l3.994 3.994L98 90l-3.994 3.994L98 90zm-8 0l-3.994-3.994L90 90l3.994-3.994L90 90zm0 0l3.994 3.994L90 90l-3.994 3.994L90 90zm-8 0l-3.994-3.994L82 90l3.994-3.994L82 90zm0 0l3.994 3.994L82 90l-3.994 3.994L82 90zm-8 0l-3.994-3.994L74 90l3.994-3.994L74 90zm0 0l3.994 3.994L74 90l-3.994 3.994L74 90zm-8 0l-3.994-3.994L66 90l3.994-3.994L66 90zm0 0l3.994 3.994L66 90l-3.994 3.994L66 90zm-8 0l-3.994-3.994L58 90l3.994-3.994L58 90zm0 0l3.994 3.994L58 90l-3.994 3.994L58 90zm-8 0l3.994-3.994L50 90l-3.994-3.994L50 90zm0 0l-3.994 3.994L50 90l3.994 3.994L50 90zm-8 0l-3.994-3.994L42 90l3.994-3.994L42 90zm0 0l3.994 3.994L42 90l-3.994 3.994L42 90zm-8 0l-3.994-3.994L34 90l3.994-3.994L34 90zm0 0l3.994 3.994L34 90l-3.994 3.994L34 90zm-8 0l3.994-3.994L26 90l-3.994-3.994L26 90zm0 0l3.994 3.994L26 90l-3.994 3.994L26 90zm-8 0l-3.994-3.994L18 90l3.994-3.994L18 90zm0 0l3.994 3.994L18 90l-3.994 3.994L18 90zm-8 0l-3.994-3.994L10 90l3.994-3.994L10 90zm0 0l3.994 3.994L10 90l-3.994 3.994L10 90zm-8 0l-3.994-3.994L2 90l3.994-3.994L2 90zm0 0l3.994 3.994L2 90l-3.994 3.994L2 90zm96-8l-3.994-3.994L98 82l3.994-3.994L98 82zm0 0l3.994 3.994L98 82l-3.994 3.994L98 82zm-8 0l-3.994-3.994L90 82l3.994-3.994L90 82zm0 0l3.994 3.994L90 82l-3.994 3.994L90 82zm-8 0l-3.994-3.994L82 82l3.994-3.994L82 82zm0 0l3.994 3.994L82 82l-3.994 3.994L82 82zm-8 0l-3.994-3.994L74 82l3.994-3.994L74 82zm0 0l3.994 3.994L74 82l-3.994 3.994L74 82zm-8 0l-3.994-3.994L66 82l3.994-3.994L66 82zm0 0l3.994 3.994L66 82l-3.994 3.994L66 82zm-8 0l-3.994-3.994L58 82l3.994-3.994L58 82zm0 0l3.994 3.994L58 82l-3.994 3.994L58 82zm-8 0l3.994-3.994L50 82l-3.994-3.994L50 82zm0 0l-3.994 3.994L50 82l3.994 3.994L50 82zm-8 0l-3.994-3.994L42 82l3.994-3.994L42 82zm0 0l3.994 3.994L42 82l-3.994 3.994L42 82zm-8 0l3.994-3.994L34 82l-3.994-3.994L34 82zm0 0l-3.994 3.994L34 82l3.994 3.994L34 82zm-8 0l-3.994-3.994L26 82l3.994-3.994L26 82zm0 0l3.994 3.994L26 82l-3.994 3.994L26 82zm-8 0l-3.994-3.994L18 82l3.994-3.994L18 82zm0 0l3.994 3.994L18 82l-3.994 3.994L18 82zm-8 0l-3.994-3.994L10 82l3.994-3.994L10 82zm0 0l3.994 3.994L10 82l-3.994 3.994L10 82zm-8 0l-3.994-3.994L2 82l3.994-3.994L2 82zm0 0l3.994 3.994L2 82l-3.994 3.994L2 82zm96-8l-3.994-3.994L98 74l3.994-3.994L98 74zm0 0l3.994 3.994L98 74l-3.994 3.994L98 74zm-8 0l-3.994-3.994L90 74l3.994-3.994L90 74zm0 0l3.994 3.994L90 74l-3.994 3.994L90 74zm-8 0l-3.994-3.994L82 74l3.994-3.994L82 74zm0 0l3.994 3.994L82 74l-3.994 3.994L82 74zm-8 0l-3.994-3.994L74 74l3.994-3.994L74 74zm0 0l3.994 3.994L74 74l-3.994 3.994L74 74zm-8 0l-3.994-3.994L66 74l3.994-3.994L66 74zm0 0l3.994 3.994L66 74l-3.994 3.994L66 74zm-8 0l3.994-3.994L58 74l-3.994-3.994L58 74zm0 0l-3.994 3.994L58 74l3.994 3.994L58 74zm-8 0l-3.994-3.994L50 74l3.994-3.994L50 74zm0 0l3.994 3.994L50 74l-3.994 3.994L50 74zm-8 0l-3.994-3.994L42 74l3.994-3.994L42 74zm0 0l3.994 3.994L42 74l-3.994 3.994L42 74zm-8 0l3.994-3.994L34 74l-3.994-3.994L34 74zm0 0l-3.994 3.994L34 74l3.994 3.994L34 74zm-8 0l-3.994-3.994L26 74l3.994-3.994L26 74zm0 0l3.994 3.994L26 74l-3.994 3.994L26 74zm-8 0l-3.994-3.994L18 74l3.994-3.994L18 74zm0 0l3.994 3.994L18 74l-3.994 3.994L18 74zm-8 0l-3.994-3.994L10 74l3.994-3.994L10 74zm0 0l3.994 3.994L10 74l-3.994 3.994L10 74zm-8 0l-3.994-3.994L2 74l3.994-3.994L2 74zm0 0l3.994 3.994L2 74l-3.994 3.994L2 74zm96-8l3.994-3.994L98 66l-3.994-3.994L98 66zm0 0l-3.994 3.994L98 66l3.994 3.994L98 66zm-8 0l-3.994-3.994L90 66l3.994-3.994L90 66zm0 0l3.994 3.994L90 66l-3.994 3.994L90 66zm-8 0l-3.994-3.994L82 66l3.994-3.994L82 66zm0 0l3.994 3.994L82 66l-3.994 3.994L82 66zm-8 0l-3.994-3.994L74 66l3.994-3.994L74 66zm0 0l3.994 3.994L74 66l-3.994 3.994L74 66zm-8 0l-3.994-3.994L66 66l3.994-3.994L66 66zm0 0l3.994 3.994L66 66l-3.994 3.994L66 66zm-8 0l-3.994-3.994L58 66l3.994-3.994L58 66zm0 0l3.994 3.994L58 66l-3.994 3.994L58 66zm-8 0l-3.994-3.994L50 66l3.994-3.994L50 66zm0 0l3.994 3.994L50 66l-3.994 3.994L50 66zm-8 0l-3.994-3.994L42 66l3.994-3.994L42 66zm0 0l3.994 3.994L42 66l-3.994 3.994L42 66zm-8 0l-3.994-3.994L34 66l3.994-3.994L34 66zm0 0l3.994 3.994L34 66l-3.994 3.994L34 66zm-8 0l3.994-3.994L26 66l-3.994-3.994L26 66zm0 0l-3.994 3.994L26 66l3.994 3.994L26 66zm-8 0l-3.994-3.994L18 66l3.994-3.994L18 66zm0 0l3.994 3.994L18 66l-3.994 3.994L18 66zm-8 0l-3.994-3.994L10 66l3.994-3.994L10 66zm0 0l3.994 3.994L10 66l-3.994 3.994L10 66zm-8 0l-3.994-3.994L2 66l3.994-3.994L2 66zm0 0l3.994 3.994L2 66l-3.994 3.994L2 66zm96-8l3.994-3.994L98 58l-3.994-3.994L98 58zm0 0l-3.994 3.994L98 58l3.994 3.994L98 58zm-8 0l-3.994-3.994L90 58l3.994-3.994L90 58zm0 0l3.994 3.994L90 58l-3.994 3.994L90 58zm-8 0l3.994-3.994L82 58l-3.994-3.994L82 58zm0 0l-3.994 3.994L82 58l3.994 3.994L82 58zm-8 0l-3.994-3.994L74 58l3.994-3.994L74 58zm0 0l3.994 3.994L74 58l-3.994 3.994L74 58zm-8 0l-3.994-3.994L66 58l3.994-3.994L66 58zm0 0l3.994 3.994L66 58l-3.994 3.994L66 58zm-8 0l3.994-3.994L58 58l-3.994-3.994L58 58zm0 0l-3.994 3.994L58 58l3.994 3.994L58 58zm-8 0l3.994-3.994L50 58l-3.994-3.994L50 58zm0 0l-3.994 3.994L50 58l3.994 3.994L50 58zm-8 0l-3.994-3.994L42 58l3.994-3.994L42 58zm0 0l3.994 3.994L42 58l-3.994 3.994L42 58zm-8 0l-3.994-3.994L34 58l3.994-3.994L34 58zm0 0l3.994 3.994L34 58l-3.994 3.994L34 58zm-8 0l3.994-3.994L26 58l-3.994-3.994L26 58zm0 0l-3.994 3.994L26 58l3.994 3.994L26 58zm-8 0l3.994-3.994L18 58l-3.994-3.994L18 58zm0 0l-3.994 3.994L18 58l3.994 3.994L18 58zm-8 0l-3.994-3.994L10 58l3.994-3.994L10 58zm0 0l3.994 3.994L10 58l-3.994 3.994L10 58zm-8 0l-3.994-3.994L2 58l3.994-3.994L2 58zm0 0l3.994 3.994L2 58l-3.994 3.994L2 58zm96-8l3.994-3.994L98 50l-3.994-3.994L98 50zm0 0l-3.994 3.994L98 50l3.994 3.994L98 50zm-8 0l-3.994-3.994L90 50l3.994-3.994L90 50zm0 0l3.994 3.994L90 50l-3.994 3.994L90 50zm-8 0l3.994-3.994L82 50l-3.994-3.994L82 50zm0 0l-3.994 3.994L82 50l3.994 3.994L82 50zm-8 0l3.994-3.994L74 50l-3.994-3.994L74 50zm0 0l-3.994 3.994L74 50l3.994 3.994L74 50zm-8 0l3.994-3.994L66 50l-3.994-3.994L66 50zm0 0l-3.994 3.994L66 50l3.994 3.994L66 50zm-8 0l3.994-3.994L58 50l-3.994-3.994L58 50zm0 0l-3.994 3.994L58 50l3.994 3.994L58 50zm-8 0l3.994-3.994L50 50l-3.994-3.994L50 50zm0 0l-3.994 3.994L50 50l3.994 3.994L50 50zm-8 0l3.994-3.994L42 50l-3.994-3.994L42 50zm0 0l-3.994 3.994L42 50l3.994 3.994L42 50zm-8 0l3.994-3.994L34 50l-3.994-3.994L34 50zm0 0l-3.994 3.994L34 50l3.994 3.994L34 50zm-8 0l-3.994-3.994L26 50l3.994-3.994L26 50zm0 0l3.994 3.994L26 50l-3.994 3.994L26 50zm-8 0l3.994-3.994L18 50l-3.994-3.994L18 50zm0 0l-3.994 3.994L18 50l3.994 3.994L18 50zm-8 0l-3.994-3.994L10 50l3.994-3.994L10 50zm0 0l3.994 3.994L10 50l-3.994 3.994L10 50zm-8 0l3.994-3.994L2 50l-3.994-3.994L2 50zm0 0l3.994 3.994L2 50l-3.994 3.994L2 50zm96-8l3.994-3.994L98 42l-3.994-3.994L98 42zm0 0l-3.994 3.994L98 42l3.994 3.994L98 42zm-8 0l-3.994-3.994L90 42l3.994-3.994L90 42zm0 0l3.994 3.994L90 42l-3.994 3.994L90 42zm-8 0l-3.994-3.994L82 42l3.994-3.994L82 42zm0 0l3.994 3.994L82 42l-3.994 3.994L82 42zm-8 0l-3.994-3.994L74 42l3.994-3.994L74 42zm0 0l3.994 3.994L74 42l-3.994 3.994L74 42zm-8 0l-3.994-3.994L66 42l3.994-3.994L66 42zm0 0l3.994 3.994L66 42l-3.994 3.994L66 42zm-8 0l-3.994-3.994L58 42l3.994-3.994L58 42zm0 0l3.994 3.994L58 42l-3.994 3.994L58 42zm-8 0l-3.994-3.994L50 42l3.994-3.994L50 42zm0 0l3.994 3.994L50 42l-3.994 3.994L50 42zm-8 0l-3.994-3.994L42 42l3.994-3.994L42 42zm0 0l3.994 3.994L42 42l-3.994 3.994L42 42zm-8 0l-3.994-3.994L34 42l3.994-3.994L34 42zm0 0l3.994 3.994L34 42l-3.994 3.994L34 42zm-8 0l-3.994-3.994L26 42l3.994-3.994L26 42zm0 0l3.994 3.994L26 42l-3.994 3.994L26 42zm-8 0l-3.994-3.994L18 42l3.994-3.994L18 42zm0 0l3.994 3.994L18 42l-3.994 3.994L18 42zm-8 0l-3.994-3.994L10 42l3.994-3.994L10 42zm0 0l3.994 3.994L10 42l-3.994 3.994L10 42zm-8 0l3.994-3.994L2 42l-3.994-3.994L2 42zm0 0l3.994 3.994L2 42l-3.994 3.994L2 42zm96-8l-3.994-3.994L98 34l3.994-3.994L98 34zm0 0l3.994 3.994L98 34l-3.994 3.994L98 34zm-8 0l-3.994-3.994L90 34l3.994-3.994L90 34zm0 0l3.994 3.994L90 34l-3.994 3.994L90 34zm-8 0l3.994-3.994L82 34l-3.994-3.994L82 34zm0 0l-3.994 3.994L82 34l3.994 3.994L82 34zm-8 0l3.994-3.994L74 34l-3.994-3.994L74 34zm0 0l-3.994 3.994L74 34l3.994 3.994L74 34zm-8 0l-3.994-3.994L66 34l3.994-3.994L66 34zm0 0l3.994 3.994L66 34l-3.994 3.994L66 34zm-8 0l3.994-3.994L58 34l-3.994-3.994L58 34zm0 0l-3.994 3.994L58 34l3.994 3.994L58 34zm-8 0l3.994-3.994L50 34l-3.994-3.994L50 34zm0 0l-3.994 3.994L50 34l3.994 3.994L50 34zm-8 0l-3.994-3.994L42 34l3.994-3.994L42 34zm0 0l3.994 3.994L42 34l-3.994 3.994L42 34zm-8 0l3.994-3.994L34 34l-3.994-3.994L34 34zm0 0l-3.994 3.994L34 34l3.994 3.994L34 34zm-8 0l-3.994-3.994L26 34l3.994-3.994L26 34zm0 0l-3.994 3.994L26 34l3.994 3.994L26 34zm-8 0l-3.994-3.994L18 34l3.994-3.994L18 34zm0 0l3.994 3.994L18 34l-3.994 3.994L18 34zm-8 0l-3.994-3.994L10 34l3.994-3.994L10 34zm0 0l3.994 3.994L10 34l-3.994 3.994L10 34zm-8 0l3.994-3.994L2 34l-3.994-3.994L2 34zm0 0l-3.994 3.994L2 34l3.994 3.994L2 34zm96-8l3.994-3.994L98 26l-3.994-3.994L98 26zm0 0l-3.994 3.994L98 26l3.994 3.994L98 26zm-8 0l-3.994-3.994L90 26l3.994-3.994L90 26zm0 0l3.994 3.994L90 26l-3.994 3.994L90 26zm-8 0l-3.994-3.994L82 26l3.994-3.994L82 26zm0 0l3.994 3.994L82 26l-3.994 3.994L82 26zm-8 0l-3.994-3.994L74 26l3.994-3.994L74 26zm0 0l3.994 3.994L74 26l-3.994 3.994L74 26zm-8 0l-3.994-3.994L66 26l3.994-3.994L66 26zm0 0l3.994 3.994L66 26l-3.994 3.994L66 26zm-8 0l-3.994-3.994L58 26l3.994-3.994L58 26zm0 0l3.994 3.994L58 26l-3.994 3.994L58 26zm-8 0l-3.994-3.994L50 26l3.994-3.994L50 26zm0 0l3.994 3.994L50 26l-3.994 3.994L50 26zm-8 0l-3.994-3.994L42 26l3.994-3.994L42 26zm0 0l3.994 3.994L42 26l-3.994 3.994L42 26zm-8 0l-3.994-3.994L34 26l3.994-3.994L34 26zm0 0l3.994 3.994L34 26l-3.994 3.994L34 26zm-8 0l-3.994-3.994L26 26l3.994-3.994L26 26zm0 0l3.994 3.994L26 26l-3.994 3.994L26 26zm-8 0l3.994-3.994L18 26l-3.994-3.994L18 26zm0 0l3.994 3.994L18 26l-3.994 3.994L18 26zm-8 0l-3.994-3.994L10 26l3.994-3.994L10 26zm0 0l3.994 3.994L10 26l-3.994 3.994L10 26zm-8 0l-3.994-3.994L2 26l3.994-3.994L2 26zm0 0l3.994 3.994L2 26l-3.994 3.994L2 26zm96-8l-3.994-3.994L98 18l3.994-3.994L98 18zm0 0l3.994 3.994L98 18l-3.994 3.994L98 18zm-8 0l-3.994-3.994L90 18l3.994-3.994L90 18zm0 0l3.994 3.994L90 18l-3.994 3.994L90 18zm-8 0l-3.994-3.994L82 18l3.994-3.994L82 18zm0 0l3.994 3.994L82 18l-3.994 3.994L82 18zm-8 0l-3.994-3.994L74 18l3.994-3.994L74 18zm0 0l3.994 3.994L74 18l-3.994 3.994L74 18zm-8 0l-3.994-3.994L66 18l3.994-3.994L66 18zm0 0l3.994 3.994L66 18l-3.994 3.994L66 18zm-8 0l-3.994-3.994L58 18l3.994-3.994L58 18zm0 0l3.994 3.994L58 18l-3.994 3.994L58 18zm-8 0l-3.994-3.994L50 18l3.994-3.994L50 18zm0 0l3.994 3.994L50 18l-3.994 3.994L50 18zm-8 0l-3.994-3.994L42 18l3.994-3.994L42 18zm0 0l3.994 3.994L42 18l-3.994 3.994L42 18zm-8 0l-3.994-3.994L34 18l3.994-3.994L34 18zm0 0l3.994 3.994L34 18l-3.994 3.994L34 18zm-8 0l3.994-3.994L26 18l-3.994-3.994L26 18zm0 0l-3.994 3.994L26 18l3.994 3.994L26 18zm-8 0l-3.994-3.994L18 18l3.994-3.994L18 18zm0 0l3.994 3.994L18 18l-3.994 3.994L18 18zm-8 0l-3.994-3.994L10 18l3.994-3.994L10 18zm0 0l3.994 3.994L10 18l-3.994 3.994L10 18zm-8 0l-3.994-3.994L2 18l3.994-3.994L2 18zm0 0l3.994 3.994L2 18l-3.994 3.994L2 18zm96-8l3.994-3.994L98 10l-3.994-3.994L98 10zm0 0l-3.994 3.994L98 10l3.994 3.994L98 10zm-8 0l-3.994-3.994L90 10l3.994-3.994L90 10zm0 0l3.994 3.994L90 10l-3.994 3.994L90 10zm-8 0l3.994-3.994L82 10l-3.994-3.994L82 10zm0 0l-3.994 3.994L82 10l3.994 3.994L82 10zm-8 0l-3.994-3.994L74 10l3.994-3.994L74 10zm0 0l3.994 3.994L74 10l-3.994 3.994L74 10zm-8 0l-3.994-3.994L66 10l3.994-3.994L66 10zm0 0l-3.994 3.994L66 10l3.994 3.994L66 10zm-8 0l-3.994-3.994L58 10l3.994-3.994L58 10zm0 0l3.994 3.994L58 10l-3.994 3.994L58 10zm-8 0l-3.994-3.994L50 10l3.994-3.994L50 10zm0 0l3.994 3.994L50 10l-3.994 3.994L50 10zm-8 0l-3.994-3.994L42 10l3.994-3.994L42 10zm0 0l3.994 3.994L42 10l-3.994 3.994L42 10zm-8 0l3.994-3.994L34 10l-3.994-3.994L34 10zm0 0l3.994 3.994L34 10l-3.994 3.994L34 10zm-8 0l-3.994-3.994L26 10l3.994-3.994L26 10zm0 0l3.994 3.994L26 10l-3.994 3.994L26 10zm-8 0l3.994-3.994L18 10l-3.994-3.994L18 10zm0 0l-3.994 3.994L18 10l3.994 3.994L18 10zm-8 0l3.994-3.994L10 10 6.006 6.006 10 10zm0 0l3.994 3.994L10 10l-3.994 3.994L10 10zm-8 0l3.994-3.994L2 10l-3.994-3.994L2 10zm0 0l-3.994 3.994L2 10l3.994 3.994L2 10zm96-8l-3.994-3.994L98 2l3.994-3.994L98 2zm0 0l3.994 3.994L98 2l-3.994 3.994L98 2zm-8 0l-3.994-3.994L90 2l3.994-3.994L90 2zm0 0l3.994 3.994L90 2l-3.994 3.994L90 2zm-8 0l-3.994-3.994L82 2l3.994-3.994L82 2zm0 0l-3.994 3.994L82 2l3.994 3.994L82 2zm-8 0l-3.994-3.994L74 2l3.994-3.994L74 2zm0 0l3.994 3.994L74 2l-3.994 3.994L74 2zm-8 0l3.994-3.994L66 2l-3.994-3.994L66 2zm0 0l-3.994 3.994L66 2l3.994 3.994L66 2zm-8 0l-3.994-3.994L58 2l3.994-3.994L58 2zm0 0l-3.994 3.994L58 2l3.994 3.994L58 2zm-8 0l-3.994-3.994L50 2l3.994-3.994L50 2zm0 0l3.994 3.994L50 2l-3.994 3.994L50 2zm-8 0l-3.994-3.994L42 2l3.994-3.994L42 2zm0 0l3.994 3.994L42 2l-3.994 3.994L42 2zm-8 0l3.994-3.994L34 2l-3.994-3.994L34 2zm0 0l-3.994 3.994L34 2l3.994 3.994L34 2zm-8 0l3.994-3.994L26 2l-3.994-3.994L26 2zm0 0l-3.994 3.994L26 2l3.994 3.994L26 2zm-8 0l3.994-3.994L18 2l-3.994-3.994L18 2zm0 0l-3.994 3.994L18 2l3.994 3.994L18 2zm-8 0l3.994-3.994L10 2 6.006-1.994 10 2zm0 0L6.006 5.994 10 2l3.994 3.994L10 2zM2 2l3.994-3.994L2 2l-3.994-3.994L2 2zm0 0l3.994 3.994L2 2l-3.994 3.994L2 2z" stroke="#565D66" stroke-width="1.333" fill="none" fill-rule="evenodd" stroke-linecap="square"/></svg>