<svg width="100" height="100" xmlns="http://www.w3.org/2000/svg" xmlns:xlink="http://www.w3.org/1999/xlink"><defs><path id="a" d="M3 3h94v94H3z"/></defs><g fill="none" fill-rule="evenodd"><mask id="b" fill="#fff"><use xlink:href="#a"/></mask><g mask="url(#b)" fill="#565D66"><path d="M-86.118 34.59L34.09-85.618l7.24 7.24L-78.88 41.83l-7.24-7.24zM-71.64 49.07L48.569-71.139l7.24 7.24L-64.4 56.307l-7.24-7.239zm14.479 14.479L63.048-56.66l7.24 7.24L-49.922 70.786l-7.24-7.24zm14.479 14.479L77.527-42.181l7.24 7.239-120.21 120.208-7.238-7.24zm14.478 14.479L92.006-27.703l7.239 7.24L-20.963 99.745l-7.24-7.24zm14.48 14.478L106.483-13.224l7.24 7.24L-6.484 114.224l-7.24-7.24zm14.478 14.48L120.963 1.254l7.24 7.24L7.994 128.702l-7.239-7.24zm14.479 14.478L135.442 15.734l7.24 7.24L22.472 143.18l-7.24-7.239zm14.479 14.479L149.92 30.213l7.24 7.24L36.951 157.66l-7.24-7.24zM44.192 164.9L164.4 44.692l7.24 7.239L51.43 172.139l-7.24-7.24zm14.478 14.479L178.88 59.17l7.24 7.24-120.21 120.208-7.239-7.24z"/></g></g></svg>