<svg width="100" height="100" xmlns="http://www.w3.org/2000/svg" xmlns:xlink="http://www.w3.org/1999/xlink"><defs><path id="a" d="M3 3h94v94H3z"/></defs><g fill="none" fill-rule="evenodd"><mask id="b" fill="#fff"><use xlink:href="#a"/></mask><g mask="url(#b)" stroke="#565D66" stroke-linecap="square" stroke-width="1.5"><path d="M-51.025 55.041L55.041-51.025-51.025 55.041zm3.182 3.182L58.223-47.843-47.843 58.223zm3.182 3.182L61.405-44.66-44.66 61.405zm3.182 3.182L64.587-41.479-41.479 64.587zm3.182 3.182L67.769-38.297-38.297 67.769zm3.182 3.182L70.951-35.115-35.115 70.951zm3.182 3.182L74.133-31.933-31.933 74.133zm3.182 3.182L77.315-28.751-28.751 77.315zm3.182 3.182L80.497-25.569-25.569 80.497zm3.182 3.182L83.679-22.387-22.387 83.679zm3.182 3.182L86.86-19.205-19.205 86.86zm3.182 3.182L90.043-16.023-16.023 90.043zm3.182 3.182L93.225-12.841-12.841 93.225zm3.182 3.182L96.407-9.66-9.66 96.407zm3.182 3.182L99.589-6.477-6.477 99.589zm3.182 3.182L102.77-3.295-3.295 102.77zm3.182 3.182L105.953-.113-.113 105.953zm3.182 3.182L109.135 3.069 3.069 109.135zm3.182 3.182L112.317 6.25 6.25 112.317zm3.182 3.182L115.499 9.433 9.433 115.499zm3.182 3.182L118.68 12.615 12.615 118.68zm3.182 3.182L121.863 15.797 15.797 121.863zm3.182 3.182L125.045 18.979 18.979 125.045zm3.182 3.182L128.227 22.16 22.16 128.227zm3.182 3.182L131.409 25.343 25.343 131.409zm3.182 3.182L134.59 28.525 28.525 134.59zm3.182 3.182L137.773 31.707 31.707 137.773zm3.182 3.182L140.955 34.889 34.889 140.955zm3.182 3.182L144.137 38.07 38.07 144.137zm3.182 3.182L147.319 41.253 41.253 147.319zm3.182 3.182L150.5 44.435 44.435 150.5z"/></g></g></svg>