<svg width="100" height="100" xmlns="http://www.w3.org/2000/svg"><g fill="#565D66" fill-rule="nonzero"><path d="M30 18.572V20h-5.536A11.418 11.418 0 0 1 30 18.572zM11.429 20a1.429 1.429 0 1 0-2.858 0H5.65A18.557 18.557 0 0 0-10 11.43V10c.479 0 .957.015 1.429.05V10c0-.789-.64-1.428-1.429-1.428V7.143a2.857 2.857 0 0 1 2.843 2.572 20.064 20.064 0 0 1 2-2.757A5.714 5.714 0 0 0-10 4.286V2.858a7.136 7.136 0 0 1 5.836 3.02C-3.493 5.2-2.764 4.573-2 4a9.986 9.986 0 0 0-8-4h5.536A11.53 11.53 0 0 1-.821 3.18C-.021 2.665.82 2.2 1.7 1.8 1.25 1.16.748.558.2 0h1.929c.321.4.628.815.921 1.243A19.524 19.524 0 0 1 5.907.422 5.108 5.108 0 0 0 5.65 0h2.921v.05a20.286 20.286 0 0 1 2.858 0V0h2.921l-.264.422c.985.2 1.943.478 2.864.821.286-.428.6-.843.929-1.243H19.8c-.548.558-1.05 1.16-1.5 1.8.879.4 1.721.858 2.529 1.379A11.486 11.486 0 0 1 24.464 0H30a9.98 9.98 0 0 0-8 4c.764.572 1.493 1.2 2.164 1.879A7.136 7.136 0 0 1 30 2.858v1.428a5.714 5.714 0 0 0-4.836 2.672 20.5 20.5 0 0 1 1.993 2.757A2.857 2.857 0 0 1 30 7.143v1.429a1.429 1.429 0 0 0-1.429 1.478c.476-.033.952-.05 1.429-.05v1.429A18.543 18.543 0 0 0 14.35 20h-2.921zm-15.893 0H-10v-1.428c2.007 0 3.9.521 5.536 1.428zM30 14.286v1.429c-4 0-7.607 1.643-10.2 4.285h-1.929A15.693 15.693 0 0 1 30 14.286zM2.121 20H.2A14.24 14.24 0 0 0-10 15.715v-1.429c4.879 0 9.243 2.222 12.121 5.714zm10.722-.285a20.064 20.064 0 0 1 2-2.757 5.714 5.714 0 0 0-9.679 0 20.5 20.5 0 0 1 1.993 2.757 2.857 2.857 0 0 1 5.686 0zm10.207-8.472a19.524 19.524 0 0 1 2.857-.821 18.564 18.564 0 0 0-31.821 0c.985.2 1.943.478 2.864.821a15.7 15.7 0 0 1 26.1 0zm-3.879 1.936A20.067 20.067 0 0 1 21.7 11.8a14.271 14.271 0 0 0-23.4 0c.879.4 1.721.858 2.529 1.379a11.414 11.414 0 0 1 18.342 0zm-3.335 2.7c.671-.679 1.4-1.307 2.164-1.879a9.986 9.986 0 0 0-16 0c.764.572 1.493 1.2 2.164 1.879a7.136 7.136 0 0 1 11.672 0z"/><path d="M30 38.572V40h-5.536A11.418 11.418 0 0 1 30 38.572zM11.429 40a1.429 1.429 0 1 0-2.858 0H5.65A18.557 18.557 0 0 0-10 31.43V30c.479 0 .957.015 1.429.05V30c0-.789-.64-1.428-1.429-1.428v-1.429a2.857 2.857 0 0 1 2.843 2.572 20.064 20.064 0 0 1 2-2.757A5.714 5.714 0 0 0-10 24.286v-1.428a7.136 7.136 0 0 1 5.836 3.02C-3.493 25.2-2.764 24.573-2 24a9.986 9.986 0 0 0-8-4h5.536A11.53 11.53 0 0 1-.821 23.18C-.021 22.665.82 22.2 1.7 21.8 1.25 21.16.748 20.558.2 20h1.929c.321.4.628.815.921 1.243a19.524 19.524 0 0 1 2.857-.821A5.108 5.108 0 0 0 5.65 20h2.921v.05a20.286 20.286 0 0 1 2.858 0V20h2.921l-.264.422c.985.2 1.943.478 2.864.821.286-.428.6-.843.929-1.243H19.8c-.548.558-1.05 1.16-1.5 1.8.879.4 1.721.858 2.529 1.379A11.486 11.486 0 0 1 24.464 20H30a9.98 9.98 0 0 0-8 4c.764.572 1.493 1.2 2.164 1.879A7.136 7.136 0 0 1 30 22.858v1.428a5.714 5.714 0 0 0-4.836 2.672 20.5 20.5 0 0 1 1.993 2.757A2.857 2.857 0 0 1 30 27.143v1.429a1.429 1.429 0 0 0-1.429 1.478c.476-.033.952-.05 1.429-.05v1.429A18.543 18.543 0 0 0 14.35 40h-2.921zm-15.893 0H-10v-1.428c2.007 0 3.9.521 5.536 1.428zM30 34.286v1.429c-4 0-7.607 1.643-10.2 4.285h-1.929A15.693 15.693 0 0 1 30 34.286zM2.121 40H.2A14.24 14.24 0 0 0-10 35.715v-1.429c4.879 0 9.243 2.222 12.121 5.714zm10.722-.285a20.064 20.064 0 0 1 2-2.757 5.714 5.714 0 0 0-9.679 0 20.5 20.5 0 0 1 1.993 2.757 2.857 2.857 0 0 1 5.686 0zm10.207-8.472a19.524 19.524 0 0 1 2.857-.821 18.564 18.564 0 0 0-31.821 0c.985.2 1.943.478 2.864.821a15.7 15.7 0 0 1 26.1 0zm-3.879 1.936A20.067 20.067 0 0 1 21.7 31.8a14.271 14.271 0 0 0-23.4 0c.879.4 1.721.858 2.529 1.379a11.414 11.414 0 0 1 18.342 0zm-3.335 2.7c.671-.679 1.4-1.307 2.164-1.879a9.986 9.986 0 0 0-16 0c.764.572 1.493 1.2 2.164 1.879a7.136 7.136 0 0 1 11.672 0z"/><path d="M30 58.572V60h-5.536A11.418 11.418 0 0 1 30 58.572zM11.429 60a1.429 1.429 0 1 0-2.858 0H5.65A18.557 18.557 0 0 0-10 51.43V50c.479 0 .957.015 1.429.05V50c0-.789-.64-1.428-1.429-1.428v-1.429a2.857 2.857 0 0 1 2.843 2.572 20.064 20.064 0 0 1 2-2.757A5.714 5.714 0 0 0-10 44.286v-1.428a7.136 7.136 0 0 1 5.836 3.02C-3.493 45.2-2.764 44.573-2 44a9.986 9.986 0 0 0-8-4h5.536A11.53 11.53 0 0 1-.821 43.18C-.021 42.665.82 42.2 1.7 41.8 1.25 41.16.748 40.558.2 40h1.929c.321.4.628.815.921 1.243a19.524 19.524 0 0 1 2.857-.821A5.108 5.108 0 0 0 5.65 40h2.921v.05a20.286 20.286 0 0 1 2.858 0V40h2.921l-.264.422c.985.2 1.943.478 2.864.821.286-.428.6-.843.929-1.243H19.8c-.548.558-1.05 1.16-1.5 1.8.879.4 1.721.858 2.529 1.379A11.486 11.486 0 0 1 24.464 40H30a9.98 9.98 0 0 0-8 4c.764.572 1.493 1.2 2.164 1.879A7.136 7.136 0 0 1 30 42.858v1.428a5.714 5.714 0 0 0-4.836 2.672 20.5 20.5 0 0 1 1.993 2.757A2.857 2.857 0 0 1 30 47.143v1.429a1.429 1.429 0 0 0-1.429 1.478c.476-.033.952-.05 1.429-.05v1.429A18.543 18.543 0 0 0 14.35 60h-2.921zm-15.893 0H-10v-1.428c2.007 0 3.9.521 5.536 1.428zM30 54.286v1.429c-4 0-7.607 1.643-10.2 4.285h-1.929A15.693 15.693 0 0 1 30 54.286zM2.121 60H.2A14.24 14.24 0 0 0-10 55.715v-1.429c4.879 0 9.243 2.222 12.121 5.714zm10.722-.285a20.064 20.064 0 0 1 2-2.757 5.714 5.714 0 0 0-9.679 0 20.5 20.5 0 0 1 1.993 2.757 2.857 2.857 0 0 1 5.686 0zm10.207-8.472a19.524 19.524 0 0 1 2.857-.821 18.564 18.564 0 0 0-31.821 0c.985.2 1.943.478 2.864.821a15.7 15.7 0 0 1 26.1 0zm-3.879 1.936A20.067 20.067 0 0 1 21.7 51.8a14.271 14.271 0 0 0-23.4 0c.879.4 1.721.858 2.529 1.379a11.414 11.414 0 0 1 18.342 0zm-3.335 2.7c.671-.679 1.4-1.307 2.164-1.879a9.986 9.986 0 0 0-16 0c.764.572 1.493 1.2 2.164 1.879a7.136 7.136 0 0 1 11.672 0z"/><path d="M30 78.572V80h-5.536A11.418 11.418 0 0 1 30 78.572zM11.429 80a1.429 1.429 0 1 0-2.858 0H5.65A18.557 18.557 0 0 0-10 71.43V70c.479 0 .957.015 1.429.05V70c0-.789-.64-1.428-1.429-1.428v-1.429a2.857 2.857 0 0 1 2.843 2.572 20.064 20.064 0 0 1 2-2.757A5.714 5.714 0 0 0-10 64.286v-1.428a7.136 7.136 0 0 1 5.836 3.02C-3.493 65.2-2.764 64.573-2 64a9.986 9.986 0 0 0-8-4h5.536A11.53 11.53 0 0 1-.821 63.18C-.021 62.665.82 62.2 1.7 61.8 1.25 61.16.748 60.558.2 60h1.929c.321.4.628.815.921 1.243a19.524 19.524 0 0 1 2.857-.821A5.108 5.108 0 0 0 5.65 60h2.921v.05a20.286 20.286 0 0 1 2.858 0V60h2.921l-.264.422c.985.2 1.943.478 2.864.821.286-.428.6-.843.929-1.243H19.8c-.548.558-1.05 1.16-1.5 1.8.879.4 1.721.858 2.529 1.379A11.486 11.486 0 0 1 24.464 60H30a9.98 9.98 0 0 0-8 4c.764.572 1.493 1.2 2.164 1.879A7.136 7.136 0 0 1 30 62.858v1.428a5.714 5.714 0 0 0-4.836 2.672 20.5 20.5 0 0 1 1.993 2.757A2.857 2.857 0 0 1 30 67.143v1.429a1.429 1.429 0 0 0-1.429 1.478c.476-.033.952-.05 1.429-.05v1.429A18.543 18.543 0 0 0 14.35 80h-2.921zm-15.893 0H-10v-1.428c2.007 0 3.9.521 5.536 1.428zM30 74.286v1.429c-4 0-7.607 1.643-10.2 4.285h-1.929A15.693 15.693 0 0 1 30 74.286zM2.121 80H.2A14.24 14.24 0 0 0-10 75.715v-1.429c4.879 0 9.243 2.222 12.121 5.714zm10.722-.285a20.064 20.064 0 0 1 2-2.757 5.714 5.714 0 0 0-9.679 0 20.5 20.5 0 0 1 1.993 2.757 2.857 2.857 0 0 1 5.686 0zm10.207-8.472a19.524 19.524 0 0 1 2.857-.821 18.564 18.564 0 0 0-31.821 0c.985.2 1.943.478 2.864.821a15.7 15.7 0 0 1 26.1 0zm-3.879 1.936A20.067 20.067 0 0 1 21.7 71.8a14.271 14.271 0 0 0-23.4 0c.879.4 1.721.858 2.529 1.379a11.414 11.414 0 0 1 18.342 0zm-3.335 2.7c.671-.679 1.4-1.307 2.164-1.879a9.986 9.986 0 0 0-16 0c.764.572 1.493 1.2 2.164 1.879a7.136 7.136 0 0 1 11.672 0z"/><path d="M30 98.572V100h-5.536A11.418 11.418 0 0 1 30 98.572zM11.429 100a1.429 1.429 0 0 0-2.858 0H5.65A18.557 18.557 0 0 0-10 91.43V90c.479 0 .957.015 1.429.05V90c0-.789-.64-1.428-1.429-1.428v-1.429a2.857 2.857 0 0 1 2.843 2.572 20.064 20.064 0 0 1 2-2.757A5.714 5.714 0 0 0-10 84.286v-1.428a7.136 7.136 0 0 1 5.836 3.02C-3.493 85.2-2.764 84.573-2 84a9.986 9.986 0 0 0-8-4h5.536A11.53 11.53 0 0 1-.821 83.18C-.021 82.665.82 82.2 1.7 81.8 1.25 81.16.748 80.558.2 80h1.929c.321.4.628.815.921 1.243a19.524 19.524 0 0 1 2.857-.821A5.108 5.108 0 0 0 5.65 80h2.921v.05a20.286 20.286 0 0 1 2.858 0V80h2.921l-.264.422c.985.2 1.943.478 2.864.821.286-.428.6-.843.929-1.243H19.8c-.548.558-1.05 1.16-1.5 1.8.879.4 1.721.858 2.529 1.379A11.486 11.486 0 0 1 24.464 80H30a9.98 9.98 0 0 0-8 4c.764.572 1.493 1.2 2.164 1.879A7.136 7.136 0 0 1 30 82.858v1.428a5.714 5.714 0 0 0-4.836 2.672 20.5 20.5 0 0 1 1.993 2.757A2.857 2.857 0 0 1 30 87.143v1.429a1.429 1.429 0 0 0-1.429 1.478c.476-.033.952-.05 1.429-.05v1.429A18.543 18.543 0 0 0 14.35 100h-2.921zm-15.893 0H-10v-1.428c2.007 0 3.9.521 5.536 1.428zM30 94.286v1.429c-4 0-7.607 1.643-10.2 4.285h-1.929A15.693 15.693 0 0 1 30 94.286zM2.121 100H.2A14.24 14.24 0 0 0-10 95.715v-1.429c4.879 0 9.243 2.222 12.121 5.714zm10.722-.285a20.064 20.064 0 0 1 2-2.757 5.714 5.714 0 0 0-9.679 0 20.5 20.5 0 0 1 1.993 2.757 2.857 2.857 0 0 1 5.686 0zm10.207-8.472a19.524 19.524 0 0 1 2.857-.821 18.564 18.564 0 0 0-31.821 0c.985.2 1.943.478 2.864.821a15.7 15.7 0 0 1 26.1 0zm-3.879 1.936A20.067 20.067 0 0 1 21.7 91.8a14.271 14.271 0 0 0-23.4 0c.879.4 1.721.858 2.529 1.379a11.414 11.414 0 0 1 18.342 0zm-3.335 2.7c.671-.679 1.4-1.307 2.164-1.879a9.986 9.986 0 0 0-16 0c.764.572 1.493 1.2 2.164 1.879a7.136 7.136 0 0 1 11.672 0zM70 18.572V20h-5.536A11.418 11.418 0 0 1 70 18.572zM51.429 20a1.429 1.429 0 1 0-2.858 0H45.65A18.557 18.557 0 0 0 30 11.43V10c.479 0 .957.015 1.429.05V10c0-.789-.64-1.428-1.429-1.428V7.143a2.857 2.857 0 0 1 2.843 2.572 20.064 20.064 0 0 1 2-2.757A5.714 5.714 0 0 0 30 4.286V2.858a7.136 7.136 0 0 1 5.836 3.02C36.507 5.2 37.236 4.573 38 4a9.986 9.986 0 0 0-8-4h5.536a11.53 11.53 0 0 1 3.643 3.179c.8-.514 1.642-.979 2.521-1.379-.45-.64-.952-1.242-1.5-1.8h1.929c.321.4.628.815.921 1.243a19.524 19.524 0 0 1 2.857-.821A5.108 5.108 0 0 0 45.65 0h2.921v.05a20.286 20.286 0 0 1 2.858 0V0h2.921l-.264.422c.985.2 1.943.478 2.864.821.286-.428.6-.843.929-1.243H59.8c-.548.558-1.05 1.16-1.5 1.8.879.4 1.721.858 2.529 1.379A11.486 11.486 0 0 1 64.464 0H70a9.98 9.98 0 0 0-8 4c.764.572 1.493 1.2 2.164 1.879A7.136 7.136 0 0 1 70 2.858v1.428a5.714 5.714 0 0 0-4.836 2.672 20.5 20.5 0 0 1 1.993 2.757A2.857 2.857 0 0 1 70 7.143v1.429a1.429 1.429 0 0 0-1.429 1.478c.476-.033.952-.05 1.429-.05v1.429A18.543 18.543 0 0 0 54.35 20h-2.921zm-15.893 0H30v-1.428c2.007 0 3.9.521 5.536 1.428zM70 14.286v1.429c-4 0-7.607 1.643-10.2 4.285h-1.929A15.693 15.693 0 0 1 70 14.286zM42.121 20H40.2A14.24 14.24 0 0 0 30 15.715v-1.429c4.879 0 9.243 2.222 12.121 5.714zm10.722-.285a20.064 20.064 0 0 1 2-2.757 5.714 5.714 0 0 0-9.679 0 20.5 20.5 0 0 1 1.993 2.757 2.857 2.857 0 0 1 5.686 0zm10.207-8.472a19.524 19.524 0 0 1 2.857-.821 18.564 18.564 0 0 0-31.821 0c.985.2 1.943.478 2.864.821a15.7 15.7 0 0 1 26.1 0zm-3.879 1.936A20.067 20.067 0 0 1 61.7 11.8a14.271 14.271 0 0 0-23.4 0c.879.4 1.721.858 2.529 1.379a11.414 11.414 0 0 1 18.342 0zm-3.335 2.7c.671-.679 1.4-1.307 2.164-1.879a9.986 9.986 0 0 0-16 0c.764.572 1.493 1.2 2.164 1.879a7.136 7.136 0 0 1 11.672 0z"/><path d="M70 38.572V40h-5.536A11.418 11.418 0 0 1 70 38.572zM51.429 40a1.429 1.429 0 1 0-2.858 0H45.65A18.557 18.557 0 0 0 30 31.43V30c.479 0 .957.015 1.429.05V30c0-.789-.64-1.428-1.429-1.428v-1.429a2.857 2.857 0 0 1 2.843 2.572 20.064 20.064 0 0 1 2-2.757A5.714 5.714 0 0 0 30 24.286v-1.428a7.136 7.136 0 0 1 5.836 3.02c.671-.678 1.4-1.306 2.164-1.878a9.986 9.986 0 0 0-8-4h5.536a11.53 11.53 0 0 1 3.643 3.179c.8-.514 1.642-.979 2.521-1.379-.45-.64-.952-1.242-1.5-1.8h1.929c.321.4.628.815.921 1.243a19.524 19.524 0 0 1 2.857-.821A5.108 5.108 0 0 0 45.65 20h2.921v.05a20.286 20.286 0 0 1 2.858 0V20h2.921l-.264.422c.985.2 1.943.478 2.864.821.286-.428.6-.843.929-1.243H59.8c-.548.558-1.05 1.16-1.5 1.8.879.4 1.721.858 2.529 1.379A11.486 11.486 0 0 1 64.464 20H70a9.98 9.98 0 0 0-8 4c.764.572 1.493 1.2 2.164 1.879A7.136 7.136 0 0 1 70 22.858v1.428a5.714 5.714 0 0 0-4.836 2.672 20.5 20.5 0 0 1 1.993 2.757A2.857 2.857 0 0 1 70 27.143v1.429a1.429 1.429 0 0 0-1.429 1.478c.476-.033.952-.05 1.429-.05v1.429A18.543 18.543 0 0 0 54.35 40h-2.921zm-15.893 0H30v-1.428c2.007 0 3.9.521 5.536 1.428zM70 34.286v1.429c-4 0-7.607 1.643-10.2 4.285h-1.929A15.693 15.693 0 0 1 70 34.286zM42.121 40H40.2A14.24 14.24 0 0 0 30 35.715v-1.429c4.879 0 9.243 2.222 12.121 5.714zm10.722-.285a20.064 20.064 0 0 1 2-2.757 5.714 5.714 0 0 0-9.679 0 20.5 20.5 0 0 1 1.993 2.757 2.857 2.857 0 0 1 5.686 0zm10.207-8.472a19.524 19.524 0 0 1 2.857-.821 18.564 18.564 0 0 0-31.821 0c.985.2 1.943.478 2.864.821a15.7 15.7 0 0 1 26.1 0zm-3.879 1.936A20.067 20.067 0 0 1 61.7 31.8a14.271 14.271 0 0 0-23.4 0c.879.4 1.721.858 2.529 1.379a11.414 11.414 0 0 1 18.342 0zm-3.335 2.7c.671-.679 1.4-1.307 2.164-1.879a9.986 9.986 0 0 0-16 0c.764.572 1.493 1.2 2.164 1.879a7.136 7.136 0 0 1 11.672 0z"/><path d="M70 58.572V60h-5.536A11.418 11.418 0 0 1 70 58.572zM51.429 60a1.429 1.429 0 1 0-2.858 0H45.65A18.557 18.557 0 0 0 30 51.43V50c.479 0 .957.015 1.429.05V50c0-.789-.64-1.428-1.429-1.428v-1.429a2.857 2.857 0 0 1 2.843 2.572 20.064 20.064 0 0 1 2-2.757A5.714 5.714 0 0 0 30 44.286v-1.428a7.136 7.136 0 0 1 5.836 3.02c.671-.678 1.4-1.306 2.164-1.878a9.986 9.986 0 0 0-8-4h5.536a11.53 11.53 0 0 1 3.643 3.179c.8-.514 1.642-.979 2.521-1.379-.45-.64-.952-1.242-1.5-1.8h1.929c.321.4.628.815.921 1.243a19.524 19.524 0 0 1 2.857-.821A5.108 5.108 0 0 0 45.65 40h2.921v.05a20.286 20.286 0 0 1 2.858 0V40h2.921l-.264.422c.985.2 1.943.478 2.864.821.286-.428.6-.843.929-1.243H59.8c-.548.558-1.05 1.16-1.5 1.8.879.4 1.721.858 2.529 1.379A11.486 11.486 0 0 1 64.464 40H70a9.98 9.98 0 0 0-8 4c.764.572 1.493 1.2 2.164 1.879A7.136 7.136 0 0 1 70 42.858v1.428a5.714 5.714 0 0 0-4.836 2.672 20.5 20.5 0 0 1 1.993 2.757A2.857 2.857 0 0 1 70 47.143v1.429a1.429 1.429 0 0 0-1.429 1.478c.476-.033.952-.05 1.429-.05v1.429A18.543 18.543 0 0 0 54.35 60h-2.921zm-15.893 0H30v-1.428c2.007 0 3.9.521 5.536 1.428zM70 54.286v1.429c-4 0-7.607 1.643-10.2 4.285h-1.929A15.693 15.693 0 0 1 70 54.286zM42.121 60H40.2A14.24 14.24 0 0 0 30 55.715v-1.429c4.879 0 9.243 2.222 12.121 5.714zm10.722-.285a20.064 20.064 0 0 1 2-2.757 5.714 5.714 0 0 0-9.679 0 20.5 20.5 0 0 1 1.993 2.757 2.857 2.857 0 0 1 5.686 0zm10.207-8.472a19.524 19.524 0 0 1 2.857-.821 18.564 18.564 0 0 0-31.821 0c.985.2 1.943.478 2.864.821a15.7 15.7 0 0 1 26.1 0zm-3.879 1.936A20.067 20.067 0 0 1 61.7 51.8a14.271 14.271 0 0 0-23.4 0c.879.4 1.721.858 2.529 1.379a11.414 11.414 0 0 1 18.342 0zm-3.335 2.7c.671-.679 1.4-1.307 2.164-1.879a9.986 9.986 0 0 0-16 0c.764.572 1.493 1.2 2.164 1.879a7.136 7.136 0 0 1 11.672 0z"/><path d="M70 78.572V80h-5.536A11.418 11.418 0 0 1 70 78.572zM51.429 80a1.429 1.429 0 1 0-2.858 0H45.65A18.557 18.557 0 0 0 30 71.43V70c.479 0 .957.015 1.429.05V70c0-.789-.64-1.428-1.429-1.428v-1.429a2.857 2.857 0 0 1 2.843 2.572 20.064 20.064 0 0 1 2-2.757A5.714 5.714 0 0 0 30 64.286v-1.428a7.136 7.136 0 0 1 5.836 3.02c.671-.678 1.4-1.306 2.164-1.878a9.986 9.986 0 0 0-8-4h5.536a11.53 11.53 0 0 1 3.643 3.179c.8-.514 1.642-.979 2.521-1.379-.45-.64-.952-1.242-1.5-1.8h1.929c.321.4.628.815.921 1.243a19.524 19.524 0 0 1 2.857-.821A5.108 5.108 0 0 0 45.65 60h2.921v.05a20.286 20.286 0 0 1 2.858 0V60h2.921l-.264.422c.985.2 1.943.478 2.864.821.286-.428.6-.843.929-1.243H59.8c-.548.558-1.05 1.16-1.5 1.8.879.4 1.721.858 2.529 1.379A11.486 11.486 0 0 1 64.464 60H70a9.98 9.98 0 0 0-8 4c.764.572 1.493 1.2 2.164 1.879A7.136 7.136 0 0 1 70 62.858v1.428a5.714 5.714 0 0 0-4.836 2.672 20.5 20.5 0 0 1 1.993 2.757A2.857 2.857 0 0 1 70 67.143v1.429a1.429 1.429 0 0 0-1.429 1.478c.476-.033.952-.05 1.429-.05v1.429A18.543 18.543 0 0 0 54.35 80h-2.921zm-15.893 0H30v-1.428c2.007 0 3.9.521 5.536 1.428zM70 74.286v1.429c-4 0-7.607 1.643-10.2 4.285h-1.929A15.693 15.693 0 0 1 70 74.286zM42.121 80H40.2A14.24 14.24 0 0 0 30 75.715v-1.429c4.879 0 9.243 2.222 12.121 5.714zm10.722-.285a20.064 20.064 0 0 1 2-2.757 5.714 5.714 0 0 0-9.679 0 20.5 20.5 0 0 1 1.993 2.757 2.857 2.857 0 0 1 5.686 0zm10.207-8.472a19.524 19.524 0 0 1 2.857-.821 18.564 18.564 0 0 0-31.821 0c.985.2 1.943.478 2.864.821a15.7 15.7 0 0 1 26.1 0zm-3.879 1.936A20.067 20.067 0 0 1 61.7 71.8a14.271 14.271 0 0 0-23.4 0c.879.4 1.721.858 2.529 1.379a11.414 11.414 0 0 1 18.342 0zm-3.335 2.7c.671-.679 1.4-1.307 2.164-1.879a9.986 9.986 0 0 0-16 0c.764.572 1.493 1.2 2.164 1.879a7.136 7.136 0 0 1 11.672 0z"/><path d="M70 98.572V100h-5.536A11.418 11.418 0 0 1 70 98.572zM51.429 100a1.429 1.429 0 0 0-2.858 0H45.65A18.557 18.557 0 0 0 30 91.43V90c.479 0 .957.015 1.429.05V90c0-.789-.64-1.428-1.429-1.428v-1.429a2.857 2.857 0 0 1 2.843 2.572 20.064 20.064 0 0 1 2-2.757A5.714 5.714 0 0 0 30 84.286v-1.428a7.136 7.136 0 0 1 5.836 3.02c.671-.678 1.4-1.306 2.164-1.878a9.986 9.986 0 0 0-8-4h5.536a11.53 11.53 0 0 1 3.643 3.179c.8-.514 1.642-.979 2.521-1.379-.45-.64-.952-1.242-1.5-1.8h1.929c.321.4.628.815.921 1.243a19.524 19.524 0 0 1 2.857-.821A5.108 5.108 0 0 0 45.65 80h2.921v.05a20.286 20.286 0 0 1 2.858 0V80h2.921l-.264.422c.985.2 1.943.478 2.864.821.286-.428.6-.843.929-1.243H59.8c-.548.558-1.05 1.16-1.5 1.8.879.4 1.721.858 2.529 1.379A11.486 11.486 0 0 1 64.464 80H70a9.98 9.98 0 0 0-8 4c.764.572 1.493 1.2 2.164 1.879A7.136 7.136 0 0 1 70 82.858v1.428a5.714 5.714 0 0 0-4.836 2.672 20.5 20.5 0 0 1 1.993 2.757A2.857 2.857 0 0 1 70 87.143v1.429a1.429 1.429 0 0 0-1.429 1.478c.476-.033.952-.05 1.429-.05v1.429A18.543 18.543 0 0 0 54.35 100h-2.921zm-15.893 0H30v-1.428c2.007 0 3.9.521 5.536 1.428zM70 94.286v1.429c-4 0-7.607 1.643-10.2 4.285h-1.929A15.693 15.693 0 0 1 70 94.286zM42.121 100H40.2A14.24 14.24 0 0 0 30 95.715v-1.429c4.879 0 9.243 2.222 12.121 5.714zm10.722-.285a20.064 20.064 0 0 1 2-2.757 5.714 5.714 0 0 0-9.679 0 20.5 20.5 0 0 1 1.993 2.757 2.857 2.857 0 0 1 5.686 0zm10.207-8.472a19.524 19.524 0 0 1 2.857-.821 18.564 18.564 0 0 0-31.821 0c.985.2 1.943.478 2.864.821a15.7 15.7 0 0 1 26.1 0zm-3.879 1.936A20.067 20.067 0 0 1 61.7 91.8a14.271 14.271 0 0 0-23.4 0c.879.4 1.721.858 2.529 1.379a11.414 11.414 0 0 1 18.342 0zm-3.335 2.7c.671-.679 1.4-1.307 2.164-1.879a9.986 9.986 0 0 0-16 0c.764.572 1.493 1.2 2.164 1.879a7.136 7.136 0 0 1 11.672 0zM110 18.572V20h-5.536A11.418 11.418 0 0 1 110 18.572zM91.429 20a1.429 1.429 0 1 0-2.858 0H85.65A18.557 18.557 0 0 0 70 11.43V10c.479 0 .957.015 1.429.05V10c0-.789-.64-1.428-1.429-1.428V7.143a2.857 2.857 0 0 1 2.843 2.572 20.064 20.064 0 0 1 2-2.757A5.714 5.714 0 0 0 70 4.286V2.858a7.136 7.136 0 0 1 5.836 3.02C76.507 5.2 77.236 4.573 78 4a9.986 9.986 0 0 0-8-4h5.536a11.53 11.53 0 0 1 3.643 3.179c.8-.514 1.642-.979 2.521-1.379-.45-.64-.952-1.242-1.5-1.8h1.929c.321.4.628.815.921 1.243a19.524 19.524 0 0 1 2.857-.821A5.108 5.108 0 0 0 85.65 0h2.921v.05a20.286 20.286 0 0 1 2.858 0V0h2.921l-.264.422c.985.2 1.943.478 2.864.821.286-.428.6-.843.929-1.243H99.8c-.548.558-1.05 1.16-1.5 1.8.879.4 1.721.858 2.529 1.379A11.486 11.486 0 0 1 104.464 0H110a9.98 9.98 0 0 0-8 4c.764.572 1.493 1.2 2.164 1.879A7.136 7.136 0 0 1 110 2.858v1.428a5.714 5.714 0 0 0-4.836 2.672 20.5 20.5 0 0 1 1.993 2.757A2.857 2.857 0 0 1 110 7.143v1.429a1.429 1.429 0 0 0-1.429 1.478c.476-.033.952-.05 1.429-.05v1.429A18.543 18.543 0 0 0 94.35 20h-2.921zm-15.893 0H70v-1.428c2.007 0 3.9.521 5.536 1.428zM110 14.286v1.429c-4 0-7.607 1.643-10.2 4.285h-1.929A15.693 15.693 0 0 1 110 14.286zM82.121 20H80.2A14.24 14.24 0 0 0 70 15.715v-1.429c4.879 0 9.243 2.222 12.121 5.714zm10.722-.285a20.064 20.064 0 0 1 2-2.757 5.714 5.714 0 0 0-9.679 0 20.5 20.5 0 0 1 1.993 2.757 2.857 2.857 0 0 1 5.686 0zm10.207-8.472a19.524 19.524 0 0 1 2.857-.821 18.564 18.564 0 0 0-31.821 0c.985.2 1.943.478 2.864.821a15.7 15.7 0 0 1 26.1 0zm-3.879 1.936A20.067 20.067 0 0 1 101.7 11.8a14.271 14.271 0 0 0-23.4 0c.879.4 1.721.858 2.529 1.379a11.414 11.414 0 0 1 18.342 0zm-3.335 2.7c.671-.679 1.4-1.307 2.164-1.879a9.986 9.986 0 0 0-16 0c.764.572 1.493 1.2 2.164 1.879a7.136 7.136 0 0 1 11.672 0z"/><path d="M110 38.572V40h-5.536A11.418 11.418 0 0 1 110 38.572zM91.429 40a1.429 1.429 0 1 0-2.858 0H85.65A18.557 18.557 0 0 0 70 31.43V30c.479 0 .957.015 1.429.05V30c0-.789-.64-1.428-1.429-1.428v-1.429a2.857 2.857 0 0 1 2.843 2.572 20.064 20.064 0 0 1 2-2.757A5.714 5.714 0 0 0 70 24.286v-1.428a7.136 7.136 0 0 1 5.836 3.02c.671-.678 1.4-1.306 2.164-1.878a9.986 9.986 0 0 0-8-4h5.536a11.53 11.53 0 0 1 3.643 3.179c.8-.514 1.642-.979 2.521-1.379-.45-.64-.952-1.242-1.5-1.8h1.929c.321.4.628.815.921 1.243a19.524 19.524 0 0 1 2.857-.821A5.108 5.108 0 0 0 85.65 20h2.921v.05a20.286 20.286 0 0 1 2.858 0V20h2.921l-.264.422c.985.2 1.943.478 2.864.821.286-.428.6-.843.929-1.243H99.8c-.548.558-1.05 1.16-1.5 1.8.879.4 1.721.858 2.529 1.379A11.486 11.486 0 0 1 104.464 20H110a9.98 9.98 0 0 0-8 4c.764.572 1.493 1.2 2.164 1.879A7.136 7.136 0 0 1 110 22.858v1.428a5.714 5.714 0 0 0-4.836 2.672 20.5 20.5 0 0 1 1.993 2.757A2.857 2.857 0 0 1 110 27.143v1.429a1.429 1.429 0 0 0-1.429 1.478c.476-.033.952-.05 1.429-.05v1.429A18.543 18.543 0 0 0 94.35 40h-2.921zm-15.893 0H70v-1.428c2.007 0 3.9.521 5.536 1.428zM110 34.286v1.429c-4 0-7.607 1.643-10.2 4.285h-1.929A15.693 15.693 0 0 1 110 34.286zM82.121 40H80.2A14.24 14.24 0 0 0 70 35.715v-1.429c4.879 0 9.243 2.222 12.121 5.714zm10.722-.285a20.064 20.064 0 0 1 2-2.757 5.714 5.714 0 0 0-9.679 0 20.5 20.5 0 0 1 1.993 2.757 2.857 2.857 0 0 1 5.686 0zm10.207-8.472a19.524 19.524 0 0 1 2.857-.821 18.564 18.564 0 0 0-31.821 0c.985.2 1.943.478 2.864.821a15.7 15.7 0 0 1 26.1 0zm-3.879 1.936A20.067 20.067 0 0 1 101.7 31.8a14.271 14.271 0 0 0-23.4 0c.879.4 1.721.858 2.529 1.379a11.414 11.414 0 0 1 18.342 0zm-3.335 2.7c.671-.679 1.4-1.307 2.164-1.879a9.986 9.986 0 0 0-16 0c.764.572 1.493 1.2 2.164 1.879a7.136 7.136 0 0 1 11.672 0z"/><path d="M110 58.572V60h-5.536A11.418 11.418 0 0 1 110 58.572zM91.429 60a1.429 1.429 0 1 0-2.858 0H85.65A18.557 18.557 0 0 0 70 51.43V50c.479 0 .957.015 1.429.05V50c0-.789-.64-1.428-1.429-1.428v-1.429a2.857 2.857 0 0 1 2.843 2.572 20.064 20.064 0 0 1 2-2.757A5.714 5.714 0 0 0 70 44.286v-1.428a7.136 7.136 0 0 1 5.836 3.02c.671-.678 1.4-1.306 2.164-1.878a9.986 9.986 0 0 0-8-4h5.536a11.53 11.53 0 0 1 3.643 3.179c.8-.514 1.642-.979 2.521-1.379-.45-.64-.952-1.242-1.5-1.8h1.929c.321.4.628.815.921 1.243a19.524 19.524 0 0 1 2.857-.821A5.108 5.108 0 0 0 85.65 40h2.921v.05a20.286 20.286 0 0 1 2.858 0V40h2.921l-.264.422c.985.2 1.943.478 2.864.821.286-.428.6-.843.929-1.243H99.8c-.548.558-1.05 1.16-1.5 1.8.879.4 1.721.858 2.529 1.379A11.486 11.486 0 0 1 104.464 40H110a9.98 9.98 0 0 0-8 4c.764.572 1.493 1.2 2.164 1.879A7.136 7.136 0 0 1 110 42.858v1.428a5.714 5.714 0 0 0-4.836 2.672 20.5 20.5 0 0 1 1.993 2.757A2.857 2.857 0 0 1 110 47.143v1.429a1.429 1.429 0 0 0-1.429 1.478c.476-.033.952-.05 1.429-.05v1.429A18.543 18.543 0 0 0 94.35 60h-2.921zm-15.893 0H70v-1.428c2.007 0 3.9.521 5.536 1.428zM110 54.286v1.429c-4 0-7.607 1.643-10.2 4.285h-1.929A15.693 15.693 0 0 1 110 54.286zM82.121 60H80.2A14.24 14.24 0 0 0 70 55.715v-1.429c4.879 0 9.243 2.222 12.121 5.714zm10.722-.285a20.064 20.064 0 0 1 2-2.757 5.714 5.714 0 0 0-9.679 0 20.5 20.5 0 0 1 1.993 2.757 2.857 2.857 0 0 1 5.686 0zm10.207-8.472a19.524 19.524 0 0 1 2.857-.821 18.564 18.564 0 0 0-31.821 0c.985.2 1.943.478 2.864.821a15.7 15.7 0 0 1 26.1 0zm-3.879 1.936A20.067 20.067 0 0 1 101.7 51.8a14.271 14.271 0 0 0-23.4 0c.879.4 1.721.858 2.529 1.379a11.414 11.414 0 0 1 18.342 0zm-3.335 2.7c.671-.679 1.4-1.307 2.164-1.879a9.986 9.986 0 0 0-16 0c.764.572 1.493 1.2 2.164 1.879a7.136 7.136 0 0 1 11.672 0z"/><path d="M110 78.572V80h-5.536A11.418 11.418 0 0 1 110 78.572zM91.429 80a1.429 1.429 0 1 0-2.858 0H85.65A18.557 18.557 0 0 0 70 71.43V70c.479 0 .957.015 1.429.05V70c0-.789-.64-1.428-1.429-1.428v-1.429a2.857 2.857 0 0 1 2.843 2.572 20.064 20.064 0 0 1 2-2.757A5.714 5.714 0 0 0 70 64.286v-1.428a7.136 7.136 0 0 1 5.836 3.02c.671-.678 1.4-1.306 2.164-1.878a9.986 9.986 0 0 0-8-4h5.536a11.53 11.53 0 0 1 3.643 3.179c.8-.514 1.642-.979 2.521-1.379-.45-.64-.952-1.242-1.5-1.8h1.929c.321.4.628.815.921 1.243a19.524 19.524 0 0 1 2.857-.821A5.108 5.108 0 0 0 85.65 60h2.921v.05a20.286 20.286 0 0 1 2.858 0V60h2.921l-.264.422c.985.2 1.943.478 2.864.821.286-.428.6-.843.929-1.243H99.8c-.548.558-1.05 1.16-1.5 1.8.879.4 1.721.858 2.529 1.379A11.486 11.486 0 0 1 104.464 60H110a9.98 9.98 0 0 0-8 4c.764.572 1.493 1.2 2.164 1.879A7.136 7.136 0 0 1 110 62.858v1.428a5.714 5.714 0 0 0-4.836 2.672 20.5 20.5 0 0 1 1.993 2.757A2.857 2.857 0 0 1 110 67.143v1.429a1.429 1.429 0 0 0-1.429 1.478c.476-.033.952-.05 1.429-.05v1.429A18.543 18.543 0 0 0 94.35 80h-2.921zm-15.893 0H70v-1.428c2.007 0 3.9.521 5.536 1.428zM110 74.286v1.429c-4 0-7.607 1.643-10.2 4.285h-1.929A15.693 15.693 0 0 1 110 74.286zM82.121 80H80.2A14.24 14.24 0 0 0 70 75.715v-1.429c4.879 0 9.243 2.222 12.121 5.714zm10.722-.285a20.064 20.064 0 0 1 2-2.757 5.714 5.714 0 0 0-9.679 0 20.5 20.5 0 0 1 1.993 2.757 2.857 2.857 0 0 1 5.686 0zm10.207-8.472a19.524 19.524 0 0 1 2.857-.821 18.564 18.564 0 0 0-31.821 0c.985.2 1.943.478 2.864.821a15.7 15.7 0 0 1 26.1 0zm-3.879 1.936A20.067 20.067 0 0 1 101.7 71.8a14.271 14.271 0 0 0-23.4 0c.879.4 1.721.858 2.529 1.379a11.414 11.414 0 0 1 18.342 0zm-3.335 2.7c.671-.679 1.4-1.307 2.164-1.879a9.986 9.986 0 0 0-16 0c.764.572 1.493 1.2 2.164 1.879a7.136 7.136 0 0 1 11.672 0z"/><path d="M110 98.572V100h-5.536A11.418 11.418 0 0 1 110 98.572zM91.429 100a1.429 1.429 0 0 0-2.858 0H85.65A18.557 18.557 0 0 0 70 91.43V90c.479 0 .957.015 1.429.05V90c0-.789-.64-1.428-1.429-1.428v-1.429a2.857 2.857 0 0 1 2.843 2.572 20.064 20.064 0 0 1 2-2.757A5.714 5.714 0 0 0 70 84.286v-1.428a7.136 7.136 0 0 1 5.836 3.02c.671-.678 1.4-1.306 2.164-1.878a9.986 9.986 0 0 0-8-4h5.536a11.53 11.53 0 0 1 3.643 3.179c.8-.514 1.642-.979 2.521-1.379-.45-.64-.952-1.242-1.5-1.8h1.929c.321.4.628.815.921 1.243a19.524 19.524 0 0 1 2.857-.821A5.108 5.108 0 0 0 85.65 80h2.921v.05a20.286 20.286 0 0 1 2.858 0V80h2.921l-.264.422c.985.2 1.943.478 2.864.821.286-.428.6-.843.929-1.243H99.8c-.548.558-1.05 1.16-1.5 1.8.879.4 1.721.858 2.529 1.379A11.486 11.486 0 0 1 104.464 80H110a9.98 9.98 0 0 0-8 4c.764.572 1.493 1.2 2.164 1.879A7.136 7.136 0 0 1 110 82.858v1.428a5.714 5.714 0 0 0-4.836 2.672 20.5 20.5 0 0 1 1.993 2.757A2.857 2.857 0 0 1 110 87.143v1.429a1.429 1.429 0 0 0-1.429 1.478c.476-.033.952-.05 1.429-.05v1.429A18.543 18.543 0 0 0 94.35 100h-2.921zm-15.893 0H70v-1.428c2.007 0 3.9.521 5.536 1.428zM110 94.286v1.429c-4 0-7.607 1.643-10.2 4.285h-1.929A15.693 15.693 0 0 1 110 94.286zM82.121 100H80.2A14.24 14.24 0 0 0 70 95.715v-1.429c4.879 0 9.243 2.222 12.121 5.714zm10.722-.285a20.064 20.064 0 0 1 2-2.757 5.714 5.714 0 0 0-9.679 0 20.5 20.5 0 0 1 1.993 2.757 2.857 2.857 0 0 1 5.686 0zm10.207-8.472a19.524 19.524 0 0 1 2.857-.821 18.564 18.564 0 0 0-31.821 0c.985.2 1.943.478 2.864.821a15.7 15.7 0 0 1 26.1 0zm-3.879 1.936A20.067 20.067 0 0 1 101.7 91.8a14.271 14.271 0 0 0-23.4 0c.879.4 1.721.858 2.529 1.379a11.414 11.414 0 0 1 18.342 0zm-3.335 2.7c.671-.679 1.4-1.307 2.164-1.879a9.986 9.986 0 0 0-16 0c.764.572 1.493 1.2 2.164 1.879a7.136 7.136 0 0 1 11.672 0z"/></g></svg>