<svg width="100" height="100" xmlns="http://www.w3.org/2000/svg"><path d="M10.108 19.516L8.104 21.54l2.004 2.024-1.05 1.06-2.004-2.12-2.004 2.023L4 23.467l2.004-1.927L4 19.516l1.05-1.06 2.004 2.024 2.004-2.024 1.05 1.06zM23.373 4L21.37 6.12l-2.004-2.024-1.05 1.06 2.005 1.928-2.005 2.024 1.05 1.06 2.004-2.024 2.004 2.024 1.05-1.06-2.004-2.024 2.004-2.024L23.373 4zM37.69 18.456l-2.004 2.024-2.005-2.024-1.05 1.06 2.005 2.024-2.004 2.024 1.05 1.06 2.004-2.024 2.004 2.024 1.05-1.06-2.005-2.024 2.005-2.024-1.05-1.06zM52.004 4L50 6.12l-2.004-2.024-1.05 1.06 2.004 1.928-2.004 2.024 1.05 1.06L50 8.144l2.004 2.024 1.05-1.06-2.004-2.024 2.004-2.024L52.004 4zm-28.63 28.912l-2.005 2.12-2.004-2.024-1.05 1.06 2.005 2.024-2.005 2.024 1.05 1.06 2.004-2.024 2.004 2.024 1.05-1.06-2.004-2.12 2.004-2.024-1.05-1.06zM9.057 47.368l-2.004 2.024-2.004-2.024L4 48.428l2.004 2.024L4 52.476l1.05 1.06 2.004-2.024 2.004 2.024 1.05-1.06-2.004-2.024 2.004-2.024-1.05-1.06zm28.63 0l-2.003 2.024-2.005-2.024-1.05 1.06 2.005 2.024-2.004 2.024 1.05 1.06 2.004-2.024 2.004 2.024 1.05-1.06-2.005-2.024 2.005-2.024-1.05-1.06zm14.316-14.456L50 35.032l-2.004-2.024-1.05 1.06 2.004 2.024-2.004 2.024 1.05 1.06L50 37.152l2.004 2.024 1.05-1.06-2.004-2.12 2.004-2.024-1.05-1.06zM9.058 76.28l-2.004 2.024L5.05 76.28 4 77.34l2.004 2.024L4 81.388l1.05 1.06 2.004-2.024 2.004 2.024 1.05-1.06-2.004-2.024 2.004-2.024-1.05-1.06zm14.315-14.456l-2.004 2.12-2.004-2.024-1.05 1.06 2.005 2.024-2.005 2.024 1.05 1.06 2.004-2.024 2.004 2.024 1.05-1.06-2.004-2.12 2.004-2.024-1.05-1.06zm28.631 0L50 63.944l-2.004-2.024-1.05 1.06 2.004 2.024-2.004 2.024 1.05 1.06L50 66.064l2.004 2.024 1.05-1.06-2.004-2.12 2.004-2.024-1.05-1.06zM37.69 76.28l-2.004 2.024-2.005-2.024-1.05 1.06 2.005 2.024-2.004 2.024 1.05 1.06 2.004-2.024 2.004 2.024 1.05-1.06-2.005-2.024 2.005-2.024-1.05-1.06zM23.373 90.736l-2.004 2.12-2.004-2.024-1.05 1.06 2.005 2.024-2.005 2.024 1.05 1.06 2.004-2.024L23.373 97l1.05-1.06-2.004-2.12 2.004-2.024-1.05-1.06zm28.631 0L50 92.856l-2.004-2.024-1.05 1.06 2.004 2.024-2.004 2.024 1.05 1.06L50 94.976 52.004 97l1.05-1.06-2.004-2.12 2.004-2.024-1.05-1.06zm14.316-72.28l-2.005 2.024-2.004-2.024-1.05 1.06 2.005 2.024-2.005 2.024 1.05 1.06 2.004-2.024 2.005 2.024 1.05-1.06-2.005-2.024 2.004-2.024-1.05-1.06zM80.635 4L78.63 6.12l-2.004-2.024-1.05 1.06 2.004 1.928-2.004 2.024 1.05 1.06 2.004-2.024 2.004 2.024 1.05-1.06-2.005-2.024 2.005-2.024L80.635 4zM94.95 18.456l-2.004 2.024-2.004-2.024-1.05 1.06 2.004 2.024-2.004 2.024 1.05 1.06 2.004-2.024 2.004 2.024 1.05-1.06-2.004-2.024L96 19.516l-1.05-1.06zM66.32 47.368l-2.005 2.024-2.004-2.024-1.05 1.06 2.005 2.024-2.005 2.024 1.05 1.06 2.004-2.024 2.005 2.024 1.05-1.06-2.005-2.024 2.004-2.024-1.05-1.06zm14.315-14.456l-2.004 2.12-2.004-2.024-1.05 1.06 2.004 2.024-2.004 2.024 1.05 1.06 2.004-2.024 2.004 2.024 1.05-1.06-2.005-2.12 2.005-2.024-1.05-1.06zM94.95 47.368l-2.004 2.024-2.004-2.024-1.05 1.06 2.004 2.024-2.004 2.024 1.05 1.06 2.004-2.024 2.004 2.024 1.05-1.06-2.004-2.024L96 48.428l-1.05-1.06zM80.635 61.824l-2.004 2.12-2.004-2.024-1.05 1.06 2.004 2.024-2.004 2.024 1.05 1.06 2.004-2.024 2.004 2.024 1.05-1.06-2.005-2.12 2.005-2.024-1.05-1.06zM66.32 76.28l-2.005 2.024-2.004-2.024-1.05 1.06 2.005 2.024-2.005 2.024 1.05 1.06 2.004-2.024 2.005 2.024 1.05-1.06-2.005-2.024 2.004-2.024-1.05-1.06zm28.63 0l-2.004 2.024-2.004-2.024-1.05 1.06 2.004 2.024-2.004 2.024 1.05 1.06 2.004-2.024 2.004 2.024 1.05-1.06-2.004-2.024L96 77.34l-1.05-1.06zM80.635 90.736l-2.004 2.12-2.004-2.024-1.05 1.06 2.004 2.024-2.004 2.024 1.05 1.06 2.004-2.024L80.635 97l1.05-1.06-2.005-2.12 2.005-2.024-1.05-1.06z" fill="#565D66"/></svg>