<svg width="100" height="100" xmlns="http://www.w3.org/2000/svg" xmlns:xlink="http://www.w3.org/1999/xlink"><defs><path id="a" d="M3 3h94v94H3z"/></defs><g fill="none" fill-rule="evenodd"><mask id="b" fill="#fff"><use xlink:href="#a"/></mask><g stroke="#565D66" stroke-width="2" mask="url(#b)"><path d="M11 30.36L-2 23V7.36L11 0l13 7.36V23l-13 7.36V46"/><path d="M11 0v15.64L-2 23v15.64L11 46l13-7.36V23l-13-7.36M11 76.36L-2 69V53.36L11 46l13 7.36V69l-13 7.36V92"/><path d="M11 46v15.64L-2 69v15.64L11 92l13-7.36V69l-13-7.36M11 122.36L-2 115V99.36L11 92l13 7.36V115l-13 7.36V138"/><path d="M11 92v15.64L-2 115v15.64L11 138l13-7.36V115l-13-7.36M37 30.36L24 23V7.36L37 0l13 7.36V23l-13 7.36V46"/><path d="M37 0v15.64L24 23v15.64L37 46l13-7.36V23l-13-7.36M37 76.36L24 69V53.36L37 46l13 7.36V69l-13 7.36V92"/><path d="M37 46v15.64L24 69v15.64L37 92l13-7.36V69l-13-7.36M37 122.36L24 115V99.36L37 92l13 7.36V115l-13 7.36V138"/><path d="M37 92v15.64L24 115v15.64L37 138l13-7.36V115l-13-7.36"/><g><path d="M63 30.36L50 23V7.36L63 0l13 7.36V23l-13 7.36V46"/><path d="M63 0v15.64L50 23v15.64L63 46l13-7.36V23l-13-7.36"/></g><g><path d="M63 76.36L50 69V53.36L63 46l13 7.36V69l-13 7.36V92"/><path d="M63 46v15.64L50 69v15.64L63 92l13-7.36V69l-13-7.36"/></g><g><path d="M63 122.36L50 115V99.36L63 92l13 7.36V115l-13 7.36V138"/><path d="M63 92v15.64L50 115v15.64L63 138l13-7.36V115l-13-7.36"/></g><g><path d="M89 30.36L76 23V7.36L89 0l13 7.36V23l-13 7.36V46"/><path d="M89 0v15.64L76 23v15.64L89 46l13-7.36V23l-13-7.36"/></g><g><path d="M89 76.36L76 69V53.36L89 46l13 7.36V69l-13 7.36V92"/><path d="M89 46v15.64L76 69v15.64L89 92l13-7.36V69l-13-7.36"/></g><g><path d="M89 122.36L76 115V99.36L89 92l13 7.36V115l-13 7.36V138"/><path d="M89 92v15.64L76 115v15.64L89 138l13-7.36V115l-13-7.36"/></g></g></g></svg>