<svg width="100" height="100" xmlns="http://www.w3.org/2000/svg"><g fill="#565D66" fill-rule="nonzero"><path d="M10.833 2C6.507 2 3 5.582 3 10c4.326 0 7.833-3.582 7.833-8zM3 10c0 4.418 3.507 8 7.833 8 0-4.418-3.507-8-7.833-8zm15.667 0c0-4.418-3.507-8-7.834-8 0 4.418 3.507 8 7.834 8zm0 0c0 4.418-3.507 8-7.834 8 0-4.418 3.507-8 7.834-8zM26.5 2c-4.326 0-7.833 3.582-7.833 8 4.326 0 7.833-3.582 7.833-8zm-7.833 8c0 4.418 3.507 8 7.833 8 0-4.418-3.507-8-7.833-8zm15.666 0c0-4.418-3.507-8-7.833-8 0 4.418 3.507 8 7.833 8zm0 0c0 4.418-3.507 8-7.833 8 0-4.418 3.507-8 7.833-8zM42.167 2c-4.327 0-7.834 3.582-7.834 8 4.327 0 7.834-3.582 7.834-8zm-7.834 8c0 4.418 3.507 8 7.834 8 0-4.418-3.507-8-7.834-8zM50 10c0-4.418-3.507-8-7.833-8 0 4.418 3.507 8 7.833 8zm0 0c0 4.418-3.507 8-7.833 8 0-4.418 3.507-8 7.833-8zM57.833 2C53.507 2 50 5.582 50 10c4.326 0 7.833-3.582 7.833-8zM50 10c0 4.418 3.507 8 7.833 8 0-4.418-3.507-8-7.833-8zm15.667 0c0-4.418-3.507-8-7.834-8 0 4.418 3.507 8 7.834 8zm0 0c0 4.418-3.507 8-7.834 8 0-4.418 3.507-8 7.834-8zM73.5 2c-4.326 0-7.833 3.582-7.833 8 4.326 0 7.833-3.582 7.833-8zm-7.833 8c0 4.418 3.507 8 7.833 8 0-4.418-3.507-8-7.833-8zm15.666 0c0-4.418-3.507-8-7.833-8 0 4.418 3.507 8 7.833 8zm0 0c0 4.418-3.507 8-7.833 8 0-4.418 3.507-8 7.833-8zM89.167 2c-4.327 0-7.834 3.582-7.834 8 4.327 0 7.834-3.582 7.834-8zm-7.834 8c0 4.418 3.507 8 7.834 8 0-4.418-3.507-8-7.834-8zM97 10c0-4.418-3.507-8-7.833-8 0 4.418 3.507 8 7.833 8zm0 0c0 4.418-3.507 8-7.833 8 0-4.418 3.507-8 7.833-8z"/><g><path d="M10.833 18C6.507 18 3 21.582 3 26c4.326 0 7.833-3.582 7.833-8zM3 26c0 4.418 3.507 8 7.833 8 0-4.418-3.507-8-7.833-8zm15.667 0c0-4.418-3.507-8-7.834-8 0 4.418 3.507 8 7.834 8zm0 0c0 4.418-3.507 8-7.834 8 0-4.418 3.507-8 7.834-8zM26.5 18c-4.326 0-7.833 3.582-7.833 8 4.326 0 7.833-3.582 7.833-8zm-7.833 8c0 4.418 3.507 8 7.833 8 0-4.418-3.507-8-7.833-8zm15.666 0c0-4.418-3.507-8-7.833-8 0 4.418 3.507 8 7.833 8zm0 0c0 4.418-3.507 8-7.833 8 0-4.418 3.507-8 7.833-8zM42.167 18c-4.327 0-7.834 3.582-7.834 8 4.327 0 7.834-3.582 7.834-8zm-7.834 8c0 4.418 3.507 8 7.834 8 0-4.418-3.507-8-7.834-8zM50 26c0-4.418-3.507-8-7.833-8 0 4.418 3.507 8 7.833 8zm0 0c0 4.418-3.507 8-7.833 8 0-4.418 3.507-8 7.833-8zM57.833 18C53.507 18 50 21.582 50 26c4.326 0 7.833-3.582 7.833-8zM50 26c0 4.418 3.507 8 7.833 8 0-4.418-3.507-8-7.833-8zm15.667 0c0-4.418-3.507-8-7.834-8 0 4.418 3.507 8 7.834 8zm0 0c0 4.418-3.507 8-7.834 8 0-4.418 3.507-8 7.834-8zM73.5 18c-4.326 0-7.833 3.582-7.833 8 4.326 0 7.833-3.582 7.833-8zm-7.833 8c0 4.418 3.507 8 7.833 8 0-4.418-3.507-8-7.833-8zm15.666 0c0-4.418-3.507-8-7.833-8 0 4.418 3.507 8 7.833 8zm0 0c0 4.418-3.507 8-7.833 8 0-4.418 3.507-8 7.833-8zM89.167 18c-4.327 0-7.834 3.582-7.834 8 4.327 0 7.834-3.582 7.834-8zm-7.834 8c0 4.418 3.507 8 7.834 8 0-4.418-3.507-8-7.834-8zM97 26c0-4.418-3.507-8-7.833-8 0 4.418 3.507 8 7.833 8zm0 0c0 4.418-3.507 8-7.833 8 0-4.418 3.507-8 7.833-8z"/></g><g><path d="M10.833 34C6.507 34 3 37.582 3 42c4.326 0 7.833-3.582 7.833-8zM3 42c0 4.418 3.507 8 7.833 8 0-4.418-3.507-8-7.833-8zm15.667 0c0-4.418-3.507-8-7.834-8 0 4.418 3.507 8 7.834 8zm0 0c0 4.418-3.507 8-7.834 8 0-4.418 3.507-8 7.834-8zM26.5 34c-4.326 0-7.833 3.582-7.833 8 4.326 0 7.833-3.582 7.833-8zm-7.833 8c0 4.418 3.507 8 7.833 8 0-4.418-3.507-8-7.833-8zm15.666 0c0-4.418-3.507-8-7.833-8 0 4.418 3.507 8 7.833 8zm0 0c0 4.418-3.507 8-7.833 8 0-4.418 3.507-8 7.833-8zM42.167 34c-4.327 0-7.834 3.582-7.834 8 4.327 0 7.834-3.582 7.834-8zm-7.834 8c0 4.418 3.507 8 7.834 8 0-4.418-3.507-8-7.834-8zM50 42c0-4.418-3.507-8-7.833-8 0 4.418 3.507 8 7.833 8zm0 0c0 4.418-3.507 8-7.833 8 0-4.418 3.507-8 7.833-8zM57.833 34C53.507 34 50 37.582 50 42c4.326 0 7.833-3.582 7.833-8zM50 42c0 4.418 3.507 8 7.833 8 0-4.418-3.507-8-7.833-8zm15.667 0c0-4.418-3.507-8-7.834-8 0 4.418 3.507 8 7.834 8zm0 0c0 4.418-3.507 8-7.834 8 0-4.418 3.507-8 7.834-8zM73.5 34c-4.326 0-7.833 3.582-7.833 8 4.326 0 7.833-3.582 7.833-8zm-7.833 8c0 4.418 3.507 8 7.833 8 0-4.418-3.507-8-7.833-8zm15.666 0c0-4.418-3.507-8-7.833-8 0 4.418 3.507 8 7.833 8zm0 0c0 4.418-3.507 8-7.833 8 0-4.418 3.507-8 7.833-8zM89.167 34c-4.327 0-7.834 3.582-7.834 8 4.327 0 7.834-3.582 7.834-8zm-7.834 8c0 4.418 3.507 8 7.834 8 0-4.418-3.507-8-7.834-8zM97 42c0-4.418-3.507-8-7.833-8 0 4.418 3.507 8 7.833 8zm0 0c0 4.418-3.507 8-7.833 8 0-4.418 3.507-8 7.833-8z"/></g><g><path d="M10.833 50C6.507 50 3 53.582 3 58c4.326 0 7.833-3.582 7.833-8zM3 58c0 4.418 3.507 8 7.833 8 0-4.418-3.507-8-7.833-8zm15.667 0c0-4.418-3.507-8-7.834-8 0 4.418 3.507 8 7.834 8zm0 0c0 4.418-3.507 8-7.834 8 0-4.418 3.507-8 7.834-8zM26.5 50c-4.326 0-7.833 3.582-7.833 8 4.326 0 7.833-3.582 7.833-8zm-7.833 8c0 4.418 3.507 8 7.833 8 0-4.418-3.507-8-7.833-8zm15.666 0c0-4.418-3.507-8-7.833-8 0 4.418 3.507 8 7.833 8zm0 0c0 4.418-3.507 8-7.833 8 0-4.418 3.507-8 7.833-8zM42.167 50c-4.327 0-7.834 3.582-7.834 8 4.327 0 7.834-3.582 7.834-8zm-7.834 8c0 4.418 3.507 8 7.834 8 0-4.418-3.507-8-7.834-8zM50 58c0-4.418-3.507-8-7.833-8 0 4.418 3.507 8 7.833 8zm0 0c0 4.418-3.507 8-7.833 8 0-4.418 3.507-8 7.833-8zM57.833 50C53.507 50 50 53.582 50 58c4.326 0 7.833-3.582 7.833-8zM50 58c0 4.418 3.507 8 7.833 8 0-4.418-3.507-8-7.833-8zm15.667 0c0-4.418-3.507-8-7.834-8 0 4.418 3.507 8 7.834 8zm0 0c0 4.418-3.507 8-7.834 8 0-4.418 3.507-8 7.834-8zM73.5 50c-4.326 0-7.833 3.582-7.833 8 4.326 0 7.833-3.582 7.833-8zm-7.833 8c0 4.418 3.507 8 7.833 8 0-4.418-3.507-8-7.833-8zm15.666 0c0-4.418-3.507-8-7.833-8 0 4.418 3.507 8 7.833 8zm0 0c0 4.418-3.507 8-7.833 8 0-4.418 3.507-8 7.833-8zM89.167 50c-4.327 0-7.834 3.582-7.834 8 4.327 0 7.834-3.582 7.834-8zm-7.834 8c0 4.418 3.507 8 7.834 8 0-4.418-3.507-8-7.834-8zM97 58c0-4.418-3.507-8-7.833-8 0 4.418 3.507 8 7.833 8zm0 0c0 4.418-3.507 8-7.833 8 0-4.418 3.507-8 7.833-8z"/></g><g><path d="M10.833 66C6.507 66 3 69.582 3 74c4.326 0 7.833-3.582 7.833-8zM3 74c0 4.418 3.507 8 7.833 8 0-4.418-3.507-8-7.833-8zm15.667 0c0-4.418-3.507-8-7.834-8 0 4.418 3.507 8 7.834 8zm0 0c0 4.418-3.507 8-7.834 8 0-4.418 3.507-8 7.834-8zM26.5 66c-4.326 0-7.833 3.582-7.833 8 4.326 0 7.833-3.582 7.833-8zm-7.833 8c0 4.418 3.507 8 7.833 8 0-4.418-3.507-8-7.833-8zm15.666 0c0-4.418-3.507-8-7.833-8 0 4.418 3.507 8 7.833 8zm0 0c0 4.418-3.507 8-7.833 8 0-4.418 3.507-8 7.833-8zM42.167 66c-4.327 0-7.834 3.582-7.834 8 4.327 0 7.834-3.582 7.834-8zm-7.834 8c0 4.418 3.507 8 7.834 8 0-4.418-3.507-8-7.834-8zM50 74c0-4.418-3.507-8-7.833-8 0 4.418 3.507 8 7.833 8zm0 0c0 4.418-3.507 8-7.833 8 0-4.418 3.507-8 7.833-8zM57.833 66C53.507 66 50 69.582 50 74c4.326 0 7.833-3.582 7.833-8zM50 74c0 4.418 3.507 8 7.833 8 0-4.418-3.507-8-7.833-8zm15.667 0c0-4.418-3.507-8-7.834-8 0 4.418 3.507 8 7.834 8zm0 0c0 4.418-3.507 8-7.834 8 0-4.418 3.507-8 7.834-8zM73.5 66c-4.326 0-7.833 3.582-7.833 8 4.326 0 7.833-3.582 7.833-8zm-7.833 8c0 4.418 3.507 8 7.833 8 0-4.418-3.507-8-7.833-8zm15.666 0c0-4.418-3.507-8-7.833-8 0 4.418 3.507 8 7.833 8zm0 0c0 4.418-3.507 8-7.833 8 0-4.418 3.507-8 7.833-8zM89.167 66c-4.327 0-7.834 3.582-7.834 8 4.327 0 7.834-3.582 7.834-8zm-7.834 8c0 4.418 3.507 8 7.834 8 0-4.418-3.507-8-7.834-8zM97 74c0-4.418-3.507-8-7.833-8 0 4.418 3.507 8 7.833 8zm0 0c0 4.418-3.507 8-7.833 8 0-4.418 3.507-8 7.833-8z"/></g><g><path d="M10.833 82C6.507 82 3 85.582 3 90c4.326 0 7.833-3.582 7.833-8zM3 90c0 4.418 3.507 8 7.833 8 0-4.418-3.507-8-7.833-8zm15.667 0c0-4.418-3.507-8-7.834-8 0 4.418 3.507 8 7.834 8zm0 0c0 4.418-3.507 8-7.834 8 0-4.418 3.507-8 7.834-8zM26.5 82c-4.326 0-7.833 3.582-7.833 8 4.326 0 7.833-3.582 7.833-8zm-7.833 8c0 4.418 3.507 8 7.833 8 0-4.418-3.507-8-7.833-8zm15.666 0c0-4.418-3.507-8-7.833-8 0 4.418 3.507 8 7.833 8zm0 0c0 4.418-3.507 8-7.833 8 0-4.418 3.507-8 7.833-8zM42.167 82c-4.327 0-7.834 3.582-7.834 8 4.327 0 7.834-3.582 7.834-8zm-7.834 8c0 4.418 3.507 8 7.834 8 0-4.418-3.507-8-7.834-8zM50 90c0-4.418-3.507-8-7.833-8 0 4.418 3.507 8 7.833 8zm0 0c0 4.418-3.507 8-7.833 8 0-4.418 3.507-8 7.833-8zM57.833 82C53.507 82 50 85.582 50 90c4.326 0 7.833-3.582 7.833-8zM50 90c0 4.418 3.507 8 7.833 8 0-4.418-3.507-8-7.833-8zm15.667 0c0-4.418-3.507-8-7.834-8 0 4.418 3.507 8 7.834 8zm0 0c0 4.418-3.507 8-7.834 8 0-4.418 3.507-8 7.834-8zM73.5 82c-4.326 0-7.833 3.582-7.833 8 4.326 0 7.833-3.582 7.833-8zm-7.833 8c0 4.418 3.507 8 7.833 8 0-4.418-3.507-8-7.833-8zm15.666 0c0-4.418-3.507-8-7.833-8 0 4.418 3.507 8 7.833 8zm0 0c0 4.418-3.507 8-7.833 8 0-4.418 3.507-8 7.833-8zM89.167 82c-4.327 0-7.834 3.582-7.834 8 4.327 0 7.834-3.582 7.834-8zm-7.834 8c0 4.418 3.507 8 7.834 8 0-4.418-3.507-8-7.834-8zM97 90c0-4.418-3.507-8-7.833-8 0 4.418 3.507 8 7.833 8zm0 0c0 4.418-3.507 8-7.833 8 0-4.418 3.507-8 7.833-8z"/></g></g></svg>