<svg width="100" height="100" xmlns="http://www.w3.org/2000/svg"><g fill="#565D66" fill-rule="nonzero"><path d="M24.117 24.117a4.023 4.023 0 1 1 4.023 4.023 4.023 4.023 0 1 1-4.023-4.023zM8.023 8.023a4.023 4.023 0 1 1 4.024 4.024 4.023 4.023 0 1 1-4.024-4.024zm4.024 3.219a3.219 3.219 0 1 0 0-6.438 3.219 3.219 0 0 0 0 6.438zM28.14 27.335a3.219 3.219 0 1 0 0-6.437 3.219 3.219 0 0 0 0 6.437zM56.035 56.035a4.023 4.023 0 1 1 4.023 4.023 4.023 4.023 0 1 1-4.023-4.023zM39.942 39.942a4.023 4.023 0 1 1 4.023 4.023 4.023 4.023 0 1 1-4.023-4.023zm4.023 3.218a3.219 3.219 0 1 0 0-6.437 3.219 3.219 0 0 0 0 6.437zm16.093 16.094a3.219 3.219 0 1 0 0-6.438 3.219 3.219 0 0 0 0 6.438zM24.117 56.035a4.023 4.023 0 1 1 4.023 4.023 4.023 4.023 0 1 1-4.023-4.023zM8.023 39.942a4.023 4.023 0 1 1 4.024 4.023 4.023 4.023 0 1 1-4.024-4.023zm4.024 3.218a3.219 3.219 0 1 0 0-6.437 3.219 3.219 0 0 0 0 6.437zM28.14 59.254a3.219 3.219 0 1 0 0-6.438 3.219 3.219 0 0 0 0 6.438zM56.035 24.117a4.023 4.023 0 1 1 4.023 4.023 4.023 4.023 0 1 1-4.023-4.023zM39.942 8.023a4.023 4.023 0 1 1 4.023 4.024 4.023 4.023 0 1 1-4.023-4.024zm4.023 3.219a3.219 3.219 0 1 0 0-6.438 3.219 3.219 0 0 0 0 6.438zm16.093 16.093a3.219 3.219 0 1 0 0-6.437 3.219 3.219 0 0 0 0 6.437zM87.953 56.035a4.023 4.023 0 1 1 4.024 4.023 4.023 4.023 0 1 1-4.024-4.023zM71.86 39.942a4.023 4.023 0 1 1 4.023 4.023 4.023 4.023 0 1 1-4.023-4.023zm4.023 3.218a3.219 3.219 0 1 0 0-6.437 3.219 3.219 0 0 0 0 6.437zm16.094 16.094a3.219 3.219 0 1 0 0-6.438 3.219 3.219 0 0 0 0 6.438zM87.953 24.117a4.023 4.023 0 1 1 4.024 4.023 4.023 4.023 0 1 1-4.024-4.023zM71.86 8.023a4.023 4.023 0 1 1 4.023 4.024 4.023 4.023 0 1 1-4.023-4.024zm4.023 3.219a3.219 3.219 0 1 0 0-6.438 3.219 3.219 0 0 0 0 6.438zm16.094 16.093a3.219 3.219 0 1 0 0-6.437 3.219 3.219 0 0 0 0 6.437zM87.953 87.953a4.023 4.023 0 1 1 4.024 4.024 4.023 4.023 0 1 1-4.024-4.024zM71.86 71.86a4.023 4.023 0 1 1 4.023 4.023 4.023 4.023 0 1 1-4.023-4.023zm4.023 3.219a3.219 3.219 0 1 0 0-6.438 3.219 3.219 0 0 0 0 6.438zm16.094 16.093a3.219 3.219 0 1 0 0-6.438 3.219 3.219 0 0 0 0 6.438zM56.035 87.953a4.023 4.023 0 1 1 4.023 4.024 4.023 4.023 0 1 1-4.023-4.024zM39.942 71.86a4.023 4.023 0 1 1 4.023 4.023 4.023 4.023 0 1 1-4.023-4.023zm4.023 3.219a3.219 3.219 0 1 0 0-6.438 3.219 3.219 0 0 0 0 6.438zm16.093 16.093a3.219 3.219 0 1 0 0-6.438 3.219 3.219 0 0 0 0 6.438zM24.117 87.953a4.023 4.023 0 1 1 4.023 4.024 4.023 4.023 0 1 1-4.023-4.024zM8.023 71.86a4.023 4.023 0 1 1 4.024 4.023 4.023 4.023 0 1 1-4.024-4.023zm4.024 3.219a3.219 3.219 0 1 0 0-6.438 3.219 3.219 0 0 0 0 6.438zM28.14 91.172a3.219 3.219 0 1 0 0-6.438 3.219 3.219 0 0 0 0 6.438z"/></g></svg>