<svg width="100" height="100" xmlns="http://www.w3.org/2000/svg"><path d="M8 11a3 3 0 1 1 0-6 3 3 0 0 1 0 6zm11 11a3 3 0 1 1 0-6 3 3 0 0 1 0 6zm10-11a3 3 0 1 1 0-6 3 3 0 0 1 0 6zm11 11a3 3 0 1 1 0-6 3 3 0 0 1 0 6zm10-11a3 3 0 1 1 0-6 3 3 0 0 1 0 6zm10 11a3 3 0 1 1 0-6 3 3 0 0 1 0 6zm11-11a3 3 0 1 1 0-6 3 3 0 0 1 0 6zm10 11a3 3 0 1 1 0-6 3 3 0 0 1 0 6zm11-11a3 3 0 1 1 0-6 3 3 0 0 1 0 6zM8 32a3 3 0 1 1 0-6 3 3 0 0 1 0 6zm0 21a3 3 0 1 1 0-6 3 3 0 0 1 0 6zm0 21a3 3 0 1 1 0-6 3 3 0 0 1 0 6zm0 21a3 3 0 1 1 0-6 3 3 0 0 1 0 6zm11-52a3 3 0 1 1 0-6 3 3 0 0 1 0 6zm0 20a3 3 0 1 1 0-6 3 3 0 0 1 0 6zm0 21a3 3 0 1 1 0-6 3 3 0 0 1 0 6zm10-52a3 3 0 1 1 0-6 3 3 0 0 1 0 6zm0 21a3 3 0 1 1 0-6 3 3 0 0 1 0 6zm0 21a3 3 0 1 1 0-6 3 3 0 0 1 0 6zm0 21a3 3 0 1 1 0-6 3 3 0 0 1 0 6zm11-52a3 3 0 1 1 0-6 3 3 0 0 1 0 6zm0 20a3 3 0 1 1 0-6 3 3 0 0 1 0 6zm0 21a3 3 0 1 1 0-6 3 3 0 0 1 0 6zm10-52a3 3 0 1 1 0-6 3 3 0 0 1 0 6zm0 21a3 3 0 1 1 0-6 3 3 0 0 1 0 6zm0 21a3 3 0 1 1 0-6 3 3 0 0 1 0 6zm0 21a3 3 0 1 1 0-6 3 3 0 0 1 0 6zm10-52a3 3 0 1 1 0-6 3 3 0 0 1 0 6zm0 20a3 3 0 1 1 0-6 3 3 0 0 1 0 6zm0 21a3 3 0 1 1 0-6 3 3 0 0 1 0 6zm11-52a3 3 0 1 1 0-6 3 3 0 0 1 0 6zm0 21a3 3 0 1 1 0-6 3 3 0 0 1 0 6zm0 21a3 3 0 1 1 0-6 3 3 0 0 1 0 6zm0 21a3 3 0 1 1 0-6 3 3 0 0 1 0 6zm10-52a3 3 0 1 1 0-6 3 3 0 0 1 0 6zm0 20a3 3 0 1 1 0-6 3 3 0 0 1 0 6zm0 21a3 3 0 1 1 0-6 3 3 0 0 1 0 6zm11-52a3 3 0 1 1 0-6 3 3 0 0 1 0 6zm0 21a3 3 0 1 1 0-6 3 3 0 0 1 0 6zm0 21a3 3 0 1 1 0-6 3 3 0 0 1 0 6zm0 21a3 3 0 1 1 0-6 3 3 0 0 1 0 6z" fill="#565D66" fill-rule="nonzero"/></svg>