<svg width="100" height="100" xmlns="http://www.w3.org/2000/svg" xmlns:xlink="http://www.w3.org/1999/xlink"><defs><path id="a" d="M3 3h95v95H3z"/></defs><g fill="none" fill-rule="evenodd"><mask id="b" fill="#fff"><use xlink:href="#a"/></mask><g mask="url(#b)" fill="#565D66" fill-rule="nonzero"><path d="M3 3h1v1H3V3zm4 0h1v1H7V3zm4 0h1v1h-1V3zm4 0h1v1h-1V3zm4 0h1v1h-1V3zm4 0h1v1h-1V3zm4 0h1v1h-1V3zm4 0h1v1h-1V3zm4 0h1v1h-1V3zm4 0h1v1h-1V3zm4 0h1v1h-1V3zm4 0h1v1h-1V3zm4 0h1v1h-1V3zm4 0h1v1h-1V3zm4 0h1v1h-1V3zm4 0h1v1h-1V3zm4 0h1v1h-1V3zm4 0h1v1h-1V3zm4 0h1v1h-1V3zm4 0h1v1h-1V3zm4 0h1v1h-1V3zm4 0h1v1h-1V3zm4 0h1v1h-1V3zm4 0h1v1h-1V3zM5 5h1v1H5V5zm4 0h1v1H9V5zm4 0h1v1h-1V5zm4 0h1v1h-1V5zm4 0h1v1h-1V5zm4 0h1v1h-1V5zm4 0h1v1h-1V5zm4 0h1v1h-1V5zm4 0h1v1h-1V5zm4 0h1v1h-1V5zm4 0h1v1h-1V5zm4 0h1v1h-1V5zm4 0h1v1h-1V5zm4 0h1v1h-1V5zm4 0h1v1h-1V5zm4 0h1v1h-1V5zm4 0h1v1h-1V5zm4 0h1v1h-1V5zm4 0h1v1h-1V5zm4 0h1v1h-1V5zm4 0h1v1h-1V5zm4 0h1v1h-1V5zm4 0h1v1h-1V5zm4 0h1v1h-1V5zM3 7h1v1H3V7zm4 0h1v1H7V7zm4 0h1v1h-1V7zm4 0h1v1h-1V7zm4 0h1v1h-1V7zm4 0h1v1h-1V7zm4 0h1v1h-1V7zm4 0h1v1h-1V7zm4 0h1v1h-1V7zm4 0h1v1h-1V7zm4 0h1v1h-1V7zm4 0h1v1h-1V7zm4 0h1v1h-1V7zm4 0h1v1h-1V7zm4 0h1v1h-1V7zm4 0h1v1h-1V7zm4 0h1v1h-1V7zm4 0h1v1h-1V7zm4 0h1v1h-1V7zm4 0h1v1h-1V7zm4 0h1v1h-1V7zm4 0h1v1h-1V7zm4 0h1v1h-1V7zm4 0h1v1h-1V7zM5 9h1v1H5V9zm4 0h1v1H9V9zm4 0h1v1h-1V9zm4 0h1v1h-1V9zm4 0h1v1h-1V9zm4 0h1v1h-1V9zm4 0h1v1h-1V9zm4 0h1v1h-1V9zm4 0h1v1h-1V9zm4 0h1v1h-1V9zm4 0h1v1h-1V9zm4 0h1v1h-1V9zm4 0h1v1h-1V9zm4 0h1v1h-1V9zm4 0h1v1h-1V9zm4 0h1v1h-1V9zm4 0h1v1h-1V9zm4 0h1v1h-1V9zm4 0h1v1h-1V9zm4 0h1v1h-1V9zm4 0h1v1h-1V9zm4 0h1v1h-1V9zm4 0h1v1h-1V9zm4 0h1v1h-1V9zM3 11h1v1H3v-1zm4 0h1v1H7v-1zm4 0h1v1h-1v-1zm4 0h1v1h-1v-1zm4 0h1v1h-1v-1zm4 0h1v1h-1v-1zm4 0h1v1h-1v-1zm4 0h1v1h-1v-1zm4 0h1v1h-1v-1zm4 0h1v1h-1v-1zm4 0h1v1h-1v-1zm4 0h1v1h-1v-1zm4 0h1v1h-1v-1zm4 0h1v1h-1v-1zm4 0h1v1h-1v-1zm4 0h1v1h-1v-1zm4 0h1v1h-1v-1zm4 0h1v1h-1v-1zm4 0h1v1h-1v-1zm4 0h1v1h-1v-1zm4 0h1v1h-1v-1zm4 0h1v1h-1v-1zm4 0h1v1h-1v-1zm4 0h1v1h-1v-1zM5 13h1v1H5v-1zm4 0h1v1H9v-1zm4 0h1v1h-1v-1zm4 0h1v1h-1v-1zm4 0h1v1h-1v-1zm4 0h1v1h-1v-1zm4 0h1v1h-1v-1zm4 0h1v1h-1v-1zm4 0h1v1h-1v-1zm4 0h1v1h-1v-1zm4 0h1v1h-1v-1zm4 0h1v1h-1v-1zm4 0h1v1h-1v-1zm4 0h1v1h-1v-1zm4 0h1v1h-1v-1zm4 0h1v1h-1v-1zm4 0h1v1h-1v-1zm4 0h1v1h-1v-1zm4 0h1v1h-1v-1zm4 0h1v1h-1v-1zm4 0h1v1h-1v-1zm4 0h1v1h-1v-1zm4 0h1v1h-1v-1zm4 0h1v1h-1v-1zM3 15h1v1H3v-1zm4 0h1v1H7v-1zm4 0h1v1h-1v-1zm4 0h1v1h-1v-1zm4 0h1v1h-1v-1zm4 0h1v1h-1v-1zm4 0h1v1h-1v-1zm4 0h1v1h-1v-1zm4 0h1v1h-1v-1zm4 0h1v1h-1v-1zm4 0h1v1h-1v-1zm4 0h1v1h-1v-1zm4 0h1v1h-1v-1zm4 0h1v1h-1v-1zm4 0h1v1h-1v-1zm4 0h1v1h-1v-1zm4 0h1v1h-1v-1zm4 0h1v1h-1v-1zm4 0h1v1h-1v-1zm4 0h1v1h-1v-1zm4 0h1v1h-1v-1zm4 0h1v1h-1v-1zm4 0h1v1h-1v-1zm4 0h1v1h-1v-1zM5 17h1v1H5v-1zm4 0h1v1H9v-1zm4 0h1v1h-1v-1zm4 0h1v1h-1v-1zm4 0h1v1h-1v-1zm4 0h1v1h-1v-1zm4 0h1v1h-1v-1zm4 0h1v1h-1v-1zm4 0h1v1h-1v-1zm4 0h1v1h-1v-1zm4 0h1v1h-1v-1zm4 0h1v1h-1v-1zm4 0h1v1h-1v-1zm4 0h1v1h-1v-1zm4 0h1v1h-1v-1zm4 0h1v1h-1v-1zm4 0h1v1h-1v-1zm4 0h1v1h-1v-1zm4 0h1v1h-1v-1zm4 0h1v1h-1v-1zm4 0h1v1h-1v-1zm4 0h1v1h-1v-1zm4 0h1v1h-1v-1zm4 0h1v1h-1v-1zM3 19h1v1H3v-1zm4 0h1v1H7v-1zm4 0h1v1h-1v-1zm4 0h1v1h-1v-1zm4 0h1v1h-1v-1zm4 0h1v1h-1v-1zm4 0h1v1h-1v-1zm4 0h1v1h-1v-1zm4 0h1v1h-1v-1zm4 0h1v1h-1v-1zm4 0h1v1h-1v-1zm4 0h1v1h-1v-1zm4 0h1v1h-1v-1zm4 0h1v1h-1v-1zm4 0h1v1h-1v-1zm4 0h1v1h-1v-1zm4 0h1v1h-1v-1zm4 0h1v1h-1v-1zm4 0h1v1h-1v-1zm4 0h1v1h-1v-1zm4 0h1v1h-1v-1zm4 0h1v1h-1v-1zm4 0h1v1h-1v-1zm4 0h1v1h-1v-1zM5 21h1v1H5v-1zm4 0h1v1H9v-1zm4 0h1v1h-1v-1zm4 0h1v1h-1v-1zm4 0h1v1h-1v-1zm4 0h1v1h-1v-1zm4 0h1v1h-1v-1zm4 0h1v1h-1v-1zm4 0h1v1h-1v-1zm4 0h1v1h-1v-1zm4 0h1v1h-1v-1zm4 0h1v1h-1v-1zm4 0h1v1h-1v-1zm4 0h1v1h-1v-1zm4 0h1v1h-1v-1zm4 0h1v1h-1v-1zm4 0h1v1h-1v-1zm4 0h1v1h-1v-1zm4 0h1v1h-1v-1zm4 0h1v1h-1v-1zm4 0h1v1h-1v-1zm4 0h1v1h-1v-1zm4 0h1v1h-1v-1zm4 0h1v1h-1v-1zM3 23h1v1H3v-1zm4 0h1v1H7v-1zm4 0h1v1h-1v-1zm4 0h1v1h-1v-1zm4 0h1v1h-1v-1zm4 0h1v1h-1v-1zm4 0h1v1h-1v-1zm4 0h1v1h-1v-1zm4 0h1v1h-1v-1zm4 0h1v1h-1v-1zm4 0h1v1h-1v-1zm4 0h1v1h-1v-1zm4 0h1v1h-1v-1zm4 0h1v1h-1v-1zm4 0h1v1h-1v-1zm4 0h1v1h-1v-1zm4 0h1v1h-1v-1zm4 0h1v1h-1v-1zm4 0h1v1h-1v-1zm4 0h1v1h-1v-1zm4 0h1v1h-1v-1zm4 0h1v1h-1v-1zm4 0h1v1h-1v-1zm4 0h1v1h-1v-1zM5 25h1v1H5v-1zm4 0h1v1H9v-1zm4 0h1v1h-1v-1zm4 0h1v1h-1v-1zm4 0h1v1h-1v-1zm4 0h1v1h-1v-1zm4 0h1v1h-1v-1zm4 0h1v1h-1v-1zm4 0h1v1h-1v-1zm4 0h1v1h-1v-1zm4 0h1v1h-1v-1zm4 0h1v1h-1v-1zm4 0h1v1h-1v-1zm4 0h1v1h-1v-1zm4 0h1v1h-1v-1zm4 0h1v1h-1v-1zm4 0h1v1h-1v-1zm4 0h1v1h-1v-1zm4 0h1v1h-1v-1zm4 0h1v1h-1v-1zm4 0h1v1h-1v-1zm4 0h1v1h-1v-1zm4 0h1v1h-1v-1zm4 0h1v1h-1v-1zM3 27h1v1H3v-1zm4 0h1v1H7v-1zm4 0h1v1h-1v-1zm4 0h1v1h-1v-1zm4 0h1v1h-1v-1zm4 0h1v1h-1v-1zm4 0h1v1h-1v-1zm4 0h1v1h-1v-1zm4 0h1v1h-1v-1zm4 0h1v1h-1v-1zm4 0h1v1h-1v-1zm4 0h1v1h-1v-1zm4 0h1v1h-1v-1zm4 0h1v1h-1v-1zm4 0h1v1h-1v-1zm4 0h1v1h-1v-1zm4 0h1v1h-1v-1zm4 0h1v1h-1v-1zm4 0h1v1h-1v-1zm4 0h1v1h-1v-1zm4 0h1v1h-1v-1zm4 0h1v1h-1v-1zm4 0h1v1h-1v-1zm4 0h1v1h-1v-1zM5 29h1v1H5v-1zm4 0h1v1H9v-1zm4 0h1v1h-1v-1zm4 0h1v1h-1v-1zm4 0h1v1h-1v-1zm4 0h1v1h-1v-1zm4 0h1v1h-1v-1zm4 0h1v1h-1v-1zm4 0h1v1h-1v-1zm4 0h1v1h-1v-1zm4 0h1v1h-1v-1zm4 0h1v1h-1v-1zm4 0h1v1h-1v-1zm4 0h1v1h-1v-1zm4 0h1v1h-1v-1zm4 0h1v1h-1v-1zm4 0h1v1h-1v-1zm4 0h1v1h-1v-1zm4 0h1v1h-1v-1zm4 0h1v1h-1v-1zm4 0h1v1h-1v-1zm4 0h1v1h-1v-1zm4 0h1v1h-1v-1zm4 0h1v1h-1v-1zM3 31h1v1H3v-1zm4 0h1v1H7v-1zm4 0h1v1h-1v-1zm4 0h1v1h-1v-1zm4 0h1v1h-1v-1zm4 0h1v1h-1v-1zm4 0h1v1h-1v-1zm4 0h1v1h-1v-1zm4 0h1v1h-1v-1zm4 0h1v1h-1v-1zm4 0h1v1h-1v-1zm4 0h1v1h-1v-1zm4 0h1v1h-1v-1zm4 0h1v1h-1v-1zm4 0h1v1h-1v-1zm4 0h1v1h-1v-1zm4 0h1v1h-1v-1zm4 0h1v1h-1v-1zm4 0h1v1h-1v-1zm4 0h1v1h-1v-1zm4 0h1v1h-1v-1zm4 0h1v1h-1v-1zm4 0h1v1h-1v-1zm4 0h1v1h-1v-1zM5 33h1v1H5v-1zm4 0h1v1H9v-1zm4 0h1v1h-1v-1zm4 0h1v1h-1v-1zm4 0h1v1h-1v-1zm4 0h1v1h-1v-1zm4 0h1v1h-1v-1zm4 0h1v1h-1v-1zm4 0h1v1h-1v-1zm4 0h1v1h-1v-1zm4 0h1v1h-1v-1zm4 0h1v1h-1v-1zm4 0h1v1h-1v-1zm4 0h1v1h-1v-1zm4 0h1v1h-1v-1zm4 0h1v1h-1v-1zm4 0h1v1h-1v-1zm4 0h1v1h-1v-1zm4 0h1v1h-1v-1zm4 0h1v1h-1v-1zm4 0h1v1h-1v-1zm4 0h1v1h-1v-1zm4 0h1v1h-1v-1zm4 0h1v1h-1v-1zM3 35h1v1H3v-1zm4 0h1v1H7v-1zm4 0h1v1h-1v-1zm4 0h1v1h-1v-1zm4 0h1v1h-1v-1zm4 0h1v1h-1v-1zm4 0h1v1h-1v-1zm4 0h1v1h-1v-1zm4 0h1v1h-1v-1zm4 0h1v1h-1v-1zm4 0h1v1h-1v-1zm4 0h1v1h-1v-1zm4 0h1v1h-1v-1zm4 0h1v1h-1v-1zm4 0h1v1h-1v-1zm4 0h1v1h-1v-1zm4 0h1v1h-1v-1zm4 0h1v1h-1v-1zm4 0h1v1h-1v-1zm4 0h1v1h-1v-1zm4 0h1v1h-1v-1zm4 0h1v1h-1v-1zm4 0h1v1h-1v-1zm4 0h1v1h-1v-1zM5 37h1v1H5v-1zm4 0h1v1H9v-1zm4 0h1v1h-1v-1zm4 0h1v1h-1v-1zm4 0h1v1h-1v-1zm4 0h1v1h-1v-1zm4 0h1v1h-1v-1zm4 0h1v1h-1v-1zm4 0h1v1h-1v-1zm4 0h1v1h-1v-1zm4 0h1v1h-1v-1zm4 0h1v1h-1v-1zm4 0h1v1h-1v-1zm4 0h1v1h-1v-1zm4 0h1v1h-1v-1zm4 0h1v1h-1v-1zm4 0h1v1h-1v-1zm4 0h1v1h-1v-1zm4 0h1v1h-1v-1zm4 0h1v1h-1v-1zm4 0h1v1h-1v-1zm4 0h1v1h-1v-1zm4 0h1v1h-1v-1zm4 0h1v1h-1v-1zM3 39h1v1H3v-1zm4 0h1v1H7v-1zm4 0h1v1h-1v-1zm4 0h1v1h-1v-1zm4 0h1v1h-1v-1zm4 0h1v1h-1v-1zm4 0h1v1h-1v-1zm4 0h1v1h-1v-1zm4 0h1v1h-1v-1zm4 0h1v1h-1v-1zm4 0h1v1h-1v-1zm4 0h1v1h-1v-1zm4 0h1v1h-1v-1zm4 0h1v1h-1v-1zm4 0h1v1h-1v-1zm4 0h1v1h-1v-1zm4 0h1v1h-1v-1zm4 0h1v1h-1v-1zm4 0h1v1h-1v-1zm4 0h1v1h-1v-1zm4 0h1v1h-1v-1zm4 0h1v1h-1v-1zm4 0h1v1h-1v-1zm4 0h1v1h-1v-1zM5 41h1v1H5v-1zm4 0h1v1H9v-1zm4 0h1v1h-1v-1zm4 0h1v1h-1v-1zm4 0h1v1h-1v-1zm4 0h1v1h-1v-1zm4 0h1v1h-1v-1zm4 0h1v1h-1v-1zm4 0h1v1h-1v-1zm4 0h1v1h-1v-1zm4 0h1v1h-1v-1zm4 0h1v1h-1v-1zm4 0h1v1h-1v-1zm4 0h1v1h-1v-1zm4 0h1v1h-1v-1zm4 0h1v1h-1v-1zm4 0h1v1h-1v-1zm4 0h1v1h-1v-1zm4 0h1v1h-1v-1zm4 0h1v1h-1v-1zm4 0h1v1h-1v-1zm4 0h1v1h-1v-1zm4 0h1v1h-1v-1zm4 0h1v1h-1v-1zM3 43h1v1H3v-1zm4 0h1v1H7v-1zm4 0h1v1h-1v-1zm4 0h1v1h-1v-1zm4 0h1v1h-1v-1zm4 0h1v1h-1v-1zm4 0h1v1h-1v-1zm4 0h1v1h-1v-1zm4 0h1v1h-1v-1zm4 0h1v1h-1v-1zm4 0h1v1h-1v-1zm4 0h1v1h-1v-1zm4 0h1v1h-1v-1zm4 0h1v1h-1v-1zm4 0h1v1h-1v-1zm4 0h1v1h-1v-1zm4 0h1v1h-1v-1zm4 0h1v1h-1v-1zm4 0h1v1h-1v-1zm4 0h1v1h-1v-1zm4 0h1v1h-1v-1zm4 0h1v1h-1v-1zm4 0h1v1h-1v-1zm4 0h1v1h-1v-1zM5 45h1v1H5v-1zm4 0h1v1H9v-1zm4 0h1v1h-1v-1zm4 0h1v1h-1v-1zm4 0h1v1h-1v-1zm4 0h1v1h-1v-1zm4 0h1v1h-1v-1zm4 0h1v1h-1v-1zm4 0h1v1h-1v-1zm4 0h1v1h-1v-1zm4 0h1v1h-1v-1zm4 0h1v1h-1v-1zm4 0h1v1h-1v-1zm4 0h1v1h-1v-1zm4 0h1v1h-1v-1zm4 0h1v1h-1v-1zm4 0h1v1h-1v-1zm4 0h1v1h-1v-1zm4 0h1v1h-1v-1zm4 0h1v1h-1v-1zm4 0h1v1h-1v-1zm4 0h1v1h-1v-1zm4 0h1v1h-1v-1zm4 0h1v1h-1v-1zM3 47h1v1H3v-1zm4 0h1v1H7v-1zm4 0h1v1h-1v-1zm4 0h1v1h-1v-1zm4 0h1v1h-1v-1zm4 0h1v1h-1v-1zm4 0h1v1h-1v-1zm4 0h1v1h-1v-1zm4 0h1v1h-1v-1zm4 0h1v1h-1v-1zm4 0h1v1h-1v-1zm4 0h1v1h-1v-1zm4 0h1v1h-1v-1zm4 0h1v1h-1v-1zm4 0h1v1h-1v-1zm4 0h1v1h-1v-1zm4 0h1v1h-1v-1zm4 0h1v1h-1v-1zm4 0h1v1h-1v-1zm4 0h1v1h-1v-1zm4 0h1v1h-1v-1zm4 0h1v1h-1v-1zm4 0h1v1h-1v-1zm4 0h1v1h-1v-1zM5 49h1v1H5v-1zm4 0h1v1H9v-1zm4 0h1v1h-1v-1zm4 0h1v1h-1v-1zm4 0h1v1h-1v-1zm4 0h1v1h-1v-1zm4 0h1v1h-1v-1zm4 0h1v1h-1v-1zm4 0h1v1h-1v-1zm4 0h1v1h-1v-1zm4 0h1v1h-1v-1zm4 0h1v1h-1v-1zm4 0h1v1h-1v-1zm4 0h1v1h-1v-1zm4 0h1v1h-1v-1zm4 0h1v1h-1v-1zm4 0h1v1h-1v-1zm4 0h1v1h-1v-1zm4 0h1v1h-1v-1zm4 0h1v1h-1v-1zm4 0h1v1h-1v-1zm4 0h1v1h-1v-1zm4 0h1v1h-1v-1zm4 0h1v1h-1v-1zM3 51h1v1H3v-1zm4 0h1v1H7v-1zm4 0h1v1h-1v-1zm4 0h1v1h-1v-1zm4 0h1v1h-1v-1zm4 0h1v1h-1v-1zm4 0h1v1h-1v-1zm4 0h1v1h-1v-1zm4 0h1v1h-1v-1zm4 0h1v1h-1v-1zm4 0h1v1h-1v-1zm4 0h1v1h-1v-1zm4 0h1v1h-1v-1zm4 0h1v1h-1v-1zm4 0h1v1h-1v-1zm4 0h1v1h-1v-1zm4 0h1v1h-1v-1zm4 0h1v1h-1v-1zm4 0h1v1h-1v-1zm4 0h1v1h-1v-1zm4 0h1v1h-1v-1zm4 0h1v1h-1v-1zm4 0h1v1h-1v-1zm4 0h1v1h-1v-1zM5 53h1v1H5v-1zm4 0h1v1H9v-1zm4 0h1v1h-1v-1zm4 0h1v1h-1v-1zm4 0h1v1h-1v-1zm4 0h1v1h-1v-1zm4 0h1v1h-1v-1zm4 0h1v1h-1v-1zm4 0h1v1h-1v-1zm4 0h1v1h-1v-1zm4 0h1v1h-1v-1zm4 0h1v1h-1v-1zm4 0h1v1h-1v-1zm4 0h1v1h-1v-1zm4 0h1v1h-1v-1zm4 0h1v1h-1v-1zm4 0h1v1h-1v-1zm4 0h1v1h-1v-1zm4 0h1v1h-1v-1zm4 0h1v1h-1v-1zm4 0h1v1h-1v-1zm4 0h1v1h-1v-1zm4 0h1v1h-1v-1zm4 0h1v1h-1v-1zM3 55h1v1H3v-1zm4 0h1v1H7v-1zm4 0h1v1h-1v-1zm4 0h1v1h-1v-1zm4 0h1v1h-1v-1zm4 0h1v1h-1v-1zm4 0h1v1h-1v-1zm4 0h1v1h-1v-1zm4 0h1v1h-1v-1zm4 0h1v1h-1v-1zm4 0h1v1h-1v-1zm4 0h1v1h-1v-1zm4 0h1v1h-1v-1zm4 0h1v1h-1v-1zm4 0h1v1h-1v-1zm4 0h1v1h-1v-1zm4 0h1v1h-1v-1zm4 0h1v1h-1v-1zm4 0h1v1h-1v-1zm4 0h1v1h-1v-1zm4 0h1v1h-1v-1zm4 0h1v1h-1v-1zm4 0h1v1h-1v-1zm4 0h1v1h-1v-1zM5 57h1v1H5v-1zm4 0h1v1H9v-1zm4 0h1v1h-1v-1zm4 0h1v1h-1v-1zm4 0h1v1h-1v-1zm4 0h1v1h-1v-1zm4 0h1v1h-1v-1zm4 0h1v1h-1v-1zm4 0h1v1h-1v-1zm4 0h1v1h-1v-1zm4 0h1v1h-1v-1zm4 0h1v1h-1v-1zm4 0h1v1h-1v-1zm4 0h1v1h-1v-1zm4 0h1v1h-1v-1zm4 0h1v1h-1v-1zm4 0h1v1h-1v-1zm4 0h1v1h-1v-1zm4 0h1v1h-1v-1zm4 0h1v1h-1v-1zm4 0h1v1h-1v-1zm4 0h1v1h-1v-1zm4 0h1v1h-1v-1zm4 0h1v1h-1v-1zM3 59h1v1H3v-1zm4 0h1v1H7v-1zm4 0h1v1h-1v-1zm4 0h1v1h-1v-1zm4 0h1v1h-1v-1zm4 0h1v1h-1v-1zm4 0h1v1h-1v-1zm4 0h1v1h-1v-1zm4 0h1v1h-1v-1zm4 0h1v1h-1v-1zm4 0h1v1h-1v-1zm4 0h1v1h-1v-1zm4 0h1v1h-1v-1zm4 0h1v1h-1v-1zm4 0h1v1h-1v-1zm4 0h1v1h-1v-1zm4 0h1v1h-1v-1zm4 0h1v1h-1v-1zm4 0h1v1h-1v-1zm4 0h1v1h-1v-1zm4 0h1v1h-1v-1zm4 0h1v1h-1v-1zm4 0h1v1h-1v-1zm4 0h1v1h-1v-1zM5 61h1v1H5v-1zm4 0h1v1H9v-1zm4 0h1v1h-1v-1zm4 0h1v1h-1v-1zm4 0h1v1h-1v-1zm4 0h1v1h-1v-1zm4 0h1v1h-1v-1zm4 0h1v1h-1v-1zm4 0h1v1h-1v-1zm4 0h1v1h-1v-1zm4 0h1v1h-1v-1zm4 0h1v1h-1v-1zm4 0h1v1h-1v-1zm4 0h1v1h-1v-1zm4 0h1v1h-1v-1zm4 0h1v1h-1v-1zm4 0h1v1h-1v-1zm4 0h1v1h-1v-1zm4 0h1v1h-1v-1zm4 0h1v1h-1v-1zm4 0h1v1h-1v-1zm4 0h1v1h-1v-1zm4 0h1v1h-1v-1zm4 0h1v1h-1v-1zM3 63h1v1H3v-1zm4 0h1v1H7v-1zm4 0h1v1h-1v-1zm4 0h1v1h-1v-1zm4 0h1v1h-1v-1zm4 0h1v1h-1v-1zm4 0h1v1h-1v-1zm4 0h1v1h-1v-1zm4 0h1v1h-1v-1zm4 0h1v1h-1v-1zm4 0h1v1h-1v-1zm4 0h1v1h-1v-1zm4 0h1v1h-1v-1zm4 0h1v1h-1v-1zm4 0h1v1h-1v-1zm4 0h1v1h-1v-1zm4 0h1v1h-1v-1zm4 0h1v1h-1v-1zm4 0h1v1h-1v-1zm4 0h1v1h-1v-1zm4 0h1v1h-1v-1zm4 0h1v1h-1v-1zm4 0h1v1h-1v-1zm4 0h1v1h-1v-1zM5 65h1v1H5v-1zm4 0h1v1H9v-1zm4 0h1v1h-1v-1zm4 0h1v1h-1v-1zm4 0h1v1h-1v-1zm4 0h1v1h-1v-1zm4 0h1v1h-1v-1zm4 0h1v1h-1v-1zm4 0h1v1h-1v-1zm4 0h1v1h-1v-1zm4 0h1v1h-1v-1zm4 0h1v1h-1v-1zm4 0h1v1h-1v-1zm4 0h1v1h-1v-1zm4 0h1v1h-1v-1zm4 0h1v1h-1v-1zm4 0h1v1h-1v-1zm4 0h1v1h-1v-1zm4 0h1v1h-1v-1zm4 0h1v1h-1v-1zm4 0h1v1h-1v-1zm4 0h1v1h-1v-1zm4 0h1v1h-1v-1zm4 0h1v1h-1v-1zM3 67h1v1H3v-1zm4 0h1v1H7v-1zm4 0h1v1h-1v-1zm4 0h1v1h-1v-1zm4 0h1v1h-1v-1zm4 0h1v1h-1v-1zm4 0h1v1h-1v-1zm4 0h1v1h-1v-1zm4 0h1v1h-1v-1zm4 0h1v1h-1v-1zm4 0h1v1h-1v-1zm4 0h1v1h-1v-1zm4 0h1v1h-1v-1zm4 0h1v1h-1v-1zm4 0h1v1h-1v-1zm4 0h1v1h-1v-1zm4 0h1v1h-1v-1zm4 0h1v1h-1v-1zm4 0h1v1h-1v-1zm4 0h1v1h-1v-1zm4 0h1v1h-1v-1zm4 0h1v1h-1v-1zm4 0h1v1h-1v-1zm4 0h1v1h-1v-1zM5 69h1v1H5v-1zm4 0h1v1H9v-1zm4 0h1v1h-1v-1zm4 0h1v1h-1v-1zm4 0h1v1h-1v-1zm4 0h1v1h-1v-1zm4 0h1v1h-1v-1zm4 0h1v1h-1v-1zm4 0h1v1h-1v-1zm4 0h1v1h-1v-1zm4 0h1v1h-1v-1zm4 0h1v1h-1v-1zm4 0h1v1h-1v-1zm4 0h1v1h-1v-1zm4 0h1v1h-1v-1zm4 0h1v1h-1v-1zm4 0h1v1h-1v-1zm4 0h1v1h-1v-1zm4 0h1v1h-1v-1zm4 0h1v1h-1v-1zm4 0h1v1h-1v-1zm4 0h1v1h-1v-1zm4 0h1v1h-1v-1zm4 0h1v1h-1v-1zM3 71h1v1H3v-1zm4 0h1v1H7v-1zm4 0h1v1h-1v-1zm4 0h1v1h-1v-1zm4 0h1v1h-1v-1zm4 0h1v1h-1v-1zm4 0h1v1h-1v-1zm4 0h1v1h-1v-1zm4 0h1v1h-1v-1zm4 0h1v1h-1v-1zm4 0h1v1h-1v-1zm4 0h1v1h-1v-1zm4 0h1v1h-1v-1zm4 0h1v1h-1v-1zm4 0h1v1h-1v-1zm4 0h1v1h-1v-1zm4 0h1v1h-1v-1zm4 0h1v1h-1v-1zm4 0h1v1h-1v-1zm4 0h1v1h-1v-1zm4 0h1v1h-1v-1zm4 0h1v1h-1v-1zm4 0h1v1h-1v-1zm4 0h1v1h-1v-1zM5 73h1v1H5v-1zm4 0h1v1H9v-1zm4 0h1v1h-1v-1zm4 0h1v1h-1v-1zm4 0h1v1h-1v-1zm4 0h1v1h-1v-1zm4 0h1v1h-1v-1zm4 0h1v1h-1v-1zm4 0h1v1h-1v-1zm4 0h1v1h-1v-1zm4 0h1v1h-1v-1zm4 0h1v1h-1v-1zm4 0h1v1h-1v-1zm4 0h1v1h-1v-1zm4 0h1v1h-1v-1zm4 0h1v1h-1v-1zm4 0h1v1h-1v-1zm4 0h1v1h-1v-1zm4 0h1v1h-1v-1zm4 0h1v1h-1v-1zm4 0h1v1h-1v-1zm4 0h1v1h-1v-1zm4 0h1v1h-1v-1zm4 0h1v1h-1v-1zM3 75h1v1H3v-1zm4 0h1v1H7v-1zm4 0h1v1h-1v-1zm4 0h1v1h-1v-1zm4 0h1v1h-1v-1zm4 0h1v1h-1v-1zm4 0h1v1h-1v-1zm4 0h1v1h-1v-1zm4 0h1v1h-1v-1zm4 0h1v1h-1v-1zm4 0h1v1h-1v-1zm4 0h1v1h-1v-1zm4 0h1v1h-1v-1zm4 0h1v1h-1v-1zm4 0h1v1h-1v-1zm4 0h1v1h-1v-1zm4 0h1v1h-1v-1zm4 0h1v1h-1v-1zm4 0h1v1h-1v-1zm4 0h1v1h-1v-1zm4 0h1v1h-1v-1zm4 0h1v1h-1v-1zm4 0h1v1h-1v-1zm4 0h1v1h-1v-1zM5 77h1v1H5v-1zm4 0h1v1H9v-1zm4 0h1v1h-1v-1zm4 0h1v1h-1v-1zm4 0h1v1h-1v-1zm4 0h1v1h-1v-1zm4 0h1v1h-1v-1zm4 0h1v1h-1v-1zm4 0h1v1h-1v-1zm4 0h1v1h-1v-1zm4 0h1v1h-1v-1zm4 0h1v1h-1v-1zm4 0h1v1h-1v-1zm4 0h1v1h-1v-1zm4 0h1v1h-1v-1zm4 0h1v1h-1v-1zm4 0h1v1h-1v-1zm4 0h1v1h-1v-1zm4 0h1v1h-1v-1zm4 0h1v1h-1v-1zm4 0h1v1h-1v-1zm4 0h1v1h-1v-1zm4 0h1v1h-1v-1zm4 0h1v1h-1v-1zM3 79h1v1H3v-1zm4 0h1v1H7v-1zm4 0h1v1h-1v-1zm4 0h1v1h-1v-1zm4 0h1v1h-1v-1zm4 0h1v1h-1v-1zm4 0h1v1h-1v-1zm4 0h1v1h-1v-1zm4 0h1v1h-1v-1zm4 0h1v1h-1v-1zm4 0h1v1h-1v-1zm4 0h1v1h-1v-1zm4 0h1v1h-1v-1zm4 0h1v1h-1v-1zm4 0h1v1h-1v-1zm4 0h1v1h-1v-1zm4 0h1v1h-1v-1zm4 0h1v1h-1v-1zm4 0h1v1h-1v-1zm4 0h1v1h-1v-1zm4 0h1v1h-1v-1zm4 0h1v1h-1v-1zm4 0h1v1h-1v-1zm4 0h1v1h-1v-1zM5 81h1v1H5v-1zm4 0h1v1H9v-1zm4 0h1v1h-1v-1zm4 0h1v1h-1v-1zm4 0h1v1h-1v-1zm4 0h1v1h-1v-1zm4 0h1v1h-1v-1zm4 0h1v1h-1v-1zm4 0h1v1h-1v-1zm4 0h1v1h-1v-1zm4 0h1v1h-1v-1zm4 0h1v1h-1v-1zm4 0h1v1h-1v-1zm4 0h1v1h-1v-1zm4 0h1v1h-1v-1zm4 0h1v1h-1v-1zm4 0h1v1h-1v-1zm4 0h1v1h-1v-1zm4 0h1v1h-1v-1zm4 0h1v1h-1v-1zm4 0h1v1h-1v-1zm4 0h1v1h-1v-1zm4 0h1v1h-1v-1zm4 0h1v1h-1v-1zM3 83h1v1H3v-1zm4 0h1v1H7v-1zm4 0h1v1h-1v-1zm4 0h1v1h-1v-1zm4 0h1v1h-1v-1zm4 0h1v1h-1v-1zm4 0h1v1h-1v-1zm4 0h1v1h-1v-1zm4 0h1v1h-1v-1zm4 0h1v1h-1v-1zm4 0h1v1h-1v-1zm4 0h1v1h-1v-1zm4 0h1v1h-1v-1zm4 0h1v1h-1v-1zm4 0h1v1h-1v-1zm4 0h1v1h-1v-1zm4 0h1v1h-1v-1zm4 0h1v1h-1v-1zm4 0h1v1h-1v-1zm4 0h1v1h-1v-1zm4 0h1v1h-1v-1zm4 0h1v1h-1v-1zm4 0h1v1h-1v-1zm4 0h1v1h-1v-1zM5 85h1v1H5v-1zm4 0h1v1H9v-1zm4 0h1v1h-1v-1zm4 0h1v1h-1v-1zm4 0h1v1h-1v-1zm4 0h1v1h-1v-1zm4 0h1v1h-1v-1zm4 0h1v1h-1v-1zm4 0h1v1h-1v-1zm4 0h1v1h-1v-1zm4 0h1v1h-1v-1zm4 0h1v1h-1v-1zm4 0h1v1h-1v-1zm4 0h1v1h-1v-1zm4 0h1v1h-1v-1zm4 0h1v1h-1v-1zm4 0h1v1h-1v-1zm4 0h1v1h-1v-1zm4 0h1v1h-1v-1zm4 0h1v1h-1v-1zm4 0h1v1h-1v-1zm4 0h1v1h-1v-1zm4 0h1v1h-1v-1zm4 0h1v1h-1v-1zM3 87h1v1H3v-1zm4 0h1v1H7v-1zm4 0h1v1h-1v-1zm4 0h1v1h-1v-1zm4 0h1v1h-1v-1zm4 0h1v1h-1v-1zm4 0h1v1h-1v-1zm4 0h1v1h-1v-1zm4 0h1v1h-1v-1zm4 0h1v1h-1v-1zm4 0h1v1h-1v-1zm4 0h1v1h-1v-1zm4 0h1v1h-1v-1zm4 0h1v1h-1v-1zm4 0h1v1h-1v-1zm4 0h1v1h-1v-1zm4 0h1v1h-1v-1zm4 0h1v1h-1v-1zm4 0h1v1h-1v-1zm4 0h1v1h-1v-1zm4 0h1v1h-1v-1zm4 0h1v1h-1v-1zm4 0h1v1h-1v-1zm4 0h1v1h-1v-1zM5 89h1v1H5v-1zm4 0h1v1H9v-1zm4 0h1v1h-1v-1zm4 0h1v1h-1v-1zm4 0h1v1h-1v-1zm4 0h1v1h-1v-1zm4 0h1v1h-1v-1zm4 0h1v1h-1v-1zm4 0h1v1h-1v-1zm4 0h1v1h-1v-1zm4 0h1v1h-1v-1zm4 0h1v1h-1v-1zm4 0h1v1h-1v-1zm4 0h1v1h-1v-1zm4 0h1v1h-1v-1zm4 0h1v1h-1v-1zm4 0h1v1h-1v-1zm4 0h1v1h-1v-1zm4 0h1v1h-1v-1zm4 0h1v1h-1v-1zm4 0h1v1h-1v-1zm4 0h1v1h-1v-1zm4 0h1v1h-1v-1zm4 0h1v1h-1v-1zM3 91h1v1H3v-1zm4 0h1v1H7v-1zm4 0h1v1h-1v-1zm4 0h1v1h-1v-1zm4 0h1v1h-1v-1zm4 0h1v1h-1v-1zm4 0h1v1h-1v-1zm4 0h1v1h-1v-1zm4 0h1v1h-1v-1zm4 0h1v1h-1v-1zm4 0h1v1h-1v-1zm4 0h1v1h-1v-1zm4 0h1v1h-1v-1zm4 0h1v1h-1v-1zm4 0h1v1h-1v-1zm4 0h1v1h-1v-1zm4 0h1v1h-1v-1zm4 0h1v1h-1v-1zm4 0h1v1h-1v-1zm4 0h1v1h-1v-1zm4 0h1v1h-1v-1zm4 0h1v1h-1v-1zm4 0h1v1h-1v-1zm4 0h1v1h-1v-1zM5 93h1v1H5v-1zm4 0h1v1H9v-1zm4 0h1v1h-1v-1zm4 0h1v1h-1v-1zm4 0h1v1h-1v-1zm4 0h1v1h-1v-1zm4 0h1v1h-1v-1zm4 0h1v1h-1v-1zm4 0h1v1h-1v-1zm4 0h1v1h-1v-1zm4 0h1v1h-1v-1zm4 0h1v1h-1v-1zm4 0h1v1h-1v-1zm4 0h1v1h-1v-1zm4 0h1v1h-1v-1zm4 0h1v1h-1v-1zm4 0h1v1h-1v-1zm4 0h1v1h-1v-1zm4 0h1v1h-1v-1zm4 0h1v1h-1v-1zm4 0h1v1h-1v-1zm4 0h1v1h-1v-1zm4 0h1v1h-1v-1zm4 0h1v1h-1v-1zM3 95h1v1H3v-1zm4 0h1v1H7v-1zm4 0h1v1h-1v-1zm4 0h1v1h-1v-1zm4 0h1v1h-1v-1zm4 0h1v1h-1v-1zm4 0h1v1h-1v-1zm4 0h1v1h-1v-1zm4 0h1v1h-1v-1zm4 0h1v1h-1v-1zm4 0h1v1h-1v-1zm4 0h1v1h-1v-1zm4 0h1v1h-1v-1zm4 0h1v1h-1v-1zm4 0h1v1h-1v-1zm4 0h1v1h-1v-1zm4 0h1v1h-1v-1zm4 0h1v1h-1v-1zm4 0h1v1h-1v-1zm4 0h1v1h-1v-1zm4 0h1v1h-1v-1zm4 0h1v1h-1v-1zm4 0h1v1h-1v-1zm4 0h1v1h-1v-1zM5 97h1v1H5v-1zm4 0h1v1H9v-1zm4 0h1v1h-1v-1zm4 0h1v1h-1v-1zm4 0h1v1h-1v-1zm4 0h1v1h-1v-1zm4 0h1v1h-1v-1zm4 0h1v1h-1v-1zm4 0h1v1h-1v-1zm4 0h1v1h-1v-1zm4 0h1v1h-1v-1zm4 0h1v1h-1v-1zm4 0h1v1h-1v-1zm4 0h1v1h-1v-1zm4 0h1v1h-1v-1zm4 0h1v1h-1v-1zm4 0h1v1h-1v-1zm4 0h1v1h-1v-1zm4 0h1v1h-1v-1zm4 0h1v1h-1v-1zm4 0h1v1h-1v-1zm4 0h1v1h-1v-1zm4 0h1v1h-1v-1zm4 0h1v1h-1v-1z"/></g></g></svg>