<svg width="100" height="100" xmlns="http://www.w3.org/2000/svg"><g fill="#565D66" fill-rule="nonzero"><path d="M4 4h7.087l-3.544 7.087zM14.63 25.26h7.086l-3.543 7.086zM35.89 25.26h7.086l-3.543 7.086zM25.26 4h7.086l-3.543 7.087zM46.519 4h7.087l-3.544 7.087zM57.149 25.26h7.086l-3.543 7.086zM78.408 25.26h7.087l-3.543 7.086zM67.779 4h7.086l-3.543 7.087zM4 46.519h7.087l-3.544 7.087zM14.63 67.779h7.086l-3.543 7.086zM35.89 67.779h7.086l-3.543 7.086zM25.26 46.519h7.086l-3.543 7.087zM46.519 46.519h7.087l-3.544 7.087zM57.149 67.779h7.086l-3.543 7.086zM78.408 67.779h7.087l-3.543 7.086zM67.779 46.519h7.086l-3.543 7.087zM4 89.038h7.087l-3.544 7.087zM25.26 89.038h7.086l-3.543 7.087zM46.519 89.038h7.087l-3.544 7.087zM67.779 89.038h7.086l-3.543 7.087zM89.33 4h7.086l-3.543 7.087zM89.33 46.519h7.086l-3.543 7.087zM89.33 89.038h7.086l-3.543 7.087z"/></g></svg>