<svg width="100" height="100" xmlns="http://www.w3.org/2000/svg"><g fill="#565D66" fill-rule="nonzero"><path d="M11.19 11.077c0-1.56-1.287-2.823-2.876-2.823C5.931 8.254 4 6.36 4 4.02h1.438c0 1.56 1.287 2.823 2.876 2.823 2.383 0 4.315 1.895 4.315 4.234 0 1.56 1.287 2.823 2.876 2.823 2.383 0 4.314 1.896 4.314 4.235 0 1.56 1.287 2.823 2.876 2.823v1.411c-2.383 0-4.314-1.895-4.314-4.234 0-1.56-1.287-2.823-2.876-2.823-2.383 0-4.315-1.896-4.315-4.235zM29.5 9.701l6.102 5.99-1.017.997-6.101-5.989 1.016-.998zM11.19 29.427c0-1.56-1.287-2.823-2.876-2.823C5.931 26.604 4 24.708 4 22.369h1.438c0 1.56 1.287 2.823 2.876 2.823 2.383 0 4.315 1.896 4.315 4.235 0 1.56 1.287 2.823 2.876 2.823 2.383 0 4.314 1.896 4.314 4.234 0 1.56 1.287 2.823 2.876 2.823v1.412c-2.383 0-4.314-1.896-4.314-4.235 0-1.56-1.287-2.823-2.876-2.823-2.383 0-4.315-1.895-4.315-4.234zM29.5 28.05l6.102 5.989-1.017.998-6.101-5.99 1.016-.997zM11.19 47.776c0-1.56-1.287-2.823-2.876-2.823C5.931 44.953 4 43.058 4 40.72h1.438c0 1.56 1.287 2.823 2.876 2.823 2.383 0 4.315 1.896 4.315 4.234 0 1.56 1.287 2.823 2.876 2.823 2.383 0 4.314 1.896 4.314 4.235 0 1.56 1.287 2.823 2.876 2.823v1.412c-2.383 0-4.314-1.896-4.314-4.235 0-1.56-1.287-2.823-2.876-2.823-2.383 0-4.315-1.896-4.315-4.235zM29.5 46.4l6.102 5.99-1.017.997-6.101-5.989L29.5 46.4zM11.19 66.126c0-1.56-1.287-2.823-2.876-2.823C5.931 63.303 4 61.407 4 59.07h1.438c0 1.56 1.287 2.823 2.876 2.823 2.383 0 4.315 1.895 4.315 4.234 0 1.56 1.287 2.823 2.876 2.823 2.383 0 4.314 1.896 4.314 4.235 0 1.56 1.287 2.823 2.876 2.823v1.411c-2.383 0-4.314-1.896-4.314-4.234 0-1.56-1.287-2.823-2.876-2.823-2.383 0-4.315-1.896-4.315-4.235zM29.5 64.75l6.102 5.989-1.017.998-6.101-5.99 1.016-.997zM11.19 85.495c0-1.56-1.287-2.823-2.876-2.823C5.931 82.672 4 80.776 4 78.438h1.438c0 1.56 1.287 2.823 2.876 2.823 2.383 0 4.315 1.895 4.315 4.234 0 1.56 1.287 2.823 2.876 2.823 2.383 0 4.314 1.896 4.314 4.235 0 1.56 1.287 2.823 2.876 2.823v1.411c-2.383 0-4.314-1.896-4.314-4.234 0-1.56-1.287-2.823-2.876-2.823-2.383 0-4.315-1.896-4.315-4.235zM29.5 84.12l6.102 5.989-1.017.998-6.101-5.99 1.016-.997zM47.89 29.427c0-1.56-1.287-2.823-2.877-2.823-2.382 0-4.314-1.896-4.314-4.235h1.438c0 1.56 1.287 2.823 2.876 2.823 2.383 0 4.315 1.896 4.315 4.235 0 1.56 1.287 2.823 2.876 2.823 2.383 0 4.314 1.896 4.314 4.234 0 1.56 1.287 2.823 2.876 2.823v1.412c-2.383 0-4.314-1.896-4.314-4.235 0-1.56-1.287-2.823-2.876-2.823-2.383 0-4.314-1.895-4.314-4.234zM66.2 28.05L72.3 34.04l-1.017.998-6.101-5.99 1.016-.997zM47.89 47.776c0-1.56-1.287-2.823-2.877-2.823-2.382 0-4.314-1.895-4.314-4.234h1.438c0 1.56 1.287 2.823 2.876 2.823 2.383 0 4.315 1.896 4.315 4.234 0 1.56 1.287 2.823 2.876 2.823 2.383 0 4.314 1.896 4.314 4.235 0 1.56 1.287 2.823 2.876 2.823v1.412c-2.383 0-4.314-1.896-4.314-4.235 0-1.56-1.287-2.823-2.876-2.823-2.383 0-4.314-1.896-4.314-4.235zM66.2 46.4l6.101 5.99-1.017.997-6.101-5.989 1.016-.998zM47.89 66.126c0-1.56-1.287-2.823-2.877-2.823-2.382 0-4.314-1.896-4.314-4.234h1.438c0 1.56 1.287 2.823 2.876 2.823 2.383 0 4.315 1.895 4.315 4.234 0 1.56 1.287 2.823 2.876 2.823 2.383 0 4.314 1.896 4.314 4.235 0 1.56 1.287 2.823 2.876 2.823v1.411c-2.383 0-4.314-1.896-4.314-4.234 0-1.56-1.287-2.823-2.876-2.823-2.383 0-4.314-1.896-4.314-4.235zM66.2 64.75l6.101 5.989-1.017.998-6.101-5.99 1.016-.997zM47.89 85.495c0-1.56-1.287-2.823-2.877-2.823-2.382 0-4.314-1.896-4.314-4.234h1.438c0 1.56 1.287 2.823 2.876 2.823 2.383 0 4.315 1.895 4.315 4.234 0 1.56 1.287 2.823 2.876 2.823 2.383 0 4.314 1.896 4.314 4.235 0 1.56 1.287 2.823 2.876 2.823v1.411c-2.383 0-4.314-1.896-4.314-4.234 0-1.56-1.287-2.823-2.876-2.823-2.383 0-4.314-1.896-4.314-4.235zM66.2 84.12l6.101 5.989-1.017.998-6.101-5.99 1.016-.997zM47.89 11.077c0-1.56-1.287-2.823-2.877-2.823-2.382 0-4.314-1.895-4.314-4.234h1.438c0 1.56 1.287 2.823 2.876 2.823 2.383 0 4.315 1.895 4.315 4.234 0 1.56 1.287 2.823 2.876 2.823 2.383 0 4.314 1.896 4.314 4.235 0 1.56 1.287 2.823 2.876 2.823v1.411c-2.383 0-4.314-1.895-4.314-4.234 0-1.56-1.287-2.823-2.876-2.823-2.383 0-4.314-1.896-4.314-4.235zM66.2 9.701l6.101 5.99-1.017.997-6.101-5.989 1.016-.998zM84.886 29.407c0-1.56-1.287-2.823-2.876-2.823-2.383 0-4.315-1.896-4.315-4.234h1.438c0 1.56 1.287 2.823 2.877 2.823 2.382 0 4.314 1.895 4.314 4.234 0 1.56 1.287 2.823 2.876 2.823 2.383 0 4.314 1.896 4.314 4.235 0 1.56 1.287 2.823 2.876 2.823v1.411c-2.382 0-4.314-1.895-4.314-4.234 0-1.56-1.287-2.823-2.876-2.823-2.383 0-4.314-1.896-4.314-4.235zm18.31-1.376l6.101 5.989-1.016.998-6.102-5.99 1.016-.997zM84.886 47.757c0-1.56-1.287-2.823-2.876-2.823-2.383 0-4.315-1.896-4.315-4.235h1.438c0 1.56 1.287 2.823 2.877 2.823 2.382 0 4.314 1.896 4.314 4.235 0 1.56 1.287 2.823 2.876 2.823 2.383 0 4.314 1.895 4.314 4.234 0 1.56 1.287 2.823 2.876 2.823v1.412c-2.382 0-4.314-1.896-4.314-4.235 0-1.56-1.287-2.823-2.876-2.823-2.383 0-4.314-1.895-4.314-4.234zm18.31-1.377l6.101 5.99-1.016.997-6.102-5.989 1.016-.998zM84.886 66.106c0-1.56-1.287-2.823-2.876-2.823-2.383 0-4.315-1.895-4.315-4.234h1.438c0 1.56 1.287 2.823 2.877 2.823 2.382 0 4.314 1.895 4.314 4.234 0 1.56 1.287 2.823 2.876 2.823 2.383 0 4.314 1.896 4.314 4.235 0 1.56 1.287 2.823 2.876 2.823v1.411c-2.382 0-4.314-1.895-4.314-4.234 0-1.56-1.287-2.823-2.876-2.823-2.383 0-4.314-1.896-4.314-4.235zm18.31-1.376l6.101 5.99-1.016.997-6.102-5.989 1.016-.998zM84.886 85.475c0-1.56-1.287-2.823-2.876-2.823-2.383 0-4.315-1.895-4.315-4.234h1.438c0 1.56 1.287 2.823 2.877 2.823 2.382 0 4.314 1.895 4.314 4.234 0 1.56 1.287 2.823 2.876 2.823 2.383 0 4.314 1.896 4.314 4.235 0 1.56 1.287 2.823 2.876 2.823v1.411c-2.382 0-4.314-1.895-4.314-4.234 0-1.56-1.287-2.823-2.876-2.823-2.383 0-4.314-1.896-4.314-4.235zm18.31-1.376l6.101 5.99-1.016.997-6.102-5.989 1.016-.998zM84.886 11.058c0-1.56-1.287-2.823-2.876-2.823-2.383 0-4.315-1.896-4.315-4.235h1.438c0 1.56 1.287 2.823 2.877 2.823 2.382 0 4.314 1.896 4.314 4.235 0 1.56 1.287 2.823 2.876 2.823 2.383 0 4.314 1.895 4.314 4.234 0 1.56 1.287 2.823 2.876 2.823v1.412c-2.382 0-4.314-1.896-4.314-4.235 0-1.56-1.287-2.823-2.876-2.823-2.383 0-4.314-1.896-4.314-4.234zm18.31-1.377l6.101 5.99-1.016.997-6.102-5.989 1.016-.998z"/></g></svg>